<svg width="48" height="48" viewBox="0 0 48 48" fill="none" xmlns="http://www.w3.org/2000/svg">
<circle cx="24" cy="24" r="24" fill="#F2FFFB"/>
<mask id="mask0_5396_63948" style="mask-type:alpha" maskUnits="userSpaceOnUse" x="0" y="0" width="48" height="48">
<circle cx="24" cy="24" r="24" fill="#D9D9D9"/>
</mask>
<g mask="url(#mask0_5396_63948)">
<path d="M32.4838 35.4015C32.3433 35.4015 32.1982 35.3922 32.0578 35.3688L14.1743 32.8361C12.5452 32.6067 11.4122 31.1133 11.6463 29.4888C11.8804 27.8736 13.3879 26.7454 15.017 26.9795L32.9004 29.5122C34.5296 29.7416 35.6625 31.235 35.4285 32.8595C35.2178 34.3341 33.9397 35.4015 32.4838 35.4015Z" fill="#20DFFF"/>
<path d="M35.0432 22.6639C34.9028 22.6639 34.7576 22.6545 34.6172 22.6311L16.7338 20.1546C15.1046 19.9345 13.9717 18.4692 14.2057 16.8915C14.4398 15.3139 15.952 14.209 17.5764 14.4384L35.4599 16.9149C37.089 17.135 38.222 18.6003 37.9879 20.1873C37.7772 21.6246 36.4992 22.6732 35.0432 22.6732V22.6639Z" fill="#FF00DF"/>
<path d="M35.0259 22.6654C34.2628 22.6654 33.4997 22.3845 32.9098 21.8087L22.6573 11.7996C21.4916 10.662 21.4916 8.80812 22.6573 7.66583C23.823 6.52822 25.719 6.52822 26.8847 7.66583L37.1466 17.6843C38.3123 18.8219 38.3123 20.6758 37.1466 21.8181C36.5614 22.3939 35.7937 22.6748 35.0306 22.6748L35.0212 22.6654H35.0259Z" fill="url(#paint0_linear_5396_63948)"/>
<path d="M32.4705 35.4026C31.7121 35.4026 30.949 35.117 30.3638 34.5412L15.0459 19.4292C13.8849 18.2823 13.8849 16.419 15.0459 15.272C16.2069 14.1251 18.0982 14.1251 19.2592 15.272L34.5819 30.384C35.7429 31.531 35.7429 33.3942 34.5819 34.5412C33.9967 35.117 33.2383 35.4026 32.4752 35.4026H32.4705Z" fill="url(#paint1_linear_5396_63948)"/>
<path d="M24.8538 42.8032C24.0908 42.8032 23.3277 42.5224 22.7378 41.9465L12.4759 31.9374C11.3102 30.7998 11.3102 28.9459 12.4759 27.8036C13.6416 26.666 15.5423 26.666 16.708 27.8036L26.9699 37.8221C28.1356 38.9597 28.1356 40.8136 26.9699 41.9559C26.38 42.5317 25.6169 42.8126 24.8538 42.8126V42.8032Z" fill="url(#paint2_linear_5396_63948)"/>
</g>
<defs>
<linearGradient id="paint0_linear_5396_63948" x1="21.7818" y1="14.7443" x2="38.0221" y2="14.7443" gradientUnits="userSpaceOnUse">
<stop stop-color="#20DFFF"/>
<stop offset="1" stop-color="#FF00DF"/>
</linearGradient>
<linearGradient id="paint1_linear_5396_63948" x1="35.448" y1="24.9066" x2="14.1751" y2="24.9066" gradientUnits="userSpaceOnUse">
<stop stop-color="#FFCF20"/>
<stop offset="1" stop-color="#FF00DF"/>
</linearGradient>
<linearGradient id="paint2_linear_5396_63948" x1="11.6051" y1="34.8774" x2="27.8453" y2="34.8774" gradientUnits="userSpaceOnUse">
<stop stop-color="#20DFFF"/>
<stop offset="1" stop-color="#00FFAF"/>
</linearGradient>
</defs>
</svg>
