<svg width="42" height="42" viewBox="0 0 42 42" fill="none" xmlns="http://www.w3.org/2000/svg">
<circle cx="20.2717" cy="20.7092" r="15.5061" fill="#FF00DF"/>
<path d="M30.79 9.51758C33.8616 12.3508 35.7861 16.4088 35.7861 20.917C35.7861 29.4807 28.844 36.4228 20.2803 36.4229C15.2119 36.4229 10.7122 33.9909 7.88281 30.2305C10.6459 32.7788 14.3364 34.3369 18.3916 34.3369C26.9552 34.3368 33.8973 27.3946 33.8975 18.8311C33.8975 15.336 32.741 12.1108 30.79 9.51758Z" fill="#CC00B2"/>
<circle cx="20.2717" cy="20.7092" r="15.5061" stroke="#002066" stroke-width="0.939763"/>
<circle cx="20.2728" cy="20.7084" r="10.058" fill="white"/>
<circle cx="20.2712" cy="20.7087" r="5.029" fill="#FF00DF"/>
<path d="M32.4799 7.76275C32.7578 7.56079 33.1493 7.74499 33.1709 8.08791L33.3531 10.9839C33.3637 11.1523 33.4706 11.2995 33.6275 11.3616L36.3255 12.4298C36.6449 12.5563 36.6991 12.9855 36.4212 13.1875L32.062 16.3546C31.9583 16.43 31.8267 16.4558 31.7022 16.4253L27.9909 15.5162C27.7841 15.4656 27.6443 15.2731 27.66 15.0608L27.9422 11.2502C27.9517 11.1224 28.017 11.0052 28.1207 10.9299L32.4799 7.76275Z" fill="#FFECA6" stroke="#002066" stroke-width="0.939763" stroke-linejoin="round"/>
<path d="M33.1786 11.4012C33.2993 11.3135 33.4565 11.2936 33.5952 11.3486L36.3275 12.4304C36.6469 12.5568 36.7011 12.986 36.4232 13.188L32.064 16.3552C31.9603 16.4305 31.8287 16.4564 31.7042 16.4259L28.5473 15.6526C28.1869 15.5643 28.0947 15.0949 28.3948 14.8768L33.1786 11.4012Z" fill="#FFCF20" stroke="#002066" stroke-width="0.939763" stroke-linejoin="round"/>
<path d="M33.381 11.2734L20.5898 20.8126" stroke="#002066" stroke-width="0.867198" stroke-linecap="round"/>
</svg>
