<svg width="156" height="200" viewBox="0 0 156 200" fill="none" xmlns="http://www.w3.org/2000/svg">
<g clip-path="url(#clip0_5418_7221)">
<rect width="156" height="200" fill="#F2F6FF"/>
<path d="M140.782 71.5118C141.44 76.6629 143.729 81.4229 147.129 85.3563C149.596 88.2096 151.089 91.9118 150.996 95.6852C150.907 99.2141 149.436 102.61 147.12 105.267C143.694 109.192 141.614 114.125 141.054 119.308C140.827 121.401 140.16 123.503 139.196 125.325C134.845 133.53 125.36 138.401 116.165 138.068C110.747 137.872 105.405 139.37 100.867 142.334C95.7957 145.645 89.7734 147.521 83.7112 147.53C78.4712 147.539 73.2622 146.156 68.6622 143.654C62.8844 140.512 56.1688 139.423 49.8044 141.063C46.8799 141.814 43.8399 142.05 40.8443 141.645C34.2265 140.752 27.9954 136.552 25.2665 130.463C24.3198 128.352 23.8487 126.028 23.8398 123.712C23.8132 117.01 21.0354 110.667 16.4665 105.761C12.9331 101.965 10.782 96.8941 11.0176 91.7163C11.3109 85.3607 15.1687 79.4985 20.5154 76.1207C25.3954 73.0362 29.0443 68.3562 31.0221 62.9295C33.3376 56.5828 38.9866 51.2095 45.6355 49.4272C51.6088 47.8228 57.9333 48.7117 63.6 51.2673C70.4978 54.3784 78.4089 54.645 85.2712 51.4539C90.0312 49.245 95.1068 47.9072 100.329 48.005C106.231 48.1161 112.24 50.5028 116.489 54.4939C120.489 58.2539 125.605 60.694 131.04 61.454C133.831 61.8451 136.485 63.1651 138.276 65.3562C139.72 67.1206 140.502 69.3207 140.782 71.5118Z" fill="#CCDCFF"/>
<path d="M39.7709 74.0517C64.5964 69.403 90.1601 68.7307 115.205 72.158C118.114 72.5534 120.394 74.8383 120.838 77.7382C122.666 89.6325 123.703 101.76 121.757 113.496C121.242 116.589 118.611 118.9 115.478 119.014C110.034 119.217 104.559 118.869 99.1236 117.841C98.2273 117.67 97.309 117.67 96.4214 117.863C86.8383 119.942 77.2904 122.297 67.5579 123.474C58.6383 124.551 49.4727 124.612 40.7508 122.244C38.4308 121.616 36.6381 119.77 36.0493 117.437C32.9209 105.051 32.3145 92.0359 34.4763 79.4211C34.9421 76.7013 37.0643 74.5614 39.7753 74.0517H39.7709Z" fill="#DBF7FF" stroke="black" stroke-width="0.937576" stroke-linecap="round" stroke-linejoin="round"/>
<path d="M54.3937 118.5C55.1582 119.731 62.5883 121.954 63.4671 121.897C63.533 122.103 59.3368 137.535 59.3368 137.535C63.1859 133.066 81.5655 119.01 81.5655 119.01C81.482 119.362 90.0677 151.125 90.0677 151.125L51.9112 158.775C49.6219 158.604 47.4118 157.408 46.0629 155.55C44.4855 153.379 43.6946 149.974 44.7184 147.491C44.7184 147.491 48.1456 131.73 54.3937 118.5Z" fill="#9CCDD5" stroke="black" stroke-width="0.937576" stroke-miterlimit="10"/>
<path d="M60.431 121.655C59.5523 121.712 58.6559 121.589 57.8255 121.29C56.459 120.802 55.1584 119.73 54.3938 118.5C54.3894 118.491 54.3719 118.513 54.3411 118.566C53.9632 117.085 53.9149 115.521 54.3411 114.075C55.009 111.826 55.4088 110.363 56.3008 108.341C56.7402 107.348 57.2762 106.114 57.988 105.121C57.6453 111.263 59.0689 117.336 60.431 121.655Z" fill="#FFBA8C" stroke="black" stroke-width="0.937576" stroke-linecap="round" stroke-linejoin="round"/>
<path d="M58.3308 119.01C59.0294 117.186 58.8932 115.064 57.9661 113.346" stroke="black" stroke-width="0.937576" stroke-linecap="round" stroke-linejoin="round"/>
<path d="M75.067 107.331C74.4431 106.944 73.7269 107.076 73.1557 108.021C71.8727 110.147 73.0019 112.757 70.1898 113.706C69.456 111.769 68.5904 109.739 68.0016 107.972C67.1448 105.393 66.5956 103.521 65.2335 100.138C64.6315 99.6459 63.4452 100.134 63.1859 100.696C63.1684 100.736 63.1552 100.802 63.1508 100.885C61.7447 100.195 61.1604 101.408 61.0637 101.773C61.0593 101.79 61.0593 101.812 61.0593 101.838C60.7561 101.693 60.3651 101.724 60.0707 101.9C59.6928 102.133 59.4028 102.546 59.3633 102.99C59.3545 103.086 59.3501 103.196 59.3413 103.319C59.1084 103.31 58.8799 103.359 58.6778 103.469C58.3395 103.658 58.0978 104.005 58.0363 104.387C58.0187 104.633 58.0011 104.879 57.988 105.121C57.6452 111.263 59.0689 117.336 60.431 121.655C60.5408 122.006 60.6507 122.345 60.7605 122.67L59.9916 124.854L59.974 124.898L59.3369 126.704L69.2978 127.569L69.4648 126.392L69.7987 123.988C71.9869 122.771 74.0301 120.359 74.3728 119.287C75.8272 114.752 75.5064 107.599 75.067 107.331Z" fill="#FFBA8C" stroke="black" stroke-width="0.937576" stroke-linecap="round" stroke-linejoin="round"/>
<path d="M59.9257 111.347C59.3853 106.812 59.2798 104.053 59.3677 102.99" stroke="black" stroke-width="0.937576" stroke-linecap="round" stroke-linejoin="round"/>
<path d="M64.4953 109.484C63.9724 106.311 62.9267 101.267 63.1859 100.696" stroke="black" stroke-width="0.937576" stroke-linecap="round" stroke-linejoin="round"/>
<path d="M61.8765 110.468C61.3844 107.093 60.9626 102.146 61.0637 101.772" stroke="black" stroke-width="0.937576" stroke-linecap="round" stroke-linejoin="round"/>
<path d="M59.9257 111.347C59.3853 106.812 59.2798 104.053 59.3677 102.99" stroke="black" stroke-width="0.937576" stroke-linecap="round" stroke-linejoin="round"/>
<path d="M61.8765 110.468C61.3844 107.093 60.9626 102.146 61.0637 101.772" stroke="black" stroke-width="0.937576" stroke-linecap="round" stroke-linejoin="round"/>
<path d="M95.604 105.371C96.0039 103.935 96.6981 101.267 96.9441 98.1742C97.5241 90.8627 95.6084 81.1786 81.4117 79.7638C73.907 79.0168 67.6457 81.9915 65.0093 86.8731C64.4513 87.9056 64.0559 89.0261 63.845 90.2168C63.7703 90.6562 63.7175 91.1044 63.6912 91.5614C63.555 94.0922 64.2316 96.5924 64.9083 99.0354L64.9566 99.3342C60.5935 105.96 61.2526 107.757 61.4327 108.008C61.6129 108.258 61.8897 108.425 62.1621 108.566C63.2254 109.106 64.4118 109.361 65.5806 109.611C66.556 113.28 68.4805 117.125 69.8997 118.54C70.8269 119.467 75.5239 118.632 79.7684 116.215H79.8124C79.8256 116.347 81.1305 120.425 81.5611 121.897H81.5655C85.0455 118.412 90.2083 114.01 96.9617 112.279C96.4389 111.417 96.0258 110.561 95.7534 109.677C95.336 108.342 95.2481 106.944 95.604 105.371Z" fill="#FFBA8C" stroke="black" stroke-width="0.937576" stroke-linecap="round" stroke-linejoin="round"/>
<path d="M97.6385 106.817C98.6139 107.305 99.7871 107.379 100.837 106.914C99.563 106.224 97.5286 103.979 97.6253 102.379C97.722 100.863 97.8186 99.488 97.9021 98.2357C98.4074 90.8452 98.5217 87.6332 95.6217 84.7289C92.6207 81.7322 87.3568 80.1285 85.5201 73.7881C84.6238 74.8119 84.1844 76.2223 84.2195 77.87C82.9321 76.3234 81.0779 75.26 79.0963 74.9305C77.3739 74.6449 75.6119 74.8953 73.8983 75.2161C72.1803 75.5325 70.4623 75.9191 68.7179 75.9015C66.9735 75.8884 65.1632 75.4226 63.7616 74.1704C64.1351 76.1125 65.585 77.8041 67.5052 78.5071C64.5701 78.5027 61.6481 77.5185 59.2798 75.7741C58.9634 78.6785 60.4046 81.7015 63.0322 83.503C61.2702 83.7842 59.4072 83.4151 57.7727 82.4748C57.8474 84.3115 58.546 86.113 59.7192 87.5234C60.7869 88.8064 62.2457 89.7511 63.8451 90.2168C64.056 89.0261 64.4514 87.9057 65.0094 86.8731H65.0182C68.1555 85.4275 71.9298 85.4363 75.0627 86.8951C74.9968 89.3864 75.5768 91.9085 76.684 94.1713C77.1673 95.1688 77.7693 96.131 78.5997 96.8648C79.4302 97.5986 80.5199 98.0863 81.6271 98.0292C82.2511 100.644 84.0657 102.783 86.065 104.537C86.4253 104.853 86.7944 105.16 87.1722 105.45C87.7171 107.327 87.3787 109.449 86.1485 111.092C87.9939 110.679 89.6021 109.326 90.3446 107.59C91.0696 107.999 91.821 108.364 92.5899 108.684C93.6137 109.106 94.6726 109.44 95.7535 109.677C97.1991 109.989 98.6842 110.121 100.165 110.038V109.937C98.9523 109.229 97.9856 108.113 97.6385 106.817Z" fill="#B3795A" stroke="black" stroke-width="0.937576" stroke-linecap="round" stroke-linejoin="round"/>
<path d="M79.8037 98.4642C79.9136 97.3174 80.3134 96.1706 81.0823 95.3138C81.8513 94.457 83.02 93.9209 84.1625 94.0703C85.5246 94.2505 86.645 95.3885 87.0229 96.7111C87.4007 98.0336 87.1239 99.4748 86.4912 100.696C85.8585 101.918 84.905 102.937 83.89 103.86" fill="#FFBA8C"/>
<path d="M79.8037 98.4642C79.9136 97.3174 80.3134 96.1706 81.0823 95.3138C81.8513 94.457 83.02 93.9209 84.1625 94.0703C85.5246 94.2505 86.645 95.3885 87.0229 96.7111C87.4007 98.0336 87.1239 99.4748 86.4912 100.696C85.8585 101.918 84.905 102.937 83.89 103.86" stroke="black" stroke-width="0.937576" stroke-linecap="round" stroke-linejoin="round"/>
<path d="M66.4551 98.7454C66.7934 99.5495 67.5404 100.165 68.3972 100.336C69.254 100.507 70.1811 100.235 70.805 99.6286C71.429 99.0222 71.7277 98.0951 71.574 97.2383" stroke="black" stroke-width="0.937576" stroke-linecap="round" stroke-linejoin="round"/>
<path d="M68.3313 111.035C69.7989 110.574 71.0204 109.392 71.5257 107.942" stroke="black" stroke-width="0.937576" stroke-linecap="round" stroke-linejoin="round"/>
<path d="M65.7827 91.9966C66.7845 92.3042 67.861 92.3613 68.8936 92.1679" stroke="black" stroke-width="0.937576" stroke-linecap="round" stroke-linejoin="round"/>
<path d="M80.6472 122.824C86.4647 118.834 92.9457 116.58 100.002 116.426" stroke="black" stroke-width="0.937576" stroke-linecap="round" stroke-linejoin="round"/>
<path d="M69.4166 136.74C73.2437 131.115 76.8335 126.625 81.5657 121.893C85.0457 118.413 90.2085 114.01 96.9619 112.279C97.665 113.386 98.7503 114.854 99.7169 116.062C104.445 121.981 108.105 126.33 110.816 133.967C114.01 142.975 113.066 153.34 111.87 165.955H75.8537C75.8537 165.955 76.2799 163.274 76.3019 163.222C74.4784 162.62 73.481 162.246 72.3781 160.695C68.0589 164.575 64.4471 165.818 61.5472 166.275C58.3616 166.776 54.3939 165.142 52.9176 162.273C52.3859 161.236 52.0608 160.027 51.9114 158.775C51.718 157.132 51.8279 155.418 52.175 153.929C54.1654 145.466 59.337 126.704 59.337 126.704L69.298 127.57L69.4166 136.74Z" fill="#CEF4FA" stroke="black" stroke-width="0.937576" stroke-linecap="round" stroke-linejoin="round"/>
<path d="M62.6238 150.361C64.6757 144.917 66.4596 141.758 69.4167 136.74Z" fill="#FFE787"/>
<path d="M62.6238 150.361C64.6757 144.917 66.4596 141.758 69.4167 136.74" stroke="black" stroke-width="0.937576" stroke-miterlimit="10" stroke-linecap="round"/>
<path d="M100.161 109.937C98.9523 109.229 97.9856 108.113 97.6341 106.817C98.6095 107.305 99.7827 107.375 100.833 106.909C99.5586 106.219 97.5242 103.974 97.6209 102.379C98.2712 91.948 99.0094 88.121 95.6129 84.7289C92.6163 81.7322 87.3524 80.1285 85.5113 73.7881C84.615 74.8119 84.1756 76.2223 84.2107 77.87C82.9233 76.3234 81.0735 75.26 79.0875 74.9305C77.3651 74.6449 75.6031 74.8953 73.8895 75.2161C72.1759 75.5369 70.4535 75.9191 68.7091 75.9059C66.9647 75.8928 65.1544 75.4226 63.7528 74.1747C64.1263 76.1125 65.5763 77.8085 67.492 78.5115C64.5569 78.5115 61.6349 77.5185 59.271 75.7785C58.9547 78.6829 60.3959 81.7103 63.0234 83.5074C61.2571 83.7886 59.3984 83.4195 57.7639 82.4792C57.8386 84.3158 58.5328 86.1173 59.7104 87.5322" stroke="black" stroke-width="0.937576" stroke-linecap="round" stroke-linejoin="round"/>
<path d="M87.0404 105.042C87.7654 107.015 87.4666 109.33 86.1484 111.092C88.1477 110.644 89.8657 109.093 90.516 107.151" stroke="black" stroke-width="0.937576" stroke-linecap="round" stroke-linejoin="round"/>
<path d="M100.947 100.863C98.3809 95.5554 97.8492 89.2897 99.4837 83.626" stroke="black" stroke-width="0.937576" stroke-linecap="round" stroke-linejoin="round"/>
<path d="M52.8603 108.842C54.0818 104.826 53.9676 100.419 52.5396 96.4692" stroke="black" stroke-width="0.937576" stroke-linecap="round" stroke-linejoin="round"/>
<path d="M61.5077 101.158C60.6816 99.545 59.7677 97.9763 58.7659 96.4648" stroke="black" stroke-width="0.937576" stroke-linecap="round" stroke-linejoin="round"/>
<path d="M39.5557 120.262L40.2675 120.218" stroke="black" stroke-width="0.937576" stroke-linecap="round" stroke-linejoin="round"/>
<path d="M38.1318 118.421L38.1538 117.437" stroke="black" stroke-width="0.937576" stroke-linecap="round" stroke-linejoin="round"/>
<path d="M114.559 113.869C116.55 112.859 118.127 111.062 118.861 108.953" stroke="black" stroke-width="0.937576" stroke-linecap="round" stroke-linejoin="round"/>
<path d="M16 149.903C36.7634 149.25 57.3366 145.905 78.0171 143.944C98.6976 141.984 119.807 141.443 140 146.319V206.503H16V149.898V149.903Z" fill="#F2F2F2" stroke="black" stroke-width="0.937576" stroke-linecap="round" stroke-linejoin="round"/>
<path d="M128.906 170.423C128.433 175.07 127.156 179.634 125.142 183.847" stroke="black" stroke-width="0.937576" stroke-linecap="round" stroke-linejoin="round"/>
<path d="M131.876 183.643L130.491 187.266" stroke="black" stroke-width="0.937576" stroke-linecap="round" stroke-linejoin="round"/>
<path d="M30.7849 156.452C29.8633 161.353 30.3119 166.507 32.0625 171.174" stroke="black" stroke-width="0.937576" stroke-linecap="round" stroke-linejoin="round"/>
<path d="M24.8262 166.688C24.9042 169.35 25.2992 172.008 26.0014 174.577" stroke="black" stroke-width="0.937576" stroke-linecap="round" stroke-linejoin="round"/>
<path d="M74.311 184.935C85.2389 175.802 94.5819 164.781 101.809 152.507" stroke="black" stroke-width="0.937576" stroke-linecap="round" stroke-linejoin="round"/>
</g>
<rect x="0.5" y="0.5" width="155" height="199" stroke="#CCDCFF"/>
<defs>
<clipPath id="clip0_5418_7221">
<rect width="156" height="200" fill="white"/>
</clipPath>
</defs>
</svg>
