<svg width="156" height="200" viewBox="0 0 156 200" fill="none" xmlns="http://www.w3.org/2000/svg">
<g clip-path="url(#clip0_5418_7268)">
<rect width="156" height="200" fill="#F2F6FF"/>
<path opacity="0.6" d="M-11.7259 117.734C-11.7259 117.734 -35.4551 195.855 33.7813 234.096C55.0709 245.854 111.286 253.789 152.194 212.219C165.919 198.272 182.715 160.542 153.182 138.432C130.115 121.159 103.249 134.259 92.3071 129.902C73.5058 122.413 71.419 110.961 69.8608 106.484C57.9853 72.4493 5.43097 65.609 -11.7259 117.734Z" fill="#CCDCFF"/>
<g clip-path="url(#clip1_5418_7268)">
<path d="M13.5454 126.093C13.5454 141.896 20.1925 157.052 32.0243 168.226C43.8561 179.4 59.9034 185.678 76.6362 185.678C93.3689 185.678 109.416 179.4 121.248 168.226C133.08 157.052 139.727 141.896 139.727 126.093C139.727 110.289 133.08 95.1336 121.248 83.9591C109.416 72.7846 93.3689 66.5068 76.6362 66.5068C59.9034 66.5068 43.8561 72.7846 32.0243 83.9591C20.1925 95.1336 13.5454 110.289 13.5454 126.093V126.093Z" fill="#E5F5FF" stroke="#002066" stroke-width="1.15909" stroke-linecap="round" stroke-linejoin="round"/>
<path d="M33.8149 126.235C33.8149 136.998 38.3423 147.321 46.401 154.932C54.4597 162.543 65.3897 166.819 76.7865 166.819C88.1832 166.819 99.1132 162.543 107.172 154.932C115.231 147.321 119.758 136.998 119.758 126.235C119.758 115.471 115.231 105.148 107.172 97.5372C99.1132 89.9262 88.1832 85.6504 76.7865 85.6504C65.3897 85.6504 54.4597 89.9262 46.401 97.5372C38.3423 105.148 33.8149 115.471 33.8149 126.235V126.235Z" fill="#F2FAFF"/>
<path fill-rule="evenodd" clip-rule="evenodd" d="M73.6819 166.716C84.0706 166.085 93.9006 161.907 101.306 154.913C109.365 147.302 113.892 136.98 113.892 126.216C113.892 115.452 109.365 105.13 101.306 97.5187C93.9006 90.5247 84.0706 86.347 73.6819 85.7156C74.5984 85.6599 75.5193 85.6318 76.4432 85.6318C87.84 85.6318 98.7699 89.9077 106.829 97.5187C114.887 105.13 119.415 115.452 119.415 126.216C119.415 136.98 114.887 147.302 106.829 154.913C98.7699 162.524 87.84 166.8 76.4432 166.8C75.5193 166.8 74.5984 166.772 73.6819 166.716Z" fill="#CCECFF"/>
<path d="M33.8149 126.235C33.8149 136.998 38.3423 147.321 46.401 154.932C54.4597 162.543 65.3897 166.819 76.7865 166.819C88.1832 166.819 99.1132 162.543 107.172 154.932C115.231 147.321 119.758 136.998 119.758 126.235C119.758 115.471 115.231 105.148 107.172 97.5372C99.1132 89.9262 88.1832 85.6504 76.7865 85.6504C65.3897 85.6504 54.4597 89.9262 46.401 97.5372C38.3423 105.148 33.8149 115.471 33.8149 126.235V126.235Z" stroke="#002066" stroke-width="1.15909" stroke-linecap="round" stroke-linejoin="round"/>
<path d="M122.577 90.325C124.622 85.8423 123.257 81.3814 120.263 78.6398C117.263 75.8931 112.635 74.8848 108.267 77.2778C107.738 77.5673 107.133 77.6888 106.512 77.6306C102.242 77.2303 99.5441 78.6765 97.8793 80.6238C96.2428 82.5378 95.6414 84.8896 95.4189 86.2885C95.3527 86.7044 94.9778 87.0317 94.4654 87.0537C92.484 87.1375 91.1675 88.4453 90.3061 89.9919C89.4409 91.5456 88.9579 93.4659 88.6862 95.0595L88.6208 95.4424L88.9803 95.6432C92.9198 97.8413 94.355 100.2 96.3622 102.988L96.8506 103.666L97.3433 103.015C97.6892 102.558 97.9822 102.156 98.3114 101.638L98.7092 101.037C100.71 98.131 102.866 96.7338 104.808 96.1252C106.888 95.4735 108.791 95.704 110.109 96.0586L110.11 96.0594C111.355 96.3942 112.672 95.9491 113.39 94.9597C115.31 92.3137 118.388 90.691 122.049 90.654L122.428 90.6499L122.577 90.325Z" fill="#00CC8C" stroke="#002066" stroke-width="1.15909"/>
<path d="M95.5766 98.5972C99.912 91.7804 104.829 90.192 107.623 90.9438C108.62 91.2118 109.677 90.8567 110.255 90.0601C112.063 87.5692 114.85 85.9354 118.171 85.5864C118.984 85.5008 119.653 84.9238 120.077 84.2936C120.926 82.6924 120.741 80.908 119.613 78.8259C122.595 81.3838 124.026 85.7097 122.027 90.0922C118.171 90.1312 114.917 91.8454 112.893 94.6355C112.315 95.432 111.257 95.7872 110.26 95.5191C107.467 94.7672 102.132 94.5237 97.7964 101.34C97.4781 101.841 97.1951 102.23 96.8538 102.682C96.1342 101.682 95.4778 100.721 94.7417 99.7944C95.0356 99.4023 95.2932 99.0429 95.5766 98.5972Z" fill="#009969"/>
<path d="M91.5498 99.3276C91.4582 99.1217 91.3661 98.914 91.2732 98.7019C91.277 98.6989 91.281 98.6953 91.2848 98.6922C91.3758 98.9058 91.4641 99.1175 91.5498 99.3276Z" fill="#00CC8C"/>
<path d="M100.502 85.7853C96.8814 87.8656 88.5095 93.3337 83.9896 98.5645" stroke="#99FFDF" stroke-width="1.15909" stroke-linecap="round" stroke-linejoin="round"/>
<path d="M129.273 97.9698C128.949 94.4997 126.049 92.159 122.486 91.3237C118.912 90.4859 114.535 91.1096 110.937 93.6526C110.342 94.0733 109.55 94.1495 109 93.9044C105.309 92.2574 101.811 92.97 99.0584 94.2091C96.3313 95.4369 94.2172 97.246 93.3812 97.8183L93.028 98.0608L93.172 98.4677C94.7533 102.935 96.0712 105.483 94.4228 109.978L94.2386 110.481L94.7436 110.706C96.3075 111.402 98.3868 112.178 100.419 112.471C102.435 112.762 104.546 112.598 106.009 111.232L106.16 111.11C106.53 110.855 107.003 110.8 107.335 110.933L107.336 110.933C108.601 111.443 110.851 112.139 113.405 111.963C115.981 111.786 118.836 110.722 121.262 107.757C121.619 107.322 122.119 106.971 122.718 106.75C123.764 106.365 125.516 105.573 126.951 104.183C128.4 102.781 129.533 100.759 129.274 97.9707L129.273 97.9698Z" fill="#00CC8C" stroke="#002066" stroke-width="1.15909"/>
<path d="M104.47 107.694C104.998 107.206 105.8 107.037 106.421 107.283L106.421 107.283C108.865 108.253 115.052 109.9 119.717 104.26C120.144 103.744 120.733 103.338 121.422 103.085C123.422 102.351 127.986 100.116 127.66 95.1305C128.264 95.9686 128.649 96.9397 128.749 98.0255C129.22 103.158 124.552 105.444 122.524 106.188C121.836 106.44 121.246 106.847 120.819 107.363C116.154 113.003 109.967 111.356 107.523 110.386L107.523 110.386C106.902 110.14 106.1 110.309 105.572 110.797C103.016 113.161 98.0124 111.556 94.9228 110.2C95.2419 109.343 95.4543 108.552 95.5806 107.804C98.5746 108.891 102.357 109.648 104.47 107.694Z" fill="#009969"/>
<path d="M109.145 100.017C105.003 101.119 94.9827 103.253 88.0357 102.972" stroke="#99FFDF" stroke-width="1.15909" stroke-linecap="round" stroke-linejoin="round"/>
<path d="M33.6801 168.955C29.0645 166.768 27.0589 162.52 27.4847 158.585C27.9111 154.645 30.7741 151.068 35.7307 150.248C36.3387 150.148 36.8888 149.871 37.3257 149.448C40.3185 146.549 43.3605 146.02 45.9516 146.497C48.5032 146.966 50.5645 148.399 51.689 149.336C52.0257 149.616 52.5488 149.641 52.9655 149.34L53.2624 149.143C54.765 148.233 56.5244 148.445 58.1288 149.064C59.8478 149.727 61.525 150.902 62.8192 151.957L63.1403 152.22L62.9958 152.609C61.4803 156.68 61.9883 159.351 62.3516 162.706L62.4406 163.527L61.6376 163.332C61.0617 163.193 60.5644 163.062 59.9605 162.866C56.0819 161.608 53.2486 161.831 51.2136 162.596C49.1718 163.363 47.8702 164.7 47.1038 165.771C46.3791 166.784 45.0781 167.237 43.8677 166.919C40.587 166.058 37.1154 166.689 34.2838 168.888L34.0021 169.108L33.6801 168.955Z" fill="#00CC8C" stroke="#002066" stroke-width="1.15909"/>
<path d="M59.9697 158.866C52.0065 156.283 47.1608 158.056 45.5343 160.329C44.954 161.14 43.9023 161.511 42.9172 161.253C39.8364 160.445 36.5897 160.888 33.81 162.639C33.1291 163.068 32.224 163.033 31.4703 162.808C29.7295 162.098 28.6553 160.62 28.0997 158.341C27.5602 162.111 29.4124 166.292 33.9288 168.431C36.9068 166.118 40.5651 165.453 44.0156 166.358C45.0006 166.616 46.0525 166.245 46.6328 165.434C48.2591 163.161 52.1766 159.732 60.1398 162.315C60.7244 162.505 61.2061 162.631 61.775 162.769C61.6448 161.566 61.4927 160.432 61.4246 159.275C60.9325 159.154 60.4903 159.035 59.9697 158.866Z" fill="#009969"/>
<path d="M63.5493 156.975C63.4788 156.762 63.4074 156.547 63.3338 156.328C63.3288 156.328 63.3233 156.328 63.3183 156.328C63.3945 156.547 63.4714 156.762 63.5493 156.975Z" fill="#00CC8C"/>
<path d="M36.7695 156.917C40.8996 156.215 50.8792 155.099 57.7567 156.245" stroke="#99FFDF" stroke-width="1.15909" stroke-linecap="round" stroke-linejoin="round"/>
<path d="M33.7476 178.864C31.6329 176.013 32.2561 172.459 34.4146 169.654C36.58 166.84 40.3573 164.657 44.8449 164.417C45.5856 164.378 46.2423 163.955 46.4958 163.434C48.1992 159.929 51.363 158.349 54.3148 157.624C57.2396 156.906 60.0919 157.006 61.1212 156.936L61.5573 156.907L61.7236 157.304C63.5569 161.684 64.2842 164.437 68.6092 166.876L69.0911 167.148L68.8584 167.626C68.1356 169.109 67.0724 170.967 65.7165 172.427C64.3719 173.875 62.6431 175.032 60.592 174.876C60.0555 174.835 59.5616 175.105 59.3755 175.452L59.3746 175.452C58.7531 176.612 57.5057 178.513 55.4311 179.93C53.3378 181.361 50.4254 182.28 46.5478 181.486C45.9789 181.37 45.3564 181.406 44.7489 181.601C43.6853 181.942 41.8042 182.399 39.7589 182.208C37.6929 182.015 35.4479 181.155 33.7476 178.864Z" fill="#00CC8C" stroke="#002066" stroke-width="1.15909"/>
<path d="M59.3589 171.231C58.6222 171.178 57.8931 171.537 57.5856 172.103L57.5857 172.103C56.376 174.33 52.7621 179.352 45.3482 177.869C44.6699 177.734 43.9419 177.781 43.243 178.006C41.2116 178.66 36.1956 179.723 33.0481 175.709C33.1569 176.717 33.5234 177.695 34.1867 178.587C37.3242 182.801 42.4538 181.714 44.5135 181.051C45.2125 180.826 45.9404 180.779 46.6187 180.914C54.0326 182.397 57.6465 177.375 58.8563 175.148L58.8561 175.148C59.1637 174.582 59.8927 174.223 60.6294 174.276C64.1973 174.533 66.9335 170.263 68.3742 167.347C67.546 166.885 66.8445 166.409 66.2379 165.913C64.687 168.565 62.3074 171.443 59.3589 171.231Z" fill="#009969"/>
<path d="M39.373 173.456C43.2526 171.634 52.2959 166.819 57.4327 162.134" stroke="#99FFDF" stroke-width="1.15909" stroke-linecap="round" stroke-linejoin="round"/>
<path d="M64.6121 69.6892C65.3791 64.8559 69.0258 61.7625 73.0746 60.9303C77.1302 60.0967 81.6377 61.5305 84.0273 65.7663C84.3087 66.2649 84.7475 66.665 85.3053 66.9239C89.1622 68.7135 90.6601 71.2982 90.9894 73.8001C91.3119 76.2504 90.5059 78.5515 89.9148 79.8484C89.7412 80.2295 89.8755 80.6694 90.2797 80.9313L90.4307 81.034C91.9587 82.1137 92.3196 83.8463 92.1914 85.5385C92.0585 87.293 91.3952 89.1659 90.7364 90.6542L90.5875 90.9916L90.1998 90.984C85.6144 90.8889 83.0684 92.1828 79.807 93.5512L79.02 93.8814L78.9625 93.0459C78.924 92.4847 78.8995 91.9964 78.9089 91.3915C78.969 87.5292 77.8681 85.074 76.4805 83.5014C75.0848 81.9198 73.3432 81.1678 72.0221 80.8117C70.7773 80.4758 69.8866 79.4318 69.8282 78.2092L69.8098 77.9114C69.5686 74.8399 67.8806 72.0637 64.8965 70.2719L64.5526 70.0652L64.6121 69.6892Z" fill="#00CC8C" stroke="#002066" stroke-width="1.15909"/>
<path d="M82.9199 90.1958C83.0437 82.2447 79.7536 78.446 76.9599 77.6928C75.9634 77.424 75.2629 76.5953 75.2168 75.6307C75.0723 72.614 73.6167 69.8375 70.9903 67.8867C70.3471 67.4088 70.1012 66.5854 70.0931 65.8389C70.2661 64.0556 71.4198 62.6318 73.5406 61.4246C69.5787 62.1124 65.9472 65.0748 65.1983 69.794C68.4524 71.748 70.259 74.825 70.4207 78.2038C70.4667 79.1683 71.1672 79.9972 72.1638 80.266C74.9573 81.019 79.6257 83.4696 79.502 91.4207C79.4929 92.0044 79.516 92.4759 79.5538 93.0296C80.7233 92.5389 81.8175 92.0497 82.9606 91.6289C82.9299 91.1494 82.9117 90.7157 82.9199 90.1958Z" fill="#009969"/>
<path d="M85.9345 92.825C86.1271 92.6959 86.3211 92.5653 86.5183 92.4315C86.5166 92.4268 86.515 92.4215 86.5133 92.4168C86.317 92.553 86.1242 92.689 85.9345 92.825Z" fill="#00CC8C"/>
<path d="M72.3442 72.761C74.3554 76.4669 78.6792 85.5856 79.8847 92.4132" stroke="#99FFDF" stroke-width="1.15909" stroke-linecap="round" stroke-linejoin="round"/>
<path d="M54.6396 72.8586C56.8334 70.0971 60.5828 69.542 64.0885 70.6108C67.601 71.6819 70.9833 74.4012 72.6248 78.3671C72.8887 79.005 73.5046 79.4561 74.1025 79.521C78.1651 79.9612 80.7489 82.3165 82.4018 84.7498C84.0362 87.1561 84.8249 89.7543 85.2132 90.6515L85.3792 91.0355L85.0448 91.2975C81.2079 94.3041 78.6529 95.8214 77.5405 100.472L77.4233 100.96L76.8983 100.902C75.1814 100.714 72.9793 100.338 71.0855 99.5734C69.2085 98.8157 67.4895 97.6158 67.0044 95.7084C66.8822 95.2287 66.4713 94.8806 66.0732 94.8226C64.7143 94.6253 62.4083 94.0963 60.33 92.6701C58.2295 91.2286 56.3929 88.8895 55.986 85.1547C55.9268 84.6118 55.6992 84.0706 55.3193 83.5921C54.6432 82.7407 53.5943 81.1892 53.1493 79.2877C52.6993 77.3648 52.8707 75.0867 54.6388 72.8592L54.6396 72.8586Z" fill="#00CC8C" stroke="#002066" stroke-width="1.15909"/>
<path d="M70.2849 93.4935C70.1092 92.8157 69.5219 92.2727 68.8568 92.1725L68.8569 92.1727C66.2389 91.7794 60.0622 90.0964 59.2491 82.9805C59.1746 82.3295 58.9007 81.6908 58.4569 81.1333C57.1673 79.5132 54.5383 75.3411 57.5994 71.2677C56.6183 71.6789 55.7485 72.3119 55.0572 73.1845C51.791 77.3112 54.48 81.5777 55.7876 83.2205C56.2314 83.7779 56.5053 84.4166 56.5798 85.0676C57.393 92.1835 63.5697 93.8665 66.1876 94.2598L66.1875 94.2597C66.8526 94.3598 67.4399 94.9028 67.6156 95.5806C68.467 98.8629 73.6141 99.9918 76.9964 100.379C77.2039 99.4915 77.4653 98.7136 77.7759 98.0149C74.6251 97.4471 70.9884 96.206 70.2849 93.4935Z" fill="#009969"/>
<path d="M57.6214 80.3303C60.5591 83.4512 67.9472 90.5494 73.9974 93.975" stroke="#99FFDF" stroke-width="1.15909" stroke-linecap="round" stroke-linejoin="round"/>
<path d="M25.8853 97.4559C23.0583 93.372 23.5899 88.7517 26.0474 85.5598C28.5091 82.3626 32.8869 80.6254 37.6162 82.2733C38.1923 82.474 38.8134 82.496 39.4156 82.338C43.5474 81.2533 46.4629 82.2408 48.4526 83.8864C50.4103 85.5057 51.4293 87.7244 51.9026 89.0673C52.0438 89.4679 52.4777 89.7338 52.9925 89.6719L53.3546 89.6427C55.1433 89.5696 56.5543 90.5923 57.6124 91.8896C58.7461 93.2796 59.5703 95.0927 60.1272 96.6191L60.2634 96.9915L59.9381 97.253C56.4582 100.054 55.4741 102.608 54.0023 105.679L53.6432 106.429L53.0466 105.873C52.6231 105.479 52.2618 105.13 51.8439 104.674C49.1622 101.746 46.5971 100.595 44.4347 100.29C42.2646 99.9838 40.4297 100.52 39.1961 101.083C38.0303 101.614 36.6582 101.389 35.7763 100.535C33.4018 98.2356 30.07 97.1338 26.4542 97.6901L26.0866 97.7465L25.8853 97.4559Z" fill="#00CC8C" stroke="#002066" stroke-width="1.15909"/>
<path d="M53.9841 101.228C48.476 95.214 43.3438 94.4447 40.7275 95.6376C39.7941 96.063 38.6874 95.8844 37.9735 95.1931C35.7408 93.0315 32.6983 91.873 29.3633 92.0666C28.5464 92.1139 27.7828 91.6536 27.251 91.1013C26.1241 89.6612 25.9826 87.8733 26.7157 85.6395C24.2421 88.6422 23.6173 93.1356 26.3822 97.1297C30.1881 96.5441 33.7044 97.7065 36.205 100.128C36.9187 100.819 38.0256 100.998 38.959 100.572C41.5751 99.3792 46.7868 98.2759 52.2949 104.29C52.6993 104.732 53.0487 105.069 53.4669 105.459C53.9944 104.358 54.4668 103.305 55.0239 102.273C54.6632 101.934 54.3442 101.622 53.9841 101.228Z" fill="#009969"/>
<path d="M58.0838 101.294C58.1368 101.077 58.1898 100.857 58.243 100.633C58.2387 100.631 58.2341 100.628 58.2299 100.626C58.1789 100.851 58.1302 101.074 58.0838 101.294Z" fill="#00CC8C"/>
<path d="M34.4961 90.7363C38.4278 92.1615 47.631 96.1033 52.9908 100.469" stroke="#99FFDF" stroke-width="1.15909" stroke-linecap="round" stroke-linejoin="round"/>
<path d="M20.6738 106.061C20.3633 102.584 22.7997 99.8076 26.1563 98.409C29.5246 97.0056 33.948 96.9122 37.9515 98.8345C38.6163 99.1538 39.4136 99.1001 39.9112 98.7692C43.2483 96.5496 46.8216 96.6858 49.7565 97.4607C52.6656 98.2288 55.0756 99.669 56.0038 100.098L56.396 100.279L56.3274 100.706C55.9506 103.054 55.5559 104.866 55.5595 106.662C55.5631 108.416 55.951 110.146 57.1814 112.245L57.458 112.715L56.9965 113.021C55.582 113.96 53.6747 115.061 51.7261 115.679C49.7935 116.292 47.6867 116.47 46.0003 115.363C45.5573 115.073 44.9858 115.071 44.638 115.281L44.6336 115.283C42.347 116.683 36.2402 119.5 30.3422 114.409C29.9117 114.037 29.3538 113.772 28.7232 113.651C27.6231 113.441 25.7542 112.944 24.0891 111.808C22.4079 110.661 20.9241 108.852 20.6738 106.061Z" fill="#00CC8C" stroke="#002066" stroke-width="1.15909"/>
<path d="M46.8719 111.624C46.2633 111.228 45.4423 111.192 44.8752 111.535L44.8754 111.535C42.6437 112.886 36.8465 115.51 31.2272 110.708C30.713 110.269 30.0586 109.964 29.3346 109.827C27.2306 109.427 22.329 107.964 21.7454 102.999C21.3025 103.923 21.0989 104.942 21.1974 106.028C21.6654 111.161 26.6783 112.657 28.8117 113.062C29.5357 113.199 30.1902 113.504 30.7043 113.943C36.3236 118.745 42.1208 116.121 44.3525 114.77L44.3523 114.77C44.9194 114.427 45.7404 114.464 46.349 114.859C49.2966 116.775 53.9348 114.384 56.7325 112.548C56.2627 111.755 55.9099 111.01 55.6496 110.293C52.8972 111.849 49.3078 113.207 46.8719 111.624Z" fill="#009969"/>
<path d="M28.4372 106.221C32.7068 106.597 42.9449 106.982 49.741 105.515" stroke="#99FFDF" stroke-width="1.15909" stroke-linecap="round" stroke-linejoin="round"/>
<path d="M96.4169 158.025C95.9299 157.518 95.4726 156.987 95.0471 156.433C90.9296 151.038 90.2952 143.939 93.397 137.968C96.4988 131.998 102.832 128.128 109.869 127.902C114.388 127.849 118.811 126.673 122.694 124.491L122.805 124.396C126.371 122.313 131.002 122.926 133.824 125.855C136.645 128.784 136.854 133.197 134.322 136.352L134.221 136.475C131.584 139.756 129.947 143.656 129.488 147.752C128.71 154.813 123.615 160.784 116.474 163.002C109.334 165.22 101.48 163.271 96.4169 158.025Z" fill="#00CC8C" stroke="#002066" stroke-width="1.15909" stroke-linejoin="round"/>
<path d="M132.356 135.677L132.453 135.558C134.415 133.106 134.249 129.681 132.057 127.408C129.868 125.136 126.277 124.659 123.508 126.271L123.401 126.364C119.387 128.607 114.823 129.821 110.16 129.885C101.175 130.172 94.0176 137.082 93.9098 145.572C93.802 154.062 100.782 161.132 109.757 161.623C118.732 162.114 126.53 155.853 127.461 147.407C127.93 143.149 129.622 139.092 132.356 135.677Z" fill="#FFCF20"/>
<path d="M132.343 127.721C134.545 130.004 134.712 133.445 132.741 135.909L132.643 136.028C129.897 139.459 128.196 143.535 127.725 147.814C126.79 156.298 118.956 162.588 109.939 162.094C104.061 161.773 99.0363 158.642 96.2793 154.138C99.1717 157.691 103.618 160.071 108.703 160.349C117.72 160.842 125.554 154.553 126.489 146.068C126.96 141.79 128.66 137.714 131.407 134.283L131.504 134.163C133.036 132.249 133.276 129.746 132.275 127.653C132.298 127.676 132.321 127.698 132.343 127.721Z" fill="#CCA61A"/>
<path d="M111.744 154.158C116.773 153.428 120.223 148.987 119.45 144.238C118.678 139.489 113.975 136.23 108.947 136.96C103.918 137.689 100.468 142.131 101.241 146.88C102.013 151.629 106.716 154.888 111.744 154.158Z" fill="#997C13"/>
<path d="M113.229 137.481C114.989 138.119 116.56 139.27 117.661 140.88C120.421 144.917 119.193 150.302 114.919 152.908C111.318 155.105 106.704 154.626 103.689 152.007C106.34 152.968 109.424 152.762 111.992 151.196C116.266 148.59 117.494 143.204 114.734 139.168C114.299 138.533 113.792 137.97 113.229 137.481Z" fill="#66530D"/>
<path d="M103.713 151.758C107.137 155.312 112.963 155.573 116.726 152.339C120.489 149.106 120.765 143.604 117.342 140.049C113.918 136.495 108.092 136.235 104.329 139.468C100.565 142.701 100.29 148.204 103.713 151.758Z" stroke="#002066" stroke-width="1.15909"/>
<path d="M104.458 146.505C103.935 143.291 106.27 140.286 109.672 139.792" stroke="white" stroke-width="1.73864" stroke-linecap="round"/>
<path d="M81.1806 103.489C76.9079 106.564 55.3538 124.419 50.0287 119.382C47.9502 117.324 47.3398 114.307 48.4684 111.671C52.5779 100.533 67.047 80.8273 72.6986 75.5326C83.8186 65.0375 101.841 65.0433 112.954 75.5454C124.066 86.0476 124.06 103.069 112.94 113.564C110.219 116.134 103.987 120.624 96.9379 125.036L94.8424 126.33L93.2276 127.298C86.6689 131.205 79.8108 134.752 74.649 136.448C71.8573 137.514 68.6634 136.938 66.4846 134.975C61.1959 129.937 80.092 109.555 83.3578 105.545L81.1806 103.489Z" fill="#FFF2F5"/>
<path d="M109.448 78.85C104.869 74.5253 98.6595 72.0957 92.1844 72.0957C85.7092 72.0957 79.4993 74.5253 74.9211 78.85C69.4782 83.9906 56.0069 102.565 52.3148 112.564C50.827 116.59 54.4647 119.906 60.198 117.224C68.7162 113.24 81.235 101.486 83.3577 103.516C85.4805 105.547 73.0343 117.344 68.8432 125.389C66.0038 130.804 69.5145 134.24 73.7781 132.835C84.3647 129.347 103.987 116.667 109.475 111.484C114.059 107.156 116.632 101.283 116.626 95.1617C116.621 89.04 114.039 83.1715 109.448 78.85Z" fill="#FF00DF"/>
<path d="M109.448 78.85C104.869 74.5253 98.6595 72.0957 92.1844 72.0957C85.7092 72.0957 79.4993 74.5253 74.9211 78.85C69.4782 83.9906 56.0069 102.565 52.3148 112.564C50.827 116.59 54.4647 119.906 60.198 117.224C68.7162 113.24 81.235 101.486 83.3577 103.516C85.4805 105.547 73.0343 117.344 68.8432 125.389C66.0038 130.804 69.5145 134.24 73.7781 132.835C84.3647 129.347 103.987 116.667 109.475 111.484C114.059 107.156 116.632 101.283 116.626 95.1617C116.621 89.04 114.039 83.1715 109.448 78.85Z" fill="#FF99F2"/>
<path d="M109.638 79.0537C116.013 88.1932 114.709 100.306 106.517 108.047C101.074 113.187 81.4073 125.91 70.8207 129.397C69.8664 129.733 68.8281 129.796 67.8362 129.577C68.1446 132.379 70.7572 133.792 73.7509 132.807C84.3374 129.32 103.959 116.64 109.448 111.456C118.897 102.528 118.982 88.0811 109.638 79.0537Z" fill="#FF66EC"/>
<path d="M85.6643 105.655C86.9254 104.464 86.9254 102.533 85.6643 101.342C84.4031 100.151 82.3583 100.151 81.0971 101.342C79.8359 102.533 79.8359 104.464 81.0971 105.655C82.3583 106.846 84.4031 106.846 85.6643 105.655Z" fill="white" stroke="#CC00B2" stroke-width="1.28836" stroke-linecap="round" stroke-linejoin="round"/>
<path d="M109.448 78.85C104.869 74.5253 98.6595 72.0957 92.1844 72.0957C85.7092 72.0957 79.4993 74.5253 74.9211 78.85C69.4782 83.9906 56.0069 102.565 52.3148 112.564C50.827 116.59 54.4647 119.906 60.198 117.224C68.7162 113.24 81.235 101.486 83.3577 103.516C85.4805 105.547 73.0343 117.344 68.8432 125.389C66.0038 130.804 69.5145 134.24 73.7781 132.835C84.3647 129.347 103.987 116.667 109.475 111.484C114.059 107.156 116.632 101.283 116.626 95.1617C116.621 89.04 114.039 83.1715 109.448 78.85Z" stroke="#CC00B2" stroke-width="1.28836"/>
<path d="M85.7335 101.31L92.8195 94.2243M107.958 79.086L103.126 83.9174M101.194 74.2546C99.9055 75.8651 98.4883 80.0523 103.126 83.9174M103.126 83.9174C107.765 88.0401 111.179 86.8162 112.467 85.5278M103.126 83.9174L92.8195 94.2243M91.2091 72C91.7459 77.905 97.7153 90.7457 114.722 94.8684M76.0708 78.4418C85.0893 80.6964 103.384 89.9727 108.28 110.329M59 102.599C59.4295 104.961 60.9325 109.491 66.086 113.872M72.5278 121.28C75.4266 123.535 78.3254 126.111 83.4789 128.044M71.2394 109.685C68.0185 104.531 63.7025 93.1291 72.2057 88.7487C80.7089 84.3683 89.4912 90.5739 92.8195 94.2243M92.8195 94.2243C97.2214 98.7335 104.093 109.62 96.3625 117.093C88.6323 124.565 79.6138 119.347 76.0708 115.804M76.715 105.497C75.7487 104.209 71.8836 98.4114 78.3254 95.5126C84.7673 92.6138 90.5649 99.3777 91.5312 103.565C92.4974 107.752 91.5312 114.838 80.9022 110.329" stroke="#CC00B2" stroke-width="1.28836" stroke-linecap="round" stroke-linejoin="round"/>
<path d="M79.232 104.978L79.6743 104.509C79.4498 104.297 79.1063 104.274 78.8557 104.455L79.232 104.978ZM50.0287 119.382L49.5755 119.839L49.5807 119.845L49.586 119.85L50.0287 119.382ZM48.4684 111.671L49.0606 111.924L49.0671 111.909L49.0728 111.894L48.4684 111.671ZM72.6986 75.5326L73.1391 76.0027L73.1408 76.001L72.6986 75.5326ZM112.94 113.564L112.498 113.096L112.498 113.096L112.94 113.564ZM96.9379 125.036L97.2763 125.584L97.2797 125.582L96.9379 125.036ZM94.8424 126.33L95.1737 126.882L95.1808 126.878L94.8424 126.33ZM93.2276 127.298L93.5573 127.852L93.5589 127.851L93.2276 127.298ZM74.649 136.448L74.4479 135.836L74.4335 135.841L74.4192 135.846L74.649 136.448ZM66.4846 134.975L66.0403 135.441L66.0468 135.447L66.0534 135.453L66.4846 134.975ZM81.4092 107.034L81.9087 107.441C82.1218 107.179 82.0969 106.797 81.8515 106.566L81.4092 107.034ZM79.232 104.978L78.8557 104.455C76.6679 106.03 70.7644 110.843 64.6815 114.677C61.6444 116.592 58.6139 118.228 56.0359 119.077C54.7468 119.502 53.6063 119.717 52.6547 119.691C51.7109 119.666 50.991 119.405 50.4715 118.914L50.0287 119.382L49.586 119.85C50.3978 120.617 51.4554 120.948 52.6197 120.979C53.7762 121.011 55.0744 120.75 56.4389 120.301C59.1681 119.402 62.3045 117.699 65.3685 115.767C71.4878 111.909 77.5235 107.001 79.6084 105.5L79.232 104.978ZM50.0287 119.382L50.4819 118.924C48.5864 117.047 48.0388 114.311 49.0606 111.924L48.4684 111.671L47.8762 111.417C46.6408 114.303 47.3139 117.6 49.5755 119.839L50.0287 119.382ZM48.4684 111.671L49.0728 111.894C51.0977 106.406 55.7023 98.7507 60.5347 91.7774C65.3673 84.8039 70.3656 78.601 73.1391 76.0027L72.6986 75.5326L72.2582 75.0625C69.38 77.7589 64.318 84.0562 59.4758 91.0436C54.6333 98.0312 49.9486 105.798 47.8641 111.448L48.4684 111.671ZM72.6986 75.5326L73.1408 76.001C84.0124 65.7404 101.647 65.746 112.511 76.0136L112.954 75.5454L113.396 75.0772C102.036 64.3405 83.6247 64.3347 72.2565 75.0641L72.6986 75.5326ZM112.954 75.5454L112.511 76.0136C123.355 86.2614 123.349 102.855 112.498 113.096L112.94 113.564L113.382 114.033C124.771 103.284 124.778 85.8337 113.396 75.0772L112.954 75.5454ZM112.94 113.564L112.498 113.096C109.826 115.62 103.639 120.081 96.5961 124.49L96.9379 125.036L97.2797 125.582C104.334 121.167 110.612 116.649 113.383 114.033L112.94 113.564ZM96.9379 125.036L96.5995 124.488L94.504 125.782L94.8424 126.33L95.1808 126.878L97.2763 125.584L96.9379 125.036ZM94.8424 126.33L94.5111 125.777L92.8964 126.746L93.2276 127.298L93.5589 127.851L95.1736 126.882L94.8424 126.33ZM93.2276 127.298L92.898 126.745C86.3491 130.646 79.5403 134.163 74.4479 135.836L74.649 136.448L74.8502 137.06C80.0813 135.341 86.9887 131.764 93.5573 127.852L93.2276 127.298ZM74.649 136.448L74.4192 135.846C71.8481 136.828 68.9106 136.293 66.9158 134.496L66.4846 134.975L66.0534 135.453C68.4162 137.582 71.8665 138.2 74.8788 137.05L74.649 136.448ZM66.4846 134.975L66.9289 134.508C65.9144 133.542 65.8441 131.785 66.7337 129.262C67.6017 126.799 69.2886 123.895 71.2715 120.981C75.2348 115.157 80.2526 109.474 81.9087 107.441L81.4092 107.034L80.9097 106.627C79.3 108.603 74.2112 114.372 70.2064 120.256C68.2053 123.197 66.4429 126.211 65.5186 128.833C64.6159 131.394 64.4105 133.889 66.0403 135.441L66.4846 134.975ZM81.4092 107.034L81.8515 106.566L79.6743 104.509L79.232 104.978L78.7897 105.446L80.9669 107.502L81.4092 107.034Z" fill="#002066"/>
<path d="M84.2252 150C85.062 152.582 84.2202 153.298 85.1588 154.54C85.7714 155.351 86.2526 156.256 86.5727 157.244C88.4031 162.891 84.2861 169.089 77.3771 171.086C69.3744 173.4 61.5468 169.067 61.1352 162.273C60.9892 159.865 59.9293 159.467 59.2053 157.233C57.3749 151.586 61.492 145.388 68.401 143.391C75.31 141.394 82.3948 144.353 84.2252 150Z" fill="#FF00DF"/>
<path d="M76.919 169.828C83.4817 167.931 87.5246 162.244 86.3448 156.838C86.4607 157.105 86.5658 157.377 86.6564 157.657C88.4868 163.304 84.3698 169.502 77.4608 171.499C70.0095 173.653 62.7112 170.045 61.4085 164.054C63.585 169.019 70.1898 171.773 76.919 169.828Z" fill="#CC00B2"/>
<path d="M84.7851 149.838C82.8245 143.79 75.3339 140.78 68.2211 142.837C61.1083 144.893 56.6855 151.346 58.6455 157.395C59.0298 158.581 59.5187 159.311 59.8715 159.952C60.2139 160.575 60.481 161.193 60.5477 162.292C60.7674 165.919 62.9716 168.871 66.1343 170.598C69.2924 172.323 73.415 172.838 77.5565 171.641C84.6695 169.585 89.0931 163.13 87.1327 157.081C86.7917 156.03 86.2789 155.066 85.6277 154.204C85.2772 153.74 85.2532 153.41 85.2422 152.777C85.2305 152.107 85.2307 151.213 84.7851 149.838Z" stroke="#002066" stroke-width="1.16599"/>
<path d="M82.6632 156.786L82.6597 156.776C82.4733 156.201 81.8194 155.88 81.199 156.059L78.3877 156.961C77.0133 157.402 75.6877 158.577 75.962 159.99C76.1643 161.032 75.5081 162.088 74.4347 162.457C72.7402 163.038 71.4038 161.866 71.1638 160.793C70.9723 160.037 69.3181 159.494 68.114 159.842L64.8053 160.798C64.1811 160.979 63.8232 161.6 64.0099 162.179C65.3746 166.389 70.6565 168.596 75.8075 167.106C80.9585 165.617 84.0279 160.997 82.6632 156.786Z" fill="#CC00B2"/>
<path d="M81.1039 151.974L81.1074 151.985C81.2937 152.56 80.9419 153.172 80.3215 153.351L77.4574 154.09C76.0571 154.451 74.2621 154.178 73.6521 152.862C73.2023 151.892 72.0326 151.364 70.9246 151.626C69.1756 152.039 68.7632 153.717 69.1998 154.733C69.4896 155.461 68.4407 156.786 67.2366 157.134L63.9278 158.09C63.3036 158.271 62.6389 157.945 62.4506 157.367C61.086 153.156 64.1554 148.536 69.3063 147.047C74.4573 145.558 79.7392 147.764 81.1039 151.974Z" fill="#CC00B2"/>
<rect width="1.18201" height="2.3102" rx="0.591004" transform="matrix(-0.971783 0.236616 -0.276661 -0.961173 71.4697 150.386)" fill="#FFCF20"/>
<rect width="1.18201" height="2.3102" rx="0.591005" transform="matrix(0.971783 -0.236616 0.276661 0.961173 75.001 163.432)" fill="#FFCF20"/>
<rect width="1.15625" height="2.37079" rx="0.578127" transform="matrix(-0.513841 0.841254 -0.887594 -0.490342 68.6025 151.89)" fill="#FFCF20"/>
<rect width="1.15625" height="2.37079" rx="0.578127" transform="matrix(0.513841 -0.841254 0.887594 0.490342 77.7175 161.969)" fill="#FFCF20"/>
<rect width="1.19606" height="2.3328" rx="0.598028" transform="matrix(0.887686 0.490174 0.514008 -0.841152 73.4287 150.657)" fill="#FFCF20"/>
<rect width="1.19606" height="2.3328" rx="0.598028" transform="matrix(-0.887686 -0.490174 -0.514008 0.841152 72.8916 163.203)" fill="#FFCF20"/>
<path d="M40.4266 114.797C42.5024 116.654 42.1433 117.668 43.6086 118.312C44.5648 118.733 45.4559 119.296 46.2499 120.006C50.7904 124.068 50.4433 131.377 45.4748 136.331C39.7197 142.07 30.6477 141.945 26.7435 136.226C25.3595 134.199 24.2296 134.346 22.4338 132.739C17.8932 128.678 18.2403 121.369 23.2089 116.414C28.1775 111.46 35.8862 110.736 40.4266 114.797Z" fill="#FF00DF"/>
<path d="M44.4185 135.447C49.138 130.74 49.6871 123.91 45.8391 119.757C46.0789 119.934 46.3125 120.123 46.5375 120.324C51.078 124.385 50.7309 131.694 45.7624 136.649C40.4038 141.992 32.1705 142.251 27.9097 137.644C32.3949 140.951 39.5792 140.272 44.4185 135.447Z" fill="#CC00B2"/>
<path d="M40.8393 114.386C36.0032 110.06 27.9139 110.901 22.7742 116.026C17.6345 121.151 17.1846 128.825 22.0205 133.151C22.9698 134 23.7707 134.404 24.4153 134.8C25.0425 135.185 25.6032 135.602 26.2392 136.534C30.4092 142.642 39.962 142.65 45.9092 136.72C51.049 131.595 51.4988 123.921 46.6629 119.595C45.821 118.842 44.8759 118.244 43.8628 117.799C43.3032 117.553 43.1039 117.268 42.7633 116.721C42.4034 116.144 41.9398 115.37 40.8393 114.386Z" stroke="#002066" stroke-width="1.16599"/>
<path d="M42.6089 121.424L42.6003 121.417C42.138 121.003 41.4015 121.029 40.9554 121.473L39.0497 123.494C38.0444 124.559 37.4839 126.241 38.4508 127.332C39.1706 128.144 39.151 129.368 38.4095 130.189C37.239 131.484 35.4642 131.086 34.6955 130.265C34.134 129.696 32.4113 129.993 31.5454 130.857L29.1659 133.23C28.7171 133.677 28.73 134.384 29.1945 134.801C32.5796 137.829 38.3267 137.289 42.031 133.595C45.7353 129.902 45.9941 124.453 42.6089 121.424Z" fill="#CC00B2"/>
<path d="M38.741 117.967L38.7496 117.975C39.2119 118.388 39.225 119.084 38.7789 119.529L36.7466 121.436C35.6745 122.442 33.9271 123.062 32.721 122.209C31.8232 121.574 30.5298 121.659 29.7025 122.403C28.3967 123.577 28.9138 125.229 29.8239 125.91C30.4561 126.408 30.2348 128.049 29.3689 128.913L26.9894 131.285C26.5406 131.733 25.7922 131.759 25.3266 131.344C21.9415 128.316 22.2002 122.866 25.9044 119.173C29.6087 115.479 35.3558 114.939 38.741 117.967Z" fill="#CC00B2"/>
<rect width="1.17581" height="2.35162" rx="0.587906" transform="matrix(-0.73457 0.678533 -0.719366 -0.694631 29.5237 121.06)" fill="#FFCF20"/>
<rect width="1.17581" height="2.35162" rx="0.587906" transform="matrix(0.73457 -0.678533 0.719366 0.694632 39.4189 130.787)" fill="#FFCF20"/>
<rect width="1.1746" height="2.35287" rx="0.587298" transform="matrix(-0.0107678 0.97098 -1.02808 -0.0113653 27.813 123.702)" fill="#FFCF20"/>
<rect width="1.1746" height="2.35287" rx="0.587298" transform="matrix(0.0107678 -0.97098 1.02808 0.0113653 41.0183 128.248)" fill="#FFCF20"/>
<rect width="1.17753" height="2.35136" rx="0.588763" transform="matrix(1.02808 0.0113651 0.0107677 -0.97098 31.3821 120.405)" fill="#FFCF20"/>
<rect width="1.17753" height="2.35136" rx="0.588763" transform="matrix(-1.02808 -0.0113652 -0.0107678 0.97098 37.4495 131.548)" fill="#FFCF20"/>
</g>
</g>
<rect x="0.5" y="0.5" width="155" height="199" stroke="#CCDCFF"/>
<defs>
<clipPath id="clip0_5418_7268">
<rect width="156" height="200" fill="white"/>
</clipPath>
<clipPath id="clip1_5418_7268">
<rect width="144" height="136" fill="white" transform="translate(6 55)"/>
</clipPath>
</defs>
</svg>
