<svg width="156" height="200" viewBox="0 0 156 200" fill="none" xmlns="http://www.w3.org/2000/svg">
<g clip-path="url(#clip0_5418_7149)">
<rect width="156" height="200" fill="#F2F6FF"/>
<path d="M175.088 158.201C169.474 131.315 133.889 114.618 85.0787 125.332C50.7436 132.868 42.7133 96.1369 18.6759 103.863C-19.059 115.995 -38.4529 194.939 -0.715196 238.841C37.0225 282.742 93.5521 275.532 125.263 250.213C156.974 224.894 182.267 192.562 175.088 158.201Z" fill="#CCDCFF"/>
<path d="M156.549 203.859L156.758 205.675C156.264 205.925 155.163 205.913 154.629 205.78C153.737 205.558 153.178 204.878 152.805 204.024C152.17 202.575 152.065 200.622 151.756 199.53C151.455 198.447 150.896 197.453 150.177 196.591C148.887 195.045 147.473 193.615 145.778 192.548C145.047 192.085 144.239 191.687 143.375 191.626C142.507 191.562 141.575 191.888 141.101 192.617C140.599 193.386 140.711 194.421 141.089 195.262C141.463 196.1 142.065 196.812 142.548 197.598C143.243 198.733 143.689 200.054 143.66 201.387C143.632 202.72 143.098 204.068 141.897 205.047C140.776 203.009 139.578 200.887 137.63 199.619C136.417 198.83 134.946 198.399 133.946 197.348C133.13 196.49 132.728 195.315 132.471 194.159C132.234 193.108 132.098 192.033 132.061 190.954L122.837 188.328L110.137 184.712C109.269 184.475 108.502 183.96 107.859 183.315C107.646 183.102 107.445 182.868 107.264 182.631C106.529 181.68 106.007 180.581 105.493 179.49C103.829 175.971 102.162 172.451 100.499 168.932C106.927 165.844 112.564 163.134 118.988 160.045C119.964 162.739 121.005 165.711 122.13 168.997L122.122 169.009C129.631 172.451 135.432 179.293 143.303 181.89C144.886 182.413 146.521 182.752 148.08 183.335C149.639 183.919 151.153 184.777 152.178 186.033C153.492 188.167 154.801 190.297 156.115 192.428C156.646 193.289 157.176 194.151 157.582 195.081C158.839 197.976 158.767 201.294 159.852 204.266C158.771 204.668 157.505 204.491 156.549 203.859Z" fill="#CFA891"/>
<path d="M152.802 204.024C152.778 206.146 152.376 208.413 151.484 210.793C149.451 216.229 140.93 230.873 114.582 228.405C109.472 227.926 104.377 227.322 99.2908 226.633C98.5113 216.655 97.1252 206.718 95.1445 196.909C105.1 193.772 116.414 190.241 122.834 188.328L132.059 190.953C132.095 192.033 132.232 193.108 132.469 194.159C132.726 195.314 133.128 196.49 133.943 197.348C134.944 198.399 136.414 198.83 137.627 199.619C139.576 200.887 140.773 203.009 141.894 205.047C143.095 204.068 143.63 202.719 143.658 201.386C143.686 200.054 143.24 198.733 142.545 197.597C142.063 196.812 141.46 196.1 141.087 195.262C140.709 194.42 140.596 193.386 141.099 192.616C141.573 191.888 142.505 191.562 143.373 191.626C144.237 191.686 145.044 192.085 145.775 192.548C147.471 193.615 148.885 195.045 150.175 196.591C150.894 197.452 151.452 198.447 151.754 199.53C152.063 200.621 152.167 202.574 152.802 204.024Z" fill="#FF66EC"/>
<path d="M46.1355 184.37C47.5256 181.785 49.7393 179.651 52.3588 178.334C52.4191 178.41 52.4874 178.483 52.5557 178.555L75.127 178.543L97.6983 178.555C97.7666 178.483 97.8349 178.41 97.8952 178.334C100.511 179.651 102.72 181.781 104.119 184.366C105.304 183.983 106.557 183.633 107.859 183.315C108.502 183.959 109.269 184.475 110.137 184.712L122.837 188.328C116.417 190.241 105.103 193.772 95.1471 196.909C84.5565 200.243 75.5047 203.126 75.5047 203.126C75.1551 203.223 74.8016 203.295 74.444 203.343C74.0864 203.295 73.7289 203.223 73.3793 203.126C73.3793 203.126 64.3275 200.243 53.7409 196.909C44.215 193.909 33.4517 190.547 26.9109 188.586L40.5147 184.712C41.3464 184.483 42.0856 184.003 42.7084 183.391C43.8976 183.693 45.0427 184.02 46.1314 184.37H46.1355Z" fill="#FF66EC"/>
<path d="M53.4838 169.403C52.4794 168.964 51.5754 168.336 50.792 167.579L50.1532 168.932C43.7249 165.843 38.0881 163.133 31.6638 160.045C35.8101 148.557 38.6948 142.066 41.2902 137.709C42.4553 135.756 43.5602 134.23 44.6931 132.877C45.0628 132.434 45.4123 132.044 45.7819 131.693H45.786C45.8422 131.77 45.8984 131.846 45.9587 131.919C48.1564 134.641 53.3352 136.058 57.7024 134.335C58.4416 137.83 60.7076 140.995 63.6485 143.077C67.2042 145.597 70.804 146.672 75.127 146.801C75.0346 146.805 74.9462 146.809 74.8538 146.809H75.3962C75.3078 146.809 75.2154 146.809 75.127 146.801C79.4501 146.672 83.0499 145.597 86.6055 143.077C89.5425 140.995 91.8124 137.83 92.5477 134.335C96.9189 136.058 102.094 134.641 104.291 131.919C104.364 131.826 104.436 131.738 104.504 131.641L104.87 131.693C105.24 132.044 105.593 132.434 105.959 132.877C107.08 134.214 108.168 135.72 109.313 137.637C111.925 141.994 114.818 148.488 118.988 160.045C112.564 163.133 106.927 165.843 100.499 168.932L99.8598 167.579L99.6027 167.438C98.7871 168.259 97.839 168.936 96.7703 169.403C97.5979 170.691 98.3773 172.024 98.747 173.502C99.1568 175.149 98.9679 177.041 97.8952 178.334C97.8349 178.41 97.7666 178.483 97.6983 178.555L75.127 178.543L52.5557 178.555C52.4874 178.483 52.4191 178.41 52.3589 178.334C51.2821 177.041 51.0973 175.149 51.5071 173.502C51.8767 172.024 52.6522 170.691 53.4838 169.403Z" fill="#FFF5D2"/>
<path d="M94.2295 226.391C94.4184 226.677 94.559 226.991 94.6273 227.325C94.788 228.102 94.4786 229.004 93.7755 229.367C93.6389 229.439 93.4943 229.484 93.3456 229.508C93.5586 229.814 93.7313 230.136 93.8157 230.498C93.9845 231.203 93.6912 232.081 93.0001 232.306C92.9559 232.322 92.9117 232.33 92.8675 232.338C92.9077 232.443 92.9439 232.548 92.972 232.657C93.1327 233.265 93.0323 233.989 92.5542 234.404C91.9354 234.944 90.9873 234.766 90.2119 234.505C87.2348 233.494 84.6152 231.67 82.0399 229.87C79.5047 228.098 76.9776 226.331 74.4465 224.559C74.2617 224.43 74.0728 224.297 73.888 224.168C73.2492 223.721 72.5582 223.258 71.3931 223.299C67.4477 223.951 63.4983 224.591 59.5409 225.195C58.0584 225.425 56.5719 225.646 55.0893 225.86C54.7559 225.908 54.4264 225.956 54.097 226.005C52.5984 226.222 51.0958 226.431 49.5972 226.633C50.3766 216.655 51.7627 206.717 53.7434 196.908C64.33 200.242 73.3818 203.125 73.3818 203.125C73.7313 203.222 74.0889 203.294 74.4465 203.347C77.4597 203.774 80.706 202.723 83.5867 203.782C85.5192 204.49 87.0218 206.085 88.0745 207.861C89.1271 209.636 89.786 211.609 90.5212 213.538C91.2605 215.467 92.9077 217.291 94.2536 218.857C96.2062 221.124 95.7804 222.695 94.9166 223.452C94.9407 223.492 94.9607 223.532 94.9808 223.572C95.3706 224.329 95.3987 225.332 94.8322 225.964C94.8201 225.98 94.8081 225.992 94.792 226.005C94.6313 226.174 94.4425 226.303 94.2295 226.391Z" fill="#CFA891"/>
<path d="M91.5867 100.271C91.0443 100.432 90.4497 100.452 89.9073 100.311H89.9033C89.9395 99.836 89.9716 99.3648 89.9957 98.8897C90.0881 97.118 90.1042 95.3422 90.064 93.5705H90.068C91.0363 93.0833 91.8921 92.3706 92.5389 91.5009C92.9969 90.8848 93.3505 90.1922 93.5875 89.4634C94.6884 89.7332 95.6245 90.5828 96.0865 91.6297C96.6128 92.8095 96.5767 94.1906 96.1588 95.4107C95.741 96.6308 94.9616 97.7059 94.0616 98.6239C93.3585 99.3407 92.547 99.993 91.5867 100.271Z" fill="#CFA891"/>
<path d="M90.0633 93.571C90.1035 95.3427 90.0874 97.1185 89.995 98.8902C89.9709 99.3653 89.9388 99.8364 89.9026 100.312C89.7178 102.748 89.3442 105.168 88.5567 107.475C87.7572 109.802 86.5157 112.009 84.7761 113.732C84.4587 114.05 84.1212 114.348 83.7676 114.63C81.5499 116.394 78.7736 117.219 75.1256 117.256C71.4775 117.219 68.7053 116.394 66.4836 114.63C66.13 114.348 65.7966 114.05 65.4751 113.728C63.7315 112.013 62.49 109.802 61.6945 107.475C60.903 105.168 60.5294 102.748 60.3446 100.312C60.3044 99.8364 60.2763 99.3653 60.2522 98.8902C60.1638 97.1185 60.1437 95.3427 60.1839 93.571C60.2281 91.3644 60.3606 89.1538 60.5495 86.9553C60.7745 84.2856 61.12 81.4911 62.6547 79.2926C63.9685 77.4122 66.0457 76.1639 68.2393 75.4915C70.433 74.8231 72.7471 74.6821 75.0412 74.666H75.206C77.5 74.6821 79.8182 74.8231 82.0079 75.4915C84.2015 76.1639 86.2787 77.4122 87.5924 79.2926C89.1272 81.4911 89.4767 84.2856 89.7017 86.9553C89.8865 89.1578 90.0191 91.3644 90.0633 93.571Z" fill="#CFA891"/>
<path d="M75.7104 71.8042C75.5135 71.8042 75.3207 71.8042 75.1278 71.8082C74.935 71.8042 74.7381 71.8042 74.5413 71.8042H75.7104Z" fill="#CCDCFF"/>
<path d="M83.5853 203.782C80.7046 202.723 77.4583 203.774 74.4451 203.347C74.8026 203.294 75.1562 203.222 75.5057 203.125C75.5057 203.125 84.5576 200.242 95.1481 196.908C97.1289 206.717 98.515 216.655 99.2944 226.633C97.7918 226.431 96.2932 226.222 94.7906 226.005C94.8067 225.992 94.8187 225.98 94.8308 225.964C95.3973 225.332 95.3691 224.329 94.9794 223.572C94.9593 223.532 94.9392 223.492 94.9151 223.452C95.7789 222.695 96.2048 221.124 94.2522 218.857C92.9063 217.291 91.259 215.467 90.5198 213.538C89.7846 211.609 89.1257 209.636 88.073 207.861C87.0204 206.085 85.5178 204.49 83.5853 203.782Z" fill="#CFA891"/>
<path d="M75.394 117.259H74.8516C74.944 117.259 75.0324 117.259 75.1248 117.255C75.2132 117.259 75.3056 117.259 75.394 117.259Z" fill="#CCDCFF"/>
<path d="M75.394 146.811H74.8516C74.944 146.811 75.0324 146.811 75.1248 146.803C75.2132 146.807 75.3056 146.811 75.394 146.811Z" fill="#CCDCFF"/>
<path d="M64.4245 125.338C65.1798 121.351 65.2923 117.466 65.4731 113.733H65.4771C65.7985 114.051 66.132 114.349 66.4855 114.631C68.7073 116.395 71.4795 117.22 75.1275 117.256C75.0351 117.26 74.9467 117.26 74.8543 117.26H75.3967C75.3083 117.26 75.2159 117.26 75.1275 117.256C78.7756 117.22 81.5518 116.395 83.7696 114.631C84.1231 114.349 84.4606 114.051 84.778 113.733C84.9588 117.466 85.0713 121.351 85.8266 125.338C86.7788 130.335 89.4626 133.117 92.5482 134.337C91.8129 137.832 89.543 140.997 86.606 143.079C83.0504 145.6 79.4506 146.675 75.1275 146.804C70.8045 146.675 67.2047 145.6 63.649 143.079C60.7081 140.997 58.4421 137.832 57.7029 134.337C60.7925 133.117 63.4763 130.335 64.4245 125.338Z" fill="#CFA891"/>
<path d="M45.7832 131.694H45.7792C45.4096 132.044 45.06 132.434 44.6904 132.877C43.5574 134.23 42.4526 135.756 41.2874 137.709C39.9013 137.448 38.8889 137.073 38.5313 136.9C35.4618 135.422 33.6619 131.955 33.5373 128.541C33.4128 125.13 34.7467 121.804 36.6069 118.945C38.467 116.082 40.8455 113.606 43.0914 111.041C50.6727 102.38 49.6322 98.6953 51.5606 92.2084C52.7137 88.3227 54.4212 83.8089 57.1974 80.3178C61.5727 74.8175 66.8117 71.9384 75.1243 71.8096C83.4369 71.9384 88.6759 74.8175 93.0472 80.3178C95.8234 83.8089 97.5309 88.3227 98.684 92.2084C100.616 98.6953 99.5719 102.38 107.153 111.041C109.403 113.606 111.778 116.082 113.642 118.945C115.502 121.804 116.836 125.13 116.711 128.541C116.587 131.955 114.787 135.422 111.713 136.9C111.388 137.061 110.516 137.383 109.315 137.637H109.311C108.166 135.72 107.077 134.214 105.956 132.877C105.59 132.434 105.237 132.044 104.867 131.694L104.502 131.641C104.433 131.738 104.361 131.826 104.289 131.919C102.091 134.641 96.9162 136.058 92.545 134.335C89.4594 133.115 86.7756 130.333 85.8234 125.335C85.0681 121.349 84.9556 117.463 84.7748 113.731C86.5144 112.007 87.7559 109.801 88.5554 107.473C89.3429 105.166 89.7165 102.746 89.9013 100.31H89.9053C90.4477 100.451 91.0423 100.431 91.5847 100.27C92.545 99.9919 93.3565 99.3396 94.0596 98.6229C94.9596 97.7048 95.739 96.6297 96.1569 95.4096C96.5747 94.1895 96.6108 92.8084 96.0845 91.6286C95.6225 90.5817 94.6864 89.7321 93.5855 89.4623C93.3485 90.1911 92.9949 90.8837 92.5369 91.4998C91.8901 92.3695 91.0343 93.0822 90.0661 93.5694H90.062C90.0178 91.3629 89.8853 89.1563 89.7004 86.9537C89.4755 84.284 89.1259 81.4896 87.5912 79.291C86.2774 77.4106 84.2002 76.1623 82.0066 75.4899C79.817 74.8215 77.4988 74.6806 75.2047 74.6644H75.0399C72.7458 74.6806 70.4317 74.8215 68.238 75.4899C66.0444 76.1623 63.9672 77.4106 62.6534 79.291C61.1187 81.4896 60.7732 84.284 60.5482 86.9537C60.3594 89.1522 60.2268 91.3629 60.1826 93.5694C59.2143 93.0822 58.3585 92.3695 57.7077 91.4998C57.2497 90.8837 56.8961 90.1911 56.6591 89.4623C55.5622 89.7321 54.6221 90.5817 54.1601 91.6286C53.6338 92.8084 53.6699 94.1895 54.0878 95.4096C54.5096 96.6297 55.285 97.7048 56.189 98.6229C56.8881 99.3396 57.6996 99.9919 58.6599 100.27C59.2023 100.431 59.7969 100.451 60.3393 100.31H60.3433C60.5281 102.746 60.9017 105.166 61.6932 107.473C62.4887 109.801 63.7302 112.011 65.4739 113.727H65.4698C65.289 117.463 65.1765 121.349 64.4212 125.335C63.4731 130.333 60.7892 133.115 57.6996 134.335C53.3324 136.058 48.1537 134.641 45.956 131.919C45.8957 131.847 45.8395 131.77 45.7832 131.694Z" fill="#4C6284"/>
<path d="M60.341 100.311C59.7986 100.452 59.204 100.432 58.6616 100.271C57.7014 99.993 56.8898 99.3407 56.1908 98.6239C55.2868 97.7059 54.5114 96.6308 54.0895 95.4107C53.6717 94.1906 53.6355 92.8095 54.1618 91.6297C54.6239 90.5828 55.564 89.7332 56.6608 89.4634C56.8979 90.1922 57.2514 90.8848 57.7094 91.5009C58.3603 92.3706 59.2161 93.0833 60.1843 93.5705C60.1441 95.3422 60.1642 97.118 60.2526 98.8897C60.2767 99.3648 60.3049 99.836 60.345 100.311H60.341Z" fill="#CFA891"/>
<path d="M53.7421 196.911C51.7614 206.72 50.3753 216.657 49.5959 226.635C44.5095 227.324 39.4111 227.928 34.3006 228.407C7.9527 230.875 -0.564775 216.231 -2.59772 210.795C-3.25662 209.043 -3.64633 207.352 -3.81909 205.737C-1.57321 205.012 -1.58125 201.227 -1.10314 199.532C-0.801818 198.449 -0.243361 197.455 0.475803 196.593C1.76548 195.047 3.18372 193.617 4.87516 192.55C5.60637 192.087 6.41393 191.688 7.27773 191.628C8.14554 191.564 9.07765 191.89 9.55173 192.619C10.0539 193.388 9.94144 194.422 9.56378 195.264C9.19014 196.102 8.58749 196.814 8.10537 197.599C7.41031 198.735 6.96435 200.056 6.99247 201.389C7.0206 202.721 7.55896 204.07 8.75623 205.049C9.87716 203.011 11.0744 200.889 13.023 199.621C14.2363 198.832 15.7068 198.401 16.7072 197.35C17.5228 196.492 17.9246 195.316 18.1817 194.161C18.4187 193.11 18.5553 192.035 18.5915 190.956L26.9121 188.588C33.4529 190.549 44.2162 193.911 53.7421 196.911Z" fill="#FF66EC"/>
<path d="M-1.10396 199.53C-1.58206 201.226 -1.57402 205.011 -3.81991 205.735C-3.87214 205.752 -3.92437 205.768 -3.9766 205.78C-4.51095 205.913 -5.61179 205.925 -6.10195 205.675L-5.89704 203.859C-6.85325 204.491 -8.11882 204.668 -9.19556 204.266C-8.1148 201.294 -8.18712 197.976 -6.92959 195.081C-6.5238 194.151 -5.99347 193.289 -5.46314 192.428C-4.14936 190.297 -2.83959 188.167 -1.52581 186.033C-0.501305 184.777 1.01336 183.919 2.57222 183.335C4.13108 182.752 5.76627 182.413 7.34923 181.89C15.2199 179.293 21.0214 172.451 28.5304 169.009L28.5224 168.997C29.6473 165.711 30.6919 162.739 31.6642 160.045C38.0885 163.134 43.7253 165.844 50.1536 168.932C48.4902 172.451 46.8229 175.971 45.1596 179.49C44.6453 180.581 44.123 181.68 43.3878 182.631C43.1789 182.901 42.9539 183.158 42.7088 183.392C42.0861 184.004 41.3468 184.483 40.5152 184.712L26.9113 188.586L18.5907 190.954C18.5545 192.033 18.4179 193.108 18.1809 194.159C17.9238 195.315 17.522 196.49 16.7064 197.348C15.706 198.399 14.2355 198.83 13.0222 199.619C11.0736 200.887 9.87635 203.009 8.75542 205.047C7.55815 204.068 7.01979 202.72 6.99166 201.387C6.96354 200.054 7.4095 198.733 8.10456 197.598C8.58668 196.812 9.18933 196.1 9.56297 195.262C9.94064 194.421 10.0531 193.386 9.55092 192.617C9.07684 191.888 8.14473 191.562 7.27692 191.626C6.41312 191.687 5.60556 192.085 4.87435 192.548C3.1829 193.615 1.76466 195.045 0.47499 196.591C-0.244174 197.453 -0.802631 198.447 -1.10396 199.53Z" fill="#CFA891"/>
<path d="M67.824 102.023C69.3507 104.024 71.7814 105.301 74.2884 105.425C76.7995 105.55 79.3427 104.515 81.0542 102.675" stroke="#002050" stroke-width="1.10185" stroke-linecap="round" stroke-linejoin="round"/>
<path d="M63.325 88.1626C63.6865 90.0229 65.4383 91.5168 67.3266 91.5812C69.2149 91.6456 71.063 90.2725 71.5491 88.4404" stroke="#002050" stroke-width="1.10185" stroke-linecap="round" stroke-linejoin="round"/>
<path d="M63.4436 83.0066C65.5207 81.3678 68.4938 80.9571 70.9325 81.9798" stroke="#002050" stroke-width="1.10185" stroke-linecap="round" stroke-linejoin="round"/>
<path d="M86.0618 88.1626C85.7002 90.0229 83.9485 91.5168 82.0602 91.5812C80.1719 91.6456 78.3238 90.2725 77.8376 88.4404" stroke="#002050" stroke-width="1.10185" stroke-linecap="round" stroke-linejoin="round"/>
<path d="M85.9418 83.0066C83.8647 81.3678 80.8916 80.9571 78.4529 81.9798" stroke="#002050" stroke-width="1.10185" stroke-linecap="round" stroke-linejoin="round"/>
<path d="M75.5609 86.0625C75.5609 86.0625 75.3238 89.2073 75.4002 90.7817C76.8425 91.4984 78.3813 92.3118 79.0924 93.7574C79.6991 94.9895 79.5625 96.5196 78.8634 97.6994C78.1643 98.8792 76.947 99.7047 75.6211 100.063" stroke="#002050" stroke-width="1.10185" stroke-linecap="round" stroke-linejoin="round"/>
<path d="M60.3471 100.31C59.8047 100.451 59.2101 100.431 58.6677 100.27C57.7075 99.9879 56.8959 99.3396 56.1928 98.6228C55.2889 97.7008 54.5134 96.6297 54.0956 95.4096C53.6778 94.1895 53.6416 92.8084 54.1639 91.6286C54.6259 90.5857 55.5661 89.7321 56.6629 89.4663" stroke="#002050" stroke-width="1.10185" stroke-linecap="round" stroke-linejoin="round"/>
<path d="M60.1862 93.5684C59.2179 93.0812 58.3622 92.3685 57.7113 91.4987C56.8113 90.2907 56.3131 88.7888 56.3172 87.2788" stroke="#002050" stroke-width="1.10185" stroke-linecap="round" stroke-linejoin="round"/>
<path d="M46.3165 120.327C44.4684 123.19 43.1345 128.425 45.9589 131.92C49.7115 136.567 62.1301 137.408 64.4242 125.332C65.1835 121.35 65.292 117.46 65.4728 113.728" stroke="#002050" stroke-width="1.10185" stroke-linecap="round" stroke-linejoin="round"/>
<path d="M28.5254 168.997C36.5889 145.454 40.4378 137.968 44.6925 132.879C45.0621 132.436 45.4117 132.045 45.7853 131.695" stroke="#002050" stroke-width="1.10185" stroke-linecap="round" stroke-linejoin="round"/>
<path d="M29.6915 168.51C21.6039 171.747 15.6216 179.16 7.35325 181.89C5.7743 182.414 4.13509 182.752 2.57623 183.336C1.01737 183.92 -0.497288 184.777 -1.5218 186.034C-2.83558 188.164 -4.14534 190.294 -5.45912 192.424C-5.98945 193.286 -6.51978 194.147 -6.92557 195.077C-8.18712 197.977 -8.1148 201.295 -9.19556 204.262C-8.1148 204.665 -6.85325 204.492 -5.89303 203.855" stroke="#002050" stroke-width="1.10185" stroke-linecap="round" stroke-linejoin="round"/>
<path d="M-1.50607 190.511C-2.27345 192.408 -3.20957 194.24 -4.37469 196.068C-4.8769 196.853 -5.1943 197.743 -5.30278 198.669L-6.10229 205.68C-5.61214 205.929 -4.50728 205.917 -3.97293 205.784C-1.57036 205.188 -1.59045 201.27 -1.10431 199.535C-0.798963 198.452 -0.240506 197.457 0.478658 196.596C1.76431 195.053 3.18255 193.62 4.87399 192.553C5.60923 192.09 6.41276 191.691 7.28058 191.631C8.1484 191.57 9.0805 191.892 9.55459 192.621C10.0568 193.39 9.94028 194.425 9.56664 195.267C9.193 196.108 8.59034 196.821 8.10822 197.602C7.40915 198.738 6.9672 200.058 6.99533 201.391C7.02345 202.724 7.5578 204.073 8.75909 205.051C9.88002 203.014 11.0773 200.892 13.0259 199.624C14.2392 198.834 15.7097 198.403 16.7101 197.353C17.5257 196.495 17.9274 195.323 18.1846 194.163C18.6064 192.279 18.7109 190.322 18.4979 188.401" stroke="#002050" stroke-width="1.10185" stroke-linecap="round" stroke-linejoin="round"/>
<path d="M50.7952 167.581C48.9189 171.551 47.0387 175.522 45.1624 179.492C44.6481 180.579 44.1258 181.678 43.3906 182.633C42.6554 183.587 41.6791 184.396 40.518 184.714L18.5935 190.956" stroke="#002050" stroke-width="1.10185" stroke-linecap="round" stroke-linejoin="round"/>
<path d="M31.6638 160.045C38.0921 163.134 43.7289 165.844 50.1532 168.932" stroke="#002050" stroke-width="1.10185" stroke-linecap="round" stroke-linejoin="round"/>
<path d="M122.13 168.997C114.067 145.454 110.218 137.968 105.963 132.879C105.594 132.436 105.244 132.045 104.87 131.695" stroke="#002050" stroke-width="1.10185" stroke-linecap="round" stroke-linejoin="round"/>
<path d="M120.966 168.51C129.054 171.747 135.036 179.16 143.305 181.89C144.884 182.414 146.523 182.752 148.082 183.336C149.64 183.92 151.155 184.777 152.18 186.034C153.493 188.164 154.803 190.294 156.117 192.424C156.647 193.286 157.178 194.147 157.583 195.077C158.845 197.977 158.773 201.295 159.853 204.262C158.773 204.665 157.511 204.492 156.551 203.855" stroke="#002050" stroke-width="1.10185" stroke-linecap="round" stroke-linejoin="round"/>
<path d="M152.161 190.511C152.928 192.408 153.864 194.24 155.03 196.068C155.532 196.853 155.849 197.743 155.958 198.669L156.757 205.68C156.267 205.929 155.162 205.917 154.628 205.784C152.225 205.188 152.245 201.27 151.759 199.535C151.454 198.452 150.895 197.457 150.176 196.596C148.891 195.053 147.472 193.62 145.781 192.553C145.046 192.09 144.242 191.691 143.374 191.631C142.506 191.57 141.574 191.892 141.1 192.621C140.598 193.39 140.715 194.425 141.088 195.267C141.462 196.108 142.065 196.821 142.547 197.602C143.246 198.738 143.688 200.058 143.66 201.391C143.631 202.724 143.097 204.073 141.896 205.051C140.775 203.014 139.578 200.892 137.629 199.624C136.416 198.834 134.945 198.403 133.945 197.353C133.129 196.495 132.727 195.323 132.47 194.163C132.048 192.279 131.944 190.322 132.157 188.401" stroke="#002050" stroke-width="1.10185" stroke-linecap="round" stroke-linejoin="round"/>
<path d="M99.8577 167.581C101.734 171.551 103.614 175.522 105.49 179.492C106.005 180.579 106.527 181.678 107.262 182.633C107.997 183.587 108.974 184.396 110.135 184.714L132.059 190.956" stroke="#002050" stroke-width="1.10185" stroke-linecap="round" stroke-linejoin="round"/>
<path d="M118.991 160.045L100.501 168.932" stroke="#002050" stroke-width="1.10185" stroke-linecap="round" stroke-linejoin="round"/>
<path d="M53.4923 169.411C50.3786 168.046 48.2493 164.913 47.5542 161.575C46.8632 158.237 47.4658 154.738 48.6872 151.557C49.9086 148.376 51.7165 145.46 53.5164 142.569" stroke="#002050" stroke-width="1.10185" stroke-linecap="round" stroke-linejoin="round"/>
<path d="M74.8568 117.258C78.6415 117.258 81.498 116.436 83.772 114.628C86.046 112.82 87.6169 110.227 88.5611 107.473C89.5052 104.719 89.8548 101.796 90.0034 98.8883C90.2043 94.91 90.0436 90.9237 89.7061 86.9534C89.4811 84.2798 89.1316 81.4893 87.5968 79.2908C86.2831 77.4103 84.2059 76.1621 82.0123 75.4896C79.8186 74.8172 77.5044 74.6803 75.2104 74.6602H75.0416C72.7515 74.6803 70.4333 74.8172 68.2397 75.4896C66.046 76.1621 63.9689 77.4103 62.6551 79.2908C61.1204 81.4893 60.7708 84.2798 60.5458 86.9534C60.2124 90.9197 60.0476 94.91 60.2485 98.8883C60.3972 101.796 60.7467 104.719 61.6909 107.473C62.635 110.227 64.2059 112.816 66.4799 114.628C68.7539 116.44 71.6105 117.258 75.3952 117.258H74.8528H74.8568Z" stroke="#002050" stroke-width="1.10185" stroke-linecap="round" stroke-linejoin="round"/>
<path d="M89.9062 100.31C90.4486 100.451 91.0433 100.431 91.5856 100.27C92.5459 99.9879 93.3574 99.3396 94.0605 98.6228C94.9645 97.7008 95.7399 96.6297 96.1578 95.4096C96.5756 94.1895 96.6118 92.8084 96.0895 91.6286C95.6274 90.5857 94.6873 89.7321 93.5905 89.4663" stroke="#002050" stroke-width="1.10185" stroke-linecap="round" stroke-linejoin="round"/>
<path d="M90.0698 93.5684C91.0381 93.0812 91.8938 92.3685 92.5447 91.4987C93.4447 90.2907 93.9429 88.7888 93.9388 87.2788" stroke="#002050" stroke-width="1.10185" stroke-linecap="round" stroke-linejoin="round"/>
<path d="M103.937 120.327C105.785 123.19 107.119 128.425 104.295 131.92C100.542 136.567 88.1235 137.408 85.8294 125.332C85.07 121.35 84.9616 117.46 84.7808 113.728" stroke="#002050" stroke-width="1.10185" stroke-linecap="round" stroke-linejoin="round"/>
<path d="M109.319 137.637C110.52 137.383 111.392 137.061 111.717 136.904C114.787 135.426 116.587 131.955 116.711 128.545C116.836 125.134 115.502 121.804 113.642 118.945C111.782 116.086 109.403 113.61 107.157 111.045C99.5759 102.38 100.616 98.6994 98.688 92.2125C97.5349 88.3268 95.8234 83.8129 93.0512 80.3218C88.5795 74.6926 83.1958 71.8096 74.5418 71.8096H75.7069C67.0568 71.8096 61.6731 74.6926 57.1974 80.3218C54.4212 83.8129 52.7137 88.3308 51.5606 92.2125C49.6322 98.6994 50.6727 102.384 43.0914 111.045C40.8455 113.61 38.467 116.086 36.6069 118.945C34.7467 121.804 33.4128 125.134 33.5373 128.545C33.6619 131.955 35.4618 135.426 38.5313 136.904C38.8889 137.077 39.9013 137.452 41.2874 137.709" stroke="#002050" stroke-width="1.10185" stroke-linecap="round" stroke-linejoin="round"/>
<path d="M96.7575 169.411C99.8712 168.046 102.001 164.913 102.696 161.575C103.387 158.237 102.784 154.738 101.563 151.557C100.341 148.376 98.5333 145.46 96.7334 142.569" stroke="#002050" stroke-width="1.10185" stroke-linecap="round" stroke-linejoin="round"/>
<path d="M96.3237 168.718C97.308 170.22 98.3124 171.758 98.7464 173.502C99.1803 175.245 98.9432 177.263 97.6977 178.555L74.5158 178.543H75.7411L52.5592 178.555C51.3137 177.263 51.0766 175.245 51.5106 173.502C51.9445 171.758 52.9489 170.22 53.9332 168.718" stroke="#002050" stroke-width="1.10185" stroke-linecap="round" stroke-linejoin="round"/>
<path d="M92.5458 134.336C91.8105 137.832 89.5405 140.996 86.6036 143.078C82.9757 145.651 79.2995 146.718 74.8559 146.811H75.3983C70.9548 146.718 67.2786 145.651 63.6506 143.078C60.7137 140.996 58.4437 137.832 57.7085 134.336" stroke="#002050" stroke-width="1.10185" stroke-linecap="round" stroke-linejoin="round"/>
<path d="M46.134 184.372C47.5282 181.787 49.7379 179.653 52.3574 178.34" stroke="#002050" stroke-width="1.10185" stroke-linecap="round" stroke-linejoin="round"/>
<path d="M42.7104 183.397C48.741 184.907 53.6466 187.17 56.029 189.558" stroke="#002050" stroke-width="1.10185" stroke-linecap="round" stroke-linejoin="round"/>
<path d="M26.9109 188.588C40.7196 192.723 73.3793 203.128 73.3793 203.128C76.6819 204.054 80.362 202.601 83.5802 203.784C85.5127 204.497 87.0193 206.088 88.068 207.863C89.1206 209.639 89.7795 211.612 90.5147 213.541C91.2499 215.47 92.9012 217.298 94.2471 218.86C97.3849 222.504 94.3757 224.356 93.2829 223.913C91.945 223.374 90.575 222.303 89.4782 221.86" stroke="#002050" stroke-width="1.10185" stroke-linecap="round" stroke-linejoin="round"/>
<path d="M49.5972 226.637C50.3766 216.655 51.7627 206.721 53.7434 196.908" stroke="#002050" stroke-width="1.10185" stroke-linecap="round" stroke-linejoin="round"/>
<path d="M104.12 184.372C102.725 181.787 100.516 179.653 97.8962 178.34" stroke="#002050" stroke-width="1.10185" stroke-linecap="round" stroke-linejoin="round"/>
<path d="M107.861 183.315C101.682 184.825 96.6481 187.125 94.2214 189.557" stroke="#002050" stroke-width="1.10185" stroke-linecap="round" stroke-linejoin="round"/>
<path d="M122.838 188.328C109.584 192.27 75.5057 203.126 75.5057 203.126C75.1562 203.223 74.8026 203.295 74.4451 203.347" stroke="#002050" stroke-width="1.10185" stroke-linecap="round" stroke-linejoin="round"/>
<path d="M99.2908 226.637C98.5113 216.655 97.1252 206.721 95.1445 196.908" stroke="#002050" stroke-width="1.10185" stroke-linecap="round" stroke-linejoin="round"/>
</g>
<rect x="0.5" y="0.5" width="155" height="199" stroke="#CCDCFF"/>
<defs>
<clipPath id="clip0_5418_7149">
<rect width="156" height="200" fill="white"/>
</clipPath>
</defs>
</svg>
