<svg width="156" height="200" viewBox="0 0 156 200" fill="none" xmlns="http://www.w3.org/2000/svg">
<g clip-path="url(#clip0_5418_7578)">
<rect width="156" height="200" fill="#F2F6FF"/>
<path opacity="0.6" d="M-11.7259 117.734C-11.7259 117.734 -35.4551 195.855 33.7813 234.096C55.0709 245.854 111.286 253.789 152.194 212.219C165.919 198.272 182.715 160.542 153.182 138.432C130.115 121.159 103.249 134.259 92.3071 129.902C73.5058 122.413 71.419 110.961 69.8608 106.484C57.9853 72.4493 5.43097 65.609 -11.7259 117.734Z" fill="#CCDCFF"/>
<path d="M54.547 69.8111C55.2938 67.9259 56.8731 66.3861 58.7747 65.6853C58.9754 61.2108 61.5318 57.9405 65.1015 56.0191C65.5983 55.7493 66.1149 55.5091 66.6479 55.292C67.8783 59.3026 70.7901 62.7769 74.5342 64.672C74.7381 66.067 74.9322 67.4027 75.1231 68.7188C75.2053 69.2912 75.8962 69.5676 76.3272 69.1892C76.699 68.857 77.1234 68.6431 77.5775 68.5279C82.4237 67.2909 84.1938 75.5457 77.5939 76.9571C78.9198 79.3786 80.7425 81.4546 82.9172 83.0174L83.062 100.215C83.062 100.215 83.062 100.244 83.0587 100.257C80.657 102.593 77.5808 103.738 74.5802 103.738C71.0072 103.738 67.3453 102.202 64.6475 99.7244C64.6475 99.6257 64.6508 99.5237 64.6541 99.425C65.4601 94.5392 67.069 91.0386 66.5656 86.4753C65.1476 86.3009 63.9039 86.0541 62.8281 85.712C58.9195 84.4683 57.1988 81.9646 57.1692 77.115C57.1659 76.1148 57.2317 75.0127 57.3666 73.7953C54.9714 73.2624 53.5534 72.3313 54.547 69.8111ZM62.1668 69.5742C64.5916 70.6435 68.4508 69.7453 68.4508 66.873C68.4508 64.0008 64.5949 63.1026 62.1734 64.1686C61.0613 64.6588 60.252 65.5603 60.252 66.873C60.252 68.1858 61.058 69.084 62.1668 69.5742Z" fill="#CFA891"/>
<path d="M64.6541 99.425C64.6508 99.5237 64.6475 99.6257 64.6475 99.7244C67.3453 102.202 71.0072 103.738 74.5802 103.738C77.5808 103.738 80.657 102.593 83.0587 100.257C83.062 100.244 83.062 100.228 83.062 100.215L82.9172 83.0174C80.7425 81.4546 78.9198 79.3786 77.5939 76.9571C84.1938 75.5457 82.4237 67.2909 77.5775 68.5279C77.1234 68.6431 76.699 68.857 76.3272 69.1892C75.8962 69.5676 75.2053 69.2912 75.1231 68.7188C74.9322 67.4027 74.7381 66.067 74.5342 64.672C70.7901 62.7769 67.8783 59.3026 66.6479 55.292C66.1149 55.5091 65.5983 55.7493 65.1015 56.0191C67.3848 60.1679 72.4482 62.721 70.0794 73.8908C68.5857 80.9381 66.2004 83.5767 62.8281 85.712C63.9039 86.0541 65.1476 86.3009 66.5656 86.4753C67.069 91.0386 65.4601 94.5392 64.6541 99.425Z" fill="#BF9074"/>
<path d="M62.1734 64.1689C61.0614 64.6592 60.252 65.5606 60.252 66.8767C60.252 68.1927 61.0581 69.0876 62.1669 69.5778C62.9696 67.8999 62.9729 65.8502 62.1734 64.1689Z" fill="#002050"/>
<path d="M62.1731 64.168C62.9726 65.8492 62.9693 67.8989 62.1665 69.5768C64.588 70.6461 68.4473 69.7446 68.4473 66.8757C68.4473 64.0068 64.5946 63.1053 62.1698 64.168H62.1731Z" fill="#F5F5FA"/>
<path d="M66.6478 55.2921C67.8783 59.3027 70.79 62.7803 74.5341 64.6754C74.7381 66.0671 74.9322 67.4029 75.1197 68.7222C75.2053 69.2947 75.8929 69.5711 76.3239 69.1894C76.6957 68.8571 77.1201 68.6465 77.5741 68.5314C82.4237 67.291 84.1905 75.5458 77.5939 76.9573C78.9165 79.3787 80.7425 81.4581 82.9172 83.0176V82.6228C84.9209 80.879 86.5692 78.5826 87.701 76.0426C89.0071 73.1145 89.6224 69.8573 89.3032 66.7613C88.9676 63.4548 87.5726 60.326 84.8189 57.9538C79.8969 53.7129 72.3561 52.9825 66.6478 55.2889V55.2921Z" fill="#4C6284"/>
<path d="M90.8034 66.7514C90.3724 66.6198 89.8723 66.6132 89.3064 66.7646C89.6256 69.8605 89.0103 73.1177 87.7042 76.0458C88.0727 76.2564 88.4905 76.365 88.9281 76.3748C90.198 76.4045 91.6095 75.5754 92.3267 73.8316C93.4322 71.1338 92.9518 67.4061 90.8067 66.7547L90.8034 66.7514Z" fill="#009FFF"/>
<path d="M88.9283 76.3789C83.6477 94.9842 99.0025 112.191 106.267 104.986C109.626 105.874 113.403 104.203 114.782 100.755C117.963 101.459 120.233 99.5245 120.319 97.4189C120.467 93.7768 116.384 94.6421 111.406 81.2646C109.514 76.1749 105.053 63.0936 94.5313 64.834C93.1429 65.0643 91.738 65.7289 90.8102 66.7521C92.9553 67.4036 93.4357 71.1312 92.3302 73.8291C91.6163 75.5761 90.2048 76.4052 88.9316 76.3723L88.9283 76.3789Z" fill="#4C6284"/>
<path d="M68.4512 66.8731C68.4512 62.6914 60.2556 62.6914 60.2556 66.8731C60.2556 71.0548 68.4512 71.0548 68.4512 66.8731Z" stroke="#002050" stroke-width="1.09339" stroke-linecap="round" stroke-linejoin="round"/>
<path d="M62.1673 69.5745C62.9701 67.8999 62.9734 65.8469 62.1739 64.1689" stroke="#002050" stroke-width="1.09339" stroke-linecap="round" stroke-linejoin="round"/>
<path d="M66.5691 86.4755C67.0692 91.0388 65.4603 94.5395 64.6576 99.4252C64.2627 108.634 82.6674 109.424 83.0655 100.215L82.9174 82.6228C89.7147 76.7238 92.3896 64.4781 84.8191 57.9539C76.1432 50.4756 59.3079 53.9104 58.7716 65.6823C56.87 66.3831 55.294 67.9228 54.5505 69.808C53.5536 72.3282 54.9683 73.2593 57.3668 73.7923C56.3008 83.4059 59.502 86.1235 69.1584 86.6992" stroke="#002050" stroke-width="1.09339" stroke-linecap="round" stroke-linejoin="round"/>
<path d="M82.9209 83.0215C80.7462 81.4621 78.9202 79.3794 77.5943 76.958C84.1942 75.5465 82.4274 67.2917 77.5745 68.5321C77.1238 68.6472 76.6994 68.8578 76.3276 69.1868C75.8966 69.5717 75.2057 69.2921 75.1234 68.7196C74.9326 67.4003 74.7385 66.0645 74.5345 64.6728C70.7904 62.7777 67.8787 59.3034 66.6482 55.2896" stroke="#002050" stroke-width="1.09339" stroke-linecap="round" stroke-linejoin="round"/>
<path d="M68.1255 62.3294C66.1613 60.885 63.3845 60.635 61.1933 61.7075" stroke="#002050" stroke-width="1.09339" stroke-linecap="round" stroke-linejoin="round"/>
<path d="M62.6211 75.7739C60.9267 76.659 59.0152 77.1261 57.1037 77.1196" stroke="#002050" stroke-width="1.09339" stroke-linecap="round" stroke-linejoin="round"/>
<path d="M87.7049 76.0464C89.1492 76.8689 91.3635 76.1714 92.3242 73.8256C93.6501 70.5849 92.6926 65.8603 89.3105 66.7585" stroke="#002050" stroke-width="1.09339" stroke-linecap="round" stroke-linejoin="round"/>
<path d="M88.9285 76.3789C83.648 94.9843 99.0027 112.191 106.264 104.986" stroke="#002050" stroke-width="1.09339" stroke-linecap="round" stroke-linejoin="round"/>
<path d="M112.568 99.8795C116.858 102.301 120.214 99.9848 120.32 97.4186C120.464 93.7797 116.385 94.645 111.407 81.2643C109.515 76.1779 105.05 63.0933 94.5286 64.837C93.1271 65.0706 91.7091 65.7451 90.7813 66.7814" stroke="#002050" stroke-width="1.09339" stroke-linecap="round" stroke-linejoin="round"/>
<path d="M103.089 103.157C106.774 106.806 112.926 105.375 114.779 100.752" stroke="#002050" stroke-width="1.09339" stroke-linecap="round" stroke-linejoin="round"/>
<path d="M21.2419 161.42C20.9919 161.759 20.755 162.104 20.5247 162.453C20.8339 163.134 21.6433 163.486 22.3868 163.437C22.6336 163.42 22.8738 163.371 23.1074 163.292C24.9136 162.686 26.2954 160.38 28.0359 158.765C26.3941 159.63 24.6866 160.709 23.3179 161.351C22.6073 161.686 21.8341 161.647 21.2419 161.42Z" fill="#BF9074"/>
<path d="M28.0357 158.764C26.2952 160.379 24.9134 162.686 23.1072 163.291C23.0545 163.758 23.0479 164.166 23.14 164.331C23.4559 164.887 24.8147 164.946 25.6997 163.768C26.6835 162.465 26.6538 160.353 29.3616 158.244L29.3122 158.139C28.8977 158.323 28.47 158.537 28.0357 158.764Z" fill="#BF9074"/>
<path d="M58.7287 161.502C49.7863 179.074 38.5244 208.638 32.3226 225.507L37.6394 228.826C68.9641 176.725 79.0943 158.853 77.8539 144.11C70.6026 144.821 63.3809 145.584 55.8072 145.755C55.8006 146.272 55.8072 146.798 55.8269 147.335C55.975 151.325 56.8073 155.899 58.7287 161.502Z" fill="#00A3FF"/>
<path d="M35.6489 146.506L36.0832 147.046L42.3343 154.761L42.8443 155.389L46.1738 151.902C46.062 151.797 45.9468 151.675 45.835 151.54C42.7061 147.302 40.7682 145.154 40.1695 143.624L35.6489 146.506Z" fill="#BDF2C8"/>
<path d="M21.2418 161.419C21.834 161.646 22.6072 161.686 23.3179 161.35C23.6107 161.212 23.9167 161.057 24.2358 160.883C25.4103 160.258 26.7428 159.445 28.0358 158.764C28.4701 158.537 28.8978 158.323 29.3124 158.139C31.5529 157.136 33.4414 156.915 33.8066 159.343C34.083 161.172 32.7966 162.788 32.5235 164.374C32.3096 165.611 34.412 167.424 35.3595 165.986C36.1985 164.716 37.9685 160.807 38.9753 159.666C39.5478 159.011 41.6107 157.136 42.3345 154.76L37.9949 149.407L36.0833 147.045C30.1283 147.246 23.9923 156.55 20.5016 159.804C19.8962 160.366 20.3831 161.094 21.2418 161.419Z" fill="#CFA891"/>
<path d="M24.2358 160.883C25.4104 160.258 26.7428 159.445 28.0358 158.764C28.4701 158.537 28.8978 158.323 29.3124 158.139C31.5529 157.136 33.4414 156.915 33.8066 159.343C34.083 161.173 32.7966 162.788 32.5235 164.374C32.3096 165.611 34.412 167.424 35.3595 165.986C36.1985 164.716 37.9685 160.807 38.9753 159.666C39.5478 159.011 41.6107 157.136 42.3345 154.76L37.9949 149.407C37.2382 150.124 36.3729 151.714 34.5798 153.964C32.2899 156.836 26.4007 157.955 24.2358 160.883Z" fill="#BF9074"/>
<path d="M37.6398 228.826L41.4958 231.231C52.5603 214.62 80.7496 170.177 85.4051 155.185C86.4645 151.763 86.7671 147.473 86.5138 143.327C83.6054 143.554 80.7266 143.827 77.8543 144.11C79.0947 158.853 68.9646 176.725 37.6398 228.826Z" fill="#00A3FF"/>
<path d="M55.8072 145.757C55.8236 143.43 56.0737 141.295 56.4685 139.252C57.0212 136.403 57.8503 133.731 58.7255 130.964C59.4295 128.744 58.8439 126.983 57.9227 125.174C52.7474 130.139 47.4307 135.426 42.0777 139.795C40.2123 141.318 39.6167 142.207 40.1695 143.625C40.7683 145.154 42.7061 147.303 45.835 151.54C45.9468 151.675 46.062 151.797 46.1739 151.902C47.8847 153.495 49.7732 151.748 55.8269 147.336C55.8072 146.799 55.8006 146.273 55.8072 145.757Z" fill="#99D0A4"/>
<path d="M41.4959 231.232L46.9179 234.614L74.8078 193.232L91.8603 167.924L92.9394 166.325C97.6936 159.614 98.9306 150.579 96.292 142.805C92.9756 142.884 89.7283 143.078 86.5139 143.328C86.7672 147.473 86.4646 151.764 85.4052 155.185C80.7497 170.178 52.5604 214.62 41.4959 231.232Z" fill="#00A3FF"/>
<path d="M57.6035 136.563C57.3732 137.448 57.1692 138.339 56.9916 139.251C57.3962 139.254 57.8009 139.257 58.199 139.257C70.823 139.261 81.5783 136.944 94.1694 136.902C92.7283 133.927 91.8564 131.628 92.7579 127.607C97.1403 133.464 102.125 140.1 108.669 149.187C109.62 150.513 111.143 151.654 112.768 151.529C113.13 151.503 113.472 151.408 113.798 151.269C114.42 151.009 114.989 150.598 115.532 150.194C116.831 149.233 117.957 148.42 118.924 147.713C118.983 147.67 119.042 147.627 119.098 147.585C121.868 145.555 123.316 144.387 123.869 143.031C124.007 142.695 124.089 142.35 124.122 141.975C124.303 139.896 124.201 140.445 105.027 109.252C102.552 105.222 99.9434 101.06 95.9723 98.4901C95.8111 98.3881 95.6499 98.2861 95.4887 98.1907V97.7729C95.4887 97.7729 95.5084 97.7597 95.515 97.7498C95.5183 97.7498 95.5216 97.7465 95.5249 97.7433C97.6239 96.0489 96.0776 93.5682 93.5311 90.1202C93.4719 90.0379 93.3929 89.959 93.2942 89.8833C92.1493 88.9785 87.8186 88.5299 83.5513 88.6747L83.5721 91.5217C77.617 92.1863 82.2429 94.5815 63.7625 96.3713C63.042 97.1543 62.3708 98.1512 62.407 99.1317C59.9724 101.435 58.3372 105.59 57.0014 108.663C53.1817 117.434 56.531 121.409 58.4458 125.173C58.8998 126.064 59.2716 126.943 59.446 127.867C59.6302 128.825 59.6072 129.835 59.2486 130.963C58.6531 132.845 58.0806 134.684 57.6035 136.563Z" fill="#BDF2C8"/>
<path d="M56.4685 139.252C56.0737 141.296 55.8236 143.431 55.8072 145.757C63.3809 145.586 70.6026 144.823 77.854 144.112C80.7262 143.829 83.605 143.556 86.5134 143.329C89.7278 143.079 92.9751 142.885 96.2915 142.806C96.0513 142.102 95.7815 141.407 95.4789 140.726C94.8307 139.266 94.199 138.035 93.6463 136.903C80.6538 136.946 69.6189 139.41 56.4685 139.252Z" fill="#BDF2C8"/>
<path d="M91.86 167.925L74.8075 193.232C75.9426 195.074 77.1402 196.983 78.4036 198.957C84.8982 207.498 93.0641 219.092 100.299 229.732H100.302C105.053 226.899 109.962 224.33 114.999 222.04L91.86 167.925Z" fill="#007FCC"/>
<path d="M118.26 155.603C119.579 154.648 124.626 151.003 126.442 149.618H126.445C126.857 149.305 127.1 149.108 127.1 149.085L123.346 143.031C122.596 144.884 120.165 146.377 115.009 150.194C114.466 150.598 113.897 151.01 113.275 151.27C115.305 153.171 117.009 154.902 117.941 155.833C117.941 155.833 118.056 155.751 118.26 155.603Z" fill="#BDF2C8"/>
<path d="M118.259 155.603C119.006 163.002 129.725 174.007 130.969 169.487C132.558 169.984 133.193 169.148 132.877 168.493C132.884 168.493 132.887 168.493 132.894 168.49C133.361 168.451 133.683 168.138 133.788 167.454C134.887 167.7 135.424 167 134.598 165.483C133.232 162.979 131.449 160.571 131.097 157.741C130.936 156.438 131.087 155.093 130.735 153.826C130.176 151.823 128.455 150.312 126.445 149.618H126.442C125.586 150.27 124.014 151.424 122.451 152.563C120.697 153.839 118.957 155.099 118.259 155.603Z" fill="#CFA891"/>
<path d="M118.259 155.603C128.287 149.799 128.311 164.627 132.894 168.49C133.361 168.451 133.683 168.138 133.788 167.454C134.887 167.7 135.424 167 134.598 165.483C133.232 162.979 131.449 160.571 131.097 157.741C130.936 156.438 131.087 155.093 130.735 153.826C130.176 151.823 128.455 150.312 126.445 149.618H126.442C125.586 150.27 119.822 154.464 118.259 155.603Z" fill="#BF9074"/>
<path d="M94.9691 97.7736C97.1208 96.0792 95.5745 93.5886 93.0116 90.1209C92.2351 89.0746 88.3726 88.4232 83.7467 88.5811" stroke="#002050" stroke-width="1.09339" stroke-linecap="round" stroke-linejoin="round"/>
<path d="M87.5435 91.2253C84.2205 90.2515 79.7789 92.1597 77.9266 93.2652C72.6493 96.4138 69.5007 95.0747 63.243 96.371C62.5225 97.154 61.8513 98.1509 61.8875 99.1314C59.4529 101.434 57.821 105.59 56.4819 108.663C50.823 121.655 60.8972 124.123 58.7323 130.963C56.0509 139.438 53.7775 147.035 58.7323 161.501" stroke="#002050" stroke-width="1.09339" stroke-linecap="round" stroke-linejoin="round"/>
<path d="M74.8076 193.232C75.9427 195.078 77.1436 196.983 78.4069 198.957C86.5268 209.64 97.2722 225.107 105.53 237.5" stroke="#002050" stroke-width="1.09339" stroke-linecap="round" stroke-linejoin="round"/>
<path d="M118.927 231.222L91.8601 167.928" stroke="#002050" stroke-width="1.09339" stroke-linecap="round" stroke-linejoin="round"/>
<path d="M42.3379 154.764C41.6108 157.136 39.5512 159.014 38.9754 159.669C37.972 160.811 36.1986 164.719 35.3597 165.989C34.4121 167.427 32.3098 165.614 32.5236 164.381C32.7967 162.791 34.0831 161.179 33.8067 159.35C33.1158 154.76 26.9897 159.63 23.318 161.357C21.5776 162.176 19.4785 160.765 20.5017 159.811C23.9925 156.557 30.1284 147.252 36.0835 147.052" stroke="#002050" stroke-width="1.09339" stroke-linecap="round" stroke-linejoin="round"/>
<path d="M21.2419 161.42C20.9951 161.759 20.755 162.104 20.5247 162.453C20.8372 163.131 21.6433 163.486 22.3868 163.437C24.5616 163.292 26.0717 160.587 28.0359 158.765" stroke="#002050" stroke-width="1.09339" stroke-linecap="round" stroke-linejoin="round"/>
<path d="M23.1074 163.292C23.0548 163.759 23.0482 164.167 23.1403 164.332C23.4561 164.888 24.8149 164.95 25.7 163.769C26.6804 162.466 26.6541 160.354 29.3618 158.245" stroke="#002050" stroke-width="1.09339" stroke-linecap="round" stroke-linejoin="round"/>
<path d="M57.9233 125.175C52.7481 130.14 47.4313 135.43 42.0784 139.796C38.1961 142.964 39.8115 143.385 45.8356 151.541C47.6517 153.716 49.3725 152.042 55.8276 147.337" stroke="#002050" stroke-width="1.09339" stroke-linecap="round" stroke-linejoin="round"/>
<path d="M40.173 143.628L35.6491 146.51L42.8445 155.39L46.1741 151.902" stroke="#002050" stroke-width="1.09339" stroke-linecap="round" stroke-linejoin="round"/>
<path d="M77.9266 98.6492C83.0624 95.1979 90.2578 95.1321 95.4528 98.4913C99.424 101.061 102.03 105.223 104.507 109.253C123.682 140.446 123.78 139.897 123.599 141.976C123.386 144.421 121.102 145.691 115.012 150.195C114.177 150.813 113.285 151.452 112.249 151.53C110.62 151.656 109.1 150.511 108.146 149.188C97.2426 134.044 90.6724 125.717 83.9935 116.439" stroke="#002050" stroke-width="1.09339" stroke-linecap="round" stroke-linejoin="round"/>
<path d="M92.2348 127.608C90.9912 133.165 93.1264 135.432 95.4821 140.729C99.1275 148.925 98.124 159.009 92.9389 166.326L41.6105 242.494" stroke="#002050" stroke-width="1.09339" stroke-linecap="round" stroke-linejoin="round"/>
<path d="M29.6022 232.987C36.2942 214.421 58.8148 153.466 68.0171 147.662" stroke="#002050" stroke-width="1.09339" stroke-linecap="round" stroke-linejoin="round"/>
<path d="M63.3914 100.169C61.2232 107.148 65.8063 114.587 64.2566 121.66" stroke="#002050" stroke-width="1.09339" stroke-linecap="round" stroke-linejoin="round"/>
<path d="M96.2952 142.805C82.4078 143.137 69.7048 145.443 55.8076 145.756" stroke="#002050" stroke-width="1.09339" stroke-linecap="round" stroke-linejoin="round"/>
<path d="M93.6499 136.905C80.6607 136.948 69.6225 139.412 56.4721 139.254" stroke="#002050" stroke-width="1.09339" stroke-linecap="round" stroke-linejoin="round"/>
<path d="M113.275 151.273C115.305 153.172 117.009 154.902 117.941 155.834C117.941 155.834 127.1 149.234 127.1 149.089L123.349 143.035" stroke="#002050" stroke-width="1.09339" stroke-linecap="round" stroke-linejoin="round"/>
<path d="M128.956 162.565C131.802 168.23 136.385 168.757 134.598 165.483C133.233 162.979 131.45 160.574 131.098 157.741C130.936 156.438 131.088 155.09 130.736 153.826C130.176 151.823 128.452 150.306 126.442 149.618" stroke="#002050" stroke-width="1.09339" stroke-linecap="round" stroke-linejoin="round"/>
<path d="M118.263 155.604C119.007 163.003 129.729 174.011 130.973 169.488" stroke="#002050" stroke-width="1.09339" stroke-linecap="round" stroke-linejoin="round"/>
<path d="M127.1 164.075C129.492 167.086 133.378 170.162 133.789 167.454" stroke="#002050" stroke-width="1.09339" stroke-linecap="round" stroke-linejoin="round"/>
<path d="M125.501 165.157C130.982 171.398 133.443 169.661 132.881 168.49" stroke="#002050" stroke-width="1.09339" stroke-linecap="round" stroke-linejoin="round"/>
</g>
<rect x="0.5" y="0.5" width="155" height="199" stroke="#CCDCFF"/>
<defs>
<clipPath id="clip0_5418_7578">
<rect width="156" height="200" fill="white"/>
</clipPath>
</defs>
</svg>
