<svg width="156" height="200" viewBox="0 0 156 200" fill="none" xmlns="http://www.w3.org/2000/svg">
<g clip-path="url(#clip0_5418_7672)">
<rect width="156" height="200" fill="#F2F6FF"/>
<path opacity="0.6" d="M-11.7259 117.734C-11.7259 117.734 -35.4551 195.855 33.7813 234.096C55.0709 245.854 111.286 253.789 152.194 212.219C165.919 198.272 182.715 160.542 153.182 138.432C130.115 121.159 103.249 134.259 92.3071 129.902C73.5058 122.413 71.419 110.961 69.8608 106.484C57.9853 72.4493 5.43097 65.609 -11.7259 117.734Z" fill="#CCDCFF"/>
<g clip-path="url(#clip1_5418_7672)">
<path d="M52.1206 130.717C49.2854 127.048 46.5626 123.293 43.9521 119.462C45.9849 116.938 48.0123 114.418 50.045 111.893C52.3345 109.042 54.6615 106.164 57.5501 103.917C62.0917 100.387 67.9011 98.8033 73.6516 98.6588C81.483 98.4609 97.8253 97.2466 104.87 101.366C108.738 103.623 111.744 107.073 114.611 110.508C117.013 113.38 119.378 116.29 121.71 119.248C117.361 123.624 112.873 127.866 108.262 131.969C106.748 130.445 105.234 128.92 103.715 127.395C103.421 134.082 103.126 137.008 102.832 142.042C101.158 143.716 99.5049 145.412 97.8787 147.134C95.9637 149.167 94.0326 151.339 93.2355 154.014C92.6311 156.02 92.7327 158.17 93.3372 160.187C79.4877 161.449 63.0332 161.332 52.5218 160.096C52.1848 160.058 51.8478 160.016 51.5215 159.973C51.2433 152.034 51.3235 144.192 51.7461 136.42C51.8478 134.515 51.9708 132.611 52.1152 130.717H52.1206Z" fill="#20DFFF"/>
<path d="M105.898 156.004C105.962 155.993 106.026 155.988 106.095 155.982C105.534 156.341 105.1 156.614 104.833 156.779H104.828C104.817 156.619 104.796 156.464 104.769 156.303H104.774C105.138 156.164 105.512 156.052 105.898 156.004Z" fill="#9C7757"/>
<path d="M108.561 162.856C107.807 161.711 106.347 161.171 104.983 161.262C104.603 161.288 104.229 161.358 103.875 161.492C104.106 161.074 104.298 160.636 104.453 160.181C104.646 159.603 104.769 159.004 104.828 158.4H104.833C105.138 158.303 105.443 158.223 105.758 158.175C106.454 158.063 107.187 158.089 107.834 158.373C108.091 158.485 108.331 158.646 108.54 158.833C109.145 159.373 109.519 160.17 109.503 160.983C109.487 161.722 109.15 162.438 108.62 162.952C108.604 162.92 108.583 162.888 108.561 162.856Z" fill="#9C7757"/>
<path d="M110.696 134.413H110.69C109.883 133.595 109.075 132.782 108.262 131.969C112.873 127.866 117.361 123.624 121.71 119.248C124.561 122.864 127.359 126.561 130.13 130.359C131.462 132.209 132.109 134.686 131.435 136.863C130.531 139.768 127.76 141.854 127.391 142.116C122.192 145.791 110.364 153.291 106.095 155.982C106.026 155.987 105.962 155.993 105.897 156.003C105.512 156.051 105.138 156.164 104.774 156.303H104.769C104.795 156.463 104.817 156.618 104.828 156.779C104.886 157.319 104.886 157.865 104.828 158.4C104.769 159.004 104.646 159.603 104.453 160.181C104.298 160.636 104.105 161.074 103.875 161.492C104.228 161.358 104.603 161.288 104.983 161.262C106.347 161.171 107.807 161.711 108.561 162.856C108.583 162.888 108.604 162.92 108.62 162.952C109.439 164.284 109.15 166.087 108.315 167.419C107.053 169.441 104.416 170.489 102.185 169.649C101.998 169.58 101.811 169.505 101.629 169.425C98.7507 168.21 96.5308 166.172 94.8671 163.53C94.2145 162.497 93.6903 161.363 93.3426 160.186C92.7381 158.17 92.6365 156.019 93.2409 154.013C94.038 151.339 95.9691 149.167 97.8841 147.134C99.5103 145.412 101.163 143.716 102.838 142.047C105.416 139.458 108.048 136.922 110.696 134.413Z" fill="#9C7757"/>
<path d="M104.828 158.4C104.886 157.865 104.886 157.32 104.828 156.779H104.833C105.1 156.614 105.534 156.341 106.095 155.982C106.983 155.929 107.93 156.244 108.412 156.983C108.77 157.523 108.791 158.24 108.54 158.834C108.331 158.646 108.091 158.486 107.834 158.374C107.187 158.09 106.454 158.063 105.758 158.176C105.443 158.224 105.138 158.304 104.833 158.4H104.828Z" fill="#9C7757"/>
<path d="M76.4065 237.682H55.9988C54.8434 212.097 53.6826 185.714 52.5271 160.096C63.0385 161.331 79.4931 161.449 93.3425 160.187C93.6902 161.364 94.2144 162.498 94.867 163.53C96.5307 166.173 98.7507 168.211 101.629 169.425L97.6915 237.682H76.4065Z" fill="#FFF5D2"/>
<path d="M20.4205 100.408C20.9019 100.948 21.1319 101.729 20.9394 102.43C20.918 102.505 20.8966 102.575 20.8645 102.65C20.6665 103.142 20.26 103.559 19.7946 103.837C19.586 103.966 19.3667 104.067 19.1366 104.153C18.7889 104.292 18.4252 104.388 18.0561 104.468C16.4994 104.811 14.8465 104.923 13.3433 104.393C13.0919 104.303 12.8405 104.19 12.6105 104.051C12.0702 103.746 11.6101 103.308 11.4069 102.724C11.1822 102.093 11.2999 101.366 11.6315 100.783C11.8295 100.44 12.0969 100.146 12.4072 99.9C14.1564 100.365 17.9223 100.226 19.3613 99.686C19.7679 99.8412 20.1316 100.087 20.4205 100.408Z" fill="#9C7757"/>
<path d="M20.1691 109.149C20.5917 109.678 20.8111 110.422 20.5543 111.048C20.3457 111.545 19.891 111.872 19.3774 112.08C19.1528 112.176 18.9174 112.251 18.6927 112.305C17.6978 112.551 16.6332 112.636 15.649 112.353C14.6647 112.069 13.7606 111.379 13.3862 110.422C13.0599 109.582 13.2204 108.539 13.8302 107.892C14.0014 108.004 14.1832 108.1 14.3651 108.186C15.1782 108.555 16.0823 108.683 16.9756 108.699C17.7405 108.715 18.5322 108.641 19.2223 108.314C19.5754 108.55 19.907 108.817 20.1691 109.149Z" fill="#9C7757"/>
<path d="M24.4005 113.482C23.4269 113.653 22.4105 113.584 21.4744 113.279C20.7041 113.027 19.9873 112.615 19.3774 112.086C19.891 111.872 20.3457 111.545 20.5543 111.048C20.8111 110.422 20.5917 109.679 20.1691 109.149C19.907 108.817 19.5754 108.55 19.2223 108.315C19.2758 108.288 19.3239 108.261 19.3774 108.234C20.0996 107.844 20.6773 107.095 20.6666 106.266C20.6559 105.736 20.4099 105.228 20.0461 104.837C19.7893 104.559 19.4737 104.335 19.1367 104.158C19.3667 104.067 19.5861 103.965 19.7947 103.837C20.2601 103.559 20.6666 103.142 20.8646 102.65C20.8966 102.575 20.918 102.505 20.9394 102.43C21.132 101.729 20.902 100.948 20.4206 100.408C20.1317 100.087 19.7679 99.8412 19.3614 99.686C19.4737 99.6379 19.5754 99.5951 19.6556 99.547C20.5543 99.0281 21.4583 97.2842 20.3403 96.2411C21.3085 96.3267 22.6352 96.4015 23.1113 96.0378C23.5927 95.6687 24.0046 94.4758 24.0902 93.8767C24.2988 92.4751 24.4058 91.0469 24.8712 89.7095C25.3312 88.3722 26.2192 87.0991 27.5245 86.5641C28.3376 86.2325 29.3967 86.2699 29.9317 86.96C30.3329 87.4735 30.3275 88.185 30.2526 88.8269C30.0173 90.8329 29.2256 92.8442 29.6749 94.8181C30.1349 96.8776 31.8574 98.4343 32.5903 100.414C33.3285 102.403 33.0771 104.661 32.2533 106.603H32.2586C35.2275 111.968 38.3087 117.275 41.5023 122.512C42.3207 121.495 43.1392 120.479 43.9523 119.463C46.5627 123.293 49.2855 127.048 52.1207 130.717C51.9763 132.611 51.8532 134.516 51.7516 136.42C49.5958 138.859 47.3223 141.379 45.8727 142.823C44.4177 144.278 42.7059 145.583 40.6517 145.492C38.5922 145.401 36.6611 144.358 35.1901 142.914C33.7243 141.475 32.6759 139.662 31.8146 137.789C30.3329 134.564 29.3646 131.124 28.4018 127.706C27.0698 122.966 25.7378 118.221 24.4058 113.482H24.4005Z" fill="#9C7757"/>
<path d="M19.6554 99.5466C19.5752 99.5947 19.4735 99.6375 19.3612 99.6856C17.9222 100.226 14.1563 100.365 12.4071 99.8996C12.1824 99.8354 11.9898 99.7659 11.8401 99.6856C10.813 99.1293 10.4653 97.2517 11.1714 96.3156C12.7922 94.1865 18.7353 95.3152 19.8694 95.9144C20.0566 96.0107 20.2118 96.123 20.3348 96.2407H20.3401C21.4581 97.2838 20.5541 99.0277 19.6554 99.5466Z" fill="#9C7757"/>
<path d="M12.4928 106.357C12.1825 105.624 12.2039 104.736 12.6051 104.057C12.8351 104.19 13.0866 104.303 13.338 104.394C14.8411 104.923 16.4941 104.811 18.0507 104.469C18.4198 104.388 18.7836 104.292 19.1313 104.153C19.4683 104.335 19.7839 104.559 20.0407 104.838C20.4044 105.228 20.6505 105.736 20.6612 106.266C20.6719 107.095 20.0942 107.844 19.372 108.234C19.3185 108.261 19.2704 108.288 19.2169 108.315C18.5268 108.641 17.7351 108.716 16.9702 108.7C16.0768 108.684 15.1728 108.555 14.3597 108.186C14.1778 108.101 13.9959 108.004 13.8248 107.892C13.2417 107.518 12.7495 106.993 12.4874 106.357H12.4928Z" fill="#9C7757"/>
<path d="M41.5022 122.506C44.348 118.965 47.1992 115.429 50.0451 111.888C52.3399 109.037 54.6615 106.159 57.5502 103.912C62.0918 100.381 67.9011 98.7979 73.6517 98.6481C81.4831 98.4502 97.8253 97.2359 104.87 101.355C108.738 103.612 111.739 107.063 114.611 110.497C119.955 116.884 125.096 123.442 130.13 130.348C131.462 132.199 132.109 134.676 131.435 136.848C130.531 139.752 127.766 141.844 127.396 142.106C121.512 146.262 107.144 155.319 104.838 156.769" stroke="#002050" stroke-linecap="round" stroke-linejoin="round"/>
<path d="M104.389 154.8C105.009 156.517 105.031 158.448 104.448 160.176C103.865 161.904 102.682 163.428 101.147 164.423" stroke="#002050" stroke-linecap="round" stroke-linejoin="round"/>
<path d="M110.69 134.408C106.732 130.428 102.779 126.454 98.8203 122.474" stroke="#002050" stroke-linecap="round" stroke-linejoin="round"/>
<path d="M108.262 131.964C112.873 127.866 117.361 123.624 121.71 119.243" stroke="#002050" stroke-linecap="round" stroke-linejoin="round"/>
<path d="M114.077 131.209C108 136.933 103.613 141.057 97.8896 147.134C95.9745 149.167 94.0434 151.333 93.241 154.008C92.2888 157.185 93.1019 160.716 94.8672 163.524C96.6325 166.333 99.0343 168.462 102.185 169.644C104.416 170.484 107.053 169.435 108.321 167.413C109.177 166.049 109.455 164.193 108.567 162.85C107.813 161.711 106.352 161.165 104.988 161.256C104.608 161.283 104.229 161.352 103.881 161.486" stroke="#002050" stroke-linecap="round" stroke-linejoin="round"/>
<path d="M102.485 163.343C102.527 164.215 103.303 164.905 104.122 165.226C104.592 165.408 105.138 165.504 105.598 165.295" stroke="#002050" stroke-linecap="round" stroke-linejoin="round"/>
<path d="M104.833 158.395C105.138 158.299 105.443 158.224 105.758 158.17C106.454 158.058 107.187 158.085 107.834 158.368C108.834 158.807 109.524 159.882 109.503 160.979C109.487 161.717 109.155 162.434 108.626 162.947" stroke="#002050" stroke-linecap="round" stroke-linejoin="round"/>
<path d="M104.774 156.303C105.138 156.159 105.512 156.052 105.898 156.004C106.839 155.886 107.887 156.191 108.412 156.983C108.77 157.523 108.792 158.24 108.54 158.834" stroke="#002050" stroke-linecap="round" stroke-linejoin="round"/>
<path d="M102.838 142.042C103.132 137.008 103.426 134.082 103.715 127.396" stroke="#002050" stroke-linecap="round" stroke-linejoin="round"/>
<path d="M53.8323 114.723C51.7835 129.567 50.9972 144.583 51.5267 159.967C61.974 161.315 79.0437 161.486 93.3425 160.181" stroke="#002050" stroke-linecap="round" stroke-linejoin="round"/>
<path d="M20.335 96.2357C21.3032 96.3266 22.6352 96.4015 23.1113 96.0324C23.5927 95.6633 24.0046 94.4704 24.0902 93.8713C24.2988 92.4698 24.4058 91.0415 24.8658 89.7042C25.3259 88.3668 26.2139 87.0937 27.5245 86.5588C28.3322 86.2271 29.3914 86.2645 29.9317 86.9546C30.3275 87.4681 30.3275 88.1743 30.2526 88.8215C30.0172 90.8275 29.2255 92.8389 29.6695 94.8128C30.1349 96.8723 31.8521 98.4289 32.5903 100.408C33.382 102.548 33.0343 104.993 32.0607 107.025" stroke="#002050" stroke-linecap="round" stroke-linejoin="round"/>
<path d="M24.4004 113.481C25.7324 118.221 27.0644 122.966 28.3963 127.705C29.3592 131.124 30.3221 134.563 31.8092 137.789C32.6705 139.656 33.7189 141.474 35.1846 142.913C36.6504 144.352 38.5868 145.396 40.641 145.492C42.6951 145.588 44.4122 144.278 45.8673 142.823C47.3223 141.368 49.5904 138.859 51.7462 136.419" stroke="#002050" stroke-linecap="round" stroke-linejoin="round"/>
<path d="M52.1206 130.712C49.2908 127.042 46.568 123.287 43.9575 119.457" stroke="#002050" stroke-linecap="round" stroke-linejoin="round"/>
<path d="M65.4673 173.544C67.8049 174.871 70.2817 175.962 72.8387 176.786L76.4013 237.677H97.6863L101.618 169.42" stroke="#002050" stroke-linecap="round" stroke-linejoin="round"/>
<path d="M52.5271 160.091C53.6826 185.709 54.8434 212.092 55.9988 237.678H76.3584" stroke="#002050" stroke-linecap="round" stroke-linejoin="round"/>
<path d="M19.8695 95.9146C21.6669 96.8668 20.6559 98.9691 19.6609 99.5468C18.3931 100.28 13.2363 100.446 11.8455 99.6859C10.8131 99.1242 10.4707 97.252 11.1769 96.3158C12.7924 94.1814 18.7355 95.3155 19.8695 95.9146Z" stroke="#002050" stroke-linecap="round" stroke-linejoin="round"/>
<path d="M19.3667 99.6807C19.7679 99.8411 20.137 100.082 20.4258 100.403C20.9073 100.943 21.1373 101.724 20.9447 102.425C20.7789 103.024 20.3296 103.511 19.8 103.832C19.2704 104.153 18.6659 104.329 18.0561 104.463C16.5048 104.811 14.8465 104.918 13.3487 104.388C12.5195 104.094 11.7064 103.554 11.4122 102.719C11.1876 102.088 11.3052 101.36 11.6369 100.777C11.8348 100.435 12.1023 100.141 12.4126 99.8893" stroke="#002050" stroke-linecap="round" stroke-linejoin="round"/>
<path d="M12.6105 104.057C12.2039 104.736 12.1825 105.624 12.4928 106.357C12.8405 107.181 13.5573 107.812 14.3704 108.181C15.1835 108.55 16.0875 108.684 16.9809 108.695C17.8047 108.711 18.6552 108.625 19.3827 108.229C20.1102 107.833 20.6826 107.084 20.6719 106.261C20.6665 105.731 20.4151 105.217 20.0514 104.827C19.7893 104.549 19.479 104.324 19.142 104.148" stroke="#002050" stroke-linecap="round" stroke-linejoin="round"/>
<path d="M13.8302 107.892C13.2204 108.539 13.0599 109.582 13.3862 110.422C13.7606 111.379 14.6593 112.064 15.649 112.348C16.6386 112.631 17.6978 112.551 18.6927 112.305C19.447 112.118 20.2547 111.765 20.5543 111.048C20.8111 110.422 20.5917 109.678 20.1745 109.149C19.9124 108.817 19.5807 108.55 19.2223 108.314" stroke="#002050" stroke-linecap="round" stroke-linejoin="round"/>
<path d="M26.155 106.078C24.9193 106.196 23.6836 105.666 22.7261 104.869C21.9825 104.244 21.3887 103.468 20.8645 102.649" stroke="#002050" stroke-linecap="round" stroke-linejoin="round"/>
<path d="M19.3774 112.08C19.9873 112.61 20.7041 113.022 21.4744 113.273C22.7261 113.68 24.1116 113.663 25.358 113.23" stroke="#002050" stroke-linecap="round" stroke-linejoin="round"/>
<path d="M32.2585 106.598C36.5059 114.279 40.213 120.608 44.9204 128.016" stroke="#002050" stroke-linecap="round" stroke-linejoin="round"/>
<path d="M93.3854 81.541C92.4385 83.3063 91.4864 85.0662 90.5342 86.8315C90.5877 85.339 90.6412 83.868 90.6733 82.429C91.6254 82.3274 92.5509 82.0171 93.3854 81.541Z" fill="#002050"/>
<path d="M97.0337 76.7803C96.5469 78.369 95.6268 79.8401 94.343 80.8885C94.0381 81.1346 93.7171 81.3539 93.3854 81.5412C92.5509 82.0173 91.6255 82.3329 90.6733 82.4291C90.6359 83.8681 90.5877 85.3392 90.5289 86.8316C90.3952 90.5655 90.2454 94.417 90.2133 98.0973C90.7429 98.2792 91.2778 98.4129 91.8181 98.5253C89.8923 100.28 87.5654 101.58 85.0619 102.291C81.5367 103.286 77.6905 103.083 74.2883 101.73C73.1436 101.275 72.1272 100.579 71.1322 99.868C70.5331 99.4347 70.2549 98.9158 70.2549 98.9158L72.3947 98.7232C72.3733 97.2307 72.4482 93.1011 72.5337 91.416C70.287 90.7206 68.2275 89.394 66.8046 87.5271C64.8254 84.9433 64.1941 81.5893 63.9427 78.3476C63.4934 72.6078 64.0658 66.7717 65.7936 61.2779C65.9915 60.6467 66.2055 60.0101 66.4997 59.4163C66.6709 59.0579 66.8742 58.7102 67.1149 58.3839C67.7461 57.5334 68.0296 56.8968 69.9554 56.533C73.7855 56.196 77.3856 56.2442 81.1676 56.9663C84.9388 57.6885 88.7636 59.518 91.7164 62.6527C90.7696 65.675 90.4112 68.8686 90.6626 72.0247C91.5292 71.34 92.6365 70.9602 93.7331 71.0511C95.2951 71.1795 96.7555 72.2975 97.1888 73.806C97.237 73.9772 97.2744 74.1537 97.2958 74.3303C97.4081 75.1434 97.2744 75.9939 97.0337 76.7856V76.7803Z" fill="#9C7757"/>
<path d="M85.5218 67.7827C85.2383 69.5693 83.2484 70.7248 81.0765 70.3771C79.6001 70.1417 78.4286 69.2698 77.9151 68.1785C77.6744 67.6596 77.5781 67.0926 77.669 66.5202C77.9525 64.7389 79.9425 63.5781 82.1143 63.9258C82.2053 63.9418 82.2908 63.9579 82.3764 63.9793C84.4092 64.4179 85.8 66.0762 85.5272 67.7827H85.5218Z" fill="#F5F5FA"/>
<path d="M82.1143 63.9204C82.2053 63.9365 82.2909 63.9525 82.3765 63.9739C82.1785 64.9528 81.6971 65.8676 81.0124 66.5897C80.1939 67.4403 79.0866 68.0073 77.9205 68.1731C77.6797 67.6543 77.5835 67.0872 77.6744 66.5149C77.9579 64.7335 79.9479 63.5727 82.1197 63.9204H82.1143Z" fill="#002050"/>
<path d="M80.2902 76.395C80.2367 77.4916 79.8195 78.5668 79.1455 79.4334C78.8085 79.8721 78.4019 80.2626 77.9472 80.5728C76.8025 81.3485 75.3581 81.6534 73.9994 81.4234C73.7266 81.3806 73.4645 81.311 73.2024 81.2254C71.635 80.7012 70.3405 79.412 69.9553 77.6039C73.3575 77.1813 76.7704 76.7641 80.2849 76.3896L80.2902 76.395Z" fill="#002050"/>
<path d="M74.0049 81.4235C74.4542 80.6478 75.1443 80.0059 75.9574 79.6261C76.947 79.1714 78.1078 79.1072 79.1456 79.4335C78.8086 79.8722 78.402 80.2627 77.9473 80.5729C76.8026 81.3486 75.3582 81.6535 73.9995 81.4235H74.0049Z" fill="#FF99F2" stroke="#FF99F2" stroke-width="0.534933" stroke-miterlimit="10"/>
<path d="M72.2287 49.0599C73.0151 48.188 74.0314 47.514 75.1548 47.1449C76.5563 46.6795 78.113 46.6902 79.5091 47.1609C80.5202 47.5086 81.4937 48.1559 82.0501 49.0439C83.8154 47.9259 86.1209 47.7012 88.0574 48.4715C89.8547 49.1883 91.2937 50.745 91.9035 52.5798C93.4709 52.4193 95.1078 52.8954 96.3274 53.9011C97.5096 54.88 98.2799 56.335 98.4511 57.8542C99.9115 58.1163 101.227 59.2022 101.859 60.577C102.65 62.2995 102.479 64.3537 101.757 66.1082C100.27 68.8364 98.7774 71.5699 97.285 74.3195C97.2582 74.1429 97.2261 73.9664 97.1726 73.7952C96.7393 72.2921 95.279 71.1687 93.717 71.0457C92.6203 70.9547 91.513 71.3345 90.6464 72.0192C90.395 68.8685 90.7588 65.6696 91.7056 62.6472C88.7528 59.5072 84.928 57.6777 81.1514 56.9555C77.3694 56.2334 73.7747 56.1906 69.9445 56.5222C68.0188 56.8806 67.7353 57.5172 67.104 58.3731C66.8633 58.6994 66.6654 59.0471 66.4889 59.4055C66.0128 57.9291 65.7614 56.3671 65.9379 54.8265C66.1358 53.0345 66.9543 51.2799 68.3665 50.1565C69.4417 49.306 70.8807 48.878 72.2234 49.0546L72.2287 49.0599Z" fill="#002050"/>
<path d="M74.9784 65.2307C74.9516 65.7389 74.9302 66.2471 74.9035 66.7553C73.6518 66.9372 72.5284 67.7449 71.8918 68.8308C71.4585 68.8843 71.0145 68.8736 70.5545 68.8041C69.0781 68.5687 67.9066 67.6968 67.3984 66.6055C67.1523 66.0866 67.056 65.5196 67.147 64.9472C67.4305 63.1605 69.4204 61.9997 71.5923 62.3528C71.6832 62.3688 71.7688 62.3849 71.8544 62.4009C73.4859 62.7593 74.7163 63.9041 74.9837 65.2307H74.9784Z" fill="#F5F5FA"/>
<path d="M71.5869 62.3474C71.6778 62.3635 71.7634 62.3795 71.849 62.3956C71.6511 63.3745 71.1696 64.2946 70.4849 65.0114C69.6665 65.8673 68.5592 66.4343 67.393 66.6001C67.1469 66.0813 67.0507 65.5142 67.1416 64.9418C67.4251 63.1552 69.4151 61.9944 71.5869 62.3474Z" fill="#002050"/>
<path d="M85.523 67.7819C85.8094 65.9996 84.2847 64.2725 82.1174 63.9242C79.9502 63.5759 77.9611 64.7383 77.6746 66.5205C77.3882 68.3028 78.9129 70.0299 81.0802 70.3782C83.2475 70.7265 85.2366 69.5641 85.523 67.7819Z" stroke="#002050" stroke-linecap="round" stroke-linejoin="round"/>
<path d="M82.3764 63.9683C82.1785 64.9472 81.7024 65.8673 81.0123 66.5894C80.1939 67.4453 79.0866 68.0124 77.9204 68.1782" stroke="#002050" stroke-linecap="round" stroke-linejoin="round"/>
<path d="M71.8863 68.8257C71.4584 68.8792 71.009 68.8739 70.549 68.799C68.3825 68.4513 66.8526 66.7235 67.1415 64.9421C67.4303 63.1608 69.4203 61.9946 71.5868 62.3477C73.352 62.6312 74.6947 63.8295 74.9729 65.231" stroke="#002050" stroke-linecap="round" stroke-linejoin="round"/>
<path d="M71.8491 62.3955C71.6511 63.3744 71.175 64.2945 70.485 65.0167C69.6665 65.8726 68.5592 66.4396 67.3931 66.6054" stroke="#002050" stroke-linecap="round" stroke-linejoin="round"/>
<path d="M80.8894 60.6198C82.6172 60.2026 84.5216 60.6038 85.9285 61.6897" stroke="#002050" stroke-linecap="round" stroke-linejoin="round"/>
<path d="M68.8372 58.8114C70.2066 58.3246 71.7579 58.3567 73.1059 58.897" stroke="#002050" stroke-linecap="round" stroke-linejoin="round"/>
<path d="M69.9607 77.6093C73.3682 77.1867 76.7704 76.7695 80.2902 76.395C80.2047 78.048 79.3113 79.6367 77.9472 80.5675C76.5832 81.4983 74.7751 81.7497 73.2077 81.2255C71.6404 80.7012 70.3458 79.412 69.9607 77.604V77.6093Z" stroke="#002050" stroke-linecap="round" stroke-linejoin="round"/>
<path d="M81.6008 91.1752C79.0224 91.999 76.2301 92.2557 73.5822 91.6833C70.9342 91.111 68.4468 89.672 66.7992 87.5162C64.8253 84.9325 64.1887 81.5731 63.9373 78.3314C63.4933 72.5916 64.0657 66.7555 65.7882 61.2617C66.1091 60.2453 66.4729 59.2236 67.1095 58.3677C67.746 57.5118 68.0242 56.8753 69.9553 56.5168C73.7854 56.1852 77.3855 56.228 81.1622 56.9448C84.9388 57.6616 88.7635 59.4964 91.7164 62.6365C90.7695 65.6535 90.4111 68.8524 90.6572 72.0085" stroke="#002050" stroke-linecap="round" stroke-linejoin="round"/>
<path d="M89.7158 73.0193C90.6038 71.7302 92.1765 70.9171 93.7385 71.0401C95.3005 71.1631 96.7609 72.2865 97.1888 73.7896C97.467 74.7579 97.3279 75.8063 97.0337 76.7746C96.5469 78.3633 95.6322 79.8344 94.343 80.8775C93.0538 81.9206 91.3902 82.5305 89.7319 82.4449" stroke="#002050" stroke-linecap="round" stroke-linejoin="round"/>
<path d="M90.5288 86.8261C91.481 85.0609 92.4385 83.2956 93.3907 81.5356" stroke="#002050" stroke-linecap="round" stroke-linejoin="round"/>
<path d="M97.2957 74.3247C98.7881 71.5752 100.281 68.8363 101.768 66.1135C102.49 64.3589 102.656 62.3048 101.864 60.5823C101.072 58.8598 99.1947 57.5867 97.3117 57.8327" stroke="#002050" stroke-linecap="round" stroke-linejoin="round"/>
<path d="M91.9089 52.5799C93.4763 52.4194 95.1132 52.8955 96.3328 53.9012C97.5525 54.9068 98.2853 56.3351 98.4565 57.8597" stroke="#002050" stroke-width="1.6048" stroke-linecap="round" stroke-linejoin="round"/>
<path d="M81.7451 49.2525C83.5425 47.958 86.0085 47.653 88.0627 48.4715C90.1168 49.2899 91.7002 51.205 92.1175 53.3822" stroke="#002050" stroke-width="1.6048" stroke-linecap="round" stroke-linejoin="round"/>
<path d="M71.667 49.7607C72.5068 48.5464 73.7532 47.6102 75.1548 47.1502C76.5563 46.6901 78.1129 46.6901 79.5145 47.1662C80.5308 47.5086 81.4991 48.1559 82.0554 49.0492" stroke="#002050" stroke-width="1.6048" stroke-linecap="round" stroke-linejoin="round"/>
<path d="M66.4944 59.411C66.0183 57.9346 65.7669 56.3726 65.9381 54.832C66.1413 53.0399 66.9544 51.28 68.3667 50.1567C69.4419 49.3008 70.8755 48.8782 72.2235 49.0547" stroke="#002050" stroke-linecap="round" stroke-linejoin="round"/>
<path d="M72.5336 91.4106C72.4481 93.0903 72.3785 97.4393 72.3999 98.9372C72.3036 98.9479 72.1859 98.8676 72.0415 98.7339" stroke="#002050" stroke-linecap="round" stroke-linejoin="round"/>
<path d="M90.6733 82.4233C90.5396 87.4624 90.2614 92.9401 90.2186 98.0915C90.7482 98.2681 91.2831 98.4071 91.8288 98.5195C89.903 100.269 87.5707 101.579 85.0672 102.285C81.5473 103.28 77.6958 103.077 74.299 101.729C73.1542 101.274 72.0523 100.686 71.1375 99.8622C70.8166 99.5733 70.5224 99.2577 70.2603 98.91" stroke="#002050" stroke-linecap="round" stroke-linejoin="round"/>
<path d="M75.0692 63.2676L74.8981 66.7553C73.2077 67.0014 71.742 68.3922 71.4103 70.0719C71.0786 71.7516 71.9078 73.5918 73.3789 74.4584" stroke="#002050" stroke-linecap="round" stroke-linejoin="round"/>
</g>
</g>
<rect x="0.5" y="0.5" width="155" height="199" stroke="#CCDCFF"/>
<defs>
<clipPath id="clip0_5418_7672">
<rect width="156" height="200" fill="white"/>
</clipPath>
<clipPath id="clip1_5418_7672">
<rect width="122.505" height="215.011" fill="white" transform="translate(10 46)"/>
</clipPath>
</defs>
</svg>
