<svg width="156" height="200" viewBox="0 0 156 200" fill="none" xmlns="http://www.w3.org/2000/svg">
<g clip-path="url(#clip0_5418_7075)">
<rect width="156" height="200" fill="#F2F6FF"/>
<path d="M-5.59302 194.519C-9.27423 169.029 16.7199 142.898 63.1625 136.675C95.8317 132.296 91.1198 97.3568 114.777 96.4502C151.917 95.0297 194.338 158.36 175.177 209.15C156.017 259.94 103.897 271.728 67.8326 259.597C31.7683 247.466 -0.89135 227.097 -5.59302 194.519Z" fill="#CCDCFF"/>
<path d="M61.2392 122.461C62.0191 128.004 61.2928 133.755 59.1496 138.922C57.1731 140.726 54.6965 142.357 52.0591 144.113C49.6242 142.452 47.6298 140.16 46.3141 137.523C45.0103 134.909 44.3733 131.963 44.4924 129.034C49.0646 124.848 54.2142 121.27 59.6794 118.437C60.7451 119.675 61.0487 121.08 61.2392 122.461Z" fill="white" stroke="black" stroke-width="0.931934" stroke-linecap="round" stroke-linejoin="round"/>
<path d="M45.5283 172.463C45.5104 173.076 45.3378 173.725 44.933 174.428C44.6651 174.892 44.2305 175.255 43.778 175.541C43.3196 175.827 42.7421 175.964 42.2361 175.773C42.1646 175.743 42.0872 175.708 42.0158 175.666C41.4026 176.38 40.5632 176.862 39.7059 176.821C39.438 176.809 39.1701 176.696 38.8962 176.517C38.2711 176.958 37.5746 177.041 37.4138 177.035C37.0447 177.017 36.753 176.94 36.4851 176.761C36.2529 176.987 35.9791 177.184 35.6755 177.297C35.1694 177.488 34.5265 177.41 34.1871 176.904C33.1036 175.773 32.1273 174.547 31.2581 173.255C30.3412 171.891 29.5733 170.141 30.2698 168.665C31.6629 165.712 32.8655 163.777 34.9372 160.967C34.9372 156.216 34.9611 148.673 35.6636 142.351C35.9731 139.523 37.1162 136.85 38.9736 134.701C40.6882 132.706 42.5337 130.819 44.4865 129.039C44.3674 131.962 45.0044 134.909 46.3082 137.529C47.6239 140.16 49.6242 142.458 52.0532 144.119C50.6184 145.071 49.1301 146.066 47.6536 147.149C47.6536 153.025 46.2606 157.335 45.5045 161.152C47.3679 162.271 48.2907 164.468 48.6181 165.807C48.88 166.879 48.6002 167.992 48.3264 169.058C48.1121 169.879 47.8858 170.731 47.3798 171.421C46.9392 172.016 46.2486 172.481 45.5223 172.481L45.5283 172.463Z" fill="#FFC2A5" stroke="black" stroke-width="0.931934" stroke-linecap="round" stroke-linejoin="round"/>
<path d="M48.6298 165.79C48.8918 166.855 48.6119 167.974 48.3381 169.034C48.1238 169.862 47.8975 170.707 47.3975 171.398" stroke="black" stroke-width="0.931934" stroke-linecap="round" stroke-linejoin="round"/>
<path d="M45.3734 161.872C46.0819 157.877 47.6595 153.395 47.6595 147.138C51.8447 144.072 56.0954 141.702 59.1495 138.922C61.2927 133.748 62.019 128.003 61.2391 122.461C61.0427 121.086 60.7391 119.675 59.6794 118.442C51.8864 122.491 44.7305 128.039 38.9795 134.701C37.122 136.85 35.985 139.529 35.6694 142.351C34.9431 148.9 34.9431 156.752 34.9431 161.461" stroke="black" stroke-width="0.931934" stroke-linecap="round" stroke-linejoin="round"/>
<path d="M44.2423 168.242C45.0876 170.451 46.2783 172.1 44.9329 174.428C44.665 174.892 44.2304 175.261 43.7779 175.547C43.3254 175.833 42.742 175.976 42.236 175.779C41.8847 175.642 41.6109 175.368 41.3608 175.089C40.4559 174.071 39.7237 172.892 39.2117 171.63" stroke="black" stroke-width="0.931934" stroke-linecap="round" stroke-linejoin="round"/>
<path d="M44.9507 169.623C45.6829 169.022 45.5579 168.266 45.2245 167.379" stroke="black" stroke-width="0.931934" stroke-linecap="round" stroke-linejoin="round"/>
<path d="M36.3125 172.874C36.8662 174.184 38.3605 176.756 39.7059 176.821" stroke="black" stroke-width="0.931934" stroke-linecap="round" stroke-linejoin="round"/>
<path d="M37.4198 177.035C36.7233 177 36.3244 176.755 35.7648 176.041C35.2052 175.327 33.6514 173.195 33.6514 173.195" stroke="black" stroke-width="0.931934" stroke-linecap="round" stroke-linejoin="round"/>
<path d="M35.6873 177.297C35.1813 177.488 34.5383 177.416 34.199 176.904C33.1214 175.773 32.1391 174.553 31.2699 173.255C30.3531 171.892 29.591 170.141 30.2816 168.671" stroke="black" stroke-width="0.931934" stroke-linecap="round" stroke-linejoin="round"/>
<path d="M78.6826 197.926C78.5636 198.742 78.4445 199.581 78.3195 200.444C70.9909 198.956 64.079 195.426 58.5841 190.336C58.084 180.548 58.6376 170.654 60.9535 161.188C66.6092 165.123 74.1462 167.243 81.439 167.046C88.7022 166.85 97.3524 164.659 102.103 158.622C106.336 164.867 108.723 172.368 109.348 179.911C109.658 183.638 109.485 187.419 108.961 191.181C103.449 193.033 97.8882 194.735 92.2861 196.271C87.8449 197.486 83.2072 198.605 78.6826 197.926Z" fill="#009FFF"/>
<path d="M78.3194 200.445C78.4445 199.581 78.5635 198.742 78.6826 197.926C83.2072 198.605 87.8448 197.486 92.2861 196.271C97.8882 194.735 103.449 193.033 108.961 191.181C108.11 197.254 106.354 203.272 104.264 208.928C98.7931 223.71 82.719 266.771 82.719 266.771C82.719 266.771 69.2108 263.419 69.3418 262.473C70.2884 255.835 71.8958 244.75 73.6103 232.938C74.295 228.235 74.9915 223.419 75.6762 218.721C76.6227 212.191 77.5396 205.886 78.3194 200.445Z" fill="#FFC2A5" stroke="black" stroke-width="0.931934" stroke-linecap="round" stroke-linejoin="round"/>
<path d="M97.9714 153.55C99.5074 155.116 100.883 156.818 102.103 158.622C97.3523 164.659 88.702 166.85 81.4389 167.046C74.146 167.243 66.6091 165.123 60.9534 161.188C61.6321 158.39 62.4655 155.633 63.4716 152.931L97.9714 153.55Z" fill="#FFC2A5" stroke="black" stroke-width="0.931934" stroke-linecap="round" stroke-linejoin="round"/>
<path d="M78.3196 200.445C77.5398 205.886 76.6229 212.191 75.6763 218.722C70.5565 218.055 65.9426 216.299 63.1445 211.905C60.2928 207.434 59.3582 200.492 58.9117 195.206C58.7747 193.586 58.6616 191.967 58.5842 190.336C64.0792 195.426 70.991 198.956 78.3196 200.445Z" fill="#FFC2A5" stroke="black" stroke-width="0.931934" stroke-linecap="round" stroke-linejoin="round"/>
<path d="M63.1444 211.905C60.2927 207.434 59.364 200.492 58.9116 195.206C57.703 180.965 58.4948 166.326 63.4718 152.931L97.9716 153.55C104.806 160.521 108.539 170.178 109.348 179.911C110.158 189.645 107.652 199.766 104.264 208.922C98.7932 223.704 82.7131 266.765 82.7131 266.765C82.7131 266.765 69.2049 263.413 69.3419 262.467C70.2884 255.823 71.8958 244.743 73.6104 232.932C75.8727 217.364 78.3195 200.528 79.6829 190.961" stroke="black" stroke-width="0.931934" stroke-linecap="round" stroke-linejoin="round"/>
<path d="M70.1633 187.544C72.5685 190.032 75.8071 191.699 79.2601 192.348C81.7843 190.866 84.3145 189.378 88.714 187.925" stroke="black" stroke-width="0.931934" stroke-linecap="round" stroke-linejoin="round"/>
<path d="M70.729 183.513C72.8186 186.877 75.8727 189.538 79.6769 190.645C84.4991 186.353 87.833 183.751 92.048 180.715" stroke="black" stroke-width="0.931934" stroke-linecap="round" stroke-linejoin="round"/>
<path d="M79.5815 160.057L79.522 161.635" stroke="black" stroke-width="0.931934" stroke-linecap="round" stroke-linejoin="round"/>
<path d="M62.7634 154.294C58.7806 144.792 55.8873 134.665 55.4289 124.372C54.8752 111.28 105.187 109.375 106.479 126.313C105.687 136.112 103.228 145.78 99.2278 154.764C86.9222 159.669 74.7713 159.449 62.7694 154.3L62.7634 154.294Z" fill="white" stroke="black" stroke-width="0.931934" stroke-linecap="round" stroke-linejoin="round"/>
<path d="M99.4956 133.159C99.3229 133.26 99.1681 133.391 99.0312 133.534C98.7752 133.421 98.5133 133.343 98.2394 133.302C97.525 128.307 98.6442 123.056 101.353 118.793C105.58 120.615 112.385 128.515 118.493 138.755C116.617 140.309 113.295 141.791 112.688 141.791C111.629 138.332 108.694 134.653 107.92 134.117C106.312 132.998 104.252 132.855 102.3 132.754C101.341 132.701 100.317 132.665 99.4956 133.159Z" fill="white" stroke="black" stroke-width="0.931934" stroke-linecap="round" stroke-linejoin="round"/>
<path d="M124.113 165.962C122.862 167.683 119.755 168.343 117.82 167.826C115.885 167.302 114.248 166.01 112.807 164.617C109.223 161.158 106.503 156.925 103.972 152.633C102.758 152.484 101.555 152.049 100.46 151.537C97.769 150.281 95.0066 148.424 94.6554 147.292C94.4768 146.721 94.5304 146.078 94.8102 145.548C95.084 145.018 95.5722 144.595 96.1437 144.411L96.1913 144.328C96.1497 144.304 96.102 144.274 96.0604 144.25C95.6258 143.72 95.4888 142.905 95.6853 142.202C95.7687 141.887 95.9175 141.589 96.102 141.321C95.0721 141.119 94.2744 140.309 94.1077 139.797C94.9173 137.701 95.721 133.903 96.8105 133.451C97.263 133.266 97.7571 133.225 98.2393 133.302C98.5132 133.344 98.7751 133.421 99.0311 133.534C99.168 133.391 99.3228 133.26 99.4955 133.159C100.317 132.665 101.341 132.701 102.3 132.754C104.252 132.855 106.312 132.998 107.919 134.118C108.693 134.653 111.628 138.333 112.688 141.791C113.295 141.791 116.617 140.309 118.493 138.755C120.463 142.053 122.356 145.59 124.071 149.251C126.024 153.418 127.179 161.765 124.113 165.962Z" fill="#FFC2A5" stroke="black" stroke-width="0.931934" stroke-linecap="round" stroke-linejoin="round"/>
<path d="M103.895 137.284L99.6859 136.564C99.3347 136.505 98.9596 136.433 98.6977 136.189C98.4179 135.927 98.3226 135.522 98.3405 135.141C98.3643 134.344 98.8167 133.576 99.5014 133.159C100.323 132.665 101.347 132.7 102.305 132.748C104.258 132.855 106.318 132.998 107.925 134.111C109.021 134.873 114.403 141.869 112.783 145.685" stroke="black" stroke-width="0.931934" stroke-linecap="round" stroke-linejoin="round"/>
<path d="M102.335 142.22C100.984 141.875 99.7813 141.524 98.4656 141.053C97.6262 140.756 96.4951 139.833 96.8701 138.22C97.1321 137.076 98.1025 136.261 99.4896 136.523" stroke="black" stroke-width="0.931934" stroke-linecap="round" stroke-linejoin="round"/>
<path d="M96.9474 140.452C96.364 140.892 95.8758 141.494 95.6853 142.202C95.4948 142.91 95.6258 143.72 96.0663 144.256C97.6499 145.196 99.2812 146.066 100.948 146.857" stroke="black" stroke-width="0.931934" stroke-linecap="round" stroke-linejoin="round"/>
<path d="M106.86 152.329C104.776 153.15 102.436 152.465 100.46 151.543C97.7689 150.281 95.0006 148.429 94.6494 147.298C94.4708 146.726 94.5303 146.083 94.8041 145.554C95.078 145.024 95.5662 144.601 96.1377 144.417" stroke="black" stroke-width="0.931934" stroke-linecap="round" stroke-linejoin="round"/>
<path d="M94.1077 139.791C94.9173 137.701 95.721 133.903 96.8105 133.445" stroke="black" stroke-width="0.931934" stroke-linecap="round" stroke-linejoin="round"/>
<path d="M112.807 164.617C114.248 166.01 115.885 167.302 117.82 167.82C119.755 168.337 122.856 167.677 124.113 165.962C127.179 161.765 126.024 153.418 124.071 149.245C117.034 134.231 106.937 121.193 101.353 118.788C98.4655 123.33 97.388 128.992 98.4 134.278" stroke="black" stroke-width="0.931934" stroke-linecap="round" stroke-linejoin="round"/>
<path d="M112.938 144.047C116.409 145.244 118.546 146.869 121.118 149.501" stroke="black" stroke-width="0.931934" stroke-linecap="round" stroke-linejoin="round"/>
<path d="M112.688 141.792C113.295 141.792 116.617 140.309 118.493 138.755" stroke="black" stroke-width="0.931934" stroke-linecap="round" stroke-linejoin="round"/>
<path d="M79.7543 123.777C73.4199 123.777 70.8719 120.056 69.4312 117.05C70.4432 113.192 71.4196 109.602 72.39 106.006H86.9638C87.9342 109.602 88.9046 113.198 89.9226 117.05C88.4879 120.056 85.9339 123.777 79.5995 123.777" fill="#FFC2A5"/>
<path d="M79.7543 123.777C73.4199 123.777 70.8719 120.056 69.4312 117.05C70.4432 113.192 71.4196 109.602 72.39 106.006H86.9638C87.9342 109.602 88.9046 113.198 89.9226 117.05C88.4879 120.056 85.9339 123.777 79.5995 123.777" stroke="black" stroke-width="0.931934" stroke-linecap="round" stroke-linejoin="round"/>
<path d="M46.2666 84.7112C46.2666 84.7112 52.2676 87.9379 55.8218 84.7826C60.0903 80.9903 63.5314 68.0358 75.968 68.0001C82.5762 67.9822 88.7439 71.5304 88.3093 78.9483L69.0323 97.5228C57.9531 100.517 48.7372 96.5465 46.2666 84.7171V84.7112Z" fill="#41181A" stroke="black" stroke-width="0.931934" stroke-linecap="round" stroke-linejoin="round"/>
<path d="M79.0577 83.2404C82.0497 83.2404 84.4753 80.8149 84.4753 77.8228C84.4753 74.8308 82.0497 72.4053 79.0577 72.4053C76.0657 72.4053 73.6401 74.8308 73.6401 77.8228C73.6401 80.8149 76.0657 83.2404 79.0577 83.2404Z" fill="#009FFF" stroke="black" stroke-width="0.931934" stroke-linecap="round" stroke-linejoin="round"/>
<path d="M91.9112 102.726C92.2982 102.851 92.7149 102.768 93.0959 102.631C94.3878 102.172 95.4416 101.148 96.0905 99.9397C96.7394 98.7312 97.0251 97.35 97.0847 95.9748C97.1204 95.1532 97.0728 94.3019 96.7096 93.5636C96.3465 92.8254 95.5963 92.2301 94.7748 92.2599C94.1913 92.2777 93.6496 92.6052 93.2567 93.0398C92.8637 93.4743 92.6077 94.0101 92.3875 94.5519C91.3218 97.1416 90.9765 100.077 91.9112 102.726Z" fill="#FFC2A5" stroke="black" stroke-width="0.931934" stroke-linecap="round" stroke-linejoin="round"/>
<path d="M67.2046 102.726C66.8176 102.851 66.4009 102.768 66.0199 102.631C64.728 102.172 63.6742 101.148 63.0253 99.9397C62.3764 98.7312 62.0906 97.35 62.0311 95.9748C61.9954 95.1532 62.043 94.3019 62.4062 93.5636C62.7693 92.8254 63.5194 92.2301 64.341 92.2599C64.9244 92.2777 65.4662 92.6052 65.8591 93.0398C66.252 93.4743 66.508 94.0101 66.7283 94.5519C67.794 97.1416 68.1392 100.077 67.2046 102.726Z" fill="#FFC2A5" stroke="black" stroke-width="0.931934" stroke-linecap="round" stroke-linejoin="round"/>
<path d="M79.5577 113.555C75.8667 113.555 72.634 111.531 70.4074 108.918C65.4244 103.071 65.3232 95.2486 65.0613 89.8608C64.8946 86.4436 65.1387 75.0786 79.5577 75.0786C93.9768 75.0786 94.2209 86.4436 94.0542 89.8608C93.7922 95.2486 93.691 103.077 88.7081 108.918C86.4815 111.531 83.2488 113.555 79.5577 113.555Z" fill="#FFC2A5" stroke="black" stroke-width="0.931934" stroke-linecap="round" stroke-linejoin="round"/>
<path d="M85.1055 96.1442C87.2225 95.9359 88.7986 94.3425 88.6257 92.5854C88.4528 90.8282 86.5964 89.5727 84.4793 89.781C82.3622 89.9893 80.7862 91.5826 80.9591 93.3398C81.132 95.0969 82.9884 96.3525 85.1055 96.1442Z" fill="white" stroke="black" stroke-width="0.931934" stroke-linecap="round" stroke-linejoin="round"/>
<path d="M87.9162 87.4618C87.1899 86.8248 86.2314 86.4557 85.2669 86.4319C84.3025 86.4081 83.3321 86.7355 82.5701 87.3368" stroke="black" stroke-width="0.931934" stroke-linecap="round" stroke-linejoin="round"/>
<path d="M85.8459 92.9768C85.9171 92.2075 85.3591 91.5267 84.5996 91.4564C83.84 91.3861 83.1665 91.9528 83.0953 92.7221C83.0241 93.4915 83.5821 94.1722 84.3416 94.2426C85.1012 94.3129 85.7747 93.7462 85.8459 92.9768Z" fill="black" stroke="black" stroke-width="0.931934" stroke-linecap="round" stroke-linejoin="round"/>
<path d="M78.1511 93.3336C78.324 91.5764 76.7479 89.9831 74.6309 89.7748C72.5138 89.5664 70.6574 90.822 70.4845 92.5791C70.3116 94.3363 71.8876 95.9296 74.0047 96.138C76.1218 96.3463 77.9782 95.0907 78.1511 93.3336Z" fill="white" stroke="black" stroke-width="0.931934" stroke-linecap="round" stroke-linejoin="round"/>
<path d="M71.1992 87.4618C71.9255 86.8248 72.884 86.4557 73.8485 86.4319C74.8129 86.4081 75.7833 86.7355 76.5453 87.3368" stroke="black" stroke-width="0.931934" stroke-linecap="round" stroke-linejoin="round"/>
<path d="M75.1702 101.946C76.1822 102.744 77.7718 103.339 79.5578 103.339C81.3498 103.339 82.9393 102.75 83.9454 101.946" stroke="black" stroke-width="0.931934" stroke-linecap="round" stroke-linejoin="round"/>
<path d="M74.7776 94.2345C75.5371 94.1642 76.0951 93.4835 76.0239 92.7141C75.9526 91.9447 75.2791 91.378 74.5196 91.4483C73.76 91.5187 73.202 92.1994 73.2733 92.9688C73.3445 93.7381 74.018 94.3048 74.7776 94.2345Z" fill="black" stroke="black" stroke-width="0.931934" stroke-linecap="round" stroke-linejoin="round"/>
<path d="M79.5577 75.0723C93.9768 75.0723 94.2209 86.4372 94.0482 89.8545C94.0006 90.7892 93.9589 91.7953 93.9054 92.855C92.5539 90.6046 91.4823 88.9436 90.506 87.3362C90.0238 86.5444 89.7797 85.6276 89.8154 84.6989C89.8511 83.7701 89.9047 82.7997 89.9464 81.7877C86.5708 80.5375 83.6417 80.0195 79.5577 80.0195C75.4737 80.0195 72.5447 80.5375 69.1691 81.7877C69.2108 82.7997 69.2644 83.7344 69.2941 84.6989C69.3239 85.6633 69.0798 86.5444 68.6035 87.3362C67.6272 88.9436 66.5615 90.6046 65.2101 92.855C65.1446 91.7953 65.103 90.7892 65.0613 89.8545C64.8946 86.4372 65.1387 75.0723 79.5577 75.0723Z" fill="#41181A" stroke="black" stroke-width="0.931934" stroke-linecap="round" stroke-linejoin="round"/>
<path d="M80.6888 92.8433C81.6057 94.7722 82.6356 96.5284 82.6356 96.5284C83.2607 98.4037 81.3616 100.023 79.0576 99.136" fill="#FFC2A5"/>
<path d="M80.6888 92.8433C81.6057 94.7722 82.6356 96.5284 82.6356 96.5284C83.2607 98.4037 81.3616 100.023 79.0576 99.136" stroke="black" stroke-width="0.931934" stroke-linecap="round" stroke-linejoin="round"/>
</g>
<rect x="0.5" y="0.5" width="155" height="199" stroke="#CCDCFF"/>
<defs>
<clipPath id="clip0_5418_7075">
<rect width="156" height="200" fill="white"/>
</clipPath>
</defs>
</svg>
