<svg width="20" height="20" viewBox="0 0 20 20" fill="none" xmlns="http://www.w3.org/2000/svg">
<path d="M9.9974 18.3346C14.5998 18.3346 18.3307 14.6037 18.3307 10.0013C18.3307 5.39893 14.5998 1.66797 9.9974 1.66797C5.39502 1.66797 1.66406 5.39893 1.66406 10.0013C1.66406 14.6037 5.39502 18.3346 9.9974 18.3346Z" stroke="#B3BCCB" stroke-width="1.5" stroke-linecap="round" stroke-linejoin="round"/>
<path d="M12.2658 6.88961C12.6729 6.7539 12.8765 6.68604 13.0119 6.73432C13.1297 6.77632 13.2224 6.86903 13.2644 6.98683C13.3127 7.1222 13.2448 7.32576 13.1091 7.73288L11.8695 11.4517C11.8308 11.5677 11.8115 11.6257 11.7786 11.6738C11.7494 11.7165 11.7125 11.7533 11.6699 11.7825C11.6218 11.8154 11.5638 11.8347 11.4478 11.8734L7.72897 13.113C7.32185 13.2487 7.11829 13.3166 6.98292 13.2683C6.86512 13.2263 6.77242 13.1336 6.73041 13.0158C6.68214 12.8804 6.74999 12.6768 6.8857 12.2697L8.12532 8.55086C8.16397 8.43491 8.18329 8.37694 8.21623 8.32879C8.2454 8.28615 8.28224 8.2493 8.32489 8.22014C8.37303 8.1872 8.43101 8.16788 8.54696 8.12923L12.2658 6.88961Z" stroke="#B3BCCB" stroke-width="1.5" stroke-linecap="round" stroke-linejoin="round"/>
</svg>
