<svg width="285" height="161" viewBox="0 0 285 161" fill="none" xmlns="http://www.w3.org/2000/svg">
<rect width="285" height="160.312" fill="#FFF5D2"/>
<path d="M213.462 60.1067C214.251 66.282 216.997 71.9885 221.076 76.704C224.035 80.1247 225.827 84.563 225.715 89.0866C225.608 93.3172 223.843 97.388 221.065 100.574C216.954 105.279 214.459 111.193 213.787 117.406C213.515 119.915 212.715 122.436 211.558 124.62C206.338 134.456 194.959 140.296 183.927 139.896C177.427 139.662 171.018 141.457 165.574 145.011C159.49 148.981 152.265 151.229 144.992 151.24C138.706 151.251 132.457 149.593 126.938 146.594C120.006 142.827 111.949 141.521 104.314 143.487C100.805 144.388 97.1583 144.67 93.5644 144.185C85.625 143.114 78.1494 138.079 74.8755 130.78C73.7398 128.249 73.1746 125.462 73.1639 122.686C73.1319 114.651 69.7993 107.048 64.318 101.166C60.079 96.6154 57.4982 90.5359 57.7808 84.3286C58.1327 76.7093 62.761 69.6814 69.1755 65.632C75.0301 61.9342 79.4078 56.3237 81.7805 49.818C84.5586 42.2093 91.3356 35.7676 99.3124 33.631C106.479 31.7075 114.066 32.7731 120.865 35.8368C129.14 39.5665 138.631 39.8862 146.864 36.0606C152.575 33.4125 158.664 31.8087 164.929 31.9259C172.01 32.0591 179.219 34.9204 184.317 39.7051C189.115 44.2127 195.253 47.1379 201.774 48.049C205.122 48.5179 208.306 50.1004 210.454 52.7271C212.187 54.8424 213.126 57.4799 213.462 60.1067Z" fill="#FFECA6"/>
<g clip-path="url(#clip0_5418_6850)">
<path d="M143.552 140.718C171.112 140.718 193.454 118.376 193.454 90.8162C193.454 63.256 171.112 40.9141 143.552 40.9141C115.991 40.9141 93.6494 63.256 93.6494 90.8162C93.6494 118.376 115.991 140.718 143.552 140.718Z" fill="white"/>
<path d="M143.551 122.476C161.037 122.476 175.211 108.301 175.211 90.8159C175.211 73.3305 161.037 59.1558 143.551 59.1558C126.066 59.1558 111.891 73.3305 111.891 90.8159C111.891 108.301 126.066 122.476 143.551 122.476Z" fill="#F2F4F6"/>
<path d="M143.551 122.476C161.037 122.476 175.211 108.301 175.211 90.8159C175.211 73.3305 161.037 59.1558 143.551 59.1558C126.066 59.1558 111.891 73.3305 111.891 90.8159C111.891 108.301 126.066 122.476 143.551 122.476Z" stroke="#CCDCFF" stroke-width="1.26945" stroke-linecap="round" stroke-linejoin="round"/>
<path d="M143.552 140.718C171.112 140.718 193.454 118.376 193.454 90.8162C193.454 63.256 171.112 40.9141 143.552 40.9141C115.991 40.9141 93.6494 63.256 93.6494 90.8162C93.6494 118.376 115.991 140.718 143.552 140.718Z" stroke="#002050" stroke-width="1.26945" stroke-linecap="round" stroke-linejoin="round"/>
<path d="M215.828 125.155V53.1835C215.828 53.1835 216.323 51.2285 215.282 51.2285C214.241 51.2285 204.263 69.1785 204.263 85.8401C204.263 95.6149 209.665 94.0598 209.665 98.9472C209.665 103.835 206.923 115.387 206.923 125.269C206.923 132.042 211.486 132.156 211.486 132.156C211.486 132.156 215.828 132.765 215.828 125.155Z" fill="#CCDCFF"/>
<path d="M215.828 125.155V53.1835C215.828 53.1835 216.323 51.2285 215.282 51.2285C214.241 51.2285 204.263 69.1785 204.263 85.8401C204.263 95.6149 209.665 94.0598 209.665 98.9472C209.665 103.835 206.923 115.387 206.923 125.269C206.923 132.042 211.486 132.156 211.486 132.156C211.486 132.156 215.828 132.765 215.828 125.155Z" stroke="#002050" stroke-width="1.26945" stroke-linecap="round" stroke-linejoin="round"/>
<path d="M74.1506 81.4601C74.1506 81.4601 69.0347 80.3113 69.0347 74.2814C69.0347 68.2515 70.8119 55.7982 70.8119 55.7982C70.8119 55.7982 70.9261 54.4843 71.9036 54.4843C72.8811 54.4843 72.8621 55.9442 72.8621 55.9442L73.0715 67.7374C73.0715 67.7374 73.0144 69.6923 74.0744 69.6923C75.1344 69.6923 75.1344 67.6295 75.1344 67.6295L75.401 55.3602C75.401 55.3602 75.401 53.7227 76.5625 53.7227C77.7241 53.7227 77.832 55.2016 77.832 55.2016L78.308 67.5787C78.308 67.5787 78.2826 69.5337 79.3934 69.5337C80.7136 69.5337 80.6374 67.5216 80.6374 67.5216V56.306C80.6374 56.306 80.4788 54.6684 81.6149 54.6684C82.3004 54.6684 82.6432 54.8271 82.859 56.0458C83.0684 57.2644 84.7124 68.8989 84.7124 73.6594C84.7124 78.4198 81.5895 81.4348 80.1106 81.4348C80.2693 84.5005 82.7574 110.899 82.7574 122.641C82.7574 131.635 77.1528 131.953 77.1528 131.953C77.1528 131.953 71.1229 133.013 71.1229 122.006C71.1229 111 74.1632 81.4601 74.1632 81.4601H74.1506Z" fill="#CCDCFF"/>
<path d="M74.1506 81.4601C74.1506 81.4601 69.0347 80.3113 69.0347 74.2814C69.0347 68.2515 70.8119 55.7982 70.8119 55.7982C70.8119 55.7982 70.9261 54.4843 71.9036 54.4843C72.8811 54.4843 72.8621 55.9442 72.8621 55.9442L73.0715 67.7374C73.0715 67.7374 73.0144 69.6923 74.0744 69.6923C75.1344 69.6923 75.1344 67.6295 75.1344 67.6295L75.401 55.3602C75.401 55.3602 75.401 53.7227 76.5625 53.7227C77.7241 53.7227 77.832 55.2016 77.832 55.2016L78.308 67.5787C78.308 67.5787 78.2826 69.5337 79.3934 69.5337C80.7136 69.5337 80.6374 67.5216 80.6374 67.5216V56.306C80.6374 56.306 80.4788 54.6684 81.6149 54.6684C82.3004 54.6684 82.6432 54.8271 82.859 56.0458C83.0684 57.2644 84.7124 68.8989 84.7124 73.6594C84.7124 78.4198 81.5895 81.4348 80.1106 81.4348C80.2693 84.5005 82.7574 110.899 82.7574 122.641C82.7574 131.635 77.1528 131.953 77.1528 131.953C77.1528 131.953 71.1229 133.013 71.1229 122.006C71.1229 111 74.1632 81.4601 74.1632 81.4601H74.1506Z" stroke="#002050" stroke-width="1.26945" stroke-linecap="round" stroke-linejoin="round"/>
<path d="M130.743 80.2862C130.743 80.2862 125.398 84.2914 118.315 79.1882C112.348 74.8911 111.282 69.3118 113.624 66.3921C115.966 63.4724 120.479 61.8475 127.03 68.4232C133.472 74.8911 131.384 79.0358 130.743 80.2862Z" fill="#006646" stroke="#002050" stroke-width="1.26945" stroke-linecap="round" stroke-linejoin="round"/>
<path d="M117.236 69.5024C117.464 69.6103 126.871 78.1347 133.313 82.0763" stroke="#002050" stroke-width="1.26945" stroke-linecap="round" stroke-linejoin="round"/>
<path d="M130.743 80.2862C130.743 80.2862 125.398 84.2914 118.315 79.1882C112.348 74.8911 111.282 69.3118 113.624 66.3921C115.966 63.4724 120.479 61.8475 127.03 68.4232C133.472 74.8911 131.384 79.0358 130.743 80.2862Z" stroke="#002050" stroke-width="1.26945" stroke-linecap="round" stroke-linejoin="round"/>
<path d="M137.725 74.5166C137.725 74.5166 131.486 76.8904 126.084 70.029C121.54 64.253 122.047 58.5976 125.107 56.4396C128.166 54.2815 132.946 53.9578 137.433 62.0886C141.844 70.0798 138.69 73.4883 137.731 74.5166H137.725Z" fill="#006646" stroke="#002050" stroke-width="1.26945" stroke-linecap="round" stroke-linejoin="round"/>
<path d="M127.722 60.4258C127.912 60.5908 134.602 71.3811 139.705 76.9477" stroke="#002050" stroke-width="1.26945" stroke-linecap="round" stroke-linejoin="round"/>
<path d="M137.725 74.5166C137.725 74.5166 131.486 76.8904 126.084 70.029C121.54 64.253 122.047 58.5976 125.107 56.4396C128.166 54.2815 132.946 53.9578 137.433 62.0886C141.844 70.0798 138.69 73.4883 137.731 74.5166H137.725Z" stroke="#002050" stroke-width="1.26945" stroke-linecap="round" stroke-linejoin="round"/>
<path d="M145.989 75.3929C145.989 75.3929 139.311 75.3422 136.76 66.9955C134.614 59.9628 137.141 54.8786 140.771 53.9773C144.402 53.0697 148.978 54.5041 150.21 63.7076C151.422 72.7525 147.252 74.79 145.982 75.3993L145.989 75.3929Z" fill="#006646" stroke="#002050" stroke-width="1.26945" stroke-linecap="round" stroke-linejoin="round"/>
<path d="M141.768 58.6362C141.882 58.8584 144.212 71.3434 146.954 78.3762" stroke="#002050" stroke-width="1.26945" stroke-linecap="round" stroke-linejoin="round"/>
<path d="M145.989 75.3929C145.989 75.3929 139.311 75.3422 136.76 66.9955C134.614 59.9628 137.141 54.8786 140.771 53.9773C144.402 53.0697 148.978 54.5041 150.21 63.7076C151.422 72.7525 147.252 74.79 145.982 75.3993L145.989 75.3929Z" stroke="#002050" stroke-width="1.26945" stroke-linecap="round" stroke-linejoin="round"/>
<path d="M153.428 68.7217C153.428 68.7217 148.071 64.7356 150.94 56.4968C153.358 49.5529 158.398 46.9442 161.863 48.3533C165.329 49.7688 168.172 53.6279 163.736 61.7841C159.375 69.8007 154.805 68.9819 153.421 68.7217H153.428Z" fill="#006646" stroke="#002050" stroke-width="1.26945" stroke-linecap="round" stroke-linejoin="round"/>
<path d="M159.909 52.7012C159.871 52.9487 154.38 64.3992 152.438 71.6922" stroke="#002050" stroke-width="1.26945" stroke-linecap="round" stroke-linejoin="round"/>
<path d="M153.428 68.7217C153.428 68.7217 148.071 64.7356 150.94 56.4968C153.358 49.5529 158.398 46.9442 161.863 48.3533C165.329 49.7688 168.172 53.6279 163.736 61.7841C159.375 69.8007 154.805 68.9819 153.421 68.7217H153.428Z" stroke="#002050" stroke-width="1.26945" stroke-linecap="round" stroke-linejoin="round"/>
<path d="M148.35 97.9194C148.35 97.9194 142.993 93.9333 145.862 85.6946C148.28 78.7507 153.32 76.142 156.786 77.5511C160.251 78.9665 163.095 82.8256 158.658 90.9819C154.298 98.9984 149.728 98.1796 148.344 97.9194H148.35Z" fill="#009969" stroke="#002050" stroke-width="1.26945" stroke-linecap="round" stroke-linejoin="round"/>
<path d="M154.831 81.8984C154.792 82.146 149.302 93.5964 147.36 100.889" stroke="#002050" stroke-width="1.26945" stroke-linecap="round" stroke-linejoin="round"/>
<path d="M148.35 97.9194C148.35 97.9194 142.993 93.9333 145.862 85.6946C148.28 78.7507 153.32 76.142 156.786 77.5511C160.251 78.9665 163.095 82.8256 158.658 90.9819C154.298 98.9984 149.728 98.1796 148.344 97.9194H148.35Z" stroke="#002050" stroke-width="1.26945" stroke-linecap="round" stroke-linejoin="round"/>
<path d="M163.266 88.2394C163.266 88.2394 158.741 83.3266 163.095 75.7607C166.764 69.388 172.203 67.7568 175.345 69.7943C178.487 71.8254 180.569 76.1479 174.691 83.3393C168.915 90.4101 164.58 88.7535 163.266 88.2394Z" fill="#009969" stroke="#002050" stroke-width="1.26945" stroke-linecap="round" stroke-linejoin="round"/>
<path d="M172.616 73.7046C172.533 73.9394 165.012 84.1712 161.749 90.9818" stroke="#002050" stroke-width="1.26945" stroke-linecap="round" stroke-linejoin="round"/>
<path d="M163.266 88.2394C163.266 88.2394 158.741 83.3266 163.095 75.7607C166.764 69.388 172.203 67.7568 175.345 69.7943C178.487 71.8254 180.569 76.1479 174.691 83.3393C168.915 90.4101 164.58 88.7535 163.266 88.2394Z" stroke="#002050" stroke-width="1.26945" stroke-linecap="round" stroke-linejoin="round"/>
<path d="M160.188 112.588C160.188 112.588 163.685 118.281 157.953 124.863C153.13 130.411 147.474 130.957 144.783 128.354C142.092 125.752 140.886 121.112 148.039 115.19C155.065 109.37 159.007 111.826 160.194 112.581L160.188 112.588Z" fill="#009969" stroke="#002050" stroke-width="1.26945" stroke-linecap="round" stroke-linejoin="round"/>
<path d="M148.21 125.047C148.337 124.832 157.693 116.244 162.206 110.195" stroke="#002050" stroke-width="1.26945" stroke-linecap="round" stroke-linejoin="round"/>
<path d="M160.188 112.588C160.188 112.588 163.685 118.281 157.953 124.863C153.13 130.411 147.474 130.957 144.783 128.354C142.092 125.752 140.886 121.112 148.039 115.19C155.065 109.37 159.007 111.826 160.194 112.581L160.188 112.588Z" stroke="#002050" stroke-width="1.26945" stroke-linecap="round" stroke-linejoin="round"/>
<path d="M142.999 113.096C142.999 113.096 143.951 106.488 152.571 105.092C159.826 103.917 164.523 107.104 164.929 110.83C165.335 114.549 163.298 118.891 154.012 118.865C144.884 118.846 143.431 114.435 142.999 113.096V113.096Z" fill="#006646" stroke="#002050" stroke-width="1.26945" stroke-linecap="round" stroke-linejoin="round"/>
<path d="M160.175 111.179C159.941 111.261 147.259 111.883 139.915 113.648" stroke="#002050" stroke-width="1.26945" stroke-linecap="round" stroke-linejoin="round"/>
<path d="M142.999 113.096C142.999 113.096 143.951 106.488 152.571 105.092C159.826 103.917 164.523 107.104 164.929 110.83C165.335 114.549 163.298 118.891 154.012 118.865C144.884 118.846 143.431 114.435 142.999 113.096V113.096Z" stroke="#002050" stroke-width="1.26945" stroke-linecap="round" stroke-linejoin="round"/>
<path d="M131.574 104.209C131.574 104.209 132.526 97.6018 141.146 96.2054C148.401 95.0312 153.098 98.2175 153.504 101.943C153.91 105.663 151.873 110.004 142.587 109.979C133.459 109.96 132.006 105.549 131.574 104.209V104.209Z" fill="#009969" stroke="#002050" stroke-width="1.26945" stroke-linecap="round" stroke-linejoin="round"/>
<path d="M148.75 102.292C148.515 102.375 135.833 102.997 128.489 104.762" stroke="#002050" stroke-width="1.26945" stroke-linecap="round" stroke-linejoin="round"/>
<path d="M131.574 104.209C131.574 104.209 132.526 97.6018 141.146 96.2054C148.401 95.0312 153.098 98.2175 153.504 101.943C153.91 105.663 151.873 110.004 142.587 109.979C133.459 109.96 132.006 105.549 131.574 104.209V104.209Z" stroke="#002050" stroke-width="1.26945" stroke-linecap="round" stroke-linejoin="round"/>
<path d="M148.077 98.4969C148.077 98.4969 149.029 91.8894 157.649 90.493C164.904 89.3188 169.601 92.5051 170.007 96.2309C170.413 99.9504 168.376 104.292 159.09 104.267C149.962 104.248 148.509 99.8362 148.077 98.4969V98.4969Z" fill="#009969" stroke="#002050" stroke-width="1.26945" stroke-linecap="round" stroke-linejoin="round"/>
<path d="M165.253 96.5796C165.018 96.6621 152.336 97.2841 144.992 99.0487" stroke="#002050" stroke-width="1.26945" stroke-linecap="round" stroke-linejoin="round"/>
<path d="M148.077 98.4969C148.077 98.4969 149.029 91.8894 157.649 90.493C164.904 89.3188 169.601 92.5051 170.007 96.2309C170.413 99.9504 168.376 104.292 159.09 104.267C149.962 104.248 148.509 99.8362 148.077 98.4969V98.4969Z" stroke="#002050" stroke-width="1.26945" stroke-linecap="round" stroke-linejoin="round"/>
<path d="M125.227 94.6883C125.227 94.6883 126.179 88.0808 134.799 86.6844C142.054 85.5102 146.751 88.6965 147.157 92.4224C147.563 96.1418 145.526 100.483 136.24 100.458C127.112 100.439 125.659 96.0276 125.227 94.6883Z" fill="#006646" stroke="#002050" stroke-width="1.26945" stroke-linecap="round" stroke-linejoin="round"/>
<path d="M142.403 92.7715C142.168 92.854 129.486 93.476 122.143 95.2406" stroke="#002050" stroke-width="1.26945" stroke-linecap="round" stroke-linejoin="round"/>
<path d="M125.227 94.6883C125.227 94.6883 126.179 88.0808 134.799 86.6844C142.054 85.5102 146.751 88.6965 147.157 92.4224C147.563 96.1418 145.526 100.483 136.24 100.458C127.112 100.439 125.659 96.0276 125.227 94.6883Z" stroke="#002050" stroke-width="1.26945" stroke-linecap="round" stroke-linejoin="round"/>
<path d="M139.825 81.9935C139.825 81.9935 140.777 75.386 149.397 73.9896C156.652 72.8154 161.349 76.0017 161.755 79.7275C162.161 83.447 160.124 87.7885 150.838 87.7631C141.71 87.7441 140.257 83.3328 139.825 81.9935Z" fill="#009969" stroke="#002050" stroke-width="1.26945" stroke-linecap="round" stroke-linejoin="round"/>
<path d="M157.001 80.0767C156.766 80.1592 144.084 80.7812 136.741 82.5457" stroke="#002050" stroke-width="1.26945" stroke-linecap="round" stroke-linejoin="round"/>
<path d="M139.825 81.9935C139.825 81.9935 140.777 75.386 149.397 73.9896C156.652 72.8154 161.349 76.0017 161.755 79.7275C162.161 83.447 160.124 87.7885 150.838 87.7631C141.71 87.7441 140.257 83.3328 139.825 81.9935Z" stroke="#002050" stroke-width="1.26945" stroke-linecap="round" stroke-linejoin="round"/>
<path d="M130.54 88.3602C130.54 88.3602 123.951 87.2494 122.764 78.5981C121.762 71.3178 125.062 66.697 128.794 66.3796C132.527 66.0623 136.811 68.2076 136.57 77.4873C136.329 86.6147 131.885 87.9603 130.54 88.3538V88.3602Z" fill="#009969" stroke="#002050" stroke-width="1.26945" stroke-linecap="round" stroke-linejoin="round"/>
<path d="M129.029 71.1401C129.105 71.3813 129.422 84.0758 131.009 91.4513" stroke="#002050" stroke-width="1.26945" stroke-linecap="round" stroke-linejoin="round"/>
<path d="M130.54 88.3602C130.54 88.3602 123.951 87.2494 122.764 78.5981C121.762 71.3178 125.062 66.697 128.794 66.3796C132.527 66.0623 136.811 68.2076 136.57 77.4873C136.329 86.6147 131.885 87.9603 130.54 88.3538V88.3602Z" stroke="#002050" stroke-width="1.26945" stroke-linecap="round" stroke-linejoin="round"/>
<path d="M128.598 125.428C128.598 125.428 124.319 120.3 129.042 112.956C133.015 106.774 138.531 105.415 141.571 107.599C144.612 109.782 146.471 114.2 140.251 121.093C134.132 127.866 129.886 126 128.604 125.428H128.598Z" fill="#006646" stroke="#002050" stroke-width="1.26945" stroke-linecap="round" stroke-linejoin="round"/>
<path d="M138.652 111.369C138.556 111.604 130.54 121.449 126.947 128.088" stroke="#002050" stroke-width="1.26945" stroke-linecap="round" stroke-linejoin="round"/>
<path d="M128.598 125.428C128.598 125.428 124.319 120.3 129.042 112.956C133.015 106.774 138.531 105.415 141.571 107.599C144.612 109.782 146.471 114.2 140.251 121.093C134.132 127.866 129.886 126 128.604 125.428H128.598Z" stroke="#002050" stroke-width="1.26945" stroke-linecap="round" stroke-linejoin="round"/>
<path d="M154.621 79.0928C154.621 79.0928 150.343 73.9643 155.065 66.6205C159.039 60.4383 164.554 59.08 167.595 61.2634C170.635 63.4469 172.495 67.8646 166.275 74.7577C160.156 81.5302 155.909 79.6641 154.627 79.0928H154.621Z" fill="#009969" stroke="#002050" stroke-width="1.26945" stroke-linecap="round" stroke-linejoin="round"/>
<path d="M164.675 65.0337C164.58 65.2685 156.563 75.1131 152.971 81.7524" stroke="#002050" stroke-width="1.26945" stroke-linecap="round" stroke-linejoin="round"/>
<path d="M154.621 79.0928C154.621 79.0928 150.343 73.9643 155.065 66.6205C159.039 60.4383 164.554 59.08 167.595 61.2634C170.635 63.4469 172.495 67.8646 166.275 74.7577C160.156 81.5302 155.909 79.6641 154.627 79.0928H154.621Z" stroke="#002050" stroke-width="1.26945" stroke-linecap="round" stroke-linejoin="round"/>
<path d="M148.306 78.6992C148.306 78.6992 142.473 81.9553 136.132 75.9572C130.794 70.9048 130.477 65.2367 133.187 62.6533C135.897 60.07 140.581 59.0608 146.205 66.449C151.727 73.7166 149.106 77.544 148.306 78.6992V78.6992Z" fill="#009969" stroke="#002050" stroke-width="1.26945" stroke-linecap="round" stroke-linejoin="round"/>
<path d="M136.354 66.2144C136.563 66.3476 144.758 76.0526 150.616 80.813" stroke="#002050" stroke-width="1.26945" stroke-linecap="round" stroke-linejoin="round"/>
<path d="M148.306 78.6992C148.306 78.6992 142.473 81.9553 136.132 75.9572C130.794 70.9048 130.477 65.2367 133.187 62.6533C135.897 60.07 140.581 59.0608 146.205 66.449C151.727 73.7166 149.106 77.544 148.306 78.6992V78.6992Z" stroke="#002050" stroke-width="1.26945" stroke-linecap="round" stroke-linejoin="round"/>
<path d="M140.695 94.7073C140.695 94.7073 134.107 93.5966 132.92 84.9453C131.917 77.665 135.217 73.0442 138.95 72.7268C142.682 72.4094 146.966 74.5548 146.725 83.8345C146.484 92.9618 142.041 94.3075 140.695 94.701V94.7073Z" fill="#009969" stroke="#002050" stroke-width="1.26945" stroke-linecap="round" stroke-linejoin="round"/>
<path d="M139.185 77.4873C139.261 77.7285 139.579 90.423 141.165 97.7985" stroke="#002050" stroke-width="1.26945" stroke-linecap="round" stroke-linejoin="round"/>
<path d="M140.695 94.7073C140.695 94.7073 134.107 93.5966 132.92 84.9453C131.917 77.665 135.217 73.0442 138.95 72.7268C142.682 72.4094 146.966 74.5548 146.725 83.8345C146.484 92.9618 142.041 94.3075 140.695 94.701V94.7073Z" stroke="#002050" stroke-width="1.26945" stroke-linecap="round" stroke-linejoin="round"/>
<path d="M140.632 104.996C140.632 104.996 147.22 106.075 148.458 114.714C149.499 121.988 146.217 126.628 142.491 126.964C138.766 127.3 134.462 125.18 134.659 115.894C134.849 106.767 139.286 105.396 140.632 104.996V104.996Z" fill="#009969" stroke="#002050" stroke-width="1.26945" stroke-linecap="round" stroke-linejoin="round"/>
<path d="M142.224 122.203C142.142 121.962 141.761 109.274 140.136 101.905" stroke="#002050" stroke-width="1.26945" stroke-linecap="round" stroke-linejoin="round"/>
<path d="M140.632 104.996C140.632 104.996 147.22 106.075 148.458 114.714C149.499 121.988 146.217 126.628 142.491 126.964C138.766 127.3 134.462 125.18 134.659 115.894C134.849 106.767 139.286 105.396 140.632 104.996V104.996Z" stroke="#002050" stroke-width="1.26945" stroke-linecap="round" stroke-linejoin="round"/>
<path d="M157.065 99.6012C157.065 99.6012 163.616 98.3064 167.798 105.967C171.321 112.423 169.874 117.913 166.497 119.532C163.121 121.15 158.354 120.668 155.288 111.909C152.273 103.295 155.948 100.458 157.065 99.6075V99.6012Z" fill="#009969" stroke="#002050" stroke-width="1.26945" stroke-linecap="round" stroke-linejoin="round"/>
<path d="M164.58 115.164C164.421 114.968 159.616 103.212 155.516 96.8779" stroke="#002050" stroke-width="1.26945" stroke-linecap="round" stroke-linejoin="round"/>
<path d="M157.065 99.6012C157.065 99.6012 163.616 98.3064 167.798 105.967C171.321 112.423 169.874 117.913 166.497 119.532C163.121 121.15 158.354 120.668 155.288 111.909C152.273 103.295 155.948 100.458 157.065 99.6075V99.6012Z" stroke="#002050" stroke-width="1.26945" stroke-linecap="round" stroke-linejoin="round"/>
<path d="M152.12 78.8392C152.12 78.8392 145.532 77.7284 144.345 69.0771C143.342 61.7968 146.643 57.176 150.375 56.8586C154.107 56.5413 158.391 58.6866 158.15 67.9663C157.909 77.0937 153.466 78.4393 152.12 78.8328V78.8392Z" fill="#009969" stroke="#002050" stroke-width="1.26945" stroke-linecap="round" stroke-linejoin="round"/>
<path d="M150.609 61.6191C150.686 61.8603 151.003 74.5548 152.59 81.9303" stroke="#002050" stroke-width="1.26945" stroke-linecap="round" stroke-linejoin="round"/>
<path d="M152.12 78.8392C152.12 78.8392 145.532 77.7284 144.345 69.0771C143.342 61.7968 146.643 57.176 150.375 56.8586C154.107 56.5413 158.391 58.6866 158.15 67.9663C157.909 77.0937 153.466 78.4393 152.12 78.8328V78.8392Z" stroke="#002050" stroke-width="1.26945" stroke-linecap="round" stroke-linejoin="round"/>
<path d="M179.262 98.8389L160.493 116.687C160.493 116.687 160.734 109.464 166.231 104.418C171.721 99.3784 179.262 98.8325 179.262 98.8325V98.8389Z" fill="#FFE279" stroke="#002050" stroke-width="1.26945" stroke-linecap="round" stroke-linejoin="round"/>
<path d="M141.038 117.386L160.696 96.0464C160.696 96.0464 160.956 104.133 155.192 110.182C149.429 116.224 141.044 117.386 141.044 117.386H141.038Z" fill="#FFD94D" stroke="#002050" stroke-width="1.26945" stroke-linecap="round" stroke-linejoin="round"/>
<path d="M156.881 114.695L167.639 88.1313C167.639 88.1313 170.692 95.5196 167.462 103.117C164.231 110.709 156.881 114.695 156.881 114.695V114.695Z" fill="#FFE279" stroke="#002050" stroke-width="1.26945" stroke-linecap="round" stroke-linejoin="round"/>
<path d="M172.584 94.2629L149.397 111.109C149.397 111.109 150.718 103.225 157.478 98.4902C164.237 93.7615 172.584 94.2629 172.584 94.2629V94.2629Z" fill="#FFE279" stroke="#002050" stroke-width="1.26945" stroke-linecap="round" stroke-linejoin="round"/>
<path d="M128.229 109.35L155.675 101.092C155.675 101.092 151.829 108.1 143.888 110.34C135.948 112.581 128.236 109.35 128.236 109.35H128.229Z" fill="#FFE279" stroke="#002050" stroke-width="1.26945" stroke-linecap="round" stroke-linejoin="round"/>
<path d="M125.951 109.077L151.6 96.2939C151.6 96.2939 148.998 103.854 141.546 107.402C134.094 110.95 125.951 109.071 125.951 109.071V109.077Z" fill="#FFD94D" stroke="#002050" stroke-width="1.26945" stroke-linecap="round" stroke-linejoin="round"/>
<path d="M148.724 117.621L150.412 89.0137C150.412 89.0137 155.668 95.0372 155.04 103.263C154.411 111.489 148.724 117.621 148.724 117.621V117.621Z" fill="#FFE279" stroke="#002050" stroke-width="1.26945" stroke-linecap="round" stroke-linejoin="round"/>
<path d="M129.22 100.648L150.87 81.8667C150.87 81.8667 150.235 89.8325 143.907 95.1325C137.579 100.426 129.22 100.642 129.22 100.642V100.648Z" fill="#FFD94D" stroke="#002050" stroke-width="1.26945" stroke-linecap="round" stroke-linejoin="round"/>
<path d="M143.882 95.3799L160.328 71.9077C160.328 71.9077 161.648 79.791 156.792 86.4683C151.936 93.1393 143.882 95.3799 143.882 95.3799V95.3799Z" fill="#FFD94D" stroke="#002050" stroke-width="1.26945" stroke-linecap="round" stroke-linejoin="round"/>
<path d="M141.425 98.9919L151.358 72.1113C151.358 72.1113 154.64 79.4043 151.644 87.0908C148.648 94.7774 141.425 98.9919 141.425 98.9919V98.9919Z" fill="#FFE279" stroke="#002050" stroke-width="1.26945" stroke-linecap="round" stroke-linejoin="round"/>
<path d="M123.354 97.1764L153.009 92.1685C153.009 92.1685 148.007 98.9918 139.445 100.28C130.882 101.569 123.348 97.1764 123.348 97.1764H123.354Z" fill="#FFE279" stroke="#002050" stroke-width="1.26945" stroke-linecap="round" stroke-linejoin="round"/>
<path d="M127.239 105.771L154.202 92.4541C154.202 92.4541 151.372 100.426 143.545 104.12C135.719 107.814 127.239 105.771 127.239 105.771V105.771Z" fill="#FFE279" stroke="#002050" stroke-width="1.26945" stroke-linecap="round" stroke-linejoin="round"/>
<path d="M183.85 91.5716L154.716 99.0423C154.716 99.0423 159.127 91.8254 167.55 89.8261C175.973 87.8267 183.85 91.5779 183.85 91.5779V91.5716Z" fill="#FFD94D" stroke="#002050" stroke-width="1.26945" stroke-linecap="round" stroke-linejoin="round"/>
<path d="M139.477 105.085L166.662 87.6616C166.662 87.6616 164.593 96.5033 156.684 101.378C148.769 106.253 139.483 105.085 139.483 105.085H139.477Z" fill="#FFE279" stroke="#002050" stroke-width="1.26945" stroke-linecap="round" stroke-linejoin="round"/>
<path d="M154.107 92.6377L182.498 77.252C182.498 77.252 179.788 85.916 171.536 90.2004C163.285 94.4847 154.107 92.6377 154.107 92.6377V92.6377Z" fill="#FFE279" stroke="#002050" stroke-width="1.26945" stroke-linecap="round" stroke-linejoin="round"/>
<path d="M144.662 96.7701L169.099 75.6655C169.099 75.6655 168.306 84.7104 161.165 90.6577C154.024 96.6051 144.662 96.7638 144.662 96.7638V96.7701Z" fill="#FFE279" stroke="#002050" stroke-width="1.26945" stroke-linecap="round" stroke-linejoin="round"/>
<path d="M121.691 121.765C112.361 121.765 107.207 114.142 107.207 108.868C107.207 104.418 108.483 101.264 109.835 97.9188C110.844 95.418 111.891 92.8284 112.526 89.5214C113.878 82.4316 119.832 80.9844 121.355 80.9844C124.573 80.9844 128.8 82.3808 130.654 89.0263C131.866 93.5266 133.11 96.4717 134.113 98.8455C135.497 102.121 136.411 104.285 136.411 108.297C136.411 111.667 134.945 115.037 132.393 117.551C129.632 120.268 125.836 121.759 121.691 121.759V121.765Z" fill="#FFECA6"/>
<path d="M121.355 81.9301C124.243 81.9301 128.045 83.2059 129.733 89.2611C130.965 93.8312 132.221 96.8144 133.237 99.2073C134.576 102.375 135.459 104.469 135.459 108.29C135.459 111.407 134.1 114.53 131.726 116.865C129.149 119.404 125.582 120.801 121.698 120.801C113.313 120.801 108.165 113.844 108.165 108.855C108.165 104.596 109.352 101.664 110.723 98.2615C111.752 95.7163 112.818 93.0885 113.465 89.6864C114.862 82.3807 121.292 81.9237 121.355 81.9237M121.355 80.0195C119.654 80.0195 113.065 81.6063 111.593 89.3309C110.114 97.0492 106.255 100.908 106.255 108.855C106.255 114.987 112.272 122.705 121.691 122.705C131.111 122.705 137.356 115.551 137.356 108.29C137.356 101.029 134.405 99.3215 131.568 88.766C129.638 81.8412 125.1 80.0259 121.349 80.0259L121.355 80.0195Z" fill="#00CC8C"/>
<path d="M121.355 80.0259C125.1 80.0259 129.645 81.8412 131.574 88.766C134.411 99.3215 137.363 101.029 137.363 108.29C137.363 115.551 131.117 122.705 121.698 122.705C112.278 122.705 106.261 114.987 106.261 108.855C106.261 100.908 110.12 97.0492 111.599 89.3309C113.072 81.6127 119.66 80.0195 121.361 80.0195L121.355 80.0259Z" stroke="#002050" stroke-width="1.26945" stroke-linecap="round" stroke-linejoin="round"/>
<path d="M129.162 107.839C129.162 112.092 125.716 115.539 121.463 115.539C117.21 115.539 113.764 112.092 113.764 107.839C113.764 103.587 117.21 100.146 121.463 100.146C125.716 100.146 129.162 103.593 129.162 107.839Z" fill="#FFD94D"/>
</g>
<defs>
<clipPath id="clip0_5418_6850">
<rect width="148.183" height="101.08" fill="white" transform="translate(68.3999 40.2798)"/>
</clipPath>
</defs>
</svg>
