<svg width="16" height="16" viewBox="0 0 16 16" fill="none" xmlns="http://www.w3.org/2000/svg">
<path d="M9.33341 7.3335H5.33341M6.66675 10.0002H5.33341M10.6667 4.66683H5.33341M13.3334 4.5335V11.4668C13.3334 12.5869 13.3334 13.147 13.1154 13.5748C12.9237 13.9511 12.6177 14.2571 12.2414 14.4488C11.8136 14.6668 11.2535 14.6668 10.1334 14.6668H5.86675C4.74664 14.6668 4.18659 14.6668 3.75877 14.4488C3.38244 14.2571 3.07648 13.9511 2.88474 13.5748C2.66675 13.147 2.66675 12.5869 2.66675 11.4668V4.5335C2.66675 3.41339 2.66675 2.85334 2.88474 2.42552C3.07648 2.04919 3.38244 1.74323 3.75877 1.55148C4.18659 1.3335 4.74664 1.3335 5.86675 1.3335H10.1334C11.2535 1.3335 11.8136 1.3335 12.2414 1.55148C12.6177 1.74323 12.9237 2.04919 13.1154 2.42552C13.3334 2.85334 13.3334 3.41339 13.3334 4.5335Z" stroke="#4C6284" stroke-linecap="round" stroke-linejoin="round"/>
</svg>
