<svg width="35" height="33" viewBox="0 0 35 33" fill="none" xmlns="http://www.w3.org/2000/svg">
<path d="M12.8188 24.2687C6.41174 24.2687 1.19922 19.0802 1.19922 12.7027C1.19922 6.32512 6.41174 1.13672 12.8188 1.13672C19.2259 1.13672 24.4384 6.32517 24.4384 12.7027C24.4384 19.0802 19.2259 24.2687 12.8188 24.2687Z" fill="#F2FAFF"/>
<path d="M12.7563 24.2687C6.34924 24.2687 1.13672 19.0802 1.13672 12.7027C1.13672 6.32512 6.34924 1.13672 12.7563 1.13672C19.1634 1.13672 24.3759 6.32517 24.3759 12.7027C24.3759 19.0802 19.1634 24.2687 12.7563 24.2687Z" stroke="#002066" stroke-width="0.752859"/>
<path d="M12.8701 21.694C7.95752 21.694 3.96094 17.716 3.96094 12.8265C3.96094 7.93688 7.95752 3.95898 12.8701 3.95898C17.7826 3.95898 21.7792 7.93693 21.7792 12.8265C21.7792 17.7161 17.7826 21.694 12.8701 21.694Z" fill="#CCECFF"/>
<path d="M9.81148 18.0736C9.55297 17.8177 9.55234 17.4024 9.81009 17.1458L12.6229 14.0584V7.53103C12.6229 7.16871 12.9188 6.875 13.2838 6.875C13.6488 6.875 13.9447 7.16876 13.9447 7.53103V14.3295C13.9447 14.5031 13.8754 14.6697 13.7519 14.7927L10.7462 18.0721C10.4884 18.3288 10.0699 18.3294 9.81148 18.0736Z" fill="#002066"/>
<rect x="26.4609" y="7.25195" width="9.33923" height="25.2858" rx="4.66962" transform="rotate(36 26.4609 7.25195)" fill="#FF00DF"/>
<path fill-rule="evenodd" clip-rule="evenodd" d="M14.9802 29.3511C15.3035 29.9738 15.7726 30.5328 16.3789 30.9732C18.4653 32.4891 21.3855 32.0266 22.9014 29.9402L32.2746 17.0391C33.7905 14.9527 33.3279 12.0324 31.2415 10.5166C30.8407 10.2253 30.409 10.0071 29.9625 9.85943C30.752 11.3798 30.6723 13.2796 29.5969 14.7598L20.2237 27.6609C18.999 29.3464 16.8578 29.9722 14.9802 29.3511Z" fill="#CC00B2"/>
<path fill-rule="evenodd" clip-rule="evenodd" d="M26.5859 22.9688L31.2743 16.5157C32.7902 14.4293 32.3277 11.5091 30.2413 9.99319C28.1549 8.47732 25.2346 8.93984 23.7187 11.0263L19.0303 17.4793L26.5859 22.9688Z" fill="white"/>
<path d="M31.2624 10.741C33.3488 12.2569 33.8114 15.1775 32.2956 17.264L27.6088 23.7148L20.0527 18.2249L20.0533 18.2242L25.7195 22.3409L30.4063 15.8901C31.6847 14.1304 31.5566 11.7772 30.233 10.1741C30.5908 10.3157 30.9367 10.5044 31.2624 10.741Z" fill="white"/>
<path d="M27.7476 23.8143L32.0119 17.9449C33.761 15.5375 33.2273 12.168 30.8199 10.419C28.4125 8.66987 25.043 9.20355 23.2939 11.611L19.0296 17.4803M27.7476 23.8143L23.4833 29.6836C21.7342 32.091 18.3647 32.6247 15.9573 30.8756C13.5499 29.1265 13.0162 25.757 14.7653 23.3496L19.0296 17.4803M27.7476 23.8143L19.0296 17.4803" stroke="#002066" stroke-width="0.852928"/>
</svg>
