<svg width="56" height="56" viewBox="0 0 56 56" fill="none" xmlns="http://www.w3.org/2000/svg">
<g clip-path="url(#clip0_5432_72549)">
<rect width="56" height="56" rx="12" fill="white"/>
<g clip-path="url(#clip1_5432_72549)">
<rect width="120.167" height="67.5938" transform="translate(-32.6666 -5.61462)" fill="#F2F6FF"/>
<g clip-path="url(#clip2_5432_72549)">
<g clip-path="url(#clip3_5432_72549)">
<path d="M18.7526 40.5169C17.6461 39.0848 16.5836 37.6193 15.5648 36.1246C16.3581 35.1393 17.1493 34.156 17.9426 33.1707C18.8361 32.058 19.7442 30.9349 20.8715 30.0581C22.6438 28.6803 24.911 28.0623 27.1551 28.006C30.2114 27.9287 36.5889 27.4548 39.3383 29.0623C40.8476 29.9432 42.0209 31.2897 43.1398 32.63C44.0771 33.751 44.9999 34.8867 45.91 36.0411C44.2128 37.7487 42.4613 39.4042 40.6618 41.0054C40.0711 40.4104 39.4803 39.8155 38.8874 39.2205C38.7726 41.83 38.6577 42.9719 38.5429 44.9363C37.8895 45.5897 37.2445 46.2515 36.6098 46.9237C35.8625 47.717 35.1088 48.5646 34.7978 49.6084C34.5619 50.3912 34.6016 51.2304 34.8375 52.0174C29.4327 52.5101 23.0113 52.4642 18.9091 51.9819C18.7776 51.9673 18.6461 51.9506 18.5188 51.9339C18.4102 48.8359 18.4415 45.7755 18.6064 42.7423C18.6461 41.9991 18.6941 41.2559 18.7505 40.5169H18.7526Z" fill="#20DFFF"/>
<path d="M39.7397 50.3847C39.7647 50.3805 39.7898 50.3784 39.8169 50.3763C39.5977 50.5162 39.4286 50.6227 39.3242 50.6874H39.3222C39.318 50.6248 39.3096 50.5642 39.2992 50.5016H39.3013C39.4432 50.4473 39.5894 50.4035 39.7397 50.3847Z" fill="#9C7757"/>
<path d="M40.7816 53.0588C40.4873 52.612 39.9173 52.4012 39.385 52.4367C39.2368 52.4471 39.0907 52.4742 38.9529 52.5264C39.0426 52.3636 39.1178 52.1924 39.1783 52.015C39.2535 51.7895 39.3015 51.5557 39.3245 51.3198H39.3266C39.4456 51.2822 39.5645 51.2509 39.6877 51.2321C39.9591 51.1883 40.2451 51.1987 40.4977 51.3094C40.5979 51.3532 40.6918 51.4158 40.7733 51.4889C41.0092 51.6997 41.1553 52.0108 41.149 52.3281C41.1428 52.6162 41.0112 52.8959 40.8046 53.0963C40.7983 53.0838 40.79 53.0713 40.7816 53.0588Z" fill="#9C7757"/>
<path d="M41.6119 41.9597H41.6098C41.2946 41.6403 40.9793 41.323 40.662 41.0057C42.4615 39.4045 44.213 37.749 45.9102 36.0414C47.0229 37.4526 48.1147 38.8951 49.1961 40.3773C49.7159 41.0996 49.9685 42.0662 49.7055 42.9158C49.3527 44.0494 48.2713 44.8635 48.1272 44.9658C46.0981 46.4 41.4824 49.3268 39.8165 50.3769C39.7894 50.379 39.7644 50.381 39.7393 50.3852C39.589 50.404 39.4429 50.4478 39.3009 50.5021H39.2988C39.3093 50.5648 39.3176 50.6253 39.3218 50.6879C39.3447 50.8988 39.3447 51.1117 39.3218 51.3205C39.2988 51.5564 39.2508 51.7902 39.1757 52.0156C39.1151 52.1931 39.04 52.3643 38.9502 52.5271C39.088 52.4749 39.2341 52.4478 39.3823 52.4373C39.9147 52.4018 40.4846 52.6127 40.7789 53.0594C40.7873 53.072 40.7956 53.0845 40.8019 53.097C41.1213 53.6168 41.0086 54.3203 40.6829 54.8401C40.1902 55.6292 39.161 56.0384 38.2905 55.7107C38.2174 55.6835 38.1444 55.6543 38.0734 55.623C36.9503 55.1491 36.0839 54.3537 35.4347 53.3225C35.18 52.9196 34.9754 52.477 34.8397 52.0177C34.6038 51.2307 34.5642 50.3915 34.8001 49.6086C35.1111 48.5648 35.8647 47.7173 36.6121 46.924C37.2467 46.2518 37.8918 45.59 38.5452 44.9387C39.5514 43.9283 40.5785 42.9388 41.6119 41.9597Z" fill="#9C7757"/>
<path d="M39.322 51.3199C39.345 51.1111 39.345 50.8982 39.322 50.6873H39.3241C39.4285 50.6226 39.5976 50.5162 39.8168 50.3763C40.1633 50.3554 40.5328 50.4786 40.7207 50.7667C40.8606 50.9775 40.8689 51.2572 40.7708 51.489C40.6894 51.4159 40.5955 51.3533 40.4952 51.3094C40.2426 51.1988 39.9566 51.1884 39.6853 51.2322C39.5621 51.251 39.4431 51.2823 39.3241 51.3199H39.322Z" fill="#9C7757"/>
<path d="M28.2334 82.2612H20.2693C19.8184 72.2763 19.3653 61.9803 18.9144 51.9828C23.0165 52.465 29.438 52.511 34.8427 52.0183C34.9784 52.4775 35.183 52.9201 35.4377 53.323C36.087 54.3543 36.9533 55.1497 38.0764 55.6235L36.54 82.2612H28.2334Z" fill="#FFF5D2"/>
<path d="M6.38533 28.6897C6.57322 28.9005 6.66298 29.2053 6.58783 29.4788C6.57948 29.508 6.57113 29.5351 6.5586 29.5644C6.48136 29.7564 6.32271 29.9193 6.14109 30.0278C6.05967 30.0779 5.97408 30.1176 5.88431 30.151C5.74862 30.2053 5.60666 30.2428 5.46262 30.2741C4.85513 30.4077 4.21006 30.4516 3.62345 30.2449C3.52533 30.2094 3.42722 30.1656 3.33745 30.1113C3.1266 29.9923 2.94707 29.8211 2.86774 29.5936C2.78006 29.3473 2.82599 29.0633 2.95542 28.8358C3.03266 28.7022 3.13704 28.5874 3.25812 28.4913C3.94076 28.673 5.41043 28.6187 5.97199 28.4078C6.13065 28.4684 6.2726 28.5644 6.38533 28.6897Z" fill="#9C7757"/>
<path d="M6.28623 32.1C6.45115 32.3066 6.53674 32.5968 6.43654 32.8411C6.35512 33.0352 6.17768 33.1625 5.97727 33.244C5.88959 33.2815 5.79774 33.3108 5.71006 33.3316C5.32177 33.4277 4.90634 33.4611 4.52222 33.3504C4.1381 33.2398 3.7853 32.9705 3.63917 32.5968C3.51182 32.2691 3.57445 31.862 3.81244 31.6094C3.87924 31.6532 3.95022 31.6908 4.0212 31.7242C4.33851 31.8682 4.69131 31.9183 5.03994 31.9246C5.33847 31.9309 5.64743 31.9016 5.91673 31.7743C6.05451 31.8661 6.18394 31.9705 6.28623 32.1Z" fill="#9C7757"/>
<path d="M7.9348 33.7896C7.55486 33.8564 7.15822 33.8293 6.79289 33.7103C6.49228 33.6121 6.21254 33.4514 5.97456 33.2447C6.17497 33.1612 6.35241 33.0339 6.43383 32.8397C6.53403 32.5955 6.44844 32.3053 6.28352 32.0986C6.18123 31.9692 6.0518 31.8648 5.91402 31.773C5.93489 31.7625 5.95368 31.7521 5.97456 31.7417C6.25638 31.5893 6.48184 31.297 6.47767 30.9734C6.47349 30.7668 6.37746 30.5684 6.23551 30.416C6.1353 30.3075 6.01213 30.2198 5.88062 30.1509C5.97038 30.1154 6.05597 30.0758 6.13739 30.0257C6.31901 29.9171 6.47767 29.7543 6.55491 29.5622C6.56743 29.533 6.57578 29.5059 6.58413 29.4766C6.65929 29.2032 6.56952 28.8984 6.38164 28.6875C6.26891 28.5623 6.12695 28.4662 5.96829 28.4057C6.01213 28.3869 6.0518 28.3702 6.08311 28.3514C6.43383 28.1489 6.78663 27.4684 6.35032 27.0613C6.72818 27.0947 7.2459 27.1239 7.4317 26.982C7.61958 26.8379 7.78032 26.3724 7.81372 26.1386C7.89514 25.5916 7.93689 25.0342 8.11851 24.5123C8.29805 23.9904 8.64459 23.4936 9.15396 23.2848C9.47127 23.1554 9.88461 23.17 10.0934 23.4393C10.2499 23.6397 10.2479 23.9174 10.2186 24.1679C10.1268 24.9507 9.81781 25.7357 9.99317 26.506C10.1727 27.3097 10.8449 27.9172 11.1309 28.6896C11.419 29.4662 11.3209 30.3472 10.9994 31.1049H11.0015C12.1601 33.1988 13.3625 35.2697 14.6088 37.3134C14.9282 36.9168 15.2476 36.5202 15.5649 36.1235C16.5837 37.6182 17.6463 39.0837 18.7527 40.5158C18.6963 41.2548 18.6483 41.998 18.6087 42.7412C17.7674 43.6931 16.8801 44.6764 16.3144 45.24C15.7466 45.8078 15.0785 46.3172 14.2769 46.2817C13.4732 46.2462 12.7196 45.8392 12.1455 45.2755C11.5735 44.714 11.1643 44.0063 10.8282 43.2756C10.2499 42.0168 9.87209 40.6745 9.49632 39.3405C8.97651 37.4909 8.4567 35.6392 7.93689 33.7896H7.9348Z" fill="#9C7757"/>
<path d="M6.08668 28.3529C6.05536 28.3717 6.0157 28.3884 5.97186 28.4072C5.4103 28.6181 3.94064 28.6723 3.25799 28.4907C3.17031 28.4657 3.09516 28.4385 3.03671 28.4072C2.63589 28.1901 2.5002 27.4574 2.77576 27.092C3.4083 26.2612 5.72761 26.7017 6.17018 26.9355C6.24325 26.973 6.30379 27.0169 6.3518 27.0628H6.35389C6.7902 27.4699 6.43739 28.1504 6.08668 28.3529Z" fill="#9C7757"/>
<path d="M3.28856 31.01C3.16748 30.724 3.17583 30.3774 3.3324 30.1123C3.42217 30.1645 3.52029 30.2083 3.6184 30.2438C4.20502 30.4505 4.85008 30.4067 5.45757 30.2731C5.60162 30.2417 5.74357 30.2042 5.87927 30.1499C6.01078 30.2209 6.13395 30.3085 6.23416 30.4171C6.37611 30.5695 6.47214 30.7678 6.47632 30.9745C6.48049 31.2981 6.25503 31.5903 5.97321 31.7427C5.95233 31.7532 5.93354 31.7636 5.91267 31.774C5.64337 31.9014 5.3344 31.9306 5.03588 31.9243C4.68725 31.9181 4.33445 31.868 4.01713 31.7239C3.94616 31.6905 3.87518 31.6529 3.80838 31.6091C3.58083 31.463 3.38877 31.2584 3.28648 31.01H3.28856Z" fill="#9C7757"/>
<path d="M14.6124 37.3121C15.723 35.9301 16.8357 34.5502 17.9463 33.1682C18.8419 32.0555 19.7479 30.9324 20.8752 30.0556C22.6476 28.6778 24.9147 28.0599 27.1589 28.0014C30.2151 27.9242 36.5927 27.4503 39.342 29.0578C40.8514 29.9387 42.0225 31.2852 43.1435 32.6255C45.229 35.118 47.2352 37.6774 49.1996 40.3725C49.7195 41.0948 49.972 42.0614 49.709 42.9089C49.3562 44.0425 48.2769 44.8587 48.1329 44.961C45.8365 46.5831 40.2293 50.1174 39.3295 50.6831" stroke="#002050" stroke-width="0.390253" stroke-linecap="round" stroke-linejoin="round"/>
<path d="M39.1516 49.916C39.3937 50.5861 39.4021 51.3398 39.1745 52.014C38.947 52.6883 38.4856 53.2833 37.8865 53.6716" stroke="#002050" stroke-width="0.390253" stroke-linecap="round" stroke-linejoin="round"/>
<path d="M41.612 41.9566C40.0672 40.4034 38.5244 38.8524 36.9796 37.2992" stroke="#002050" stroke-width="0.390253" stroke-linecap="round" stroke-linejoin="round"/>
<path d="M40.6619 41.0034C42.4614 39.4043 44.2129 37.7488 45.9101 36.0391" stroke="#002050" stroke-width="0.390253" stroke-linecap="round" stroke-linejoin="round"/>
<path d="M42.9346 40.708C40.5631 42.9417 38.8513 44.5513 36.6176 46.9228C35.8702 47.7161 35.1166 48.5615 34.8035 49.6053C34.4319 50.8454 34.7492 52.2232 35.4381 53.3191C36.127 54.4151 37.0643 55.246 38.2939 55.7074C39.1644 56.0351 40.1936 55.6259 40.6884 54.8368C41.0224 54.3045 41.1309 53.5801 40.7844 53.0561C40.4901 52.6115 39.9201 52.3985 39.3878 52.434C39.2396 52.4444 39.0914 52.4716 38.9557 52.5238" stroke="#002050" stroke-width="0.390253" stroke-linecap="round" stroke-linejoin="round"/>
<path d="M38.4105 53.2496C38.4272 53.5899 38.7299 53.8592 39.0493 53.9845C39.233 54.0554 39.446 54.093 39.6255 54.0116" stroke="#002050" stroke-width="0.390253" stroke-linecap="round" stroke-linejoin="round"/>
<path d="M39.3265 51.3175C39.4455 51.2799 39.5645 51.2507 39.6877 51.2298C39.9591 51.186 40.2451 51.1964 40.4977 51.307C40.8881 51.4782 41.1574 51.8978 41.149 52.3258C41.1427 52.6139 41.0133 52.8936 40.8066 53.094" stroke="#002050" stroke-width="0.390253" stroke-linecap="round" stroke-linejoin="round"/>
<path d="M39.3038 50.5028C39.4458 50.4464 39.5919 50.4047 39.7422 50.3859C40.1096 50.3399 40.5188 50.4589 40.7234 50.7679C40.8633 50.9787 40.8716 51.2585 40.7735 51.4902" stroke="#002050" stroke-width="0.390253" stroke-linecap="round" stroke-linejoin="round"/>
<path d="M38.5472 44.9359C38.6621 42.9715 38.7769 41.8296 38.8896 39.2201" stroke="#002050" stroke-width="0.390253" stroke-linecap="round" stroke-linejoin="round"/>
<path d="M19.421 34.2754C18.6215 40.0685 18.3146 45.9283 18.5213 51.9322C22.5984 52.4583 29.2599 52.5251 34.84 52.0157" stroke="#002050" stroke-width="0.390253" stroke-linecap="round" stroke-linejoin="round"/>
<path d="M6.34998 27.0613C6.72783 27.0968 7.24764 27.126 7.43344 26.982C7.62132 26.8379 7.78206 26.3724 7.81546 26.1386C7.89688 25.5916 7.93863 25.0342 8.11817 24.5123C8.2977 23.9904 8.64424 23.4936 9.1557 23.2848C9.47092 23.1554 9.88427 23.17 10.0951 23.4393C10.2496 23.6397 10.2496 23.9153 10.2204 24.1679C10.1285 24.9507 9.81955 25.7357 9.99282 26.506C10.1744 27.3097 10.8446 27.9172 11.1326 28.6896C11.4416 29.5246 11.3059 30.4787 10.926 31.272" stroke="#002050" stroke-width="0.390253" stroke-linecap="round" stroke-linejoin="round"/>
<path d="M7.93591 33.79C8.45572 35.6396 8.97553 37.4913 9.49534 39.3409C9.87111 40.6749 10.2469 42.0172 10.8272 43.2761C11.1633 44.0046 11.5725 44.7144 12.1445 45.276C12.7165 45.8375 13.4722 46.2446 14.2738 46.2822C15.0755 46.3198 15.7456 45.8083 16.3134 45.2405C16.8812 44.6727 17.7664 43.6936 18.6077 42.7416" stroke="#002050" stroke-width="0.390253" stroke-linecap="round" stroke-linejoin="round"/>
<path d="M18.7551 40.5157C17.6508 39.0836 16.5882 37.6181 15.5695 36.1234" stroke="#002050" stroke-width="0.390253" stroke-linecap="round" stroke-linejoin="round"/>
<path d="M23.964 57.2312C24.8763 57.749 25.8428 58.1748 26.8407 58.4963L28.231 82.2594H36.5375L38.0719 55.6217" stroke="#002050" stroke-width="0.390253" stroke-linecap="round" stroke-linejoin="round"/>
<path d="M18.9144 51.9805C19.3653 61.9779 19.8184 72.2739 20.2693 82.2589H28.2146" stroke="#002050" stroke-width="0.390253" stroke-linecap="round" stroke-linejoin="round"/>
<path d="M6.16861 26.934C6.87004 27.3056 6.47549 28.126 6.08719 28.3515C5.59244 28.6375 3.58 28.7022 3.03722 28.4058C2.63432 28.1866 2.50071 27.4559 2.77628 27.0906C3.40673 26.2576 5.72604 26.7002 6.16861 26.934Z" stroke="#002050" stroke-width="0.390253" stroke-linecap="round" stroke-linejoin="round"/>
<path d="M5.97199 28.4056C6.12856 28.4683 6.2726 28.5622 6.38533 28.6875C6.57322 28.8983 6.66298 29.2031 6.58783 29.4766C6.52311 29.7104 6.34776 29.9004 6.14109 30.0256C5.93441 30.1509 5.69852 30.2198 5.46053 30.2719C4.85513 30.4076 4.20798 30.4494 3.62345 30.2427C3.29987 30.1279 2.98256 29.9171 2.86774 29.5914C2.78006 29.3451 2.82599 29.0611 2.95542 28.8336C3.03266 28.7 3.13704 28.5852 3.25812 28.4871" stroke="#002050" stroke-width="0.390253" stroke-linecap="round" stroke-linejoin="round"/>
<path d="M3.3343 30.1123C3.17564 30.3774 3.16729 30.724 3.28837 31.01C3.42407 31.3315 3.7038 31.5778 4.02112 31.7218C4.33843 31.8659 4.69123 31.9181 5.03986 31.9222C5.36135 31.9285 5.69328 31.8951 5.97719 31.7406C6.2611 31.5861 6.48447 31.2939 6.4803 30.9724C6.47821 30.7657 6.38009 30.5653 6.23814 30.4129C6.13585 30.3044 6.01477 30.2167 5.88325 30.1478" stroke="#002050" stroke-width="0.390253" stroke-linecap="round" stroke-linejoin="round"/>
<path d="M3.81244 31.6094C3.57445 31.862 3.51182 32.2691 3.63917 32.5968C3.7853 32.9705 4.13601 33.2377 4.52222 33.3483C4.90842 33.459 5.32177 33.4277 5.71006 33.3316C6.00441 33.2586 6.31963 33.1208 6.43654 32.8411C6.53674 32.5968 6.45115 32.3066 6.28832 32.1C6.18603 31.9705 6.0566 31.8661 5.91673 31.7743" stroke="#002050" stroke-width="0.390253" stroke-linecap="round" stroke-linejoin="round"/>
<path d="M8.61968 30.9013C8.13745 30.9472 7.65521 30.7405 7.28154 30.4295C6.99136 30.1852 6.75964 29.8825 6.55505 29.5631" stroke="#002050" stroke-width="0.390253" stroke-linecap="round" stroke-linejoin="round"/>
<path d="M5.97632 33.2432C6.2143 33.4498 6.49404 33.6106 6.79465 33.7087C7.28315 33.8674 7.82384 33.8611 8.31025 33.692" stroke="#002050" stroke-width="0.390253" stroke-linecap="round" stroke-linejoin="round"/>
<path d="M11.0031 31.1035C12.6606 34.1013 14.1073 36.5709 15.9444 39.4622" stroke="#002050" stroke-width="0.390253" stroke-linecap="round" stroke-linejoin="round"/>
<path d="M34.8566 21.3258C34.4871 22.0147 34.1155 22.7015 33.7439 23.3904C33.7648 22.808 33.7856 22.2339 33.7982 21.6723C34.1698 21.6327 34.5309 21.5116 34.8566 21.3258Z" fill="#002050"/>
<path d="M36.2834 19.4669C36.0934 20.0869 35.7344 20.661 35.2333 21.0701C35.1143 21.1662 34.9891 21.2518 34.8597 21.3248C34.534 21.5106 34.1728 21.6338 33.8012 21.6714C33.7866 22.2329 33.7678 22.807 33.7449 23.3894C33.6927 24.8466 33.6342 26.3496 33.6217 27.7859C33.8284 27.8569 34.0371 27.9091 34.248 27.9529C33.4965 28.6377 32.5884 29.1449 31.6114 29.4226C30.2356 29.8109 28.7347 29.7315 27.407 29.2034C26.9602 29.0259 26.5636 28.7546 26.1753 28.4769C25.9415 28.3078 25.8329 28.1053 25.8329 28.1053L26.6679 28.0302C26.6596 27.4477 26.6888 25.8361 26.7222 25.1785C25.8454 24.9071 25.0417 24.3894 24.4864 23.6608C23.714 22.6525 23.4677 21.3436 23.3696 20.0785C23.1942 17.8385 23.4176 15.561 24.0919 13.417C24.1691 13.1707 24.2526 12.9223 24.3674 12.6905C24.4342 12.5507 24.5136 12.415 24.6075 12.2876C24.8538 11.9557 24.9645 11.7073 25.716 11.5653C27.2107 11.4338 28.6157 11.4526 30.0916 11.7344C31.5633 12.0163 33.056 12.7302 34.2083 13.9535C33.8388 15.133 33.699 16.3793 33.7971 17.611C34.1353 17.3438 34.5674 17.1956 34.9953 17.2311C35.6049 17.2812 36.1748 17.7175 36.3439 18.3062C36.3627 18.373 36.3773 18.4419 36.3857 18.5107C36.4295 18.8281 36.3773 19.16 36.2834 19.4689V19.4669Z" fill="#9C7757"/>
<path d="M31.7904 15.9553C31.6798 16.6526 30.9032 17.1035 30.0556 16.9678C29.4794 16.8759 29.0223 16.5357 28.8219 16.1098C28.7279 15.9073 28.6903 15.686 28.7258 15.4626C28.8365 14.7675 29.6131 14.3145 30.4606 14.4502C30.4961 14.4564 30.5295 14.4627 30.5629 14.471C31.3562 14.6422 31.899 15.2894 31.7925 15.9553H31.7904Z" fill="#F5F5FA"/>
<path d="M30.4585 14.4502C30.494 14.4564 30.5274 14.4627 30.5608 14.471C30.4836 14.8531 30.2957 15.21 30.0285 15.4919C29.7091 15.8238 29.2769 16.0451 28.8219 16.1098C28.7279 15.9073 28.6903 15.686 28.7258 15.4626C28.8365 14.7675 29.6131 14.3145 30.4606 14.4502H30.4585Z" fill="#002050"/>
<path d="M29.7472 19.3181C29.7263 19.7461 29.5635 20.1657 29.3005 20.5039C29.169 20.6751 29.0103 20.8275 28.8328 20.9485C28.3861 21.2512 27.8225 21.3702 27.2922 21.2805C27.1857 21.2638 27.0834 21.2366 26.9812 21.2032C26.3695 20.9986 25.8643 20.4955 25.714 19.7899C27.0417 19.625 28.3736 19.4622 29.7451 19.316L29.7472 19.3181Z" fill="#002050"/>
<path d="M27.2929 21.2799C27.4682 20.9772 27.7375 20.7266 28.0548 20.5784C28.441 20.401 28.894 20.3759 29.299 20.5033C29.1675 20.6745 29.0089 20.8268 28.8314 20.9479C28.3847 21.2506 27.821 21.3696 27.2908 21.2799H27.2929Z" fill="#FF99F2" stroke="#FF99F2" stroke-width="0.208759" stroke-miterlimit="10"/>
<path d="M26.6005 8.6492C26.9074 8.30892 27.304 8.04588 27.7424 7.90184C28.2893 7.72022 28.8968 7.72439 29.4417 7.9081C29.8363 8.0438 30.2162 8.29639 30.4333 8.64293C31.1222 8.20663 32.022 8.11895 32.7777 8.41956C33.4791 8.6993 34.0407 9.30679 34.2786 10.0228C34.8903 9.9602 35.5291 10.146 36.0051 10.5385C36.4664 10.9205 36.7671 11.4883 36.8339 12.0812C37.4038 12.1835 37.9173 12.6073 38.1637 13.1438C38.4726 13.816 38.4058 14.6176 38.124 15.3024C37.5436 16.367 36.9612 17.4338 36.3788 18.5068C36.3683 18.4379 36.3558 18.369 36.3349 18.3022C36.1658 17.7156 35.5959 17.2772 34.9863 17.2292C34.5584 17.1937 34.1263 17.3419 33.7881 17.6091C33.6899 16.3795 33.8319 15.1312 34.2014 13.9517C33.0491 12.7263 31.5564 12.0123 30.0826 11.7305C28.6067 11.4487 27.2038 11.432 25.7091 11.5614C24.9576 11.7013 24.8469 11.9497 24.6006 12.2837C24.5066 12.411 24.4294 12.5467 24.3605 12.6866C24.1747 12.1104 24.0766 11.5008 24.1455 10.8996C24.2227 10.2003 24.5421 9.51555 25.0932 9.07715C25.5129 8.74523 26.0744 8.57822 26.5984 8.64711L26.6005 8.6492Z" fill="#002050"/>
<path d="M27.6759 14.9609C27.6655 15.1592 27.6572 15.3576 27.6467 15.5559C27.1582 15.6269 26.7198 15.9421 26.4714 16.3659C26.3023 16.3867 26.129 16.3826 25.9495 16.3554C25.3733 16.2636 24.9162 15.9233 24.7178 15.4974C24.6218 15.2949 24.5842 15.0736 24.6197 14.8503C24.7304 14.153 25.5069 13.7 26.3545 13.8378C26.39 13.8441 26.4234 13.8503 26.4568 13.8566C27.0935 13.9964 27.5737 14.4432 27.678 14.9609H27.6759Z" fill="#F5F5FA"/>
<path d="M26.3499 13.8356C26.3854 13.8419 26.4188 13.8481 26.4522 13.8544C26.3749 14.2364 26.187 14.5955 25.9198 14.8752C25.6004 15.2092 25.1683 15.4305 24.7132 15.4952C24.6172 15.2927 24.5796 15.0714 24.6151 14.8481C24.7257 14.1508 25.5023 13.6978 26.3499 13.8356Z" fill="#002050"/>
<path d="M31.791 15.9559C31.9028 15.2604 31.3078 14.5864 30.462 14.4504C29.6162 14.3145 28.8399 14.7681 28.7281 15.4637C28.6164 16.1592 29.2114 16.8332 30.0572 16.9691C30.903 17.1051 31.6792 16.6514 31.791 15.9559Z" stroke="#002050" stroke-width="0.390253" stroke-linecap="round" stroke-linejoin="round"/>
<path d="M30.561 14.4672C30.4837 14.8492 30.2979 15.2083 30.0286 15.4901C29.7092 15.8241 29.2771 16.0454 28.822 16.1101" stroke="#002050" stroke-width="0.390253" stroke-linecap="round" stroke-linejoin="round"/>
<path d="M26.4673 16.3636C26.3003 16.3845 26.1249 16.3824 25.9454 16.3531C25.0999 16.2175 24.5029 15.5432 24.6156 14.848C24.7283 14.1528 25.5049 13.6977 26.3504 13.8355C27.0393 13.9462 27.5633 14.4138 27.6718 14.9607" stroke="#002050" stroke-width="0.390253" stroke-linecap="round" stroke-linejoin="round"/>
<path d="M26.4549 13.8541C26.3777 14.2362 26.1919 14.5952 25.9226 14.877C25.6032 15.2111 25.171 15.4323 24.7159 15.4971" stroke="#002050" stroke-width="0.390253" stroke-linecap="round" stroke-linejoin="round"/>
<path d="M29.9796 13.1608C30.6539 12.998 31.3971 13.1545 31.9461 13.5783" stroke="#002050" stroke-width="0.390253" stroke-linecap="round" stroke-linejoin="round"/>
<path d="M25.2765 12.4548C25.8109 12.2648 26.4163 12.2773 26.9424 12.4882" stroke="#002050" stroke-width="0.390253" stroke-linecap="round" stroke-linejoin="round"/>
<path d="M25.7185 19.7922C27.0483 19.6273 28.376 19.4645 29.7496 19.3184C29.7162 19.9634 29.3676 20.5834 28.8353 20.9467C28.3029 21.3099 27.5973 21.408 26.9857 21.2035C26.374 20.9989 25.8688 20.4958 25.7185 19.7902V19.7922Z" stroke="#002050" stroke-width="0.390253" stroke-linecap="round" stroke-linejoin="round"/>
<path d="M30.2572 25.0854C29.251 25.4069 28.1613 25.5071 27.1279 25.2837C26.0945 25.0603 25.1238 24.4988 24.4808 23.6575C23.7105 22.6492 23.4621 21.3382 23.364 20.0731C23.1907 17.8331 23.4141 15.5555 24.0863 13.4116C24.2115 13.0149 24.3535 12.6162 24.6019 12.2822C24.8503 11.9482 24.9589 11.6998 25.7125 11.5599C27.2072 11.4305 28.6122 11.4472 30.086 11.7269C31.5599 12.0066 33.0525 12.7227 34.2048 13.9481C33.8353 15.1255 33.6955 16.3739 33.7915 17.6056" stroke="#002050" stroke-width="0.390253" stroke-linecap="round" stroke-linejoin="round"/>
<path d="M33.4249 17.9992C33.7715 17.4961 34.3852 17.1788 34.9948 17.2268C35.6044 17.2748 36.1743 17.7132 36.3413 18.2999C36.4498 18.6777 36.3956 19.0869 36.2807 19.4647C36.0908 20.0847 35.7338 20.6588 35.2307 21.0659C34.7276 21.473 34.0783 21.711 33.4312 21.6776" stroke="#002050" stroke-width="0.390253" stroke-linecap="round" stroke-linejoin="round"/>
<path d="M33.7439 23.3882C34.1155 22.6993 34.4892 22.0104 34.8608 21.3236" stroke="#002050" stroke-width="0.390253" stroke-linecap="round" stroke-linejoin="round"/>
<path d="M36.3826 18.5089C36.965 17.4358 37.5474 16.367 38.1278 15.3044C38.4096 14.6197 38.4743 13.818 38.1654 13.1458C37.8564 12.4736 37.1237 11.9768 36.3888 12.0728" stroke="#002050" stroke-width="0.390253" stroke-linecap="round" stroke-linejoin="round"/>
<path d="M34.2816 10.0243C34.8933 9.96163 35.5321 10.1474 36.0081 10.5399C36.484 10.9324 36.77 11.4897 36.8368 12.0847" stroke="#002050" stroke-width="0.626277" stroke-linecap="round" stroke-linejoin="round"/>
<path d="M30.3168 8.72607C31.0182 8.22087 31.9806 8.10188 32.7822 8.42128C33.5839 8.74068 34.2018 9.48804 34.3646 10.3377" stroke="#002050" stroke-width="0.626277" stroke-linecap="round" stroke-linejoin="round"/>
<path d="M26.3839 8.92276C26.7117 8.44888 27.1981 8.08355 27.745 7.90402C28.292 7.72449 28.8995 7.72449 29.4464 7.91028C29.843 8.04389 30.2209 8.29649 30.438 8.64511" stroke="#002050" stroke-width="0.626277" stroke-linecap="round" stroke-linejoin="round"/>
<path d="M24.3661 12.6885C24.1804 12.1123 24.0822 11.5027 24.149 10.9015C24.2284 10.2022 24.5457 9.51534 25.0968 9.07695C25.5164 8.74294 26.0759 8.57802 26.602 8.64691" stroke="#002050" stroke-width="0.390253" stroke-linecap="round" stroke-linejoin="round"/>
<path d="M26.7217 25.1768C26.6883 25.8323 26.6612 27.5295 26.6695 28.114C26.632 28.1182 26.586 28.0869 26.5297 28.0347" stroke="#002050" stroke-width="0.390253" stroke-linecap="round" stroke-linejoin="round"/>
<path d="M33.7986 21.6699C33.7465 23.6364 33.6379 25.7741 33.6212 27.7845C33.8279 27.8534 34.0366 27.9076 34.2496 27.9515C33.498 28.6341 32.5878 29.1456 31.6108 29.4211C30.2372 29.8094 28.7341 29.7301 27.4085 29.204C26.9618 29.0266 26.5317 28.797 26.1748 28.4755C26.0495 28.3627 25.9347 28.2396 25.8324 28.1039" stroke="#002050" stroke-width="0.390253" stroke-linecap="round" stroke-linejoin="round"/>
<path d="M27.7125 14.1937L27.6457 15.5548C26.986 15.6509 26.414 16.1936 26.2846 16.8491C26.1552 17.5046 26.4787 18.2228 27.0528 18.561" stroke="#002050" stroke-width="0.390253" stroke-linecap="round" stroke-linejoin="round"/>
</g>
</g>
</g>
</g>
<defs>
<clipPath id="clip0_5432_72549">
<rect width="56" height="56" rx="12" fill="white"/>
</clipPath>
<clipPath id="clip1_5432_72549">
<rect width="120.167" height="67.5938" fill="white" transform="translate(-32.6666 -5.61462)"/>
</clipPath>
<clipPath id="clip2_5432_72549">
<rect width="60.8794" height="60.8794" fill="white" transform="translate(-1.58142 5.60095)"/>
</clipPath>
<clipPath id="clip3_5432_72549">
<rect width="47.8079" height="83.9086" fill="white" transform="translate(2.31824 7.45654)"/>
</clipPath>
</defs>
</svg>
