<svg width="24" height="24" viewBox="0 0 24 24" fill="none" xmlns="http://www.w3.org/2000/svg">
<g clip-path="url(#clip0_5430_71465)">
<rect width="24" height="24" rx="12" fill="white"/>
<g clip-path="url(#clip1_5430_71465)">
<rect width="51.5" height="28.9688" transform="translate(-14 -2.40625)" fill="#F2F6FF"/>
<g clip-path="url(#clip2_5430_71465)">
<g clip-path="url(#clip3_5430_71465)">
<path d="M8.03683 17.3644C7.56265 16.7506 7.10726 16.1226 6.67065 15.482C7.01063 15.0597 7.34972 14.6383 7.6897 14.216C8.07262 13.7391 8.46181 13.2578 8.94494 12.882C9.70452 12.2916 10.6761 12.0267 11.6379 12.0026C12.9477 11.9695 15.681 11.7664 16.8593 12.4553C17.5061 12.8328 18.009 13.4099 18.4885 13.9843C18.8902 14.4647 19.2857 14.9514 19.6758 15.4462C18.9484 16.1781 18.1977 16.8875 17.4265 17.5738C17.1733 17.3188 16.9201 17.0638 16.666 16.8088C16.6168 17.9272 16.5676 18.4165 16.5184 19.2584C16.2384 19.5385 15.9619 19.8221 15.6899 20.1102C15.3696 20.4502 15.0467 20.8134 14.9134 21.2607C14.8123 21.5962 14.8293 21.9559 14.9304 22.2932C12.614 22.5043 9.86198 22.4847 8.10393 22.278C8.04757 22.2717 7.9912 22.2646 7.93663 22.2574C7.89011 20.9297 7.90353 19.6181 7.97421 18.3181C7.9912 17.9996 8.01178 17.6811 8.03594 17.3644H8.03683Z" fill="#20DFFF"/>
<path d="M17.0313 21.5934C17.042 21.5916 17.0528 21.5907 17.0644 21.5898C16.9705 21.6498 16.898 21.6954 16.8533 21.7232H16.8524C16.8506 21.6963 16.847 21.6704 16.8425 21.6435H16.8434C16.9043 21.6203 16.9669 21.6015 17.0313 21.5934Z" fill="#9C7757"/>
<path d="M17.4778 22.7395C17.3517 22.548 17.1074 22.4576 16.8793 22.4729C16.8158 22.4773 16.7531 22.489 16.6941 22.5113C16.7326 22.4415 16.7648 22.3682 16.7907 22.2921C16.8229 22.1955 16.8435 22.0953 16.8533 21.9942H16.8542C16.9052 21.9781 16.9562 21.9647 17.009 21.9566C17.1253 21.9378 17.2479 21.9423 17.3562 21.9897C17.3991 22.0085 17.4394 22.0354 17.4743 22.0667C17.5754 22.157 17.638 22.2903 17.6353 22.4263C17.6326 22.5498 17.5762 22.6697 17.4877 22.7556C17.485 22.7502 17.4814 22.7448 17.4778 22.7395Z" fill="#9C7757"/>
<path d="M17.8336 17.9827H17.8327C17.6976 17.8458 17.5626 17.7098 17.4266 17.5738C18.1978 16.8876 18.9484 16.1781 19.6758 15.4463C20.1527 16.0511 20.6206 16.6693 21.084 17.3045C21.3068 17.6141 21.4151 18.0283 21.3023 18.3925C21.1511 18.8783 20.6877 19.2272 20.6259 19.2711C19.7563 19.8857 17.7782 21.14 17.0642 21.5901C17.0526 21.591 17.0418 21.5919 17.0311 21.5936C16.9667 21.6017 16.9041 21.6205 16.8432 21.6438H16.8423C16.8468 21.6706 16.8504 21.6965 16.8522 21.7234C16.862 21.8137 16.862 21.905 16.8522 21.9945C16.8423 22.0956 16.8218 22.1958 16.7895 22.2924C16.7636 22.3684 16.7314 22.4418 16.6929 22.5116C16.752 22.4892 16.8146 22.4776 16.8781 22.4731C17.1063 22.4579 17.3505 22.5483 17.4767 22.7397C17.4802 22.7451 17.4838 22.7505 17.4865 22.7558C17.6234 22.9786 17.5751 23.2801 17.4355 23.5029C17.2244 23.8411 16.7833 24.0164 16.4102 23.876C16.3789 23.8644 16.3476 23.8518 16.3172 23.8384C15.8358 23.6353 15.4645 23.2944 15.1863 22.8525C15.0771 22.6798 14.9894 22.4901 14.9313 22.2933C14.8302 21.956 14.8132 21.5963 14.9143 21.2608C15.0476 20.8135 15.3706 20.4502 15.6909 20.1103C15.9629 19.8222 16.2393 19.5386 16.5194 19.2594C16.9506 18.8264 17.3908 18.4023 17.8336 17.9827Z" fill="#9C7757"/>
<path d="M16.8523 21.9942C16.8621 21.9048 16.8621 21.8135 16.8523 21.7231H16.8532C16.8979 21.6954 16.9704 21.6498 17.0643 21.5898C17.2129 21.5809 17.3712 21.6337 17.4517 21.7571C17.5117 21.8475 17.5153 21.9674 17.4732 22.0667C17.4383 22.0354 17.3981 22.0085 17.3551 21.9898C17.2468 21.9423 17.1243 21.9379 17.008 21.9567C16.9552 21.9647 16.9042 21.9781 16.8532 21.9942H16.8523Z" fill="#9C7757"/>
<path d="M12.1001 35.2548H8.68685C8.4936 30.9755 8.29945 26.563 8.1062 22.2783C9.86425 22.485 12.6163 22.5047 14.9326 22.2935C14.9908 22.4904 15.0785 22.68 15.1876 22.8527C15.4659 23.2947 15.8371 23.6356 16.3185 23.8386L15.66 35.2548H12.1001Z" fill="#FFF5D2"/>
<path d="M2.73659 12.2956C2.81711 12.3859 2.85558 12.5166 2.82337 12.6338C2.81979 12.6463 2.81622 12.6579 2.81085 12.6705C2.77774 12.7528 2.70975 12.8226 2.63191 12.8691C2.59702 12.8906 2.56034 12.9075 2.52187 12.9219C2.46371 12.9451 2.40287 12.9612 2.34114 12.9747C2.08079 13.0319 1.80433 13.0507 1.55293 12.9621C1.51087 12.9469 1.46882 12.9281 1.43035 12.9049C1.33999 12.8539 1.26305 12.7805 1.22905 12.683C1.19147 12.5774 1.21116 12.4557 1.26663 12.3582C1.29973 12.301 1.34446 12.2517 1.39636 12.2106C1.68892 12.2884 2.31877 12.2652 2.55944 12.1748C2.62744 12.2008 2.68828 12.2419 2.73659 12.2956Z" fill="#9C7757"/>
<path d="M2.69412 13.7571C2.7648 13.8457 2.80148 13.9701 2.75853 14.0747C2.72364 14.1579 2.64759 14.2125 2.5617 14.2474C2.52413 14.2635 2.48476 14.276 2.44719 14.285C2.28077 14.3261 2.10273 14.3405 1.93811 14.293C1.77349 14.2456 1.62229 14.1302 1.55966 13.9701C1.50509 13.8296 1.53193 13.6551 1.63392 13.5469C1.66255 13.5657 1.69297 13.5818 1.72339 13.5961C1.85938 13.6578 2.01058 13.6793 2.15999 13.682C2.28793 13.6847 2.42034 13.6721 2.53576 13.6176C2.59481 13.6569 2.65028 13.7017 2.69412 13.7571Z" fill="#9C7757"/>
<path d="M3.40063 14.4813C3.2378 14.5099 3.06781 14.4983 2.91124 14.4473C2.78241 14.4052 2.66252 14.3363 2.56052 14.2478C2.64641 14.212 2.72246 14.1574 2.75735 14.0742C2.8003 13.9695 2.76362 13.8452 2.69294 13.7566C2.6491 13.7011 2.59363 13.6564 2.53458 13.617C2.54353 13.6125 2.55158 13.6081 2.56052 13.6036C2.68131 13.5383 2.77793 13.413 2.77614 13.2743C2.77435 13.1858 2.7332 13.1008 2.67236 13.0355C2.62941 12.9889 2.57663 12.9514 2.52026 12.9218C2.55873 12.9066 2.59542 12.8896 2.63031 12.8682C2.70815 12.8216 2.77614 12.7519 2.80925 12.6695C2.81461 12.657 2.81819 12.6454 2.82177 12.6329C2.85398 12.5157 2.81551 12.385 2.73499 12.2947C2.68667 12.241 2.62584 12.1998 2.55784 12.1739C2.57663 12.1658 2.59363 12.1587 2.60705 12.1506C2.75735 12.0638 2.90856 11.7722 2.72157 11.5977C2.8835 11.612 3.10539 11.6246 3.18501 11.5637C3.26553 11.502 3.33442 11.3025 3.34874 11.2023C3.38363 10.9679 3.40153 10.729 3.47936 10.5053C3.55631 10.2816 3.70482 10.0687 3.92312 9.97923C4.05912 9.92376 4.23626 9.93002 4.32573 10.0454C4.39283 10.1313 4.39194 10.2503 4.37941 10.3577C4.34005 10.6932 4.20763 11.0296 4.28279 11.3597C4.35973 11.7042 4.64782 11.9645 4.77039 12.2956C4.89385 12.6284 4.8518 13.0059 4.71402 13.3307H4.71492C5.21147 14.2281 5.7268 15.1156 6.26093 15.9915C6.39781 15.8215 6.5347 15.6515 6.67069 15.4815C7.1073 16.1221 7.56269 16.7502 8.03687 17.3639C8.01271 17.6807 7.99214 17.9992 7.97514 18.3177C7.61458 18.7256 7.23434 19.147 6.99188 19.3886C6.74853 19.632 6.46223 19.8503 6.11867 19.835C5.77422 19.8198 5.45124 19.6454 5.2052 19.4038C4.96006 19.1631 4.7847 18.8598 4.64066 18.5467C4.39283 18.0072 4.2309 17.4319 4.06985 16.8602C3.84708 16.0675 3.6243 15.274 3.40153 14.4813H3.40063Z" fill="#9C7757"/>
<path d="M2.60859 12.1512C2.59517 12.1593 2.57817 12.1665 2.55939 12.1745C2.31872 12.2649 1.68886 12.2881 1.3963 12.2103C1.35872 12.1996 1.32652 12.1879 1.30146 12.1745C1.12969 12.0815 1.07153 11.7674 1.18963 11.6109C1.46072 11.2548 2.45471 11.4435 2.64438 11.5438C2.6757 11.5599 2.70164 11.5786 2.72222 11.5983H2.72311C2.9101 11.7728 2.7589 12.0645 2.60859 12.1512Z" fill="#9C7757"/>
<path d="M1.4094 13.29C1.35751 13.1674 1.36109 13.0189 1.42819 12.9053C1.46666 12.9276 1.50871 12.9464 1.55076 12.9616C1.80217 13.0502 2.07862 13.0314 2.33898 12.9742C2.40071 12.9607 2.46155 12.9446 2.5197 12.9214C2.57607 12.9518 2.62885 12.9894 2.6718 13.0359C2.73264 13.1012 2.77379 13.1862 2.77558 13.2748C2.77737 13.4135 2.68075 13.5387 2.55996 13.604C2.55102 13.6085 2.54296 13.613 2.53402 13.6174C2.4186 13.672 2.28619 13.6845 2.15825 13.6819C2.00884 13.6792 1.85764 13.6577 1.72165 13.596C1.69123 13.5817 1.66081 13.5655 1.63218 13.5468C1.53466 13.4841 1.45235 13.3965 1.40851 13.29H1.4094Z" fill="#9C7757"/>
<path d="M6.26245 15.9909C6.73842 15.3986 7.21529 14.8072 7.69126 14.215C8.07508 13.7381 8.46337 13.2568 8.9465 12.881C9.70608 12.2905 10.6777 12.0257 11.6395 12.0006C12.9493 11.9675 15.6826 11.7644 16.8609 12.4533C17.5077 12.8309 18.0096 13.408 18.4901 13.9823C19.3839 15.0506 20.2436 16.1475 21.0855 17.3025C21.3083 17.6121 21.4166 18.0263 21.3038 18.3895C21.1526 18.8754 20.6901 19.2252 20.6284 19.269C19.6442 19.9642 17.2411 21.4789 16.8555 21.7213" stroke="#002050" stroke-width="0.167251" stroke-linecap="round" stroke-linejoin="round"/>
<path d="M16.7792 21.3926C16.883 21.6798 16.8866 22.0028 16.7891 22.2917C16.6916 22.5807 16.4938 22.8357 16.2371 23.0021" stroke="#002050" stroke-width="0.167251" stroke-linecap="round" stroke-linejoin="round"/>
<path d="M17.8337 17.9814C17.1716 17.3157 16.5105 16.651 15.8484 15.9854" stroke="#002050" stroke-width="0.167251" stroke-linecap="round" stroke-linejoin="round"/>
<path d="M17.4265 17.5729C18.1977 16.8875 18.9484 16.1781 19.6757 15.4453" stroke="#002050" stroke-width="0.167251" stroke-linecap="round" stroke-linejoin="round"/>
<path d="M18.4006 17.4463C17.3842 18.4036 16.6506 19.0934 15.6932 20.1098C15.3729 20.4497 15.05 20.8121 14.9158 21.2594C14.7565 21.7909 14.8925 22.3814 15.1877 22.8511C15.483 23.3208 15.8847 23.6769 16.4117 23.8746C16.7848 24.015 17.2258 23.8397 17.4379 23.5015C17.581 23.2734 17.6275 22.9629 17.479 22.7383C17.3529 22.5478 17.1086 22.4565 16.8805 22.4717C16.817 22.4762 16.7534 22.4878 16.6953 22.5102" stroke="#002050" stroke-width="0.167251" stroke-linecap="round" stroke-linejoin="round"/>
<path d="M16.4617 22.8213C16.4688 22.9671 16.5986 23.0825 16.7354 23.1362C16.8142 23.1666 16.9054 23.1827 16.9824 23.1478" stroke="#002050" stroke-width="0.167251" stroke-linecap="round" stroke-linejoin="round"/>
<path d="M16.8542 21.9932C16.9052 21.9771 16.9562 21.9646 17.009 21.9556C17.1253 21.9369 17.2479 21.9413 17.3562 21.9888C17.5235 22.0621 17.6389 22.2419 17.6353 22.4254C17.6326 22.5488 17.5772 22.6687 17.4886 22.7546" stroke="#002050" stroke-width="0.167251" stroke-linecap="round" stroke-linejoin="round"/>
<path d="M16.8445 21.644C16.9053 21.6199 16.9679 21.602 17.0324 21.5939C17.1898 21.5742 17.3652 21.6252 17.4529 21.7577C17.5128 21.848 17.5164 21.9679 17.4743 22.0672" stroke="#002050" stroke-width="0.167251" stroke-linecap="round" stroke-linejoin="round"/>
<path d="M16.5203 19.2582C16.5695 18.4163 16.6187 17.9269 16.667 16.8086" stroke="#002050" stroke-width="0.167251" stroke-linecap="round" stroke-linejoin="round"/>
<path d="M8.3233 14.6895C7.98064 17.1722 7.84912 19.6836 7.9377 22.2567C9.68501 22.4821 12.5399 22.5108 14.9314 22.2925" stroke="#002050" stroke-width="0.167251" stroke-linecap="round" stroke-linejoin="round"/>
<path d="M2.72144 11.5977C2.88337 11.6129 3.10615 11.6254 3.18578 11.5637C3.2663 11.502 3.33519 11.3025 3.3495 11.2023C3.38439 10.9679 3.40229 10.729 3.47923 10.5053C3.55617 10.2816 3.70469 10.0687 3.92389 9.97923C4.05898 9.92376 4.23613 9.93002 4.32649 10.0454C4.3927 10.1313 4.3927 10.2494 4.38018 10.3577C4.34081 10.6932 4.2084 11.0296 4.28266 11.3597C4.36049 11.7042 4.64769 11.9645 4.77115 12.2956C4.90356 12.6534 4.84541 13.0623 4.68258 13.4023" stroke="#002050" stroke-width="0.167251" stroke-linecap="round" stroke-linejoin="round"/>
<path d="M3.40112 14.4814C3.6239 15.2741 3.84667 16.0677 4.06945 16.8604C4.23049 17.4321 4.39154 18.0074 4.64026 18.5469C4.7843 18.8591 4.95966 19.1633 5.2048 19.404C5.44994 19.6447 5.77382 19.8191 6.11738 19.8352C6.46094 19.8513 6.74813 19.6321 6.99148 19.3888C7.23484 19.1454 7.61418 18.7258 7.97474 18.3178" stroke="#002050" stroke-width="0.167251" stroke-linecap="round" stroke-linejoin="round"/>
<path d="M8.03789 17.3639C7.56461 16.7501 7.10921 16.122 6.67261 15.4814" stroke="#002050" stroke-width="0.167251" stroke-linecap="round" stroke-linejoin="round"/>
<path d="M10.2703 24.5277C10.6612 24.7496 11.0755 24.9321 11.5031 25.0699L12.099 35.254H15.6589L16.3165 23.8379" stroke="#002050" stroke-width="0.167251" stroke-linecap="round" stroke-linejoin="round"/>
<path d="M8.1062 22.2773C8.29945 26.562 8.4936 30.9745 8.68685 35.2538H12.092" stroke="#002050" stroke-width="0.167251" stroke-linecap="round" stroke-linejoin="round"/>
<path d="M2.64371 11.5431C2.94432 11.7024 2.77523 12.054 2.60882 12.1506C2.39678 12.2732 1.5343 12.3009 1.30169 12.1739C1.12901 12.08 1.07175 11.7668 1.18985 11.6102C1.46004 11.2533 2.45404 11.4429 2.64371 11.5431Z" stroke="#002050" stroke-width="0.167251" stroke-linecap="round" stroke-linejoin="round"/>
<path d="M2.55944 12.1738C2.62654 12.2007 2.68828 12.2409 2.73659 12.2946C2.81711 12.385 2.85558 12.5156 2.82337 12.6328C2.79564 12.733 2.72048 12.8144 2.63191 12.8681C2.54334 12.9218 2.44224 12.9513 2.34025 12.9737C2.08079 13.0318 1.80344 13.0497 1.55293 12.9611C1.41425 12.9119 1.27826 12.8216 1.22905 12.682C1.19147 12.5764 1.21116 12.4548 1.26663 12.3572C1.29973 12.3 1.34446 12.2508 1.39636 12.2087" stroke="#002050" stroke-width="0.167251" stroke-linecap="round" stroke-linejoin="round"/>
<path d="M1.429 12.9053C1.36101 13.0189 1.35743 13.1674 1.40932 13.29C1.46747 13.4278 1.58736 13.5333 1.72335 13.5951C1.85934 13.6568 2.01055 13.6792 2.15996 13.681C2.29774 13.6836 2.43999 13.6693 2.56167 13.6031C2.68335 13.5369 2.77908 13.4117 2.77729 13.2739C2.77639 13.1853 2.73434 13.0994 2.67351 13.0341C2.62967 12.9876 2.57777 12.95 2.52141 12.9205" stroke="#002050" stroke-width="0.167251" stroke-linecap="round" stroke-linejoin="round"/>
<path d="M1.63392 13.5469C1.53193 13.6551 1.50509 13.8296 1.55966 13.9701C1.62229 14.1302 1.77259 14.2447 1.93811 14.2921C2.10363 14.3396 2.28077 14.3261 2.44718 14.285C2.57334 14.2537 2.70843 14.1946 2.75853 14.0747C2.80148 13.9701 2.7648 13.8457 2.69501 13.7571C2.65117 13.7017 2.5957 13.6569 2.53576 13.6176" stroke="#002050" stroke-width="0.167251" stroke-linecap="round" stroke-linejoin="round"/>
<path d="M3.69417 13.2434C3.4875 13.2631 3.28082 13.1745 3.12068 13.0412C2.99631 12.9365 2.89701 12.8068 2.80933 12.6699" stroke="#002050" stroke-width="0.167251" stroke-linecap="round" stroke-linejoin="round"/>
<path d="M2.56128 14.2471C2.66327 14.3356 2.78316 14.4045 2.91199 14.4466C3.12135 14.5146 3.35307 14.5119 3.56153 14.4394" stroke="#002050" stroke-width="0.167251" stroke-linecap="round" stroke-linejoin="round"/>
<path d="M4.71558 13.3301C5.42595 14.6148 6.04597 15.6733 6.83329 16.9124" stroke="#002050" stroke-width="0.167251" stroke-linecap="round" stroke-linejoin="round"/>
<path d="M14.9385 9.13965C14.7802 9.43489 14.6209 9.72924 14.4617 10.0245C14.4706 9.77487 14.4796 9.52883 14.4849 9.28817C14.6442 9.27117 14.799 9.21928 14.9385 9.13965Z" fill="#002050"/>
<path d="M15.55 8.34292C15.4686 8.60864 15.3147 8.85468 15.1 9.03004C15.049 9.07119 14.9953 9.10788 14.9399 9.13919C14.8003 9.21882 14.6455 9.2716 14.4862 9.28771C14.48 9.52838 14.4719 9.77441 14.4621 10.024C14.4397 10.6485 14.4147 11.2927 14.4093 11.9082C14.4979 11.9387 14.5873 11.961 14.6777 11.9798C14.3556 12.2733 13.9664 12.4907 13.5477 12.6097C12.9581 12.7761 12.3149 12.7421 11.7458 12.5157C11.5544 12.4397 11.3844 12.3234 11.218 12.2044C11.1178 12.1319 11.0712 12.0451 11.0712 12.0451L11.4291 12.0129C11.4255 11.7633 11.4381 11.0726 11.4524 10.7908C11.0766 10.6745 10.7322 10.4526 10.4942 10.1403C10.1631 9.70821 10.0576 9.14724 10.0155 8.60507C9.94037 7.64507 10.0361 6.66897 10.3251 5.75014C10.3582 5.64456 10.394 5.5381 10.4432 5.43879C10.4718 5.37884 10.5058 5.32069 10.5461 5.26611C10.6516 5.12386 10.6991 5.01739 11.0211 4.95655C11.6617 4.90019 12.2639 4.90824 12.8964 5.02902C13.5271 5.1498 14.1668 5.45579 14.6607 5.98007C14.5024 6.48556 14.4424 7.01969 14.4845 7.54755C14.6294 7.43303 14.8146 7.36951 14.998 7.38472C15.2593 7.40619 15.5035 7.59318 15.576 7.84548C15.584 7.87411 15.5903 7.90363 15.5939 7.93316C15.6127 8.06915 15.5903 8.21141 15.55 8.34382V8.34292Z" fill="#9C7757"/>
<path d="M13.6245 6.83798C13.577 7.1368 13.2442 7.33005 12.881 7.2719C12.634 7.23253 12.4381 7.0867 12.3522 6.90418C12.312 6.8174 12.2959 6.72256 12.3111 6.62683C12.3585 6.3289 12.6913 6.13476 13.0545 6.19291C13.0698 6.19559 13.0841 6.19828 13.0984 6.20186C13.4384 6.27522 13.671 6.55257 13.6254 6.83798H13.6245Z" fill="#F5F5FA"/>
<path d="M13.0537 6.19291C13.0689 6.19559 13.0832 6.19828 13.0975 6.20186C13.0644 6.36558 12.9839 6.51857 12.8693 6.63936C12.7325 6.78161 12.5473 6.87645 12.3522 6.90418C12.312 6.8174 12.2959 6.72256 12.3111 6.62683C12.3585 6.3289 12.6913 6.13476 13.0545 6.19291H13.0537Z" fill="#002050"/>
<path d="M12.7488 8.27921C12.7398 8.46262 12.6701 8.64246 12.5573 8.78739C12.501 8.86076 12.433 8.92607 12.3569 8.97796C12.1655 9.10769 11.9239 9.15869 11.6966 9.12022C11.651 9.11306 11.6072 9.10143 11.5633 9.08711C11.3012 8.99943 11.0847 8.78382 11.0203 8.48141C11.5893 8.41073 12.1601 8.34095 12.7479 8.27832L12.7488 8.27921Z" fill="#002050"/>
<path d="M11.6969 9.11995C11.7721 8.99023 11.8875 8.88286 12.0235 8.81934C12.189 8.74329 12.3832 8.73256 12.5567 8.78713C12.5004 8.8605 12.4324 8.92581 12.3563 8.9777C12.1649 9.10743 11.9233 9.15843 11.696 9.11995H11.6969Z" fill="#FF99F2" stroke="#FF99F2" stroke-width="0.0894682" stroke-miterlimit="10"/>
<path d="M11.4002 3.70678C11.5317 3.56095 11.7017 3.44822 11.8896 3.38649C12.124 3.30865 12.3844 3.31044 12.6179 3.38917C12.787 3.44732 12.9498 3.55558 13.0429 3.7041C13.3381 3.51711 13.7237 3.47953 14.0476 3.60837C14.3482 3.72825 14.5889 3.98861 14.6909 4.29548C14.953 4.26864 15.2268 4.34827 15.4308 4.51647C15.6285 4.6802 15.7573 4.92355 15.786 5.17764C16.0302 5.22148 16.2503 5.4031 16.3559 5.63303C16.4883 5.92112 16.4597 6.26468 16.3389 6.55813C16.0901 7.01442 15.8405 7.4716 15.5909 7.93147C15.5864 7.90194 15.5811 7.87242 15.5721 7.84379C15.4997 7.59238 15.2554 7.4045 14.9942 7.38392C14.8108 7.36871 14.6256 7.43224 14.4806 7.54676C14.4386 7.01979 14.4994 6.48477 14.6578 5.97927C14.1639 5.4541 13.5242 5.14811 12.8926 5.02733C12.26 4.90655 11.6588 4.89939 11.0182 4.95486C10.6961 5.01481 10.6487 5.12127 10.5431 5.26442C10.5029 5.319 10.4698 5.37715 10.4402 5.4371C10.3606 5.19016 10.3186 4.92892 10.3481 4.67125C10.3812 4.37153 10.5181 4.07807 10.7543 3.89019C10.9341 3.74794 11.1748 3.67636 11.3993 3.70589L11.4002 3.70678Z" fill="#002050"/>
<path d="M11.8611 6.41184C11.8566 6.49683 11.8531 6.58183 11.8486 6.66682C11.6392 6.69724 11.4513 6.83234 11.3449 7.01396C11.2724 7.02291 11.1981 7.02112 11.1212 7.00949C10.8743 6.97012 10.6783 6.82429 10.5933 6.64177C10.5522 6.55499 10.5361 6.46015 10.5513 6.36442C10.5987 6.0656 10.9315 5.87145 11.2948 5.9305C11.31 5.93318 11.3243 5.93587 11.3386 5.93855C11.6115 5.99849 11.8173 6.18996 11.862 6.41184H11.8611Z" fill="#F5F5FA"/>
<path d="M11.2928 5.92952C11.308 5.93221 11.3223 5.93489 11.3367 5.93757C11.3036 6.1013 11.223 6.25519 11.1085 6.37507C10.9716 6.51822 10.7864 6.61306 10.5914 6.64079C10.5502 6.55401 10.5341 6.45917 10.5493 6.36344C10.5968 6.06462 10.9296 5.87047 11.2928 5.92952Z" fill="#002050"/>
<path d="M13.6247 6.83823C13.6726 6.54014 13.4176 6.25128 13.0551 6.19302C12.6927 6.13477 12.36 6.32919 12.3121 6.62727C12.2642 6.92535 12.5192 7.21422 12.8817 7.27247C13.2441 7.33073 13.5768 7.13631 13.6247 6.83823Z" stroke="#002050" stroke-width="0.167251" stroke-linecap="round" stroke-linejoin="round"/>
<path d="M13.0976 6.2002C13.0645 6.36392 12.9848 6.51781 12.8694 6.63859C12.7325 6.78174 12.5473 6.87657 12.3523 6.90431" stroke="#002050" stroke-width="0.167251" stroke-linecap="round" stroke-linejoin="round"/>
<path d="M11.3431 7.01295C11.2716 7.02189 11.1964 7.021 11.1195 7.00847C10.7571 6.95032 10.5012 6.66134 10.5496 6.36341C10.5979 6.06548 10.9307 5.87044 11.293 5.92949C11.5883 5.97691 11.8128 6.17731 11.8594 6.41172" stroke="#002050" stroke-width="0.167251" stroke-linecap="round" stroke-linejoin="round"/>
<path d="M11.3378 5.9375C11.3047 6.10123 11.2251 6.25511 11.1097 6.37589C10.9728 6.51904 10.7876 6.61388 10.5925 6.64161" stroke="#002050" stroke-width="0.167251" stroke-linecap="round" stroke-linejoin="round"/>
<path d="M12.8484 5.64035C13.1374 5.57056 13.4559 5.63766 13.6912 5.81928" stroke="#002050" stroke-width="0.167251" stroke-linecap="round" stroke-linejoin="round"/>
<path d="M10.8328 5.33774C11.0618 5.25633 11.3213 5.2617 11.5467 5.35206" stroke="#002050" stroke-width="0.167251" stroke-linecap="round" stroke-linejoin="round"/>
<path d="M11.0222 8.48239C11.5921 8.41171 12.1611 8.34192 12.7498 8.2793C12.7355 8.55575 12.5861 8.82147 12.358 8.97715C12.1298 9.13282 11.8274 9.17487 11.5653 9.08719C11.3031 8.99952 11.0866 8.7839 11.0222 8.4815V8.48239Z" stroke="#002050" stroke-width="0.167251" stroke-linecap="round" stroke-linejoin="round"/>
<path d="M12.9674 10.7509C12.5361 10.8887 12.0691 10.9316 11.6262 10.8359C11.1834 10.7402 10.7673 10.4995 10.4918 10.1389C10.1616 9.70681 10.0552 9.14495 10.0131 8.60277C9.93886 7.64278 10.0346 6.66668 10.3227 5.74784C10.3764 5.57785 10.4372 5.40697 10.5437 5.26382C10.6501 5.12067 10.6967 5.0142 11.0196 4.95426C11.6602 4.89879 12.2623 4.90595 12.894 5.02583C13.5256 5.14572 14.1653 5.4526 14.6592 5.97777C14.5008 6.48238 14.4409 7.0174 14.4821 7.54526" stroke="#002050" stroke-width="0.167251" stroke-linecap="round" stroke-linejoin="round"/>
<path d="M14.325 7.71394C14.4735 7.49832 14.7365 7.36233 14.9978 7.38291C15.259 7.40349 15.5032 7.59137 15.5748 7.84278C15.6213 8.00471 15.5981 8.18007 15.5489 8.34201C15.4675 8.60773 15.3145 8.85377 15.0989 9.02823C14.8832 9.20269 14.605 9.30469 14.3276 9.29037" stroke="#002050" stroke-width="0.167251" stroke-linecap="round" stroke-linejoin="round"/>
<path d="M14.4617 10.0235C14.6209 9.72827 14.7811 9.43302 14.9403 9.13867" stroke="#002050" stroke-width="0.167251" stroke-linecap="round" stroke-linejoin="round"/>
<path d="M15.5925 7.93235C15.8421 7.47248 16.0918 7.0144 16.3405 6.55901C16.4613 6.26556 16.489 5.922 16.3566 5.63391C16.2242 5.34582 15.9101 5.13289 15.5952 5.17404" stroke="#002050" stroke-width="0.167251" stroke-linecap="round" stroke-linejoin="round"/>
<path d="M14.6921 4.29613C14.9543 4.26929 15.2281 4.34891 15.432 4.51711C15.636 4.68531 15.7586 4.92419 15.7872 5.17918" stroke="#002050" stroke-width="0.268405" stroke-linecap="round" stroke-linejoin="round"/>
<path d="M12.9929 3.73974C13.2935 3.52323 13.706 3.47223 14.0495 3.60912C14.3931 3.74601 14.6579 4.0663 14.7277 4.43044" stroke="#002050" stroke-width="0.268405" stroke-linecap="round" stroke-linejoin="round"/>
<path d="M11.3074 3.82406C11.4478 3.62097 11.6563 3.4644 11.8907 3.38745C12.1251 3.31051 12.3855 3.31051 12.6199 3.39014C12.7899 3.4474 12.9518 3.55565 13.0448 3.70507" stroke="#002050" stroke-width="0.268405" stroke-linecap="round" stroke-linejoin="round"/>
<path d="M10.4426 5.43794C10.363 5.19101 10.3209 4.92976 10.3496 4.67209C10.3836 4.37237 10.5196 4.07802 10.7558 3.89014C10.9356 3.74699 11.1754 3.67631 11.4008 3.70583" stroke="#002050" stroke-width="0.167251" stroke-linecap="round" stroke-linejoin="round"/>
<path d="M11.4522 10.79C11.4379 11.071 11.4262 11.7983 11.4298 12.0489C11.4137 12.0506 11.394 12.0372 11.3699 12.0149" stroke="#002050" stroke-width="0.167251" stroke-linecap="round" stroke-linejoin="round"/>
<path d="M14.4852 9.28711C14.4628 10.1299 14.4163 11.0461 14.4091 11.9076C14.4977 11.9372 14.5871 11.9604 14.6784 11.9792C14.3563 12.2718 13.9662 12.491 13.5475 12.6091C12.9588 12.7755 12.3147 12.7415 11.7465 12.516C11.5551 12.44 11.3708 12.3416 11.2178 12.2038C11.1641 12.1555 11.1149 12.1027 11.071 12.0445" stroke="#002050" stroke-width="0.167251" stroke-linecap="round" stroke-linejoin="round"/>
<path d="M11.8768 6.08301L11.8482 6.66634C11.5655 6.7075 11.3203 6.94011 11.2648 7.22104C11.2094 7.50197 11.348 7.80974 11.5941 7.95468" stroke="#002050" stroke-width="0.167251" stroke-linecap="round" stroke-linejoin="round"/>
</g>
</g>
</g>
</g>
<defs>
<clipPath id="clip0_5430_71465">
<rect width="24" height="24" rx="12" fill="white"/>
</clipPath>
<clipPath id="clip1_5430_71465">
<rect width="51.5" height="28.9688" fill="white" transform="translate(-14 -2.40625)"/>
</clipPath>
<clipPath id="clip2_5430_71465">
<rect width="26.0912" height="26.0912" fill="white" transform="translate(-0.677734 2.40039)"/>
</clipPath>
<clipPath id="clip3_5430_71465">
<rect width="20.4891" height="35.9608" fill="white" transform="translate(0.99353 3.19568)"/>
</clipPath>
</defs>
</svg>
