<svg width="285" height="161" viewBox="0 0 285 161" fill="none" xmlns="http://www.w3.org/2000/svg">
<g clip-path="url(#clip0_5418_6733)">
<rect width="285" height="160.312" fill="#FFCCF9"/>
<path d="M207.114 86.3944C203.481 58.8232 180.037 67.7825 165.296 59.037C148.385 49.0062 139.2 25.8443 109.032 32.2986C81.781 38.1326 69.2876 71.1366 81.9934 106.379C104.124 167.765 215.573 150.569 207.114 86.3944Z" fill="#FF99F2"/>
<path d="M160.111 50.7712C159.542 49.3357 158.34 48.1633 156.892 47.6297C156.739 44.2226 154.792 41.7325 152.074 40.2695C151.696 40.064 151.303 39.8812 150.897 39.7158C149.96 42.7696 147.743 45.4151 144.892 46.8581C144.737 47.9203 144.589 48.9374 144.443 49.9394C144.381 50.3753 143.855 50.5858 143.527 50.2977C143.243 50.0447 142.92 49.8818 142.575 49.7941C138.884 48.8522 137.537 55.1377 142.562 56.2124C141.552 58.0562 140.165 59.637 138.509 60.8269L138.398 73.9215C138.398 73.9215 138.398 73.944 138.401 73.954C140.23 75.7327 142.572 76.6045 144.857 76.6045C147.577 76.6045 150.366 75.4346 152.42 73.5482C152.42 73.473 152.417 73.3954 152.415 73.3202C151.801 69.6 150.576 66.9345 150.959 63.4599C152.039 63.3271 152.986 63.1392 153.805 62.8787C156.781 61.9317 158.092 60.0253 158.114 56.3326C158.117 55.5711 158.067 54.7318 157.964 53.8049C159.788 53.3991 160.867 52.6901 160.111 50.7712ZM154.309 50.5908C152.462 51.405 149.524 50.721 149.524 48.534C149.524 46.347 152.46 45.6631 154.304 46.4748C155.151 46.8481 155.767 47.5345 155.767 48.534C155.767 49.5336 155.153 50.2175 154.309 50.5908Z" fill="#CFA891"/>
<path d="M152.415 73.3202C152.417 73.3954 152.42 73.473 152.42 73.5482C150.366 75.4346 147.577 76.6045 144.857 76.6045C142.572 76.6045 140.23 75.7327 138.401 73.954C138.398 73.944 138.398 73.9315 138.398 73.9215L138.509 60.8269C140.165 59.637 141.552 58.0562 142.562 56.2124C137.537 55.1377 138.884 48.8522 142.575 49.7941C142.92 49.8818 143.243 50.0447 143.527 50.2977C143.855 50.5858 144.381 50.3753 144.443 49.9394C144.589 48.9374 144.737 47.9203 144.892 46.8581C147.743 45.4151 149.96 42.7696 150.897 39.7158C151.303 39.8812 151.696 40.064 152.074 40.2695C150.336 43.4285 146.48 45.3725 148.284 53.8776C149.421 59.2437 151.237 61.2528 153.805 62.8787C152.986 63.1392 152.039 63.3271 150.959 63.4599C150.576 66.9345 151.801 69.6 152.415 73.3202Z" fill="#BF9074"/>
<path d="M154.304 46.4746C155.15 46.8479 155.767 47.5343 155.767 48.5364C155.767 49.5384 155.153 50.2198 154.309 50.5931C153.697 49.3155 153.695 47.7548 154.304 46.4746Z" fill="#002050"/>
<path d="M154.304 46.4743C153.695 47.7544 153.697 49.3152 154.309 50.5928C152.465 51.407 149.526 50.7206 149.526 48.536C149.526 46.3515 152.46 45.6651 154.306 46.4743H154.304Z" fill="#F5F5FA"/>
<path d="M150.896 39.7158C149.959 42.7696 147.742 45.4176 144.891 46.8606C144.736 47.9203 144.588 48.9374 144.446 49.9419C144.38 50.3778 143.857 50.5883 143.529 50.2977C143.246 50.0447 142.922 49.8843 142.577 49.7966C138.884 48.8522 137.539 55.1377 142.562 56.2124C141.555 58.0562 140.164 59.6395 138.508 60.8269V60.5263C136.983 59.1986 135.728 57.4499 134.866 55.516C133.871 53.2863 133.403 50.8062 133.646 48.4489C133.901 45.9312 134.963 43.5487 137.06 41.7425C140.808 38.5133 146.55 37.9572 150.896 39.7133V39.7158Z" fill="#4C6284"/>
<path d="M132.504 48.4415C132.832 48.3413 133.213 48.3363 133.644 48.4515C133.401 50.8089 133.869 53.289 134.864 55.5186C134.583 55.679 134.265 55.7616 133.932 55.7691C132.965 55.7917 131.89 55.1604 131.344 53.8327C130.502 51.7784 130.868 48.94 132.501 48.444L132.504 48.4415Z" fill="#009FFF"/>
<path d="M133.931 55.772C137.952 69.9387 126.26 83.0408 120.729 77.5545C118.171 78.2309 115.295 76.9582 114.246 74.3328C111.823 74.8689 110.094 73.3959 110.029 71.7926C109.917 69.0194 113.026 69.6782 116.816 59.4922C118.256 55.6167 121.653 45.6561 129.665 46.9813C130.722 47.1567 131.792 47.6627 132.498 48.4418C130.865 48.9379 130.499 51.7762 131.341 53.8305C131.884 55.1607 132.959 55.792 133.929 55.767L133.931 55.772Z" fill="#4C6284"/>
<path d="M149.523 48.5341C149.523 45.35 155.764 45.35 155.764 48.5341C155.764 51.7181 149.523 51.7181 149.523 48.5341Z" stroke="#002050" stroke-width="0.832548" stroke-linecap="round" stroke-linejoin="round"/>
<path d="M154.308 50.5906C153.697 49.3155 153.694 47.7522 154.303 46.4746" stroke="#002050" stroke-width="0.832548" stroke-linecap="round" stroke-linejoin="round"/>
<path d="M150.957 63.4599C150.576 66.9346 151.801 69.6001 152.412 73.3203C152.713 80.3323 138.699 80.9335 138.396 73.9215L138.508 60.5264C133.333 56.0346 131.296 46.7103 137.06 41.7426C143.667 36.0483 156.486 38.6637 156.894 47.6272C158.342 48.1608 159.542 49.3332 160.108 50.7687C160.867 52.6877 159.79 53.3966 157.964 53.8025C158.775 61.1226 156.338 63.1919 148.985 63.6303" stroke="#002050" stroke-width="0.832548" stroke-linecap="round" stroke-linejoin="round"/>
<path d="M138.506 60.83C140.162 59.6425 141.552 58.0567 142.562 56.2129C137.536 55.1382 138.882 48.8527 142.577 49.7972C142.92 49.8849 143.243 50.0452 143.526 50.2957C143.854 50.5888 144.38 50.3759 144.443 49.94C144.588 48.9354 144.736 47.9183 144.892 46.8586C147.742 45.4156 149.96 42.7702 150.896 39.7139" stroke="#002050" stroke-width="0.832548" stroke-linecap="round" stroke-linejoin="round"/>
<path d="M149.771 45.0741C151.267 43.9743 153.381 43.7839 155.05 44.6006" stroke="#002050" stroke-width="0.832548" stroke-linecap="round" stroke-linejoin="round"/>
<path d="M153.963 55.311C155.253 55.9849 156.709 56.3407 158.164 56.3357" stroke="#002050" stroke-width="0.832548" stroke-linecap="round" stroke-linejoin="round"/>
<path d="M134.863 55.5189C133.763 56.1451 132.077 55.614 131.346 53.8279C130.336 51.3603 131.065 47.7628 133.641 48.4467" stroke="#002050" stroke-width="0.832548" stroke-linecap="round" stroke-linejoin="round"/>
<path d="M133.931 55.772C137.952 69.9387 126.26 83.0408 120.731 77.5545" stroke="#002050" stroke-width="0.832548" stroke-linecap="round" stroke-linejoin="round"/>
<path d="M115.931 73.6663C112.665 75.5101 110.109 73.7465 110.029 71.7924C109.919 69.0217 113.025 69.6806 116.816 59.492C118.256 55.619 121.656 45.6559 129.667 46.9837C130.734 47.1616 131.814 47.6751 132.521 48.4642" stroke="#002050" stroke-width="0.832548" stroke-linecap="round" stroke-linejoin="round"/>
<path d="M123.149 76.1618C120.343 78.9401 115.658 77.8503 114.248 74.3306" stroke="#002050" stroke-width="0.832548" stroke-linecap="round" stroke-linejoin="round"/>
<path d="M185.471 120.526C185.661 120.784 185.841 121.047 186.017 121.312C185.781 121.831 185.165 122.099 184.599 122.061C184.411 122.049 184.228 122.011 184.05 121.951C182.675 121.49 181.623 119.734 180.297 118.504C181.547 119.163 182.848 119.984 183.89 120.473C184.431 120.728 185.02 120.698 185.471 120.526Z" fill="#BF9074"/>
<path d="M180.297 118.503C181.622 119.733 182.675 121.489 184.05 121.95C184.09 122.306 184.095 122.617 184.025 122.742C183.784 123.165 182.75 123.211 182.076 122.314C181.327 121.322 181.349 119.713 179.288 118.108L179.325 118.027C179.641 118.168 179.966 118.33 180.297 118.503Z" fill="#BF9074"/>
<path d="M156.927 120.588C163.736 133.968 172.311 156.48 177.033 169.324L172.985 171.851C149.133 132.179 141.42 118.571 142.364 107.346C147.886 107.887 153.384 108.468 159.151 108.598C159.156 108.992 159.151 109.392 159.136 109.801C159.024 112.84 158.39 116.322 156.927 120.588Z" fill="#00A3FF"/>
<path d="M174.5 109.169L174.17 109.58L169.41 115.455L169.022 115.933L166.486 113.278C166.572 113.197 166.659 113.105 166.744 113.002C169.127 109.775 170.602 108.14 171.058 106.975L174.5 109.169Z" fill="#BDF2C8"/>
<path d="M185.47 120.525C185.019 120.698 184.431 120.728 183.89 120.472C183.667 120.367 183.434 120.249 183.191 120.116C182.296 119.64 181.282 119.022 180.297 118.503C179.966 118.33 179.641 118.167 179.325 118.027C177.619 117.263 176.181 117.095 175.903 118.944C175.693 120.337 176.672 121.567 176.88 122.774C177.043 123.716 175.442 125.097 174.721 124.002C174.082 123.035 172.734 120.059 171.967 119.189C171.532 118.691 169.961 117.263 169.41 115.454L172.714 111.378L174.169 109.58C178.704 109.732 183.376 116.817 186.034 119.295C186.495 119.723 186.124 120.277 185.47 120.525Z" fill="#CFA891"/>
<path d="M183.191 120.117C182.296 119.641 181.282 119.022 180.297 118.504C179.966 118.331 179.641 118.168 179.325 118.028C177.619 117.264 176.181 117.096 175.903 118.945C175.693 120.337 176.672 121.567 176.88 122.775C177.043 123.717 175.442 125.097 174.721 124.002C174.082 123.035 172.734 120.059 171.967 119.19C171.532 118.692 169.961 117.264 169.41 115.455L172.714 111.379C173.29 111.925 173.949 113.135 175.314 114.849C177.058 117.036 181.542 117.887 183.191 120.117Z" fill="#BF9074"/>
<path d="M172.985 171.851L170.049 173.682C161.624 161.034 140.159 127.194 136.615 115.778C135.808 113.172 135.577 109.906 135.77 106.749C137.985 106.922 140.177 107.13 142.364 107.345C141.419 118.571 149.133 132.179 172.985 171.851Z" fill="#00A3FF"/>
<path d="M159.151 108.599C159.139 106.827 158.948 105.202 158.648 103.646C158.227 101.476 157.595 99.4422 156.929 97.3354C156.393 95.6444 156.839 94.3041 157.54 92.9263C161.481 96.7066 165.529 100.732 169.605 104.059C171.026 105.219 171.479 105.896 171.058 106.975C170.602 108.14 169.127 109.776 166.744 113.003C166.659 113.105 166.571 113.198 166.486 113.278C165.184 114.491 163.746 113.161 159.136 109.801C159.151 109.393 159.156 108.992 159.151 108.599Z" fill="#99D0A4"/>
<path d="M170.048 173.683L165.92 176.258L144.683 144.748L131.699 125.479L130.877 124.261C127.257 119.15 126.315 112.271 128.325 106.352C130.85 106.412 133.322 106.559 135.77 106.75C135.577 109.906 135.807 113.173 136.614 115.779C140.159 127.195 161.623 161.035 170.048 173.683Z" fill="#00A3FF"/>
<path d="M157.784 101.598C157.959 102.272 158.114 102.951 158.25 103.645C157.941 103.648 157.633 103.65 157.33 103.65C147.718 103.653 139.528 101.889 129.941 101.856C131.038 99.5916 131.702 97.8405 131.016 94.7792C127.679 99.2384 123.884 104.291 118.901 111.211C118.177 112.22 117.017 113.09 115.779 112.994C115.504 112.974 115.243 112.902 114.995 112.796C114.522 112.599 114.088 112.285 113.675 111.977C112.685 111.246 111.829 110.627 111.092 110.088C111.047 110.056 111.002 110.023 110.959 109.991C108.85 108.445 107.748 107.556 107.327 106.523C107.222 106.268 107.159 106.005 107.134 105.719C106.996 104.136 107.074 104.554 121.674 80.8028C123.558 77.734 125.545 74.565 128.568 72.6084C128.691 72.5308 128.814 72.4531 128.937 72.3804V72.0623C128.937 72.0623 128.921 72.0523 128.916 72.0448C128.914 72.0448 128.911 72.0422 128.909 72.0397C127.311 70.7496 128.488 68.8607 130.427 66.2353C130.472 66.1726 130.532 66.1125 130.607 66.0549C131.479 65.366 134.777 65.0244 138.026 65.1346L138.01 67.3025C142.545 67.8085 139.022 69.6323 153.094 70.9951C153.643 71.5913 154.154 72.3504 154.126 73.0969C155.98 74.8505 157.225 78.0146 158.242 80.3544C161.151 87.0332 158.6 90.0595 157.142 92.9254C156.797 93.6043 156.513 94.2732 156.381 94.9771C156.24 95.7061 156.258 96.4752 156.531 97.3345C156.984 98.7674 157.42 100.168 157.784 101.598Z" fill="#BDF2C8"/>
<path d="M158.648 103.646C158.948 105.202 159.139 106.828 159.151 108.599C153.384 108.469 147.886 107.887 142.364 107.346C140.177 107.131 137.985 106.923 135.771 106.75C133.323 106.56 130.85 106.412 128.325 106.352C128.508 105.816 128.713 105.287 128.944 104.768C129.437 103.656 129.918 102.719 130.339 101.857C140.232 101.89 148.635 103.766 158.648 103.646Z" fill="#BDF2C8"/>
<path d="M131.699 125.479L144.684 144.748C143.819 146.151 142.908 147.604 141.946 149.107C137 155.611 130.783 164.439 125.274 172.541H125.271C121.654 170.384 117.916 168.427 114.081 166.684L131.699 125.479Z" fill="#007FCC"/>
<path d="M111.598 116.096C110.593 115.369 106.75 112.593 105.367 111.539H105.365C105.052 111.301 104.866 111.15 104.866 111.133L107.725 106.523C108.296 107.934 110.147 109.071 114.073 111.977C114.486 112.285 114.919 112.598 115.393 112.796C113.847 114.244 112.55 115.562 111.841 116.271C111.841 116.271 111.753 116.208 111.598 116.096Z" fill="#BDF2C8"/>
<path d="M111.598 116.096C111.029 121.731 102.867 130.11 101.92 126.668C100.71 127.047 100.227 126.41 100.467 125.912C100.462 125.912 100.46 125.912 100.455 125.909C100.099 125.879 99.8537 125.641 99.7735 125.12C98.9368 125.308 98.5284 124.774 99.1572 123.62C100.197 121.713 101.555 119.879 101.823 117.725C101.945 116.733 101.83 115.708 102.098 114.744C102.524 113.218 103.834 112.068 105.365 111.54H105.368C106.019 112.036 107.216 112.915 108.406 113.782C109.742 114.754 111.067 115.713 111.598 116.096Z" fill="#CFA891"/>
<path d="M111.598 116.096C103.962 111.677 103.945 122.968 100.455 125.909C100.099 125.879 99.8537 125.641 99.7735 125.12C98.9368 125.308 98.5284 124.774 99.1572 123.62C100.197 121.713 101.555 119.879 101.823 117.725C101.945 116.733 101.83 115.708 102.098 114.744C102.524 113.218 103.834 112.068 105.365 111.54H105.368C106.019 112.036 110.408 115.23 111.598 116.096Z" fill="#BF9074"/>
<path d="M129.332 72.0623C127.694 70.7721 128.871 68.8757 130.823 66.2352C131.414 65.4386 134.355 64.9426 137.877 65.0628" stroke="#002050" stroke-width="0.832548" stroke-linecap="round" stroke-linejoin="round"/>
<path d="M134.986 67.0768C137.516 66.3353 140.898 67.7883 142.308 68.6301C146.327 71.0275 148.724 70.0079 153.489 70.9949C154.038 71.5912 154.549 72.3502 154.521 73.0968C156.375 74.8504 157.618 78.0144 158.637 80.3543C162.946 90.2472 155.275 92.1261 156.924 97.3343C158.965 103.788 160.696 109.572 156.924 120.587" stroke="#002050" stroke-width="0.832548" stroke-linecap="round" stroke-linejoin="round"/>
<path d="M144.683 144.749C143.819 146.154 142.905 147.604 141.943 149.108C135.76 157.242 127.578 169.019 121.29 178.456" stroke="#002050" stroke-width="0.832548" stroke-linecap="round" stroke-linejoin="round"/>
<path d="M111.089 173.675L131.699 125.48" stroke="#002050" stroke-width="0.832548" stroke-linecap="round" stroke-linejoin="round"/>
<path d="M169.407 115.457C169.961 117.263 171.529 118.694 171.968 119.192C172.732 120.062 174.082 123.038 174.721 124.005C175.442 125.1 177.043 123.719 176.88 122.78C176.672 121.57 175.693 120.342 175.903 118.949C176.429 115.455 181.094 119.162 183.89 120.477C185.215 121.101 186.813 120.027 186.034 119.3C183.376 116.822 178.704 109.738 174.17 109.585" stroke="#002050" stroke-width="0.832548" stroke-linecap="round" stroke-linejoin="round"/>
<path d="M185.471 120.525C185.658 120.783 185.841 121.046 186.017 121.312C185.779 121.828 185.165 122.098 184.599 122.061C182.943 121.951 181.793 119.891 180.297 118.503" stroke="#002050" stroke-width="0.832548" stroke-linecap="round" stroke-linejoin="round"/>
<path d="M184.05 121.95C184.09 122.306 184.095 122.617 184.025 122.742C183.784 123.165 182.75 123.213 182.076 122.314C181.329 121.322 181.349 119.713 179.288 118.107" stroke="#002050" stroke-width="0.832548" stroke-linecap="round" stroke-linejoin="round"/>
<path d="M157.54 92.9268C161.481 96.7071 165.529 100.735 169.605 104.06C172.561 106.472 171.331 106.793 166.744 113.003C165.361 114.659 164.051 113.384 159.136 109.802" stroke="#002050" stroke-width="0.832548" stroke-linecap="round" stroke-linejoin="round"/>
<path d="M171.056 106.978L174.5 109.172L169.022 115.934L166.486 113.278" stroke="#002050" stroke-width="0.832548" stroke-linecap="round" stroke-linejoin="round"/>
<path d="M142.308 72.7294C138.398 70.1015 132.919 70.0514 128.963 72.6092C125.94 74.5657 123.955 77.7347 122.069 80.8036C107.469 104.555 107.394 104.137 107.531 105.72C107.694 107.581 109.433 108.548 114.07 111.978C114.706 112.449 115.385 112.935 116.174 112.995C117.414 113.09 118.572 112.218 119.298 111.211C127.6 99.6801 132.603 93.3395 137.689 86.2749" stroke="#002050" stroke-width="0.832548" stroke-linecap="round" stroke-linejoin="round"/>
<path d="M131.414 94.7803C132.361 99.0115 130.735 100.738 128.941 104.771C126.165 111.011 126.93 118.69 130.878 124.261L169.961 182.258" stroke="#002050" stroke-width="0.832548" stroke-linecap="round" stroke-linejoin="round"/>
<path d="M179.104 175.018C174.009 160.882 156.861 114.468 149.854 110.049" stroke="#002050" stroke-width="0.832548" stroke-linecap="round" stroke-linejoin="round"/>
<path d="M153.376 73.8867C155.027 79.2002 151.538 84.8644 152.718 90.2505" stroke="#002050" stroke-width="0.832548" stroke-linecap="round" stroke-linejoin="round"/>
<path d="M128.322 106.351C138.897 106.604 148.569 108.36 159.151 108.598" stroke="#002050" stroke-width="0.832548" stroke-linecap="round" stroke-linejoin="round"/>
<path d="M130.336 101.859C140.227 101.891 148.632 103.768 158.645 103.648" stroke="#002050" stroke-width="0.832548" stroke-linecap="round" stroke-linejoin="round"/>
<path d="M115.393 112.8C113.847 114.245 112.55 115.563 111.841 116.272C111.841 116.272 104.866 111.247 104.866 111.136L107.722 106.527" stroke="#002050" stroke-width="0.832548" stroke-linecap="round" stroke-linejoin="round"/>
<path d="M103.453 121.397C101.286 125.711 97.7967 126.112 99.157 123.619C100.197 121.713 101.554 119.881 101.823 117.724C101.945 116.732 101.83 115.705 102.098 114.743C102.524 113.218 103.837 112.063 105.367 111.539" stroke="#002050" stroke-width="0.832548" stroke-linecap="round" stroke-linejoin="round"/>
<path d="M111.595 116.096C111.029 121.73 102.864 130.113 101.917 126.668" stroke="#002050" stroke-width="0.832548" stroke-linecap="round" stroke-linejoin="round"/>
<path d="M104.866 122.547C103.045 124.839 100.086 127.181 99.7729 125.12" stroke="#002050" stroke-width="0.832548" stroke-linecap="round" stroke-linejoin="round"/>
<path d="M106.084 123.371C101.91 128.123 100.036 126.801 100.465 125.909" stroke="#002050" stroke-width="0.832548" stroke-linecap="round" stroke-linejoin="round"/>
</g>
<defs>
<clipPath id="clip0_5418_6733">
<rect width="285" height="160.312" fill="white"/>
</clipPath>
</defs>
</svg>
