<svg width="36" height="36" viewBox="0 0 36 36" fill="none" xmlns="http://www.w3.org/2000/svg">
<path d="M27.1338 7.04435C24.129 5.97938 20.787 6.5475 18.303 8.54555C15.0982 5.96682 10.5709 5.82942 7.21565 8.20905C3.8604 10.5887 2.49303 14.9068 3.86698 18.784C6.34018 25.7644 18.303 32.0032 18.303 32.0032C18.303 32.0032 30.2694 25.7644 32.739 18.784C33.5527 16.4839 33.4192 13.9548 32.368 11.7531C31.3168 9.55147 29.434 7.85764 27.1338 7.04435Z" fill="#FF00DF"/>
<path fill-rule="evenodd" clip-rule="evenodd" d="M11.6972 9.01172C11.6281 8.81648 11.4138 8.71421 11.2185 8.7833C7.10081 10.2404 4.94365 14.7595 6.40011 18.8775C6.46917 19.0727 6.68344 19.175 6.87869 19.106C7.07395 19.0369 7.17625 18.8226 7.10719 18.6274C5.78883 14.8999 7.74145 10.8093 11.4687 9.49034C11.664 9.42125 11.7663 9.20696 11.6972 9.01172Z" fill="white"/>
<path d="M27.1338 7.04547C25.2355 6.37118 23.1678 6.34207 21.2514 6.96267C23.7059 8.44984 25.3241 10.999 25.6254 13.8531C26.4102 21.2187 18.303 32.0043 18.303 32.0043C18.303 32.0043 30.2694 25.7655 32.739 18.7851C33.5527 16.485 33.4192 13.9559 32.368 11.7542C31.3168 9.55258 29.434 7.85876 27.1338 7.04547Z" fill="#CC00B2"/>
<path fill-rule="evenodd" clip-rule="evenodd" d="M18.5357 8.83771C21.6098 6.36412 25.9525 6.23232 29.171 8.51493C32.3895 10.7976 33.7011 14.9396 32.3831 18.6587C31.7899 20.3356 30.6167 21.9908 29.1656 23.5384C27.7171 25.0832 26.0089 26.5029 24.37 27.7112C22.732 28.9188 21.1696 29.9106 20.0164 30.6005C19.4401 30.9453 18.9665 31.2144 18.6376 31.397C18.4982 31.4744 18.3848 31.5363 18.3006 31.5817C18.266 31.5631 18.2264 31.5416 18.1821 31.5174C17.9916 31.4134 17.7137 31.2592 17.3662 31.0593C16.6711 30.6595 15.6983 30.0775 14.5896 29.3497L14.5862 29.3475C12.2021 27.8187 9.85122 25.8426 7.97089 23.8907C6.08032 21.9282 4.70324 20.0291 4.21811 18.6588C2.90018 14.9397 4.21177 10.7976 7.43022 8.51493C10.6487 6.23232 14.9914 6.36412 18.0655 8.83771C18.2028 8.94817 18.3984 8.94817 18.5357 8.83771ZM18.3006 32.0068C18.4741 32.3392 18.4742 32.3392 18.4743 32.3391L18.4837 32.3342L18.5104 32.3201C18.5338 32.3077 18.5683 32.2894 18.6131 32.2653C18.7028 32.2171 18.834 32.1458 19.0016 32.0528C19.3368 31.8667 19.8174 31.5936 20.4015 31.2441C21.5692 30.5455 23.1527 29.5404 24.815 28.3148C26.4764 27.09 28.2229 25.6403 29.7127 24.0514C31.1998 22.4653 32.4485 20.7224 33.0901 18.9092C34.52 14.8739 33.0969 10.3798 29.6049 7.90317C26.1941 5.48416 21.6196 5.56429 18.3006 8.07013C14.9816 5.56429 10.4071 5.48416 6.99635 7.90317C3.50433 10.3798 2.08121 14.8739 3.51111 18.9091C4.05199 20.4368 5.52365 22.4314 7.43075 24.4111C9.34763 26.4009 11.7427 28.4149 14.1797 29.9777C15.3022 30.7146 16.2873 31.304 16.9922 31.7095C17.345 31.9123 17.6278 32.0693 17.8228 32.1758C17.9204 32.229 17.996 32.2696 18.0475 32.2971L18.1063 32.3283L18.1216 32.3363L18.1268 32.339L18.3006 32.0068ZM18.3006 32.0068L18.1268 32.339C18.2354 32.3957 18.3657 32.3958 18.4743 32.3391L18.3006 32.0068Z" fill="#002066"/>
</svg>
