<svg width="285" height="161" viewBox="0 0 285 161" fill="none" xmlns="http://www.w3.org/2000/svg">
<g clip-path="url(#clip0_5418_6079)">
<rect width="285" height="160.312" fill="#F2F6FF"/>
<path d="M81.6361 79.3286C80.1823 62.8057 97.8333 46.9345 127.92 44.5966C149.084 42.9511 147.306 20.3157 162.551 20.5803C186.483 20.9975 211.492 63.2404 197.352 95.2132C183.211 127.186 149.275 132.899 126.519 123.806C103.763 114.713 83.4923 100.445 81.6361 79.3286Z" fill="#DAE5FF"/>
<path d="M125.565 76.5566C126.515 69.5384 131.571 67.7703 137.128 62.719C139.784 69.9113 144.247 82.95 143.886 86.9954C143.526 91.0407 136.284 90.0017 132.709 88.9765C129.495 87.8491 124.56 83.9761 125.565 76.5566Z" fill="#002050" stroke="#002050" stroke-width="0.8138"/>
<path d="M135.627 88.4805C135.607 88.2116 137.377 88.2704 138.239 87.8464C139.473 87.2429 140.45 85.2342 140.45 85.2342C140.45 85.2342 140.709 83.1543 140.673 81.9135C153.465 82.4225 156.513 72.8421 157.484 74.7855C157.989 75.796 156.555 81.4563 156.576 83.6816C156.598 86.026 157.102 88.6848 158.132 89.253C152.323 95.5673 149.033 98.9769 141.926 100.099C137.127 100.856 136.154 95.5526 135.627 88.4805Z" fill="#A56249"/>
<path d="M157.041 81.1025C159.878 78.3768 162.614 75.4881 164.596 72.0899C166.578 68.6916 167.768 64.7195 167.296 60.8169C166.776 56.5336 164.193 52.5729 160.549 50.2649C156.904 47.9568 153.934 47.1715 149.745 48.2034C140.118 47.4495 135.937 56.3323 136.242 62.8189C134.054 67.5441 133.399 71.8807 134.721 75.7328C136.043 79.5849 139.226 81.7702 142.162 82.5524C145.613 83.4717 149.444 83.0727 152.095 80.6802" fill="#A56249"/>
<path d="M157.041 81.1025C159.878 78.3768 162.614 75.4881 164.596 72.0899C166.578 68.6916 167.768 64.7195 167.296 60.8169C166.776 56.5336 164.193 52.5729 160.549 50.2649C156.904 47.9568 153.934 47.1715 149.745 48.2034C140.118 47.4495 135.937 56.3323 136.242 62.8189C134.054 67.5441 133.399 71.8807 134.721 75.7328C136.043 79.5849 139.226 81.7702 142.162 82.5524C145.613 83.4717 149.444 83.0727 152.095 80.6802" stroke="#002050" stroke-width="0.8138" stroke-linecap="round" stroke-linejoin="round"/>
<path d="M129.225 115.273C127.95 120.366 126.672 125.377 126.675 130.626C126.681 135.882 127.517 140.734 131.05 144.623C134.821 148.771 139.994 151.035 146.309 150.761C151.912 150.517 157.011 146.955 160.55 142.609C163.076 139.161 163.597 135.051 163.441 131.142C163.282 127.232 162.514 123.363 162.425 119.454C162.302 114.028 163.497 109.831 165.072 104.64C166.117 101.199 167.261 96.1284 164.314 92.7691C163.284 91.5944 161.819 91.1635 160.447 90.4157C160.447 90.4157 158.675 89.0417 158.334 88.8504C153.282 95.9225 142.65 100.304 141.053 100.304C140.043 100.304 135.829 96.2412 135.829 88.2476C133.941 89.5577 125.782 97.4907 125.782 97.4907L120.959 106.332L123.772 106.131C123.772 106.131 124.511 109.937 125.179 111.556C125.671 112.755 128.023 114.881 129.225 115.273Z" fill="#FFECA6"/>
<path d="M160.183 90.4146C161.552 91.1624 163.225 91.972 164.255 93.1467C167.202 96.5059 166.125 101.314 165.082 104.758C163.507 109.949 162.041 114.029 162.162 119.452C162.25 123.365 163.019 127.234 163.178 131.143C163.337 135.053 162.816 139.16 160.287 142.611C156.748 146.956 151.646 150.519 146.046 150.763C139.728 151.04 134.558 148.773 130.786 144.625C127.254 140.735 126.417 135.883 126.412 130.628C126.406 125.373 127.686 120.362 128.964 115.263C128.964 115.263 125.937 113.163 124.933 110.953C122.569 105.753 125.718 100.426 131.162 98.6958" stroke="#002050" stroke-width="0.8138" stroke-linecap="round" stroke-linejoin="round"/>
<path d="M145.352 215.46C153.984 215.531 164.524 215.595 164.574 215.492C166.141 199.441 167.707 183.393 169.276 167.344C169.962 160.311 170.648 153.236 170.083 146.194C169.515 139.151 166.523 131.688 162.737 126.174C162.737 126.174 126.813 126.551 126.43 126.557C123.136 133.599 121.985 141.374 122.053 149.047C122.12 156.719 123.369 164.335 124.699 171.911C127.161 185.931 131.721 204.587 134.274 215.357C134.274 215.357 139.352 215.41 145.352 215.46Z" fill="#B3BCCB"/>
<path d="M169.673 143.034C168.837 138.282 167.029 133.502 164.734 129.395C164.102 128.265 163.434 127.187 162.739 126.174L126.68 126.364C126.68 126.364 125.65 128.7 125.209 129.9M125.209 129.9L132.237 129.81M169.673 143.034C169.859 144.091 169.997 145.147 170.082 146.194C170.65 153.239 169.961 160.311 169.275 167.344C168.607 174.188 167.938 181.033 167.27 187.877H127.895C126.689 182.346 125.563 176.843 124.698 171.914C123.37 164.338 122.125 156.719 122.054 149.047C122.036 147.055 122.117 145.044 122.304 143.034C122.351 142.529 122.405 142.024 122.466 141.519C122.941 137.565 123.837 133.638 125.209 129.9M164.734 129.395L154.464 129.526M140.067 149.047L143.098 152.632M143.098 152.632L144.613 150.106M143.098 152.632L143.948 187.877H167.27M132.237 129.81L154.464 129.526M132.237 129.81C131.509 132.787 128.502 139.599 122.304 143.034M154.464 129.526C155.005 133.945 158.806 142.832 169.673 143.034" stroke="#002050" stroke-width="0.8138" stroke-linecap="round" stroke-linejoin="round"/>
<path d="M144.199 51.8564C146.198 51.246 146.977 50.8461 149.251 50.0883C150.008 50.8461 151.151 52.4515 153.039 54.1295C155.312 56.1501 157.586 57.413 159.601 58.5247C160.106 58.8031 160.597 59.2302 160.699 59.7951C160.759 60.1364 160.789 60.555 160.695 60.8878C160.269 63.1207 159.882 64.0754 159.314 67.0525C159.03 68.5411 159.101 70.2944 160.364 70.2944L158.151 76.3182C158.151 76.3182 157.139 79.5231 156.718 81.728C156.233 84.2709 156.771 86.5046 157.73 88.6495C158.734 89.0514 161.069 93.8169 163.557 95.2358C167.924 97.7263 173.408 97.6529 177.034 93.0259C184.359 83.6804 173.314 72.9117 173.314 72.9117C173.314 72.9117 177.792 60.8879 165.415 51.0979C154.73 42.6455 147.23 43.905 144.704 44.7836C137.885 47.1558 138.474 52.0191 139.372 52.7047C139.796 53.0288 141.421 52.7047 144.199 51.8564Z" fill="#002050" stroke="#002050" stroke-width="0.8138" stroke-linecap="round" stroke-linejoin="round"/>
<path d="M157.307 77.5124C159.243 77.735 160.961 77.4631 162.615 76.43C164.269 75.3968 165.042 73.1514 164.897 71.2085C164.819 70.1716 164.352 69.8973 163.445 69.3885C162.719 68.9832 162.527 68.5638 161.725 68.7764C160.924 68.9891 160.191 69.4038 159.468 69.8143C156.871 72.349 156.393 74.9193 157.307 77.5095L157.307 77.5124Z" fill="#A56249"/>
<path d="M157.771 77.5626C160.547 77.8351 164.151 76.4658 164.862 72.7442C165.243 70.7438 164.237 69.2823 162.252 68.9036C160.763 68.6196 159.469 69.8141 159.469 69.8141" stroke="#002050" stroke-width="0.8138" stroke-linecap="round" stroke-linejoin="round"/>
<path d="M155.907 58.8152C154.629 57.0077 152.371 55.9421 150.162 56.1037" stroke="#002050" stroke-width="0.8138" stroke-linecap="round" stroke-linejoin="round"/>
<path d="M141.965 54.9028C140.621 54.4882 139.112 54.6407 137.879 55.3159" stroke="#002050" stroke-width="0.8138" stroke-linecap="round" stroke-linejoin="round"/>
<path d="M160.416 71.5746C161.129 70.7467 162.265 70.9437 162.576 71.2503" stroke="#002050" stroke-width="0.8138" stroke-linecap="round"/>
<path d="M147.582 63.2915C147.356 64.4481 148.06 65.6128 149.249 66.2497C149.601 66.4397 149.995 66.5817 150.419 66.6646C152.28 67.029 154.024 66.1076 154.317 64.6099C154.611 63.1123 153.342 61.6012 151.481 61.2368C150.54 61.0526 149.63 61.1961 148.921 61.5795C148.225 61.9509 147.727 62.5498 147.582 63.2915Z" fill="#F5F5FA" stroke="#002050" stroke-width="0.8138" stroke-linecap="round" stroke-linejoin="round"/>
<path d="M147.763 63.698C147.763 63.698 147.954 65.2774 149.17 65.8594C149.896 65.9292 150.659 64.7017 150.175 63.4469C149.69 62.192 148.768 62.2416 148.366 62.2417C147.689 62.6444 147.763 63.698 147.763 63.698Z" fill="#002050" stroke="#002050" stroke-width="0.8138" stroke-linecap="round" stroke-linejoin="round"/>
<path d="M155.527 61.7769C155.25 62.3273 154.648 62.6412 154.052 62.7637" stroke="#002050" stroke-width="0.8138" stroke-linecap="round" stroke-linejoin="round"/>
<path d="M157.188 62.488C156.515 63.2484 155.299 63.6846 154.343 63.5701" stroke="#002050" stroke-width="0.8138" stroke-linecap="round" stroke-linejoin="round"/>
<path d="M136.119 60.1932C135.739 61.3088 136.28 62.5578 137.372 63.349C137.696 63.5846 138.067 63.7785 138.475 63.9176C140.271 64.5294 142.123 63.8512 142.615 62.4067C143.108 60.9622 142.055 59.2941 140.259 58.6823C139.352 58.3732 138.431 58.3927 137.676 58.6771C136.937 58.9515 136.363 59.4778 136.119 60.1932Z" fill="#F5F5FA" stroke="#002050" stroke-width="0.8138" stroke-linecap="round" stroke-linejoin="round"/>
<path d="M136.184 61.177C136.184 61.177 136.374 62.7564 137.591 63.3384C138.317 63.4082 139.079 62.1808 138.595 60.9259C138.111 59.671 137.189 59.7207 136.787 59.7207C136.109 60.1234 136.184 61.177 136.184 61.177Z" fill="#002050" stroke="#002050" stroke-width="0.8138" stroke-linecap="round" stroke-linejoin="round"/>
<path d="M136.214 57.0958C136.17 57.7108 136.526 58.2884 136.976 58.6992" stroke="#002050" stroke-width="0.8138" stroke-linecap="round" stroke-linejoin="round"/>
<path d="M134.422 56.8613C134.61 57.8591 135.431 58.8566 136.31 59.248" stroke="#002050" stroke-width="0.8138" stroke-linecap="round" stroke-linejoin="round"/>
<ellipse cx="1.23531" cy="1.62453" rx="1.23531" ry="1.62453" transform="matrix(0.949361 0.314188 -0.288619 0.957444 145.562 73.3833)" fill="#990086"/>
<path d="M147.283 75.3895L145.071 74.7898L145.473 74.187L146.88 73.7852L147.483 74.388L147.283 75.3895Z" fill="white"/>
<ellipse cx="1.23531" cy="1.62453" rx="1.23531" ry="1.62453" transform="matrix(0.949361 0.314188 -0.288619 0.957444 145.562 73.3833)" stroke="#002050" stroke-width="0.8138"/>
<path d="M145.635 60.7578C143.997 62.9359 142.355 65.1171 140.717 67.2952C140.367 67.7601 140.045 68.2703 139.983 68.8502C139.807 70.5036 140.813 71.2713 143.465 71.6374" stroke="#002050" stroke-width="0.8138" stroke-linecap="round" stroke-linejoin="round"/>
<path d="M110.024 70.8257C108.865 71.3822 108.457 71.5724 108.055 71.7734C108.055 71.7734 108.667 78.3291 109.662 82.624C110.637 86.8297 111.163 94.1772 111.163 94.1772C111.163 94.1772 114.462 92.565 119.352 91.4652L120.416 106.392C112.983 106.869 106.181 108.062 102.564 104.725C97.4365 99.9944 98.3632 81.3586 100.633 69.2823C100.732 68.7603 100.865 67.2575 101.022 66.7499C101.686 64.6038 102.561 63.0512 103.505 62.7963C103.505 62.7963 104.982 60.7659 106.136 60.4543C106.136 60.4543 107.422 59.0192 108.397 58.756C109.028 58.5856 109.776 58.7228 110.493 58.9987C111.854 58.6726 114.635 57.9359 116.092 59.116C117.845 60.5354 119.739 62.5487 118.102 63.5347C116.784 64.3281 114.698 61.9493 114.698 61.9493C114.698 61.9493 114.698 61.6224 114.083 61.7265C114.083 61.7265 114.284 62.7312 113.882 63.1331C113.242 63.7731 111.953 64.1378 111.953 64.1378C111.953 64.1378 111.999 64.9516 111.826 65.2038C111.705 65.3795 111.532 65.508 111.336 65.5926C111.403 65.8897 111.464 66.0859 111.464 66.0859C111.464 66.0859 112.985 65.6753 114.896 65.7031C116.807 65.731 118.872 65.5926 118.905 67.3528C118.93 68.6912 115.899 68.8717 114.378 69.2823C112.604 69.7614 111.444 70.1442 110.024 70.8257Z" fill="#A56249"/>
<path d="M103.88 88.0503L99.0574 89.055L99.4592 95.0831L100.263 100.709L102.071 104.125L104.885 106.135L109.104 106.938H117.343L122.969 105.532L124.777 101.111L128.796 98.0972L133.619 97.0925L134.623 91.8681L135.829 88.0503H132.413L126.385 89.4569L117.343 91.8681L111.315 93.6766L110.511 87.6484L103.88 88.0503Z" fill="#FFECA6"/>
<path d="M108.055 71.7737L107.651 71.8225C107.631 71.6519 107.719 71.4866 107.873 71.4098L108.055 71.7737ZM110.025 70.8257L109.874 70.4479V70.4479L110.025 70.8257ZM114.284 69.3613L114.178 68.9684L114.284 69.3613ZM109.588 66.2705C109.366 66.2349 109.215 66.0261 109.251 65.8042C109.286 65.5824 109.495 65.4314 109.717 65.467L109.653 65.8688L109.588 66.2705ZM113.733 62.0413C113.559 61.8995 113.532 61.6432 113.674 61.4689C113.816 61.2945 114.072 61.2682 114.246 61.41L113.99 61.7256L113.733 62.0413ZM118.906 62.7303L118.606 62.4555V62.4555L118.906 62.7303ZM115.892 59.1135L115.636 59.4297V59.4297L115.892 59.1135ZM102.039 104.199L102.357 103.945V103.945L102.039 104.199ZM111.464 93.6979L111.586 94.0862L111.575 94.0893L111.464 93.6979ZM109.616 82.6713L109.216 82.7423V82.7423L109.616 82.6713ZM109.727 94.6144C109.511 94.6758 109.286 94.5504 109.225 94.3342C109.163 94.1181 109.289 93.893 109.505 93.8316L109.616 94.223L109.727 94.6144ZM138.597 87.8486L138.777 88.2138L138.727 88.2383L138.672 88.2485L138.597 87.8486ZM120.417 106.557L120.462 106.962V106.962L120.417 106.557ZM108.077 63.5062L107.823 63.8243V63.8243L108.077 63.5062ZM105.611 65.2108C105.795 65.0819 106.049 65.1266 106.178 65.3106C106.307 65.4947 106.262 65.7484 106.078 65.8774L105.845 65.5441L105.611 65.2108ZM110.965 61.9309L111.269 61.6606V61.6606L110.965 61.9309ZM112.015 64.2936L111.609 64.2644L112.015 64.2936ZM109.928 66.2758C109.703 66.283 109.515 66.1069 109.508 65.8823C109.501 65.6576 109.677 65.4697 109.902 65.4624L109.915 65.8691L109.928 66.2758ZM106.136 60.4543L106.303 60.8253L106.136 60.4543ZM112.54 59.8304L112.828 59.5427V59.5427L112.54 59.8304ZM114.116 62.4559L113.714 62.393L114.116 62.4559ZM112.278 64.4379C112.053 64.4379 111.871 64.2558 111.871 64.031C111.871 63.8063 112.053 63.6241 112.278 63.6241V64.031V64.4379ZM108.865 58.7804L108.753 58.3891L108.865 58.7804ZM140.409 82.3022C140.365 82.0818 140.508 81.8674 140.728 81.8234C140.948 81.7793 141.163 81.9222 141.207 82.1426L140.808 82.2224L140.409 82.3022ZM128.751 88.8533L128.855 89.2469L128.845 89.2492L128.751 88.8533ZM108.055 71.7737L107.873 71.4098C108.229 71.2318 108.489 71.0011 109.874 70.4479L110.025 70.8257L110.176 71.2036C108.827 71.7426 108.685 71.9137 108.237 72.1376L108.055 71.7737ZM110.025 70.8257L109.874 70.4479C111.355 69.856 112.381 69.4537 114.178 68.9684L114.284 69.3613L114.39 69.7541C112.639 70.227 111.647 70.6154 110.176 71.2036L110.025 70.8257ZM114.284 69.3613L114.178 68.9684C114.574 68.8617 115.056 68.7627 115.545 68.6653C116.04 68.5668 116.544 68.4696 117 68.3639C117.461 68.2573 117.846 68.1482 118.11 68.0325C118.243 67.9741 118.32 67.9247 118.358 67.8911C118.395 67.8578 118.352 67.8797 118.352 67.9547H118.759H119.166C119.166 68.2006 119.03 68.3818 118.9 68.4981C118.77 68.614 118.604 68.7044 118.437 68.7778C118.099 68.9258 117.651 69.0486 117.183 69.1568C116.711 69.266 116.191 69.3665 115.704 69.4635C115.212 69.5615 114.755 69.6555 114.39 69.7541L114.284 69.3613ZM118.759 67.9547H118.352C118.352 67.4385 118.201 67.0729 117.974 66.8075C117.742 66.5362 117.404 66.3396 116.987 66.2146C116.142 65.9618 115.062 66.0312 114.223 66.2615L114.116 65.8691L114.008 65.4767C114.945 65.2194 116.187 65.1259 117.22 65.435C117.741 65.591 118.231 65.8565 118.592 66.2785C118.958 66.7064 119.166 67.2653 119.166 67.9547H118.759ZM114.116 65.8691L114.223 66.2615C112.352 66.7754 111.216 66.5321 109.588 66.2705L109.653 65.8688L109.717 65.467C111.357 65.7306 112.328 65.938 114.008 65.4767L114.116 65.8691ZM113.99 61.7256L114.246 61.41C114.332 61.4797 114.441 61.5929 114.545 61.701C114.659 61.8183 114.789 61.9545 114.939 62.0996C115.24 62.3911 115.603 62.703 116.004 62.9294C116.406 63.1556 116.82 63.2826 117.236 63.2427C117.643 63.2037 118.107 62.9994 118.606 62.4555L118.906 62.7303L119.206 63.0052C118.599 63.6675 117.958 63.9911 117.314 64.0528C116.678 64.1138 116.094 63.9144 115.605 63.6382C115.115 63.3623 114.695 62.9959 114.373 62.6842C114.211 62.5278 114.071 62.3812 113.96 62.266C113.84 62.1415 113.771 62.0724 113.733 62.0413L113.99 61.7256ZM118.906 62.7303L118.606 62.4555C118.491 62.5805 118.542 62.7058 118.528 62.6468C118.52 62.6156 118.495 62.5485 118.436 62.4407C118.319 62.2301 118.116 61.9418 117.84 61.605C117.29 60.935 116.49 60.1218 115.636 59.4297L115.892 59.1135L116.148 58.7972C117.046 59.5245 117.885 60.3767 118.469 61.0887C118.76 61.443 118.998 61.7748 119.148 62.0475C119.222 62.1813 119.286 62.3215 119.319 62.4551C119.345 62.561 119.386 62.8086 119.206 63.0052L118.906 62.7303ZM100.464 69.8069L100.867 69.8607C100.605 71.8275 99.6884 78.7668 99.4921 86.0295C99.394 89.6617 99.4763 93.3622 99.9071 96.556C100.34 99.7675 101.117 102.396 102.357 103.945L102.039 104.199L101.721 104.454C100.335 102.721 99.5371 99.9019 99.1006 96.6648C98.6616 93.4099 98.5799 89.6609 98.6786 86.0075C98.8762 78.6993 99.7976 71.7241 100.06 69.7531L100.464 69.8069ZM111.464 93.6979C111.062 93.7628 111.062 93.7627 111.062 93.7627C111.062 93.7626 111.062 93.7626 111.062 93.7625C111.062 93.7623 111.062 93.7619 111.062 93.7615C111.062 93.7607 111.062 93.7595 111.062 93.7579C111.061 93.7547 111.06 93.7498 111.059 93.7434C111.057 93.7305 111.054 93.7114 111.05 93.6863C111.042 93.636 111.03 93.5617 111.014 93.4656C110.983 93.2733 110.938 92.9938 110.881 92.645C110.767 91.9474 110.608 90.9724 110.425 89.8631C110.058 87.6441 109.596 84.8894 109.216 82.7423L109.616 82.6713L110.017 82.6002C110.398 84.7523 110.861 87.5109 111.227 89.7305C111.411 90.8405 111.57 91.8161 111.684 92.5142C111.741 92.8632 111.786 93.1429 111.818 93.3354C111.833 93.4316 111.845 93.506 111.853 93.5564C111.857 93.5816 111.861 93.6008 111.863 93.6136C111.864 93.6201 111.864 93.6249 111.865 93.6282C111.865 93.6298 111.865 93.6311 111.866 93.6319C111.866 93.6323 111.866 93.6326 111.866 93.6328C111.866 93.6329 111.866 93.633 111.866 93.633C111.866 93.6331 111.866 93.6331 111.464 93.6979ZM109.616 82.6713L109.216 82.7423C108.831 80.5769 108.44 77.8456 108.146 75.6593C107.998 74.5653 107.874 73.6064 107.788 72.9209C107.744 72.5781 107.71 72.3037 107.687 72.1149C107.675 72.0205 107.666 71.9475 107.66 71.898C107.657 71.8733 107.655 71.8545 107.654 71.8418C107.653 71.8355 107.652 71.8307 107.652 71.8274C107.652 71.8258 107.651 71.8246 107.651 71.8238C107.651 71.8234 107.651 71.8231 107.651 71.8229C107.651 71.8228 107.651 71.8227 107.651 71.8226C107.651 71.8226 107.651 71.8225 108.055 71.7737C108.459 71.7249 108.459 71.7249 108.459 71.7249C108.459 71.725 108.459 71.725 108.459 71.7251C108.459 71.7253 108.459 71.7256 108.459 71.726C108.459 71.7268 108.459 71.728 108.46 71.7295C108.46 71.7327 108.461 71.7374 108.461 71.7436C108.463 71.7562 108.465 71.7748 108.468 71.7994C108.474 71.8485 108.483 71.9211 108.495 72.0152C108.518 72.2033 108.552 72.4769 108.595 72.8188C108.682 73.5026 108.805 74.4593 108.952 75.5505C109.246 77.7345 109.636 80.4521 110.017 82.6002L109.616 82.6713ZM111.464 93.6979L111.575 94.0893L109.727 94.6144L109.616 94.223L109.505 93.8316L111.353 93.3065L111.464 93.6979ZM102.039 104.199L102.357 103.945C103.672 105.59 106.163 106.389 109.405 106.64C112.626 106.89 116.474 106.591 120.371 106.153L120.417 106.557L120.462 106.962C116.559 107.4 112.646 107.708 109.342 107.452C106.06 107.197 103.262 106.379 101.721 104.454L102.039 104.199ZM120.417 106.557L120.371 106.153C121.443 106.033 122.383 105.927 123.054 105.851C123.39 105.813 123.659 105.783 123.844 105.762C123.936 105.751 124.007 105.743 124.056 105.738C124.08 105.735 124.098 105.733 124.11 105.732C124.117 105.731 124.121 105.73 124.124 105.73C124.126 105.73 124.127 105.73 124.128 105.73C124.128 105.73 124.129 105.73 124.129 105.73C124.129 105.73 124.129 105.73 124.129 105.73C124.129 105.73 124.129 105.73 124.129 105.73C124.129 105.73 124.129 105.73 124.175 106.134C124.221 106.538 124.221 106.538 124.221 106.538C124.221 106.538 124.221 106.538 124.22 106.538C124.22 106.538 124.22 106.538 124.22 106.538C124.22 106.538 124.22 106.538 124.219 106.538C124.219 106.538 124.217 106.539 124.216 106.539C124.213 106.539 124.208 106.54 124.202 106.54C124.19 106.542 124.171 106.544 124.147 106.547C124.099 106.552 124.027 106.56 123.935 106.571C123.75 106.591 123.481 106.622 123.146 106.66C122.474 106.735 121.534 106.841 120.462 106.962L120.417 106.557ZM115.892 59.1135L115.636 59.4297C114.551 58.5519 112.751 58.526 111.464 59.1492L111.287 58.783L111.109 58.4167C112.602 57.694 114.757 57.6715 116.148 58.7972L115.892 59.1135ZM108.077 63.5062L108.331 63.1881C109.223 63.8998 109.797 64.5742 109.797 65.6063H109.39H108.983C108.983 64.9602 108.665 64.4957 107.823 63.8243L108.077 63.5062ZM109.39 65.6063H109.797C109.797 66.2627 109.503 66.7941 109.12 67.2019C108.741 67.6058 108.26 67.906 107.835 68.1184L107.653 67.7544L107.471 67.3905C107.85 67.201 108.238 66.9522 108.526 66.645C108.811 66.3417 108.983 65.9999 108.983 65.6063H109.39ZM107.653 67.7544L107.835 68.1184C107.532 68.2699 107.206 68.4424 106.909 68.5811C106.609 68.7205 106.297 68.8462 105.997 68.9013C105.693 68.9569 105.359 68.9481 105.058 68.7631C104.758 68.5787 104.567 68.2648 104.45 67.8698L104.84 67.7544L105.23 67.639C105.314 67.9234 105.417 68.0282 105.485 68.07C105.552 68.1112 105.658 68.136 105.85 68.1008C106.045 68.065 106.281 67.9755 106.565 67.8434C106.85 67.7105 107.142 67.5551 107.471 67.3905L107.653 67.7544ZM104.84 67.7544L104.45 67.8698C104.215 67.0749 104.368 66.4732 104.686 66.0256C104.981 65.6116 105.41 65.3523 105.611 65.2108L105.845 65.5441L106.078 65.8774C105.817 66.0606 105.542 66.2271 105.35 66.4974C105.181 66.7341 105.064 67.0753 105.23 67.639L104.84 67.7544ZM108.077 63.5062L107.823 63.8243C106.536 62.7978 104.75 62.7253 103.66 63.1728L103.505 62.7964L103.351 62.4199C104.689 61.8705 106.793 61.9612 108.331 63.1881L108.077 63.5062ZM103.505 62.7964L103.66 63.1728C102.936 63.47 102.367 64.1262 101.91 65.2449C101.451 66.3669 101.129 67.8999 100.867 69.8607L100.464 69.8069L100.06 69.7531C100.324 67.776 100.657 66.1586 101.156 64.9372C101.657 63.7125 102.346 62.8324 103.351 62.4199L103.505 62.7964ZM110.965 61.9309L111.269 61.6606C112.355 62.8817 112.46 63.7851 112.421 64.3229L112.015 64.2936L111.609 64.2644C111.631 63.9589 111.61 63.2686 110.661 62.2012L110.965 61.9309ZM112.015 64.2936L112.421 64.3229C112.374 64.978 111.957 65.4644 111.485 65.7751C111.013 66.0857 110.432 66.2594 109.928 66.2758L109.915 65.8691L109.902 65.4624C110.257 65.4509 110.692 65.3225 111.038 65.0952C111.383 64.8679 111.587 64.5806 111.609 64.2644L112.015 64.2936ZM110.965 61.9309L110.661 62.2012C109.659 61.0743 108.769 60.6585 108.056 60.5488C107.338 60.4384 106.739 60.6289 106.303 60.8253L106.136 60.4543L105.969 60.0833C106.479 59.8534 107.245 59.6008 108.18 59.7445C109.119 59.889 110.171 60.4247 111.269 61.6606L110.965 61.9309ZM106.136 60.4543L106.303 60.8253C105.773 61.0639 105.161 61.6003 104.658 62.1142C104.412 62.3652 104.203 62.6001 104.055 62.7722C103.981 62.8582 103.923 62.9282 103.883 62.9763C103.863 63.0003 103.848 63.0189 103.838 63.0312C103.833 63.0374 103.83 63.042 103.827 63.045C103.826 63.0464 103.825 63.0475 103.825 63.0481C103.825 63.0485 103.824 63.0487 103.824 63.0488C103.824 63.0488 103.824 63.0489 103.824 63.0488C103.824 63.0488 103.824 63.0488 103.824 63.0488C103.824 63.0488 103.824 63.0488 103.505 62.7964C103.186 62.5439 103.186 62.5439 103.186 62.5438C103.186 62.5438 103.186 62.5438 103.186 62.5437C103.186 62.5436 103.186 62.5435 103.187 62.5433C103.187 62.543 103.187 62.5425 103.188 62.542C103.189 62.5409 103.19 62.5394 103.191 62.5374C103.194 62.5335 103.199 62.528 103.205 62.5209C103.216 62.5066 103.233 62.486 103.254 62.4598C103.297 62.4075 103.359 62.3328 103.438 62.2418C103.594 62.0599 103.816 61.8114 104.076 61.5449C104.586 61.024 105.289 60.3893 105.969 60.0833L106.136 60.4543ZM112.54 59.8304L112.828 59.5427C113.228 59.9428 113.674 60.4281 114.006 60.9221C114.324 61.3949 114.604 61.9691 114.518 62.5188L114.116 62.4559L113.714 62.393C113.748 62.1713 113.634 61.8265 113.331 61.3764C113.042 60.9474 112.64 60.5056 112.253 60.1182L112.54 59.8304ZM114.116 62.4559L114.518 62.5188C114.323 63.7596 113.234 64.4379 112.278 64.4379V64.031V63.6241C112.897 63.6241 113.591 63.178 113.714 62.393L114.116 62.4559ZM112.54 59.8304L112.253 60.1182C111.729 59.5942 111.324 59.2599 110.86 59.0965C110.41 58.9378 109.847 58.9229 108.976 59.1716L108.865 58.7804L108.753 58.3891C109.72 58.1128 110.467 58.0952 111.131 58.3289C111.781 58.558 112.296 59.0112 112.828 59.5427L112.54 59.8304ZM108.865 58.7804L108.976 59.1716C108.563 59.2897 107.932 59.6698 107.366 60.0572C107.092 60.2448 106.847 60.4243 106.67 60.557C106.582 60.6233 106.511 60.6777 106.463 60.7154C106.438 60.7342 106.42 60.7488 106.407 60.7586C106.401 60.7635 106.396 60.7672 106.393 60.7696C106.392 60.7708 106.391 60.7717 106.39 60.7722C106.39 60.7725 106.389 60.7727 106.389 60.7728C106.389 60.7729 106.389 60.7729 106.389 60.7729C106.389 60.7729 106.389 60.7729 106.389 60.7729C106.389 60.7729 106.389 60.7729 106.136 60.4543C105.883 60.1357 105.883 60.1357 105.883 60.1357C105.883 60.1356 105.883 60.1356 105.883 60.1356C105.883 60.1355 105.883 60.1354 105.883 60.1353C105.884 60.1351 105.884 60.1347 105.885 60.1344C105.886 60.1336 105.887 60.1324 105.889 60.131C105.893 60.1281 105.898 60.1239 105.905 60.1185C105.918 60.1077 105.938 60.0921 105.964 60.0722C106.016 60.0323 106.09 59.9755 106.181 59.9065C106.365 59.7687 106.62 59.5818 106.906 59.3856C107.462 59.0054 108.195 58.5485 108.753 58.3891L108.865 58.7804ZM138.597 87.8486L138.418 87.4834C138.643 87.3724 138.915 87.1281 139.193 86.7535C139.466 86.3854 139.726 85.9195 139.94 85.4054C140.372 84.3655 140.588 83.1973 140.409 82.3022L140.808 82.2224L141.207 82.1426C141.43 83.2568 141.157 84.5985 140.692 85.7177C140.457 86.2832 140.165 86.8092 139.846 87.2389C139.532 87.6621 139.168 88.0215 138.777 88.2138L138.597 87.8486ZM138.597 87.8486L138.672 88.2485C138.188 88.3393 137.559 88.3824 136.85 88.414C136.115 88.4467 135.34 88.4656 134.446 88.5079C132.696 88.5907 130.721 88.7556 128.855 89.2468L128.751 88.8533L128.648 88.4598C130.599 87.9463 132.642 87.7785 134.408 87.695C135.272 87.6541 136.13 87.6314 136.814 87.601C137.524 87.5693 138.101 87.5276 138.522 87.4487L138.597 87.8486ZM128.751 88.8533L128.845 89.2492C125.037 90.151 120.723 91.3599 117.359 92.3443C115.677 92.8363 114.233 93.2719 113.21 93.5844C112.699 93.7407 112.293 93.8662 112.014 93.9526C111.875 93.9957 111.768 94.0292 111.696 94.0518C111.66 94.0631 111.632 94.0717 111.614 94.0774C111.605 94.0803 111.598 94.0825 111.593 94.0839C111.591 94.0847 111.589 94.0852 111.588 94.0856C111.587 94.0857 111.587 94.0859 111.587 94.086C111.586 94.086 111.586 94.086 111.586 94.0861C111.586 94.0861 111.586 94.0861 111.464 93.6979C111.342 93.3098 111.342 93.3098 111.342 93.3098C111.342 93.3097 111.342 93.3097 111.342 93.3096C111.343 93.3095 111.343 93.3094 111.344 93.3092C111.345 93.3088 111.347 93.3083 111.349 93.3075C111.354 93.306 111.361 93.3038 111.37 93.3009C111.389 93.2951 111.417 93.2864 111.453 93.275C111.526 93.2523 111.633 93.2187 111.773 93.1753C112.052 93.0886 112.46 92.9628 112.973 92.8061C113.998 92.4929 115.445 92.0563 117.13 91.5632C120.5 90.5774 124.829 89.364 128.657 88.4573L128.751 88.8533Z" fill="#002050"/>
<path d="M110.265 87.6484C110.265 87.6484 104.237 87.6484 99.0127 89.055" stroke="#002050" stroke-width="0.8138" stroke-linecap="round" stroke-linejoin="round"/>
<rect width="2.10752" height="4.36932" rx="0.934663" transform="matrix(0.00699017 0.999976 -0.999973 0.00741446 118.989 64.0596)" fill="#FF00DF"/>
<path fill-rule="evenodd" clip-rule="evenodd" d="M116.818 66.022L118.069 66.0127C118.585 66.0089 119 65.5873 118.997 65.0711L118.996 64.991C118.993 64.4748 118.571 64.0595 118.055 64.0633L116.804 64.0726L116.818 66.022Z" fill="white"/>
<path d="M116.819 66.1447L117.969 66.1362C118.54 66.1319 119 65.6653 118.996 65.094C118.992 64.5227 118.526 64.063 117.955 64.0672L116.804 64.0758M116.819 66.1447L115.669 66.1532C115.097 66.1574 114.631 65.6977 114.627 65.1264C114.623 64.5551 115.083 64.0885 115.654 64.0843L116.804 64.0758M116.819 66.1447L116.804 64.0758" stroke="#002050" stroke-width="0.61035"/>
<path d="M144.886 112.359L144.733 115.714L132.142 115.976L131.904 112.628L144.886 112.359Z" fill="white"/>
<path d="M144.734 115.716L143.995 132.15L133.297 132.37L132.142 115.978L144.734 115.716Z" fill="url(#paint0_linear_5418_6079)"/>
<path d="M142.767 132.519H134.383C133.525 132.519 132.815 131.852 132.759 130.996L131.765 115.612H145.027L144.393 130.958C144.357 131.83 143.64 132.519 142.767 132.519Z" fill="#99D9FF"/>
<path d="M133.294 132.368L131.904 112.628L144.883 112.359L143.995 132.148L133.294 132.368Z" stroke="#002050" stroke-width="0.8138" stroke-linecap="round" stroke-linejoin="round"/>
<path d="M148.741 120.366C149.336 120.773 150.166 120.79 150.736 120.79L167.732 118.86L165.723 116.179L179.989 107.539C180.903 108.96 181.745 110.007 182.655 111.45C186.645 117.777 190.121 123.141 186.645 127.615C183.169 132.089 180.294 132.302 173.82 131.929C163.846 131.353 157.441 131.651 151.456 131.651C147.639 131.651 145.629 132.847 142.615 133.134C141.445 133.246 140.32 133.259 138.395 133.259C136.542 133.259 135.127 133.134 132.562 132.847C131.78 132.759 131.137 132.272 131.137 131.409C131.137 130.546 131.639 129.956 132.562 129.971C131.689 129.957 130.838 129.108 130.852 128.245C130.866 127.382 131.404 126.506 132.277 126.52C131.387 126.505 130.559 125.944 130.559 124.794C130.559 123.644 131.313 123.004 132.204 123.018C131.281 123.003 130.544 122.236 130.559 121.304C130.574 120.373 131.319 119.89 132.243 119.905H134.257C134.257 119.905 144.262 119.941 144.946 118.791L145.036 117.202C145.891 117.202 146.704 118.3 147.154 118.86C147.604 119.419 148.146 119.959 148.741 120.366Z" fill="#A56249"/>
<path d="M160.868 110.023L167.698 119.063L160.142 119.737L161.147 126.827V131.388C164.198 131.625 169.32 131.911 173.821 132.169C180.294 132.539 184.009 131.851 186.645 127.89C189.635 122.608 185.396 116.178 182.655 111.867C181.745 110.436 180.829 108.999 179.915 107.589C176.182 101.831 172.497 96.5436 169.509 94.1259C167.111 92.1881 164.131 90.7625 159.856 89.0513L158.334 89.2522L157.731 89.855L160.868 110.023Z" fill="#FFECA6"/>
<path d="M171.683 118.561L167.698 119.063L150.84 120.973C150.271 120.973 149.442 120.956 148.848 120.553C148.254 120.15 147.712 119.616 147.263 119.063C146.814 118.509 146.002 117.138 145.148 116.854M167.698 119.063L160.868 110.023M132.189 123.242C131.266 123.228 130.54 122.743 130.559 121.564C130.574 120.64 131.32 119.838 132.243 119.853H134.257C134.257 119.853 142.012 120.799 144.624 118.991M132.189 123.242L134.242 123.275M132.189 123.242L134.257 123.275M132.189 123.242C131.299 123.228 130.559 123.846 130.559 124.987C130.559 126.127 131.387 126.684 132.278 126.698M134.272 129.835H132.562C131.689 129.821 130.838 128.979 130.852 128.124C130.866 127.268 131.404 126.684 132.278 126.698H134.272M132.562 129.835C131.639 129.82 131.137 130.405 131.137 131.261C131.137 132.117 131.797 132.673 132.562 132.856C134.242 133.257 136.216 133.458 138.797 133.458C141.379 133.458 143.896 132.972 145.036 132.687C147.801 131.995 148.914 131.689 152.731 131.689C158.716 131.689 163.846 131.598 173.82 132.169C180.294 132.539 184.008 131.851 186.645 127.891C189.635 122.608 185.396 116.178 182.655 111.867C181.745 110.436 180.829 108.999 179.915 107.589C176.182 101.831 172.497 96.5436 169.509 94.1259C167.111 92.1881 163.357 90.2569 159.941 89.2522L157.73 88.6494" stroke="#002050" stroke-width="0.8138" stroke-linecap="round" stroke-linejoin="round"/>
<path d="M160.945 131.651C161.347 127.833 160.945 122.607 159.74 119.795" stroke="#002050" stroke-width="0.8138"/>
<path d="M135.828 88.0464C135.962 91.2614 137.034 97.9727 140.249 99.9017C143.263 101.71 156.725 91.8642 158.534 88.6492" stroke="#002050" stroke-width="0.8138"/>
</g>
<defs>
<linearGradient id="paint0_linear_5418_6079" x1="138.438" y1="115.716" x2="138.438" y2="132.37" gradientUnits="userSpaceOnUse">
<stop stop-color="#20DFFF"/>
<stop offset="1" stop-color="#129DFF"/>
</linearGradient>
<clipPath id="clip0_5418_6079">
<rect width="285" height="160.312" fill="white"/>
</clipPath>
</defs>
</svg>
