<svg width="16" height="16" viewBox="0 0 16 16" fill="none" xmlns="http://www.w3.org/2000/svg">
<path fill-rule="evenodd" clip-rule="evenodd" d="M11.2179 8.78682C9.89759 8.93455 8.77045 9.62446 8.03238 10.6104C7.94048 10.7334 7.95986 10.9072 8.0767 11.0066C9.01429 11.8053 10.266 12.2293 11.5863 12.0817C12.9068 11.934 14.0338 11.2443 14.7718 10.2582C14.8639 10.1352 14.8444 9.96155 14.7275 9.86198C13.7901 9.06309 12.5385 8.63929 11.2179 8.78682Z" fill="#20DFFF"/>
<path fill-rule="evenodd" clip-rule="evenodd" d="M8.03229 10.6105C8.40238 10.1161 8.87032 9.69609 9.41135 9.38184C9.85875 9.82809 10.405 10.1897 11.0341 10.4286C12.2765 10.9 13.5942 10.8004 14.7008 10.26C14.752 10.235 14.7925 10.1968 14.8205 10.1514C14.8115 10.1892 14.7961 10.2254 14.7716 10.2582C14.0337 11.2444 12.9066 11.9341 11.5862 12.0818C10.2659 12.2293 9.01421 11.8055 8.07661 11.0067C7.95977 10.9073 7.9402 10.7336 8.03229 10.6105Z" fill="#1AB2CC"/>
<path fill-rule="evenodd" clip-rule="evenodd" d="M11.2179 8.78682C9.89759 8.93455 8.77045 9.62446 8.03238 10.6104C7.94048 10.7334 7.95986 10.9072 8.0767 11.0066C9.01429 11.8053 10.266 12.2293 11.5863 12.0817C12.9068 11.934 14.0338 11.2443 14.7718 10.2582C14.8639 10.1352 14.8444 9.96155 14.7275 9.86198C13.7901 9.06309 12.5385 8.63929 11.2179 8.78682Z" stroke="#002066" stroke-width="0.363185"/>
<path fill-rule="evenodd" clip-rule="evenodd" d="M9.19306 7.23773C8.25354 8.17705 7.80345 9.41969 7.8424 10.6506C7.8472 10.8043 7.97075 10.9277 8.12443 10.9327C9.35536 10.9714 10.5978 10.5215 11.5373 9.582C12.4768 8.64249 12.9267 7.40004 12.888 6.1691C12.883 6.01542 12.7596 5.89187 12.606 5.88707C11.375 5.84832 10.1324 6.29822 9.19306 7.23773Z" fill="#20DFFF"/>
<path fill-rule="evenodd" clip-rule="evenodd" d="M10.3113 8.8885C11.523 8.34344 12.3844 7.34158 12.785 6.17664C12.8132 6.09433 12.8013 6.00761 12.7607 5.93701C12.8351 5.98785 12.885 6.07227 12.8879 6.16858C12.9268 7.39952 12.4769 8.64216 11.5374 9.58148C10.5979 10.5212 9.35525 10.9709 8.12431 10.9321C7.97083 10.9273 7.84727 10.8038 7.84229 10.6503C7.8279 10.1885 7.882 9.72537 8.00498 9.27701C8.76933 9.34627 9.5613 9.22598 10.3113 8.8885Z" fill="#1AB2CC"/>
<path fill-rule="evenodd" clip-rule="evenodd" d="M9.19306 7.23773C8.25354 8.17705 7.80345 9.41969 7.8424 10.6506C7.8472 10.8043 7.97075 10.9277 8.12443 10.9327C9.35536 10.9714 10.5978 10.5215 11.5373 9.582C12.4768 8.64249 12.9267 7.40004 12.888 6.1691C12.883 6.01542 12.7596 5.89187 12.606 5.88707C11.375 5.84832 10.1324 6.29822 9.19306 7.23773Z" stroke="#002066" stroke-width="0.363185"/>
<path fill-rule="evenodd" clip-rule="evenodd" d="M4.87814 8.78682C6.17394 8.93455 7.28014 9.62446 8.00448 10.6104C8.09467 10.7334 8.07566 10.9072 7.96099 11.0066C7.04082 11.8053 5.81243 12.2293 4.51663 12.0817C3.22064 11.934 2.11464 11.2443 1.39029 10.2582C1.29991 10.1352 1.31912 9.96155 1.43378 9.86198C2.35376 9.06309 3.58216 8.63929 4.87814 8.78682Z" fill="#20DFFF"/>
<path fill-rule="evenodd" clip-rule="evenodd" d="M4.87814 8.78682C6.17394 8.93455 7.28014 9.62446 8.00448 10.6104C8.09467 10.7334 8.07566 10.9072 7.96099 11.0066C7.04082 11.8053 5.81243 12.2293 4.51663 12.0817C3.22064 11.934 2.11464 11.2443 1.39029 10.2582C1.29991 10.1352 1.31912 9.96155 1.43378 9.86198C2.35376 9.06309 3.58216 8.63929 4.87814 8.78682Z" stroke="#002066" stroke-width="0.363185"/>
<path fill-rule="evenodd" clip-rule="evenodd" d="M6.8426 7.23773C7.78212 8.17705 8.23221 9.41969 8.19326 10.6506C8.18846 10.8043 8.06491 10.9277 7.91123 10.9327C6.6803 10.9714 5.43784 10.5215 4.49833 9.582C3.55882 8.64249 3.10892 7.40004 3.14768 6.1691C3.15266 6.01542 3.27603 5.89187 3.4297 5.88707C4.66064 5.84832 5.90328 6.29822 6.8426 7.23773Z" fill="#20DFFF"/>
<path fill-rule="evenodd" clip-rule="evenodd" d="M6.8426 7.23773C7.78212 8.17705 8.23221 9.41969 8.19326 10.6506C8.18846 10.8043 8.06491 10.9277 7.91123 10.9327C6.6803 10.9714 5.43784 10.5215 4.49833 9.582C3.55882 8.64249 3.10892 7.40004 3.14768 6.1691C3.15266 6.01542 3.27603 5.89187 3.4297 5.88707C4.66064 5.84832 5.90328 6.29822 6.8426 7.23773Z" stroke="#002066" stroke-width="0.363185"/>
<path fill-rule="evenodd" clip-rule="evenodd" d="M6.24016 7.44729C6.24016 8.77589 6.80057 9.97267 7.69845 10.8157C7.81049 10.9206 7.98527 10.9206 8.09732 10.8157C8.9952 9.97267 9.5556 8.77589 9.5556 7.44729C9.5556 6.11851 8.9952 4.92191 8.09732 4.07871C7.98527 3.97376 7.81049 3.97376 7.69845 4.07871C6.80057 4.92191 6.24016 6.11851 6.24016 7.44729Z" fill="#20DFFF"/>
<path fill-rule="evenodd" clip-rule="evenodd" d="M6.24016 7.44729C6.24016 8.77589 6.80057 9.97267 7.69845 10.8157C7.81049 10.9206 7.98527 10.9206 8.09732 10.8157C8.9952 9.97267 9.5556 8.77589 9.5556 7.44729C9.5556 6.11851 8.9952 4.92191 8.09732 4.07871C7.98527 3.97376 7.81049 3.97376 7.69845 4.07871C6.80057 4.92191 6.24016 6.11851 6.24016 7.44729Z" stroke="#002066" stroke-width="0.363185"/>
<path d="M7.3231 8.18864C7.10756 7.46925 7.19794 6.86116 7.39818 6.39355" stroke="white" stroke-width="0.544777" stroke-linecap="round" stroke-linejoin="round"/>
</svg>
