<svg width="285" height="161" viewBox="0 0 285 161" fill="none" xmlns="http://www.w3.org/2000/svg">
<g clip-path="url(#clip0_5418_6177)">
<rect width="285" height="160.312" fill="#FFCCF9"/>
<path d="M198.973 106.172C200.725 81.4027 178.614 85.0486 167.282 74.762C154.282 62.9633 150.388 41.0587 122.842 41.3107C97.9598 41.5418 81.1292 68.1801 85.9427 101.283C94.3266 158.94 194.899 163.825 198.973 106.172Z" fill="#FF99F2"/>
<path d="M186.482 109.67C188.132 109.274 189.828 111.143 189.779 111.543C189.667 112.439 187.085 112.715 186.272 113.685C182.633 118.025 179.848 117.934 173.948 120.975H173.944L167.29 113.949C167.888 112.827 168.507 111.713 169.134 110.611C169.468 110.025 169.831 109.415 170.417 109.076C170.986 108.742 171.692 108.722 172.339 108.854C172.987 108.981 173.598 109.246 174.225 109.46C176.271 110.157 178.474 110.289 180.628 110.112C182.781 109.934 184.382 110.178 186.482 109.67Z" fill="#CFA891"/>
<path d="M133.434 115.141C130.501 110.326 129.816 105.763 129.931 101.217C129.981 99.3315 130.224 97.4502 130.662 95.6143H138.624C138.946 95.9237 139.264 96.2331 139.585 96.5425C140.93 97.8339 142.292 99.1417 143.913 100.062C145.539 100.978 147.532 101.65 149.471 101.015C151.843 100.239 153.196 97.7885 154.454 95.6143H158.572C158.333 95.9649 158.085 96.3156 157.833 96.6622C160.049 98.5971 162.174 100.734 163.151 103.486C163.857 105.483 163.898 107.649 163.853 109.769C163.828 111.098 163.733 113.152 163.089 116.428C164.422 115.615 165.783 114.766 167.199 113.854L167.289 113.949L173.944 120.975H173.948L174.683 121.75C168.201 128.525 162.582 135.155 156.253 141.908C155.63 142.577 154.995 143.249 154.351 143.922C153.064 145.143 151.525 146.496 149.681 147.276C147.833 148.056 145.617 148.188 143.884 147.177C142.23 146.211 141.289 144.4 140.477 142.663C138.014 137.382 135.98 131.92 134.024 126.429C133.673 124.189 133.434 122.295 133.364 120.917C133.265 118.999 133.281 117.064 133.434 115.141Z" fill="#FF66EC"/>
<path d="M171.192 70.2209C173.898 79.0457 168.118 83.1136 164.995 83.2827C166.167 79.4087 166.517 75.2583 165.523 71.3513C164.384 66.875 161.315 62.7782 157.041 61.0248C155.725 60.4884 154.244 60.1212 153.332 59.0279C152.057 57.5014 152.441 55.1704 153.377 53.417C154.198 51.8782 155.382 50.5373 156.166 48.9902C156.364 48.9036 156.554 48.8004 156.74 48.689C157.684 48.1073 158.427 47.1873 158.811 46.127C159.116 45.2812 159.194 44.3364 158.934 43.4742C158.675 42.6119 158.06 41.8528 157.247 41.5269C155.395 40.7884 153.947 42.2612 153.365 43.0822C152.119 41.2216 151.533 38.9194 151.781 36.5142C148.905 35.4333 146.45 33.2838 144.981 30.5897C146.351 29.6573 147.923 29.0467 149.528 28.9106C152.515 28.7497 155.576 29.3355 158.171 30.8166C160.766 32.3019 162.866 34.7236 163.724 37.5869C164.45 40.0004 164.232 42.5789 164.455 45.0914C165.474 56.5814 169.773 65.5836 171.192 70.2209Z" fill="#4C6284"/>
<path d="M145.007 37.4995C146.517 37.4995 147.742 38.5392 147.742 39.8223C147.742 41.1053 146.517 42.1409 145.007 42.1409C144.64 42.1409 144.289 42.079 143.971 41.9676C144.116 41.3529 144.124 40.7134 143.996 40.0946C143.852 39.3932 143.53 38.7331 143.072 38.1844C143.567 37.7594 144.248 37.4995 145.007 37.4995Z" fill="#001033"/>
<path d="M144.635 180.64C144.664 177.661 144.041 174.67 143.414 171.737C142.502 167.479 141.586 163.226 140.67 158.972C138.851 150.506 135.468 135.596 134.024 126.429C135.979 131.92 138.013 137.382 140.476 142.663C141.289 144.4 142.23 146.211 143.884 147.177C145.617 148.187 147.833 148.055 149.681 147.276C151.525 146.496 153.064 145.143 154.351 143.922C154.995 143.249 155.63 142.577 156.253 141.908C158.242 145.576 159.186 149.594 159.228 153.844C159.269 158.778 158.357 163.663 157.388 168.502C156.579 172.525 155.729 176.56 155.354 180.64H144.635Z" fill="#FF33E5"/>
<path d="M143.996 40.0943C144.124 40.7131 144.115 41.3526 143.971 41.9673C142.977 41.6249 142.275 40.7915 142.275 39.822C142.275 39.1784 142.581 38.6049 143.072 38.1841C143.53 38.7328 143.851 39.3929 143.996 40.0943Z" fill="#001033"/>
<path d="M164.995 83.2819C164.826 83.8471 164.636 84.404 164.434 84.9528C163.027 88.769 160.907 92.2758 158.576 95.6135H154.454C153.196 97.7877 151.842 100.238 149.47 101.014C147.531 101.649 145.538 100.977 143.913 100.061C142.292 99.1409 140.93 97.8331 139.585 96.5417C139.263 96.2323 138.946 95.9229 138.624 95.6135C136.689 93.7487 134.754 91.8839 132.819 90.0191C132.765 89.9984 132.708 89.9778 132.654 89.9572C132.654 89.6293 129.867 83.8736 126.659 78.4961C125.83 75.3125 126.659 74.0066 128.66 71.9652C128.924 71.763 129.201 71.5691 129.477 71.3834C129.708 71.2267 129.939 71.074 130.17 70.9255C137.739 66.0799 137.977 65.9494 144.755 61.7541C144.755 59.5675 144.767 57.3727 144.771 55.182C143.946 55.0417 143.125 54.8725 142.337 54.5961C141.268 54.2248 140.245 53.6431 139.519 52.7726C138.785 51.8938 138.389 50.7675 138.215 49.6329C138.153 49.2245 138.12 48.8119 138.1 48.4035C138.063 47.6691 138.079 46.9389 138.083 46.2251C137.683 45.7466 137.295 45.2474 137.035 44.6821C136.775 44.1128 136.656 43.4609 136.813 42.8586C136.994 42.1737 137.502 41.625 138.046 41.1712C138.591 40.7174 139.189 40.3254 139.738 39.6076C140.097 37.0084 141.12 34.4752 142.84 32.4949C143.467 31.7729 144.193 31.1252 144.986 30.5889C146.454 33.2829 148.909 35.4324 151.785 36.5133C151.537 38.9186 152.123 41.2207 153.369 43.0814C153.951 42.2604 155.399 40.7875 157.251 41.526C158.064 41.8519 158.679 42.6111 158.939 43.4733C159.198 44.3356 159.12 45.2804 158.815 46.1261C158.431 47.1864 157.688 48.1064 156.744 48.6882C156.558 48.7996 156.368 48.9027 156.17 48.9893C155.386 50.5365 154.202 51.8773 153.381 53.4162C152.445 55.1696 152.061 57.5006 153.336 59.0271C154.248 60.1204 155.729 60.4876 157.045 61.0239C161.319 62.7773 164.389 66.8741 165.527 71.3504C166.522 75.2574 166.171 79.4079 164.999 83.2819H164.995Z" fill="#CFA891"/>
<path d="M156.372 61.2858C152.89 64.865 146.312 67.7187 140.701 64.1395C138.234 65.6228 132.633 69.0633 129.964 70.9593C126.626 73.3293 126.143 74.5385 126.143 76.9569C126.143 78.8916 127.948 80.6328 128.851 81.2616L144.425 87.1141L145.151 79.5687L159.371 86.3886L153.857 95.5784H158.549L163.531 87.8396C164.885 84.0024 167.071 74.9738 164.982 69.5567C161.644 61.8179 156.13 61.044 156.372 61.2858Z" fill="#FFF5D2"/>
<path d="M132.815 90.0192C134.75 91.884 136.685 93.7488 138.62 95.6136H130.661C131.115 93.6663 131.783 91.7685 132.65 89.9614C132.703 89.9779 132.761 89.9986 132.815 90.0192Z" fill="#FFCCF9"/>
<path d="M147.742 39.8228C147.742 41.1058 146.517 42.1414 145.011 42.1455C143.505 42.1496 142.275 41.1058 142.275 39.8228" stroke="#001033" stroke-width="0.807323" stroke-linecap="round" stroke-linejoin="round"/>
<path d="M143.427 35.6186C144.677 34.9832 146.257 35.041 147.453 35.7754" stroke="#001033" stroke-width="0.807323" stroke-linecap="round" stroke-linejoin="round"/>
<path d="M145.65 55.3223C144.532 55.1449 143.406 54.9675 142.333 54.5962C141.26 54.2249 140.241 53.6391 139.515 52.7727C138.777 51.8939 138.385 50.7676 138.212 49.6289C138.038 48.4902 138.075 47.3392 138.079 46.2211C137.679 45.7425 137.287 45.2475 137.027 44.6781C136.768 44.1088 136.648 43.461 136.809 42.8546C136.986 42.1697 137.498 41.621 138.038 41.1672C138.579 40.7134 139.181 40.3214 139.73 39.6036C140.089 37.0044 141.112 34.4712 142.832 32.4909C144.553 30.5106 146.995 29.1202 149.528 28.9057C152.515 28.7448 155.572 29.3306 158.171 30.8118C160.767 32.297 162.866 34.7188 163.725 37.582C164.447 39.9955 164.232 42.574 164.455 45.0824C165.474 56.5765 169.773 65.5746 171.192 70.2119C173.899 79.0325 168.118 83.1046 164.995 83.2737" stroke="#001033" stroke-width="0.807323" stroke-linecap="round" stroke-linejoin="round"/>
<path d="M138.096 48.4045C139.111 48.4622 140.138 48.1858 140.984 47.6206" stroke="#001033" stroke-width="0.807323" stroke-linecap="round" stroke-linejoin="round"/>
<path d="M153.212 43.3124C153.654 42.5822 155.205 40.7133 157.247 41.526C158.06 41.8519 158.679 42.6111 158.939 43.4733C159.199 44.3356 159.12 45.2804 158.815 46.1261C158.431 47.1864 157.689 48.1065 156.744 48.684C155.799 49.2616 154.665 49.5009 153.58 49.34" stroke="#001033" stroke-width="0.807323" stroke-linecap="round" stroke-linejoin="round"/>
<path d="M153.365 43.0814C152.119 41.2207 151.533 38.9186 151.781 36.5133C148.905 35.4324 146.45 33.2829 144.981 30.5889" stroke="#001033" stroke-width="0.807323" stroke-linecap="round" stroke-linejoin="round"/>
<path d="M132.43 69.4601C134.299 68.2925 142.873 62.9141 144.75 61.7507V61.7631C144.755 59.5682 144.763 57.3733 144.767 55.1826" stroke="#001033" stroke-width="0.807323" stroke-linecap="round" stroke-linejoin="round"/>
<path d="M128.694 81.1781C127.716 80.3489 126.907 79.2927 126.495 78.0797C126.082 76.8668 126.082 75.493 126.614 74.3254C127.307 72.8154 128.768 71.8294 130.166 70.93C130.946 70.4266 131.726 69.9274 132.506 69.4282" stroke="#001033" stroke-width="0.807323" stroke-linecap="round" stroke-linejoin="round"/>
<path d="M130.657 95.6143H138.624" stroke="#001033" stroke-width="0.807323" stroke-linecap="round" stroke-linejoin="round"/>
<path d="M154.454 95.6143H158.576" stroke="#001033" stroke-width="0.807323" stroke-linecap="round" stroke-linejoin="round"/>
<path d="M133.438 115.136C130.505 110.322 129.82 105.759 129.935 101.216C130.034 97.3301 130.971 93.4643 132.654 89.9575" stroke="#001033" stroke-width="0.807323" stroke-linecap="round" stroke-linejoin="round"/>
<path d="M157.833 96.6577C160.044 98.5927 162.173 100.73 163.147 103.482C163.856 105.478 163.894 107.648 163.852 109.769C163.823 111.098 163.733 113.152 163.085 116.432" stroke="#001033" stroke-width="0.807323" stroke-linecap="round" stroke-linejoin="round"/>
<path d="M144.716 180.899C144.716 178.432 144.214 175.483 143.414 171.733C142.506 167.479 141.59 163.225 140.675 158.968C138.405 148.435 133.723 127.93 133.364 120.913C133.021 114.208 134.078 107.273 137.523 101.514" stroke="#001033" stroke-width="0.807323" stroke-linecap="round" stroke-linejoin="round"/>
<path d="M155.211 180.463C156.388 175.675 158.8 164.299 159.032 157.102C159.265 149.905 157.485 144.204 156.566 142.253" stroke="#001033" stroke-width="0.807323"/>
<path d="M149.004 124.452C155.618 120.838 160.862 117.937 167.195 113.853L174.678 121.75C167.553 129.2 161.472 136.47 154.347 143.921C153.06 145.146 151.521 146.495 149.677 147.275C147.833 148.055 145.613 148.187 143.884 147.176C142.23 146.211 141.285 144.399 140.477 142.663C138.01 137.382 135.971 131.911 134.02 126.416" stroke="#001033" stroke-width="0.807323" stroke-linecap="round" stroke-linejoin="round"/>
<path d="M167.29 113.948C167.888 112.826 168.502 111.712 169.134 110.606C169.468 110.02 169.831 109.41 170.413 109.072C170.982 108.741 171.692 108.721 172.339 108.849C172.987 108.977 173.598 109.245 174.225 109.455C176.271 110.152 178.474 110.284 180.628 110.107C182.781 109.93 184.382 110.173 186.482 109.666C188.132 109.27 189.828 111.138 189.779 111.539C189.667 112.434 187.089 112.71 186.276 113.68C182.637 118.02 179.852 117.929 173.948 120.97" stroke="#001033" stroke-width="0.807323" stroke-linecap="round" stroke-linejoin="round"/>
<path d="M144.039 92.0199C144.265 83.9543 147.199 67.2866 155.079 66.9937" stroke="#001033" stroke-width="0.807323" stroke-linecap="round" stroke-linejoin="round"/>
<path d="M156.167 48.9863C155.387 50.5376 154.203 51.8743 153.378 53.4132C152.441 55.1666 152.057 57.4976 153.332 59.0241C154.244 60.1174 155.729 60.4846 157.041 61.0209C161.315 62.7702 164.381 66.867 165.52 71.3433C166.658 75.8197 166.031 80.6137 164.434 84.9498C162.838 89.2858 160.313 93.2135 157.611 96.9637" stroke="#001033" stroke-width="0.807323" stroke-linecap="round" stroke-linejoin="round"/>
<path d="M140.366 64.0147C146.369 66.2616 151.299 65.4011 156.618 60.9072" stroke="#001033" stroke-width="0.807323"/>
<path d="M118.114 70.486C118.673 71.2699 118.273 70.4485 116.817 71.218C116.391 71.4428 117.103 71.976 117.022 72.0567C116.423 72.0567 115.567 72.3651 115.702 72.8867C115.734 73.0164 115.861 73.172 116.129 73.5208C116.039 73.6101 114.512 73.6562 115.325 74.8551C120.628 81.6002 121.257 81.3101 124.546 84.8893C125.082 85.6678 132.43 92.7248 141.765 99.0126C146.602 99.7381 145.632 94.5393 149.007 92.1155C144.338 88.1268 139.98 84.3514 133.248 79.573C129.847 77.1579 131.34 78.8583 131.121 75.3941C130.971 73.0078 129.85 72.2844 128.441 71.1402C126.786 69.7972 126.645 69.2352 126.112 69.2554C124.988 69.2957 125.412 71.3275 125.893 72.3852C126.587 73.8925 126.536 73.6332 126.224 73.4833C123.397 71.9587 124.717 72.8003 122.331 70.8981C119.697 68.777 117.777 69.9413 118.114 70.486Z" fill="#CFA891"/>
<path d="M127.671 74.4571C126.241 73.1487 126.019 73.8605 122.33 70.8978C121.068 69.8834 119.443 69.1398 118.16 70.1283C117.512 70.6269 121.621 74.5926 122.665 75.4629" stroke="#001033" stroke-width="0.807323" stroke-linecap="round" stroke-linejoin="round"/>
<path d="M118.371 70.8459C117.716 70.843 116.734 71.1341 116.673 71.356C116.607 71.601 118.437 74.5781 121.094 76.8145" stroke="#001033" stroke-width="0.807323" stroke-linecap="round" stroke-linejoin="round"/>
<path d="M117.022 72.0572C116.388 72.0572 115.572 72.3771 115.702 72.8872C115.8 73.2677 118.402 76.4292 119.748 77.9077" stroke="#001033" stroke-width="0.807323" stroke-linecap="round" stroke-linejoin="round"/>
<path d="M116.128 73.5203C115.791 73.5923 115.238 73.7479 115.108 74.0679C114.808 74.8172 118.352 78.7957 119.226 79.6171C123.821 84.4055 145.909 108.783 152.406 98.7706C155.356 94.2241 157.678 89.8226 160.58 84.212M145.828 79.7622L159.371 86.7755" stroke="#001033" stroke-width="0.807323" stroke-linecap="round" stroke-linejoin="round"/>
<path d="M126.449 73.6046C126.005 72.4864 125.207 71.3422 125.409 70.0914C125.53 69.3363 126.072 68.8752 126.879 69.7052C129.816 72.74 131.646 72.2299 130.98 77.991C136.838 81.982 143.48 87.3405 148.141 91.3221" stroke="#001033" stroke-width="0.807323" stroke-linecap="round" stroke-linejoin="round"/>
</g>
<defs>
<clipPath id="clip0_5418_6177">
<rect width="285" height="160.312" fill="white"/>
</clipPath>
</defs>
</svg>
