<svg width="285" height="161" viewBox="0 0 285 161" fill="none" xmlns="http://www.w3.org/2000/svg">
<g clip-path="url(#clip0_5418_6233)">
<rect width="285" height="160.312" fill="#CCECFF"/>
<path d="M188.587 125.146C205.421 115.427 214.389 89.5728 199.098 63.0883C185.69 39.8644 148.355 37.6539 123.809 51.8256C99.2626 65.9973 84.899 91.5349 82.0266 102.613C79.1542 113.691 80.747 121.466 84.9802 128.296C92.9363 142.107 103.144 146.212 118.379 136.982C133.613 127.752 136.374 126.013 147.967 126.276C159.559 126.539 174.576 133.235 188.587 125.146Z" fill="#99D9FF"/>
<path d="M132.645 77.6498C133.3 82.3038 132.69 87.1328 130.89 91.4719C129.23 92.9866 127.151 94.3563 124.936 95.831C122.892 94.4363 121.217 92.5117 120.112 90.2971C119.018 88.1026 118.483 85.6281 118.583 83.1686C122.422 79.6544 126.746 76.65 131.335 74.2705C132.23 75.3103 132.485 76.49 132.645 77.6498Z" fill="white" stroke="black" stroke-width="0.78253" stroke-linecap="round" stroke-linejoin="round"/>
<path d="M119.453 119.636C119.438 120.151 119.293 120.695 118.953 121.285C118.728 121.675 118.363 121.98 117.983 122.22C117.598 122.46 117.113 122.575 116.688 122.415C116.629 122.39 116.564 122.36 116.504 122.325C115.989 122.925 115.284 123.33 114.564 123.295C114.339 123.285 114.114 123.19 113.884 123.04C113.359 123.41 112.774 123.48 112.639 123.475C112.329 123.46 112.084 123.395 111.86 123.245C111.665 123.435 111.435 123.6 111.18 123.695C110.755 123.855 110.215 123.79 109.93 123.365C109.02 122.415 108.2 121.385 107.47 120.301C106.701 119.156 106.056 117.686 106.641 116.446C107.81 113.967 108.82 112.342 110.56 109.983C110.56 105.994 110.58 99.6599 111.17 94.351C111.43 91.9765 112.389 89.732 113.949 87.9273C115.389 86.2527 116.938 84.668 118.578 83.1733C118.478 85.6278 119.013 88.1023 120.108 90.3018C121.213 92.5114 122.892 94.441 124.932 95.8357C123.727 96.6355 122.477 97.4703 121.238 98.3801C121.238 103.314 120.068 106.933 119.433 110.138C120.998 111.077 121.772 112.922 122.047 114.047C122.267 114.947 122.032 115.881 121.802 116.776C121.622 117.466 121.432 118.181 121.008 118.761C120.638 119.261 120.058 119.651 119.448 119.651L119.453 119.636Z" fill="#FFC2A5" stroke="black" stroke-width="0.78253" stroke-linecap="round" stroke-linejoin="round"/>
<path d="M122.06 114.032C122.28 114.927 122.045 115.867 121.815 116.757C121.635 117.452 121.445 118.161 121.025 118.741" stroke="black" stroke-width="0.78253" stroke-linecap="round" stroke-linejoin="round"/>
<path d="M119.326 110.743C119.92 107.388 121.245 103.624 121.245 98.3703C124.759 95.7958 128.329 93.8063 130.893 91.4718C132.693 87.1277 133.303 82.3037 132.648 77.6497C132.483 76.4949 132.228 75.3102 131.338 74.2754C124.794 77.6747 118.786 82.3337 113.957 87.9275C112.397 89.7321 111.442 91.9817 111.177 94.3512C110.567 99.85 110.567 106.444 110.567 110.398" stroke="black" stroke-width="0.78253" stroke-linecap="round" stroke-linejoin="round"/>
<path d="M118.375 116.091C119.085 117.946 120.085 119.331 118.955 121.285C118.73 121.675 118.365 121.985 117.986 122.225C117.606 122.465 117.116 122.585 116.691 122.42C116.396 122.305 116.166 122.075 115.956 121.84C115.196 120.985 114.581 119.995 114.151 118.936" stroke="black" stroke-width="0.78253" stroke-linecap="round" stroke-linejoin="round"/>
<path d="M118.971 117.251C119.586 116.746 119.481 116.112 119.201 115.367" stroke="black" stroke-width="0.78253" stroke-linecap="round" stroke-linejoin="round"/>
<path d="M111.717 119.98C112.182 121.08 113.436 123.24 114.566 123.295" stroke="black" stroke-width="0.78253" stroke-linecap="round" stroke-linejoin="round"/>
<path d="M112.647 123.475C112.062 123.445 111.727 123.24 111.257 122.64C110.787 122.04 109.482 120.25 109.482 120.25" stroke="black" stroke-width="0.78253" stroke-linecap="round" stroke-linejoin="round"/>
<path d="M111.192 123.695C110.767 123.855 110.227 123.795 109.942 123.365C109.038 122.415 108.213 121.391 107.483 120.301C106.713 119.156 106.073 117.686 106.653 116.452" stroke="black" stroke-width="0.78253" stroke-linecap="round" stroke-linejoin="round"/>
<path d="M147.293 141.016C147.193 141.701 147.093 142.406 146.988 143.131C140.834 141.881 135.03 138.917 130.416 134.643C129.996 126.424 130.461 118.116 132.406 110.168C137.155 113.472 143.484 115.252 149.607 115.087C155.706 114.922 162.969 113.082 166.959 108.013C170.513 113.257 172.517 119.556 173.042 125.889C173.302 129.019 173.157 132.193 172.717 135.352C168.088 136.907 163.419 138.337 158.715 139.627C154.986 140.646 151.092 141.586 147.293 141.016Z" fill="#009FFF"/>
<path d="M146.987 143.131C147.092 142.406 147.192 141.701 147.292 141.016C151.092 141.586 154.986 140.646 158.715 139.627C163.419 138.337 168.088 136.907 172.717 135.353C172.002 140.451 170.527 145.505 168.773 150.254C164.179 162.667 150.682 198.824 150.682 198.824C150.682 198.824 139.339 196.01 139.449 195.215C140.244 189.641 141.594 180.333 143.033 170.415C143.608 166.466 144.193 162.422 144.768 158.478C145.563 152.994 146.333 147.7 146.987 143.131Z" fill="#FFC2A5" stroke="black" stroke-width="0.78253" stroke-linecap="round" stroke-linejoin="round"/>
<path d="M163.489 103.754C164.778 105.069 165.933 106.499 166.958 108.013C162.969 113.082 155.705 114.922 149.607 115.087C143.483 115.252 137.154 113.472 132.405 110.168C132.975 107.818 133.675 105.504 134.52 103.234L163.489 103.754Z" fill="#FFC2A5" stroke="black" stroke-width="0.78253" stroke-linecap="round" stroke-linejoin="round"/>
<path d="M146.988 143.131C146.333 147.7 145.563 152.994 144.768 158.478C140.469 157.918 136.595 156.443 134.246 152.754C131.851 149 131.066 143.171 130.691 138.732C130.576 137.372 130.481 136.013 130.417 134.643C135.031 138.917 140.834 141.882 146.988 143.131Z" fill="#FFC2A5" stroke="black" stroke-width="0.78253" stroke-linecap="round" stroke-linejoin="round"/>
<path d="M134.245 152.754C131.85 149 131.071 143.171 130.691 138.732C129.676 126.774 130.341 114.482 134.52 103.234L163.489 103.754C169.228 109.608 172.362 117.716 173.042 125.89C173.722 134.063 171.617 142.561 168.773 150.249C164.179 162.662 150.677 198.819 150.677 198.819C150.677 198.819 139.334 196.005 139.449 195.21C140.244 189.631 141.593 180.328 143.033 170.41C144.933 157.338 146.987 143.201 148.132 135.168" stroke="black" stroke-width="0.78253" stroke-linecap="round" stroke-linejoin="round"/>
<path d="M140.138 132.298C142.158 134.388 144.877 135.788 147.777 136.332C149.896 135.088 152.021 133.838 155.715 132.618" stroke="black" stroke-width="0.78253" stroke-linecap="round" stroke-linejoin="round"/>
<path d="M140.614 128.914C142.368 131.738 144.933 133.973 148.127 134.903C152.176 131.298 154.976 129.114 158.515 126.564" stroke="black" stroke-width="0.78253" stroke-linecap="round" stroke-linejoin="round"/>
<path d="M148.047 109.218L147.997 110.543" stroke="black" stroke-width="0.78253" stroke-linecap="round" stroke-linejoin="round"/>
<path d="M133.928 104.379C130.583 96.4008 128.154 87.8976 127.769 79.2545C127.304 68.2618 169.55 66.6621 170.635 80.8841C169.97 89.1124 167.905 97.2307 164.546 104.774C154.213 108.893 144.011 108.708 133.933 104.384L133.928 104.379Z" fill="white" stroke="black" stroke-width="0.78253" stroke-linecap="round" stroke-linejoin="round"/>
<path d="M164.769 86.6323C164.624 86.7173 164.494 86.8272 164.379 86.9472C164.164 86.8522 163.944 86.7873 163.714 86.7523C163.115 82.5581 164.054 78.1491 166.329 74.5698C169.878 76.0995 175.592 82.7331 180.721 91.3313C179.146 92.636 176.357 93.8808 175.847 93.8808C174.957 90.9764 172.493 87.887 171.843 87.4371C170.493 86.4973 168.763 86.3773 167.124 86.2924C166.319 86.2474 165.459 86.2174 164.769 86.6323Z" fill="white" stroke="black" stroke-width="0.78253" stroke-linecap="round" stroke-linejoin="round"/>
<path d="M185.44 114.177C184.391 115.621 181.781 116.176 180.156 115.741C178.532 115.301 177.157 114.217 175.947 113.047C172.938 110.142 170.653 106.588 168.529 102.984C167.509 102.859 166.499 102.494 165.579 102.064C163.32 101.009 161 99.4497 160.706 98.4999C160.556 98.02 160.601 97.4801 160.835 97.0352C161.065 96.5903 161.475 96.2354 161.955 96.0804L161.995 96.0104C161.96 95.9904 161.92 95.9654 161.885 95.9454C161.52 95.5005 161.405 94.8157 161.57 94.2258C161.64 93.9608 161.765 93.7109 161.92 93.4859C161.055 93.316 160.386 92.6361 160.246 92.2062C160.925 90.4466 161.6 87.2573 162.515 86.8773C162.895 86.7224 163.31 86.6874 163.715 86.7524C163.945 86.7873 164.165 86.8523 164.38 86.9473C164.495 86.8273 164.625 86.7174 164.77 86.6324C165.46 86.2175 166.319 86.2475 167.124 86.2925C168.764 86.3774 170.493 86.4974 171.843 87.4372C172.493 87.8871 174.958 90.9765 175.847 93.8809C176.357 93.8809 179.147 92.6361 180.721 91.3314C182.376 94.1008 183.966 97.0702 185.405 100.145C187.045 103.644 188.015 110.652 185.44 114.177Z" fill="#FFC2A5" stroke="black" stroke-width="0.78253" stroke-linecap="round" stroke-linejoin="round"/>
<path d="M168.464 90.0965L164.93 89.4916C164.635 89.4417 164.32 89.3817 164.1 89.1767C163.865 88.9568 163.785 88.6168 163.8 88.2969C163.82 87.627 164.2 86.9822 164.775 86.6322C165.465 86.2173 166.325 86.2473 167.129 86.2873C168.769 86.3773 170.499 86.4973 171.848 87.4321C172.768 88.0719 177.287 93.9457 175.928 97.15" stroke="black" stroke-width="0.78253" stroke-linecap="round" stroke-linejoin="round"/>
<path d="M167.155 94.2408C166.02 93.9509 165.01 93.656 163.905 93.261C163.2 93.0111 162.251 92.2363 162.566 90.8815C162.785 89.9217 163.6 89.2369 164.765 89.4568" stroke="black" stroke-width="0.78253" stroke-linecap="round" stroke-linejoin="round"/>
<path d="M162.63 92.7559C162.14 93.1258 161.73 93.6307 161.57 94.2256C161.41 94.8204 161.52 95.5003 161.89 95.9502C163.22 96.74 164.59 97.4699 165.989 98.1347" stroke="black" stroke-width="0.78253" stroke-linecap="round" stroke-linejoin="round"/>
<path d="M170.954 102.729C169.204 103.418 167.239 102.844 165.58 102.069C163.32 101.009 160.996 99.4542 160.701 98.5044C160.551 98.0245 160.601 97.4847 160.831 97.0398C161.061 96.5949 161.471 96.2399 161.95 96.085" stroke="black" stroke-width="0.78253" stroke-linecap="round" stroke-linejoin="round"/>
<path d="M160.246 92.2014C160.925 90.4468 161.6 87.2575 162.515 86.8726" stroke="black" stroke-width="0.78253" stroke-linecap="round" stroke-linejoin="round"/>
<path d="M175.947 113.047C177.157 114.217 178.532 115.301 180.156 115.736C181.781 116.171 184.385 115.616 185.44 114.177C188.015 110.652 187.045 103.644 185.405 100.14C179.496 87.5322 171.018 76.5845 166.329 74.5649C163.905 78.3791 163 83.1331 163.85 87.5722" stroke="black" stroke-width="0.78253" stroke-linecap="round" stroke-linejoin="round"/>
<path d="M176.057 95.7754C178.972 96.7802 180.766 98.1449 182.926 100.354" stroke="black" stroke-width="0.78253" stroke-linecap="round" stroke-linejoin="round"/>
<path d="M175.847 93.881C176.357 93.881 179.146 92.6363 180.721 91.3315" stroke="black" stroke-width="0.78253" stroke-linecap="round" stroke-linejoin="round"/>
<path d="M148.197 78.7553C142.879 78.7553 140.739 75.631 139.529 73.1065C140.379 69.8672 141.199 66.8529 142.014 63.8335H154.251C155.066 66.8529 155.881 69.8722 156.736 73.1065C155.531 75.631 153.386 78.7553 148.067 78.7553" fill="#FFC2A5"/>
<path d="M148.197 78.7553C142.879 78.7553 140.739 75.631 139.529 73.1065C140.379 69.8672 141.199 66.8529 142.014 63.8335H154.251C155.066 66.8529 155.881 69.8722 156.736 73.1065C155.531 75.631 153.386 78.7553 148.067 78.7553" stroke="black" stroke-width="0.78253" stroke-linecap="round" stroke-linejoin="round"/>
<path d="M120.08 45.952C120.08 45.952 125.119 48.6614 128.103 46.012C131.687 42.8277 134.577 31.95 145.019 31.92C150.568 31.905 155.747 34.8844 155.382 41.113L139.196 56.7097C129.893 59.2242 122.154 55.8899 120.08 45.957V45.952Z" fill="#41181A" stroke="black" stroke-width="0.78253" stroke-linecap="round" stroke-linejoin="round"/>
<path d="M147.613 44.7172C150.126 44.7172 152.163 42.6805 152.163 40.1682C152.163 37.6558 150.126 35.6191 147.613 35.6191C145.101 35.6191 143.064 37.6558 143.064 40.1682C143.064 42.6805 145.101 44.7172 147.613 44.7172Z" fill="#009FFF" stroke="black" stroke-width="0.78253" stroke-linecap="round" stroke-linejoin="round"/>
<path d="M158.406 61.0786C158.731 61.1836 159.081 61.1136 159.401 60.9986C160.486 60.6137 161.371 59.7539 161.915 58.7391C162.46 57.7243 162.7 56.5645 162.75 55.4098C162.78 54.7199 162.74 54.0051 162.435 53.3852C162.13 52.7653 161.501 52.2655 160.811 52.2904C160.321 52.3054 159.866 52.5804 159.536 52.9453C159.206 53.3102 158.991 53.7601 158.806 54.215C157.911 56.3896 157.621 58.8541 158.406 61.0786Z" fill="#FFC2A5" stroke="black" stroke-width="0.78253" stroke-linecap="round" stroke-linejoin="round"/>
<path d="M137.66 61.0786C137.335 61.1836 136.985 61.1136 136.665 60.9986C135.58 60.6137 134.696 59.7539 134.151 58.7391C133.606 57.7243 133.366 56.5645 133.316 55.4098C133.286 54.7199 133.326 54.0051 133.631 53.3852C133.936 52.7653 134.566 52.2655 135.255 52.2904C135.745 52.3054 136.2 52.5804 136.53 52.9453C136.86 53.3102 137.075 53.7601 137.26 54.215C138.155 56.3896 138.445 58.8541 137.66 61.0786Z" fill="#FFC2A5" stroke="black" stroke-width="0.78253" stroke-linecap="round" stroke-linejoin="round"/>
<path d="M148.034 70.172C144.935 70.172 142.22 68.4723 140.351 66.2778C136.166 61.3688 136.081 54.8002 135.861 50.2762C135.721 47.4068 135.926 37.8638 148.034 37.8638C160.141 37.8638 160.346 47.4068 160.206 50.2762C159.986 54.8002 159.901 61.3738 155.717 66.2778C153.848 68.4723 151.133 70.172 148.034 70.172Z" fill="#FFC2A5" stroke="black" stroke-width="0.78253" stroke-linecap="round" stroke-linejoin="round"/>
<path d="M152.693 55.5517C154.47 55.3768 155.794 54.0389 155.649 52.5634C155.503 51.088 153.945 50.0337 152.167 50.2087C150.389 50.3836 149.066 51.7215 149.211 53.1969C149.356 54.6724 150.915 55.7266 152.693 55.5517Z" fill="white" stroke="black" stroke-width="0.78253" stroke-linecap="round" stroke-linejoin="round"/>
<path d="M155.053 48.2613C154.443 47.7265 153.638 47.4165 152.828 47.3965C152.019 47.3765 151.204 47.6515 150.564 48.1564" stroke="black" stroke-width="0.78253" stroke-linecap="round" stroke-linejoin="round"/>
<path d="M153.314 52.8922C153.374 52.2462 152.906 51.6746 152.268 51.6156C151.63 51.5565 151.065 52.0324 151.005 52.6784C150.945 53.3244 151.414 53.896 152.051 53.9551C152.689 54.0141 153.255 53.5383 153.314 52.8922Z" fill="black" stroke="black" stroke-width="0.78253" stroke-linecap="round" stroke-linejoin="round"/>
<path d="M146.853 53.1919C146.998 51.7165 145.675 50.3786 143.897 50.2037C142.12 50.0287 140.561 51.083 140.416 52.5584C140.271 54.0339 141.594 55.3718 143.372 55.5467C145.149 55.7216 146.708 54.6674 146.853 53.1919Z" fill="white" stroke="black" stroke-width="0.78253" stroke-linecap="round" stroke-linejoin="round"/>
<path d="M141.016 48.2613C141.625 47.7265 142.43 47.4165 143.24 47.3965C144.05 47.3765 144.865 47.6515 145.505 48.1564" stroke="black" stroke-width="0.78253" stroke-linecap="round" stroke-linejoin="round"/>
<path d="M144.35 60.4233C145.199 61.0932 146.534 61.5931 148.034 61.5931C149.539 61.5931 150.873 61.0982 151.718 60.4233" stroke="black" stroke-width="0.78253" stroke-linecap="round" stroke-linejoin="round"/>
<path d="M144.02 53.9484C144.658 53.8893 145.127 53.3178 145.067 52.6717C145.007 52.0257 144.442 51.5498 143.804 51.6089C143.166 51.6679 142.697 52.2395 142.757 52.8856C142.817 53.5316 143.383 54.0074 144.02 53.9484Z" fill="black" stroke="black" stroke-width="0.78253" stroke-linecap="round" stroke-linejoin="round"/>
<path d="M148.034 37.8584C160.141 37.8584 160.346 47.4014 160.201 50.2708C160.161 51.0556 160.126 51.9004 160.081 52.7902C158.947 50.9006 158.047 49.5059 157.227 48.1562C156.822 47.4914 156.617 46.7215 156.647 45.9417C156.677 45.1619 156.722 44.347 156.757 43.4972C153.923 42.4474 151.463 42.0125 148.034 42.0125C144.605 42.0125 142.145 42.4474 139.311 43.4972C139.346 44.347 139.391 45.1319 139.416 45.9417C139.441 46.7515 139.236 47.4914 138.836 48.1562C138.016 49.5059 137.121 50.9006 135.986 52.7902C135.931 51.9004 135.896 51.0556 135.861 50.2708C135.721 47.4014 135.926 37.8584 148.034 37.8584Z" fill="#41181A" stroke="black" stroke-width="0.78253" stroke-linecap="round" stroke-linejoin="round"/>
<path d="M148.983 52.7803C149.753 54.3999 150.618 55.8746 150.618 55.8746C151.143 57.4493 149.548 58.809 147.614 58.0642" fill="#FFC2A5"/>
<path d="M148.983 52.7803C149.753 54.3999 150.618 55.8746 150.618 55.8746C151.143 57.4493 149.548 58.809 147.614 58.0642" stroke="black" stroke-width="0.78253" stroke-linecap="round" stroke-linejoin="round"/>
</g>
<defs>
<clipPath id="clip0_5418_6233">
<rect width="285" height="160.312" fill="white"/>
</clipPath>
</defs>
</svg>
