<svg width="20" height="20" viewBox="0 0 20 20" fill="none" xmlns="http://www.w3.org/2000/svg">
<path d="M11.8745 16.0304V12.2803C11.8745 12.1145 11.8087 11.9556 11.6915 11.8384C11.5743 11.7211 11.4153 11.6553 11.2495 11.6553H8.74954C8.58378 11.6553 8.42481 11.7211 8.3076 11.8384C8.19039 11.9556 8.12454 12.1145 8.12454 12.2803V16.0304C8.12454 16.1961 8.0587 16.3551 7.94151 16.4723C7.82432 16.5895 7.66537 16.6554 7.49962 16.6554L3.75008 16.6559C3.668 16.6559 3.58671 16.6397 3.51088 16.6083C3.43504 16.5769 3.36613 16.5309 3.30809 16.4728C3.25004 16.4148 3.204 16.3459 3.17258 16.2701C3.14117 16.1942 3.125 16.113 3.125 16.0309V8.8074C3.125 8.72033 3.14319 8.63422 3.17842 8.55458C3.21364 8.47495 3.26511 8.40356 3.32954 8.34498L9.57911 2.66257C9.69415 2.55797 9.84406 2.50001 9.99955 2.5C10.155 2.49999 10.3049 2.55795 10.42 2.66255L16.6704 8.34497C16.7349 8.40355 16.7863 8.47495 16.8216 8.55459C16.8568 8.63423 16.875 8.72035 16.875 8.80743V16.0309C16.875 16.113 16.8588 16.1942 16.8274 16.2701C16.796 16.3459 16.75 16.4148 16.6919 16.4728C16.6339 16.5309 16.565 16.5769 16.4891 16.6083C16.4133 16.6397 16.332 16.6559 16.2499 16.6559L12.4995 16.6554C12.3337 16.6554 12.1748 16.5895 12.0576 16.4723C11.9404 16.3551 11.8745 16.1961 11.8745 16.0304Z" fill="white" stroke="white" stroke-linecap="round" stroke-linejoin="round"/>
</svg>
