<svg width="285" height="161" viewBox="0 0 285 161" fill="none" xmlns="http://www.w3.org/2000/svg">
<rect width="285" height="160.312" fill="#FFF5D2"/>
<g clip-path="url(#clip0_5418_6316)">
<rect width="160" height="160" transform="translate(63)" fill="#FFF5D2"/>
<path d="M122.355 26.3913C101.969 23.2955 77.4169 38.7782 72.5465 70.8492C68.2758 98.9718 97.7467 125.529 127.47 130.043C157.194 134.557 186.008 122.91 195.724 115.633C205.441 108.357 209.271 100.86 210.287 92.3967C212.841 75.6845 207.102 65.5224 188.366 63.0811C169.63 60.6398 166.191 60.2521 156.76 52.3569C147.329 44.4617 139.321 28.9678 122.355 26.3913Z" fill="#FFECA6"/>
<path d="M149.817 137.199L134.81 144.079L133.036 137.454C138.181 135.88 143.142 133.689 147.776 130.941C148.493 133.016 149.172 135.102 149.817 137.199Z" fill="#F0BAA3" stroke="black" stroke-width="0.77489" stroke-linecap="round" stroke-linejoin="round"/>
<path d="M143.768 120.3C145.203 123.81 146.544 127.359 147.773 130.941C143.14 133.689 138.178 135.88 133.033 137.455L128.077 118.921L135.291 107.596C140.325 110.833 142.517 117.258 143.768 120.3Z" fill="#00E6FF" stroke="black" stroke-width="0.77489" stroke-linecap="round" stroke-linejoin="round"/>
<path d="M109.213 97.8614C109.39 97.6791 109.291 97.7178 109.213 97.8614Z" fill="#00C3D9" stroke="black" stroke-width="0.77489" stroke-linecap="round" stroke-linejoin="round"/>
<path d="M138.129 126.219L136.633 160.332H89.8875C89.8875 160.332 87.5458 130.263 92.3016 112.858C94.0704 106.389 106.358 99.9815 106.374 99.9537C108.26 98.7133 108.977 98.1015 109.211 97.8623C109.033 98.2016 109 99.1472 113.027 99.3085C114.106 99.353 115.174 99.4476 116.242 99.5922C123.1 100.532 129.669 103.536 135.293 107.596L138.129 126.219Z" fill="#00D1E8" stroke="black" stroke-width="0.77489" stroke-linecap="round" stroke-linejoin="round"/>
<path d="M118.551 97.8393C118.694 97.6957 118.623 97.7178 118.551 97.8393Z" fill="#00E6FF"/>
<path d="M138.129 126.219L136.633 160.332H99.215C99.215 160.332 96.2113 131.275 100.962 113.871C102.73 107.402 115.04 103.992 115.056 103.964C115.251 103.836 116.074 99.7145 116.241 99.5977C123.1 100.538 129.669 103.541 135.292 107.602C138.607 113.693 139.603 119.9 138.129 126.224V126.219Z" fill="#00E6FF"/>
<path d="M138.129 126.219L136.633 160.332H89.8875C89.8875 160.332 87.5458 130.263 92.3016 112.858C94.0704 106.389 106.358 99.9815 106.374 99.9537C108.26 98.7133 108.977 98.1015 109.211 97.8623C109.033 98.2016 109 99.1472 113.027 99.3085C114.106 99.353 115.174 99.4476 116.242 99.5922C123.1 100.532 129.669 103.536 135.293 107.596" stroke="black" stroke-width="0.77489" stroke-linecap="round" stroke-linejoin="round"/>
<path d="M111.841 140.503L111.235 152.034C111.235 152.034 100.227 157.145 92.4284 158.853C92.345 158.87 92.2615 158.886 92.1781 158.903C86.7882 159.977 80.8366 157.64 80.475 146.927C80.3582 143.345 80.0801 139.118 79.98 134.774C82.3885 134.729 84.7969 134.685 87.2054 134.64C90.2925 134.585 93.374 134.535 96.4611 134.479L96.1941 141.337C103.52 140.965 111.841 140.503 111.841 140.503Z" fill="#F0BAA3" stroke="black" stroke-width="0.77489" stroke-linecap="round" stroke-linejoin="round"/>
<path d="M111.838 140.503L111.232 152.034C111.232 152.034 114.725 151.338 106.927 153.046C106.86 153.057 101.598 155.104 96.5532 155.304C94.2837 155.393 92.0811 154.481 90.5792 152.779C85.4007 146.9 90.0898 141.638 90.0898 141.638C93.1768 141.582 93.099 141.398 96.186 141.343C103.512 140.97 111.833 140.508 111.833 140.508L111.838 140.503Z" fill="#FFCDB8"/>
<path d="M111.841 140.503L111.235 152.034C111.235 152.034 100.227 157.145 92.4284 158.853C92.345 158.87 92.2615 158.886 92.1781 158.903C86.7882 159.977 80.8366 157.64 80.475 146.927C80.3582 143.345 80.0801 139.118 79.98 134.774C82.3885 134.729 84.7969 134.685 87.2054 134.64C90.2925 134.585 93.374 134.535 96.4611 134.479L96.1941 141.337C103.52 140.965 111.841 140.503 111.841 140.503Z" stroke="black" stroke-width="0.77489" stroke-linecap="round" stroke-linejoin="round"/>
<path d="M96.8233 124.956L96.4561 134.473C90.9606 134.568 85.4706 134.663 79.9751 134.768C79.7748 126.492 79.8471 117.581 83.4849 112.347C89.3142 103.97 99.9715 102.001 106.374 99.9482" fill="#00D1E8"/>
<path d="M96.8233 124.956L96.4561 134.473C90.9606 134.568 85.4706 134.663 79.9751 134.768C79.7748 126.492 79.8471 117.581 83.4849 112.347C89.3142 103.97 99.9715 102.001 106.374 99.9482" stroke="black" stroke-width="0.77489" stroke-linecap="round" stroke-linejoin="round"/>
<path d="M90.0898 141.632C97.7491 141.282 111.833 140.503 111.833 140.503" stroke="black" stroke-width="0.77489" stroke-linecap="round" stroke-linejoin="round"/>
<path d="M209.149 114.177H162.999V160.327H209.149V114.177Z" fill="#C4C4C4" stroke="black" stroke-width="0.77489" stroke-linecap="round" stroke-linejoin="round"/>
<path d="M203.107 114.159H162.818V160.333H203.107V114.159Z" fill="#DADADA"/>
<path d="M182.285 114.159H163.272V160.333H182.285V114.159Z" fill="#E5E5E5"/>
<path d="M209.149 114.177H162.999V160.327H209.149V114.177Z" stroke="black" stroke-width="0.77489" stroke-linecap="round" stroke-linejoin="round"/>
<path d="M201.584 122.498H194.704V131.397H201.584V122.498Z" fill="#8A8784" stroke="black" stroke-width="0.77489" stroke-linecap="round" stroke-linejoin="round"/>
<path d="M201.362 124.6H197.885C197.271 124.6 196.773 125.098 196.773 125.713C196.773 126.327 197.271 126.825 197.885 126.825H201.362C201.976 126.825 202.474 126.327 202.474 125.713C202.474 125.098 201.976 124.6 201.362 124.6Z" fill="#B3AFAB" stroke="black" stroke-width="0.77489" stroke-linecap="round" stroke-linejoin="round"/>
<path d="M213.799 123.905H201.84C200.842 123.905 200.033 124.714 200.033 125.713C200.033 126.711 200.842 127.52 201.84 127.52H213.799C214.798 127.52 215.607 126.711 215.607 125.713C215.607 124.714 214.798 123.905 213.799 123.905Z" fill="#403E3D" stroke="black" stroke-width="0.77489" stroke-linecap="round" stroke-linejoin="round"/>
<path d="M162.997 127.521V123.905L158.948 123.85C157.952 123.85 157.14 124.662 157.14 125.657C157.14 126.653 157.952 127.465 158.948 127.465L162.997 127.521Z" fill="#403E3D" stroke="black" stroke-width="0.77489" stroke-linecap="round" stroke-linejoin="round"/>
<path d="M206.756 100.933C207.346 100.933 207.824 100.455 207.824 99.8648C207.824 99.275 207.346 98.7969 206.756 98.7969C206.167 98.7969 205.688 99.275 205.688 99.8648C205.688 100.455 206.167 100.933 206.756 100.933Z" stroke="#82C6D9" stroke-width="0.77489" stroke-linecap="round" stroke-linejoin="round"/>
<path d="M186.069 110.038C187.006 110.038 187.766 109.278 187.766 108.342C187.766 107.405 187.006 106.645 186.069 106.645C185.132 106.645 184.373 107.405 184.373 108.342C184.373 109.278 185.132 110.038 186.069 110.038Z" stroke="#82C6D9" stroke-width="0.77489" stroke-linecap="round" stroke-linejoin="round"/>
<path d="M192.378 96.8889C192.839 96.8889 193.213 96.5154 193.213 96.0546C193.213 95.5938 192.839 95.2202 192.378 95.2202C191.917 95.2202 191.544 95.5938 191.544 96.0546C191.544 96.5154 191.917 96.8889 192.378 96.8889Z" stroke="#82C6D9" stroke-width="0.77489" stroke-linecap="round" stroke-linejoin="round"/>
<path d="M201.883 108.342C202.467 108.342 202.94 107.869 202.94 107.285C202.94 106.701 202.467 106.228 201.883 106.228C201.299 106.228 200.826 106.701 200.826 107.285C200.826 107.869 201.299 108.342 201.883 108.342Z" stroke="#82C6D9" stroke-width="0.77489" stroke-linecap="round" stroke-linejoin="round"/>
<path d="M171.407 96.2714C171.791 96.2714 172.102 95.9601 172.102 95.5761C172.102 95.1922 171.791 94.8809 171.407 94.8809C171.023 94.8809 170.711 95.1922 170.711 95.5761C170.711 95.9601 171.023 96.2714 171.407 96.2714Z" stroke="#82C6D9" stroke-width="0.77489" stroke-linecap="round" stroke-linejoin="round"/>
<path d="M181.066 102.257C181.797 102.257 182.39 101.664 182.39 100.933C182.39 100.202 181.797 99.6089 181.066 99.6089C180.335 99.6089 179.742 100.202 179.742 100.933C179.742 101.664 180.335 102.257 181.066 102.257Z" stroke="#82C6D9" stroke-width="0.77489" stroke-linecap="round" stroke-linejoin="round"/>
<path d="M169.944 108.103C170.749 108.103 171.401 107.45 171.401 106.645C171.401 105.84 170.749 105.188 169.944 105.188C169.139 105.188 168.487 105.84 168.487 106.645C168.487 107.45 169.139 108.103 169.944 108.103Z" stroke="#82C6D9" stroke-width="0.77489" stroke-linecap="round" stroke-linejoin="round"/>
<path d="M198.039 89.9473C199.163 90.8261 199.947 92.1221 200.22 93.5238C200.492 94.9255 200.253 96.4162 199.569 97.6677C198.796 99.0806 197.522 100.132 196.487 101.361C195.453 102.59 194.635 104.215 195.047 105.772C195.314 106.768 196.042 107.563 196.699 108.358C197.355 109.154 197.984 110.072 197.978 111.106" stroke="#82C6D9" stroke-width="0.77489" stroke-linecap="round" stroke-linejoin="round"/>
<path d="M177.265 107.485C176.014 106.289 175.68 104.37 175.98 102.668C176.281 100.966 177.115 99.4087 177.91 97.8679C178.706 96.3271 179.496 94.7419 179.685 93.0176C179.874 91.2933 179.345 89.3965 177.949 88.373" stroke="#82C6D9" stroke-width="0.77489" stroke-linecap="round" stroke-linejoin="round"/>
<path d="M163.041 111.79C161.973 110.65 161.817 108.892 162.184 107.374C162.551 105.855 163.374 104.493 164.081 103.102C164.787 101.711 165.393 100.193 165.288 98.6299C165.154 96.6775 163.925 94.9866 162.668 93.4848C161.411 91.983 160.037 90.4811 159.492 88.6011C158.902 86.5541 159.453 84.218 160.899 82.6494" stroke="#82C6D9" stroke-width="0.77489" stroke-linecap="round" stroke-linejoin="round"/>
<path d="M208.462 111.618C210.309 110.094 211.132 107.602 211.155 105.21C211.177 102.818 210.498 100.482 209.786 98.196C209.074 95.9099 208.329 93.6071 208.206 91.2153C208.084 88.8235 208.674 86.2982 210.32 84.5684" stroke="#82C6D9" stroke-width="0.77489" stroke-linecap="round" stroke-linejoin="round"/>
<path d="M158.964 156.394C158.964 156.394 158.958 156.422 158.958 156.433H154.853V156.422L158.964 156.394Z" fill="#B87C3F" stroke="black" stroke-width="0.77489" stroke-miterlimit="10"/>
<path d="M159.826 145.325C158.914 142.511 157.362 141.437 155.866 141.41C154.737 141.393 153.63 141.971 152.851 142.85C153.747 143.301 154.575 143.89 155.304 144.586C156.277 145.515 157.078 146.644 157.64 147.923C158.719 150.393 159.398 153.291 158.964 156.394H159.042C160.243 151.933 160.761 148.207 159.826 145.325Z" fill="#F0BE8B" stroke="black" stroke-width="0.77489" stroke-miterlimit="10"/>
<path d="M174.869 147.94C174.402 148.284 173.757 148.312 173.284 147.979C172.811 147.645 172.155 147.378 171.443 147.261C170.714 147.139 169.952 147.15 169.19 147.217C168.428 147.283 167.794 146.755 167.694 146.021C167.588 145.236 168.155 144.513 168.945 144.446C169.891 144.369 170.898 144.352 171.899 144.519C173.023 144.702 174.029 145.103 174.858 145.681C175.637 146.221 175.637 147.378 174.875 147.94H174.869Z" fill="#634725" stroke="black" stroke-width="0.77489" stroke-linecap="round" stroke-linejoin="round"/>
<path d="M168.311 149.875C168.267 149.82 168.217 149.775 168.167 149.731C168.756 149.041 169.107 148.134 169.235 147.222C169.318 146.616 169.307 146.004 169.196 145.459C169.129 145.108 169.012 144.775 168.862 144.458C168.406 143.523 167.616 142.755 166.659 142.355C166.671 142.31 166.687 142.266 166.698 142.227C167.071 140.959 167.077 139.902 166.092 138.778C165.308 137.894 163.995 137.51 162.86 137.849C160.652 138.383 158.778 138.99 156.497 139.624C157.532 139.368 158.7 139.646 159.49 140.364C160.357 141.159 160.741 142.45 160.38 143.718C160.368 143.757 160.357 143.79 160.346 143.829C162.944 144.914 164.034 148.64 161.448 150.76C161.553 150.871 161.653 150.988 161.737 151.11C162.287 151.844 162.527 152.807 162.376 153.719C162.204 154.776 161.503 155.671 160.546 156.161H165.892C167.533 156.161 169.04 155.065 169.379 153.457C169.402 153.346 169.418 153.235 169.435 153.124C169.585 151.839 169.229 150.743 168.311 149.875Z" fill="#42AD2A"/>
<path d="M161.449 150.76C164.035 148.641 162.945 144.914 160.347 143.829C160.359 143.79 160.37 143.757 160.381 143.718C160.742 142.45 160.359 141.159 159.491 140.364C158.701 139.646 157.533 139.368 156.498 139.624C156.359 139.657 156.226 139.702 156.098 139.752C155.77 139.885 155.464 140.075 155.197 140.308C154.551 140.87 154.123 141.682 154.062 142.533L154.457 145.392L155.319 151.611L155.948 156.161H160.548C161.504 155.671 162.205 154.776 162.378 153.719C162.528 152.807 162.289 151.844 161.738 151.11C161.655 150.988 161.554 150.871 161.449 150.76Z" fill="#2D751C"/>
<path d="M156.499 139.624C158.779 138.99 160.654 138.384 162.862 137.844C163.997 137.505 165.309 137.889 166.094 138.779C167.111 139.935 167.072 141.026 166.666 142.355C167.951 142.889 168.93 144.091 169.203 145.459C169.475 146.827 169.158 148.585 168.174 149.731C169.197 150.632 169.598 151.772 169.442 153.124C169.431 153.235 169.409 153.346 169.386 153.457C169.047 155.065 167.54 156.161 165.899 156.161H160.142" stroke="black" stroke-width="0.77489" stroke-linecap="round" stroke-linejoin="round"/>
<path d="M160.347 143.829C161.877 143.028 164.741 142.227 166.699 142.227" stroke="black" stroke-width="0.77489" stroke-linecap="round" stroke-linejoin="round"/>
<path d="M161.449 150.759C163.568 150.459 165.804 150.326 168.168 149.73" stroke="black" stroke-width="0.77489" stroke-linecap="round" stroke-linejoin="round"/>
<path d="M154.062 142.527C154.151 141.32 154.974 140.197 156.098 139.746C157.221 139.295 158.59 139.546 159.485 140.358C160.381 141.17 160.759 142.51 160.347 143.823C162.945 144.902 164.035 148.629 161.443 150.748C162.194 151.516 162.55 152.651 162.378 153.707C162.205 154.764 161.504 155.66 160.548 156.149H155.942L154.062 142.522V142.527Z" stroke="#1A4211" stroke-width="0.77489" stroke-linecap="round" stroke-linejoin="round"/>
<path d="M170.097 144.419C170.603 144.107 171.037 143.679 171.354 143.178C171.537 143.406 171.66 143.684 171.71 143.968C171.799 144.485 171.687 145.03 171.459 145.503C171.115 146.249 170.469 146.872 169.674 147.072C168.879 147.272 167.95 146.966 167.521 146.271C167.199 145.737 167.249 145.008 167.616 144.519C167.894 144.708 168.222 144.825 168.556 144.852C169.095 144.891 169.635 144.702 170.097 144.419Z" fill="#FFCDB8" stroke="black" stroke-width="0.77489" stroke-linecap="round" stroke-linejoin="round"/>
<path d="M170.805 138.695C170.76 139.051 170.677 139.407 170.56 139.741C170.276 140.548 169.809 141.315 169.108 141.805C168.468 142.255 167.617 142.439 166.878 142.205C166.811 142.183 166.739 142.155 166.672 142.127C165.965 141.81 165.47 141.015 165.57 140.258C165.965 140.219 166.327 140.069 166.583 139.836C168.129 138.428 169.303 136.381 168.146 134.418C169.125 134.585 170.004 135.291 170.454 136.192C170.832 136.96 170.927 137.839 170.805 138.695Z" fill="#FFCDB8" stroke="black" stroke-width="0.77489" stroke-linecap="round" stroke-linejoin="round"/>
<path d="M170.097 144.419C169.635 144.703 169.096 144.892 168.556 144.853C168.222 144.825 167.894 144.708 167.616 144.519C167.305 144.313 167.054 144.018 166.904 143.679C166.704 143.217 166.698 142.678 166.876 142.205C167.616 142.439 168.467 142.255 169.107 141.805C169.808 141.315 170.275 140.548 170.558 139.741C170.675 139.407 170.759 139.051 170.803 138.695C171.532 139.357 171.966 140.358 171.932 141.354C171.91 141.999 171.704 142.633 171.354 143.179C171.037 143.679 170.603 144.107 170.097 144.419Z" fill="#FFCDB8" stroke="black" stroke-width="0.77489" stroke-linecap="round" stroke-linejoin="round"/>
<path d="M168.146 134.418C169.303 136.381 168.129 138.428 166.583 139.835C166.327 140.069 165.965 140.219 165.571 140.258C164.569 140.358 163.373 139.752 163.323 138.05C163.312 137.672 163.368 137.299 163.474 136.937L163.385 136.915C163.423 136.771 163.451 136.626 163.479 136.487C163.735 134.924 162.094 133.817 161.516 132.343C161.827 132.365 162.483 131.926 163.907 131.926C165.153 132.132 166.427 132.532 167.339 133.411C167.684 133.745 167.951 134.078 168.146 134.418Z" fill="#FFCDB8" stroke="black" stroke-width="0.77489" stroke-linecap="round" stroke-linejoin="round"/>
<path d="M164.18 135.369C163.701 136.192 163.29 137.099 163.323 138.044C163.401 140.414 165.682 140.659 166.588 139.835C168.396 138.183 169.692 135.664 167.345 133.411C166.433 132.532 165.159 132.132 163.907 131.926" stroke="black" stroke-width="0.77489" stroke-linecap="round" stroke-linejoin="round"/>
<path d="M170.456 136.192C170.995 137.283 170.956 138.59 170.561 139.736C170.283 140.542 169.81 141.31 169.11 141.805C168.409 142.3 167.458 142.472 166.673 142.127" stroke="black" stroke-width="0.77489" stroke-linecap="round" stroke-linejoin="round"/>
<path d="M171.938 141.354C171.899 142.594 171.164 143.779 170.102 144.419C169.64 144.703 169.101 144.886 168.561 144.847C167.855 144.797 167.193 144.324 166.909 143.679" stroke="black" stroke-width="0.77489" stroke-linecap="round" stroke-linejoin="round"/>
<path d="M171.713 143.968C171.808 144.486 171.691 145.025 171.463 145.503C171.112 146.243 170.467 146.872 169.672 147.072C168.876 147.272 167.947 146.966 167.519 146.271" stroke="black" stroke-width="0.77489" stroke-linecap="round" stroke-linejoin="round"/>
<path d="M158.468 134.941C158.662 136.187 158.879 137.494 159.869 138.389C160.298 138.773 160.86 139.012 161.432 138.968C162.734 138.879 163.285 137.622 163.474 136.487C163.574 135.886 163.607 135.274 163.58 134.668C163.429 131.437 158.523 131.564 158.468 134.802C158.468 134.852 158.468 134.896 158.468 134.946V134.941Z" fill="#FFCDB8" stroke="black" stroke-width="0.77489" stroke-linecap="round" stroke-linejoin="round"/>
<path d="M127.19 150.353L127.145 150.381L125.36 150.754C125.238 150.698 125.115 150.637 125.004 150.565C122.924 149.374 122.473 146.515 123.802 144.357C123.853 144.346 123.903 144.329 123.958 144.313C124.859 144.062 125.744 143.807 126.628 143.556C138.971 140.024 149.895 136.509 162.455 133.739C159.457 139.752 154.384 144.596 148.555 147.939C142.72 151.282 136.151 153.19 129.509 154.208L127.201 150.342L127.19 150.353Z" fill="#C2CACC" stroke="black" stroke-width="0.77489" stroke-linecap="round" stroke-linejoin="round"/>
<path d="M130.213 150.498C138.662 148.401 146.811 145.075 154.309 140.653" stroke="black" stroke-width="0.77489" stroke-linecap="round" stroke-linejoin="round"/>
<path d="M123.797 144.363C122.468 146.521 122.919 149.38 124.999 150.57L124.938 150.676C124.176 152.678 120.21 152.145 119.425 148.935C118.825 146.443 119.954 144.669 121.333 144.051C122.151 143.684 123.163 143.712 123.914 144.207L123.948 144.318C123.898 144.335 123.848 144.352 123.792 144.363H123.797Z" fill="#574036" stroke="black" stroke-width="0.77489" stroke-linecap="round" stroke-linejoin="round"/>
<path d="M120.155 155.632C120.121 155.671 120.083 155.704 120.055 155.743C119.231 156.706 117.752 157.451 116.317 157.028C115.499 157.568 114.437 157.668 113.491 157.418C113.358 157.379 113.23 157.345 113.096 157.29C112.529 157.735 111.722 157.857 111.01 157.718C108.836 157.29 106.049 154.564 105.337 150.899C104.642 147.305 106.483 142.967 109.926 140.341C113.219 137.827 117.83 137.048 122.369 139.151C124.327 140.063 126.429 141.593 126.618 143.567C125.734 143.818 124.849 144.074 123.948 144.324L123.915 144.213C123.164 143.718 122.152 143.695 121.334 144.057C119.955 144.674 118.825 146.449 119.426 148.941C120.21 152.15 124.176 152.684 124.938 150.682C125.317 151.583 124.61 153.463 124.037 154.036C123.275 154.803 121.49 155.649 120.149 155.638L120.155 155.632Z" fill="#FFCDB8" stroke="black" stroke-width="0.77489" stroke-linecap="round" stroke-linejoin="round"/>
<path d="M120.051 155.744C118.905 157.079 116.491 157.996 114.711 155.944C113.843 155.065 113.07 154.092 112.408 153.046" stroke="black" stroke-width="0.77489" stroke-linecap="round" stroke-linejoin="round"/>
<path d="M113.487 157.412C112.497 157.151 111.624 156.544 110.901 155.816C110.178 155.087 109.594 154.241 109.01 153.396" stroke="black" stroke-width="0.77489" stroke-linecap="round" stroke-linejoin="round"/>
<path d="M111.003 157.713C108.829 157.284 106.042 154.559 105.335 150.888C104.629 147.217 106.481 142.95 109.924 140.33C113.367 137.711 117.828 137.038 122.362 139.146C124.325 140.058 126.428 141.588 126.617 143.562" stroke="black" stroke-width="0.77489" stroke-linecap="round" stroke-linejoin="round"/>
<path d="M126.42 149.052L129.507 154.214C136.149 153.202 142.718 151.288 148.553 147.945C154.382 144.602 159.455 139.757 162.453 133.745C148.936 136.715 137.328 140.558 123.806 144.357C122.404 146.632 122.983 149.692 125.363 150.749L127.154 150.381" stroke="black" stroke-width="0.77489" stroke-linecap="round" stroke-linejoin="round"/>
<path d="M123.92 144.202C123.169 143.707 122.157 143.679 121.334 144.046C119.954 144.663 118.825 146.443 119.426 148.93C120.204 152.145 124.176 152.679 124.932 150.671C125.311 151.572 124.604 153.452 124.031 154.025C123.219 154.842 121.233 155.755 119.882 155.61C117.357 155.349 115.949 152.912 115.054 151.449" stroke="black" stroke-width="0.77489" stroke-linecap="round" stroke-linejoin="round"/>
<path d="M157.416 144.497C157.327 144.447 157.238 144.408 157.149 144.374C157.527 143.295 157.305 142.294 156.749 141.521C156.359 140.976 155.814 140.559 155.197 140.308C155.18 140.303 155.169 140.297 155.152 140.292C154.707 140.114 154.207 140.125 153.762 140.303C151.948 141.031 146.653 143.323 146.653 143.323C145.357 143.746 144.35 144.936 144.145 146.282C143.944 147.628 144.556 149.063 145.674 149.848C144.94 150.982 144.756 152.456 145.229 153.697C145.702 154.937 146.826 155.916 148.116 156.217C148.199 156.178 152.922 156.166 155.948 156.161H158.423C159.163 155.527 159.63 155.004 159.697 154.031C159.763 153.057 159.435 152.15 158.79 151.422C161.204 148.49 159.319 145.42 157.416 144.497Z" fill="#42AD2A"/>
<path d="M145.666 149.848C144.553 149.063 143.936 147.628 144.136 146.282C144.336 144.936 145.349 143.746 146.645 143.323C146.645 143.323 151.934 141.026 153.753 140.297C154.198 140.119 154.699 140.114 155.144 140.286C155.778 140.536 156.34 140.965 156.735 141.515C157.291 142.289 157.513 143.29 157.135 144.369C159.115 145.125 161.307 148.346 158.776 151.416C159.421 152.145 159.749 153.057 159.683 154.031C159.616 155.004 159.149 155.521 158.409 156.161C158.409 156.161 148.224 156.161 148.102 156.217C146.806 155.916 145.688 154.943 145.215 153.697C144.742 152.451 144.926 150.982 145.655 149.848H145.666Z" stroke="black" stroke-width="0.77489" stroke-linecap="round" stroke-linejoin="round"/>
<path d="M146.871 145.381C147.193 146.561 148.122 147.501 149.457 147.729C149.045 148.213 148.862 148.88 148.968 149.503C149.073 150.126 149.463 150.699 149.93 151.177C149.112 151.778 148.689 152.718 148.556 153.725" stroke="black" stroke-width="0.77489" stroke-linecap="round" stroke-linejoin="round"/>
<path d="M151.648 151.661C154.007 151.661 156.677 151.594 158.79 151.417" stroke="black" stroke-width="0.77489" stroke-linecap="round" stroke-linejoin="round"/>
<path d="M151.051 146.788C152.503 146.015 154.85 145.031 157.148 144.369" stroke="black" stroke-width="0.77489" stroke-linecap="round" stroke-linejoin="round"/>
<path d="M146.513 156.439V160.333H128.435V156.439H142.986H146.513Z" fill="#B87E4B" stroke="black" stroke-width="0.77489" stroke-miterlimit="10"/>
<path d="M183.502 156.439V160.333H146.512V156.439H152.542H158.955H183.502Z" fill="#755130" stroke="black" stroke-width="0.77489" stroke-miterlimit="10"/>
<path d="M126.503 96.555L125.563 104.882C124.428 107.401 121.68 108.987 118.916 109.131C116.808 109.243 114.956 108.748 113.359 107.913C109.666 105.977 107.335 102.223 106.373 99.9535C108.325 96.2991 110.055 90.9815 111.19 87.2715L117.642 91.1818L126.503 96.555Z" fill="#F0BAA3" stroke="black" stroke-width="0.77489" stroke-linecap="round" stroke-linejoin="round"/>
<path d="M126.503 96.5553L125.563 104.882C124.428 107.402 121.681 108.987 118.916 109.132C116.808 109.243 114.956 108.748 113.359 107.914C112.531 106.161 112.063 104.153 112.063 102.023C112.063 97.3396 114.322 93.268 117.642 91.1821L126.503 96.5553Z" fill="#FFCDB8"/>
<path d="M126.503 96.555L125.563 104.882C124.428 107.401 121.68 108.987 118.916 109.131C116.808 109.243 114.956 108.748 113.359 107.913C109.666 105.977 107.335 102.223 106.373 99.9535C108.325 96.2991 110.055 90.9815 111.19 87.2715L117.642 91.1818L126.503 96.555Z" stroke="black" stroke-width="0.77489" stroke-linecap="round" stroke-linejoin="round"/>
<path d="M136.239 79.8963C135.699 85.8813 135.06 92.3558 130.526 96.7834C128.085 99.1696 124.508 100.438 121.115 100.082C121.098 100.082 121.087 100.076 121.07 100.076C111.253 99.025 109.189 89.6748 108.5 86.3986C107.159 80.0465 101.714 64.3886 117.249 59.9944C118.172 59.7329 119.085 59.5438 119.986 59.427C127.15 58.4703 133.452 61.9412 135.772 69.4614C136.773 72.7098 136.539 76.5144 136.239 79.8963Z" fill="#F0BAA3" stroke="black" stroke-width="0.77489" stroke-linecap="round" stroke-linejoin="round"/>
<path d="M136.236 79.8964C135.697 85.8814 135.057 92.356 130.524 96.7835C128.082 99.1698 124.505 100.438 121.112 100.082C121.096 100.082 121.085 100.076 121.068 100.076C114.065 97.5233 114.065 88.9741 114.065 80.5528C114.065 72.8657 117.92 64.9839 120.3 64.5111C127.465 63.5544 133.444 61.9413 135.763 69.4615C136.765 72.7099 136.531 76.5145 136.231 79.8964H136.236Z" fill="#FFCDB8"/>
<path d="M136.239 79.8963C135.699 85.8813 135.06 92.3558 130.526 96.7834C128.085 99.1696 124.508 100.438 121.115 100.082C121.098 100.082 121.087 100.076 121.07 100.076C111.253 99.025 109.189 89.6748 108.5 86.3986C107.159 80.0465 101.714 64.3886 117.249 59.9944C118.172 59.7329 119.085 59.5438 119.986 59.427C127.15 58.4703 133.452 61.9412 135.772 69.4614C136.773 72.7098 136.539 76.5144 136.239 79.8963Z" stroke="black" stroke-width="0.77489" stroke-linecap="round" stroke-linejoin="round"/>
<path d="M142.145 70.14C140.059 72.3093 138.852 73.7054 136.527 75.5688H136.488C136.522 73.4718 136.36 71.3692 135.771 69.4614C135.565 68.7716 135.315 68.1208 135.036 67.509C134.297 66.3298 132.411 64.9448 129.691 64.5832C128.323 64.3997 116.547 63.1593 114.345 67.3477C114.322 67.3811 114.306 67.4144 114.289 67.4478C113.749 68.5547 113.666 69.8285 113.583 71.0633C113.499 72.287 113.388 73.5608 112.798 74.651C112.209 75.7356 111.013 76.5867 109.795 76.392C109.622 76.1862 109.806 73.4718 108.132 72.4817C107.598 72.1646 107.08 71.9922 106.591 71.9421C106.307 71.9088 106.023 71.9255 105.756 71.9755C105.584 70.7574 105.428 69.4947 105.3 68.0819C104.922 63.8323 109.606 59.7663 113.093 57.0129C113.444 56.7404 113.783 56.4734 114.105 56.2231C116.553 54.3208 119.801 52.018 122.833 50.3048C125.692 48.6862 127.305 48.6027 128.64 49.7263C129.658 50.5885 129.519 51.9234 128.584 52.9969C129.391 52.2405 132.439 49.8987 134.736 51.2448C136.75 52.4185 136.555 54.4543 135.426 57.0685C138.135 55.589 140.287 55.6835 141.778 57.5191C143.524 59.6773 141.172 62.6364 139.336 63.9658C141.233 63.4874 142.685 63.5931 143.808 64.7835C144.548 65.5677 144.954 67.2142 142.145 70.14Z" fill="#B07B5C" stroke="black" stroke-width="0.77489" stroke-linecap="round" stroke-linejoin="round"/>
<path d="M142.146 70.14C140.06 72.3093 138.853 73.7054 136.528 75.5688H136.489C136.522 73.4718 136.361 71.3692 135.771 69.4614C135.566 68.7716 135.315 68.1208 135.037 67.509C134.297 66.3298 132.412 64.9448 129.692 64.5832C128.324 64.3997 116.548 63.1593 114.345 67.3477C113.372 65.1228 112.833 62.6698 112.833 60.0889C112.833 59.0376 112.922 58.0086 113.094 57.0129C113.444 56.7404 113.784 56.4734 114.106 56.2231C116.554 54.3208 119.802 52.018 122.834 50.3048C125.693 48.6862 127.306 48.6027 128.641 49.7263C129.658 50.5885 129.519 51.9234 128.585 52.9969C129.391 52.2405 132.44 49.8987 134.737 51.2448C136.75 52.4185 136.556 54.4543 135.427 57.0685C138.135 55.589 140.288 55.6835 141.779 57.5191C143.525 59.6773 141.172 62.6364 139.337 63.9658C141.234 63.4874 142.685 63.5931 143.809 64.7835C144.549 65.5677 144.955 67.2142 142.146 70.14Z" fill="#C98C69"/>
<path d="M142.145 70.14C140.059 72.3093 138.852 73.7054 136.527 75.5688H136.488C136.522 73.4718 136.36 71.3692 135.771 69.4614C135.565 68.7716 135.315 68.1208 135.036 67.509C134.297 66.3298 132.411 64.9448 129.691 64.5832C128.323 64.3997 116.547 63.1593 114.345 67.3477C114.322 67.3811 114.306 67.4144 114.289 67.4478C113.749 68.5547 113.666 69.8285 113.583 71.0633C113.499 72.287 113.388 73.5608 112.798 74.651C112.209 75.7356 111.013 76.5867 109.795 76.392C109.622 76.1862 109.806 73.4718 108.132 72.4817C107.598 72.1646 107.08 71.9922 106.591 71.9421C106.307 71.9088 106.023 71.9255 105.756 71.9755C105.584 70.7574 105.428 69.4947 105.3 68.0819C104.922 63.8323 109.606 59.7663 113.093 57.0129C113.444 56.7404 113.783 56.4734 114.105 56.2231C116.553 54.3208 119.801 52.018 122.833 50.3048C125.692 48.6862 127.305 48.6027 128.64 49.7263C129.658 50.5885 129.519 51.9234 128.584 52.9969C129.391 52.2405 132.439 49.8987 134.736 51.2448C136.75 52.4185 136.555 54.4543 135.426 57.0685C138.135 55.589 140.287 55.6835 141.778 57.5191C143.524 59.6773 141.172 62.6364 139.336 63.9658C141.233 63.4874 142.685 63.5931 143.808 64.7835C144.548 65.5677 144.954 67.2142 142.145 70.14Z" stroke="black" stroke-width="0.77489" stroke-linecap="round" stroke-linejoin="round"/>
<path d="M125.202 79.3529C125.335 77.459 123.54 75.7904 121.192 75.6258C118.845 75.4613 116.835 76.8631 116.702 78.7569C116.569 80.6508 118.364 82.3194 120.712 82.484C123.059 82.6485 125.07 81.2467 125.202 79.3529Z" fill="white" stroke="black" stroke-width="0.77489" stroke-linecap="round" stroke-linejoin="round"/>
<path d="M124.788 80.6508C125.287 79.7125 125.169 78.6734 124.523 78.3299C123.878 77.9865 122.95 78.4687 122.451 79.407C121.951 80.3453 122.07 81.3844 122.715 81.7279C123.36 82.0713 124.288 81.5891 124.788 80.6508Z" fill="black" stroke="black" stroke-width="0.77489" stroke-linecap="round" stroke-linejoin="round"/>
<path d="M135.312 78.2165C134.828 76.3809 132.587 75.3853 130.312 75.986C128.037 76.5867 127.759 78.5891 128.243 80.4247C128.727 82.2603 129.8 83.2337 132.075 82.6329C134.35 82.0322 135.802 80.052 135.312 78.2165Z" fill="white" stroke="black" stroke-width="0.77489" stroke-linecap="round" stroke-linejoin="round"/>
<path d="M134.576 80.558C135.075 79.6197 134.957 78.5806 134.311 78.2372C133.666 77.8937 132.738 78.3759 132.239 79.3142C131.739 80.2525 131.858 81.2916 132.503 81.6351C133.149 81.9786 134.077 81.4963 134.576 80.558Z" fill="black" stroke="black" stroke-width="0.77489" stroke-linecap="round" stroke-linejoin="round"/>
<path d="M127.827 77.0762C128.7 79.1287 130.903 83.2614 130.324 84.8411C129.623 86.7434 127.81 87.1106 126.203 86.7156" fill="#FFCDB8"/>
<path d="M127.827 77.0762C128.7 79.1287 130.903 83.2614 130.324 84.8411C129.623 86.7434 127.81 87.1106 126.203 86.7156" stroke="black" stroke-width="0.77489" stroke-linecap="round" stroke-linejoin="round"/>
<path d="M120.302 88.7012C122.966 92.0386 125.853 91.5602 127.205 90.9762" stroke="black" stroke-width="0.77489" stroke-linecap="round" stroke-linejoin="round"/>
<path d="M117.921 72.5149C118.711 71.8252 119.773 71.4581 120.824 71.5193C121.876 71.5805 122.888 72.07 123.589 72.8431" stroke="black" stroke-width="0.77489" stroke-linecap="round" stroke-linejoin="round"/>
<path d="M128.415 72.7265C128.999 71.9478 129.922 71.4361 130.89 71.3415C131.858 71.2469 132.859 71.5807 133.582 72.2315" stroke="black" stroke-width="0.77489" stroke-linecap="round" stroke-linejoin="round"/>
<path d="M108.612 84.5407C106.282 84.5129 104.457 83.1835 103.373 81.1199C100.742 76.086 103.912 69.6282 108.173 72.1535C109.87 73.1547 109.675 75.8969 109.853 76.1082" fill="#F0BAA3"/>
<path d="M108.612 84.5407C106.282 84.5129 104.457 83.1835 103.373 81.1199C100.742 76.086 103.912 69.6282 108.173 72.1535C109.87 73.1547 109.675 75.8969 109.853 76.1082" stroke="black" stroke-width="0.77489" stroke-linecap="round" stroke-linejoin="round"/>
<path d="M178.441 157.735L189.483 137.049C189.8 136.437 190.434 136.053 191.123 136.053H202.198C202.582 136.053 202.938 136.242 203.155 136.554L204.484 138.478L194.756 159.348C194.455 159.927 191.997 160.288 191.346 160.288H179.988C178.675 160.288 177.835 158.898 178.441 157.735Z" fill="#9CC1D9" stroke="black" stroke-width="0.77489" stroke-linejoin="round"/>
<path d="M180.303 157.735L190.232 138.717C190.549 138.105 191.183 137.722 191.873 137.722H202.992C204.382 137.722 205.278 139.196 204.633 140.431L194.759 159.348C194.459 159.926 193.864 160.288 193.213 160.288H181.855C180.542 160.288 179.702 158.897 180.309 157.735H180.303Z" fill="#466C85" stroke="black" stroke-width="0.77489" stroke-linecap="round" stroke-linejoin="round"/>
<path d="M190.573 159.593L187.992 150.282C187.82 149.653 188.226 149.008 188.793 149.008H196.625C196.992 149.008 197.315 149.28 197.426 149.686L200.007 158.998C200.179 159.626 199.773 160.271 199.206 160.271H191.374C191.007 160.271 190.684 159.999 190.573 159.593Z" fill="#1A5880" stroke="black" stroke-width="0.77489" stroke-linejoin="round"/>
<path d="M202.337 141.973C202.927 141.448 203.07 140.645 202.656 140.179C202.242 139.713 201.427 139.76 200.837 140.284C200.247 140.809 200.104 141.612 200.519 142.078C200.933 142.544 201.747 142.497 202.337 141.973Z" fill="#6E6E6E" stroke="black" stroke-width="0.77489" stroke-linecap="round" stroke-linejoin="round"/>
<path d="M201.791 141.357C201.949 141.216 201.987 141 201.875 140.874C201.762 140.747 201.543 140.759 201.385 140.9C201.226 141.041 201.189 141.257 201.301 141.383C201.413 141.51 201.632 141.498 201.791 141.357Z" fill="#B8B8B8"/>
<path d="M199.691 143.993C200.281 143.469 200.424 142.666 200.009 142.2C199.595 141.733 198.781 141.781 198.191 142.305C197.601 142.829 197.458 143.632 197.872 144.099C198.286 144.565 199.1 144.518 199.691 143.993Z" fill="#6E6E6E" stroke="black" stroke-width="0.77489" stroke-linecap="round" stroke-linejoin="round"/>
<path d="M199.144 143.378C199.303 143.237 199.34 143.02 199.228 142.894C199.116 142.768 198.897 142.78 198.738 142.92C198.58 143.061 198.542 143.278 198.654 143.404C198.767 143.53 198.986 143.519 199.144 143.378Z" fill="#B8B8B8"/>
</g>
<defs>
<clipPath id="clip0_5418_6316">
<rect width="160" height="160" fill="white" transform="translate(63)"/>
</clipPath>
</defs>
</svg>
