<svg width="56" height="56" viewBox="0 0 56 56" fill="none" xmlns="http://www.w3.org/2000/svg">
<g clip-path="url(#clip0_5431_72039)">
<rect width="56" height="56" rx="12" fill="white"/>
<g clip-path="url(#clip1_5431_72039)">
<rect width="125.222" height="70.4375" transform="translate(-30.3334 -14.4375)" fill="#FFF5D2"/>
<g clip-path="url(#clip2_5431_72039)">
<rect width="70.3002" height="70.3002" transform="translate(-2.65234 -14.4375)" fill="#FFF5D2"/>
<path d="M35.4947 45.8468L28.901 48.87L28.1213 45.9593C30.382 45.2676 32.562 44.3047 34.5978 43.0974C34.9131 44.009 35.2112 44.9255 35.4947 45.8468Z" fill="#F0BAA3" stroke="black" stroke-width="0.340468" stroke-linecap="round" stroke-linejoin="round"/>
<path d="M32.8374 38.4233C33.4679 39.9654 34.0569 41.5246 34.597 43.0985C32.5612 44.3058 30.3812 45.2688 28.1205 45.9604L25.943 37.8172L29.1128 32.8413C31.3246 34.2637 32.2875 37.0864 32.8374 38.4233Z" fill="#00E6FF" stroke="black" stroke-width="0.340468" stroke-linecap="round" stroke-linejoin="round"/>
<path d="M17.6532 28.5631C17.7312 28.4827 17.6873 28.4998 17.6532 28.5631Z" fill="#00C3D9" stroke="black" stroke-width="0.340468" stroke-linecap="round" stroke-linejoin="round"/>
<path d="M30.3575 41.0229L29.7 56.0116H9.16114C9.16114 56.0116 8.13224 42.7997 10.2218 35.1526C10.999 32.3103 16.3977 29.4949 16.405 29.4826C17.2335 28.9376 17.5487 28.6688 17.6514 28.5637C17.5732 28.7128 17.5585 29.1283 19.3279 29.1991C19.8021 29.2187 20.2713 29.2602 20.7405 29.3238C23.7539 29.7368 26.6402 31.0565 29.111 32.8406L30.3575 41.0229Z" fill="#00D1E8" stroke="black" stroke-width="0.340468" stroke-linecap="round" stroke-linejoin="round"/>
<path d="M21.7548 28.553C21.8181 28.4896 21.7864 28.4994 21.7548 28.553Z" fill="#00E6FF"/>
<path d="M30.3592 41.0214L29.7018 56.0101H13.2614C13.2614 56.0101 11.9417 43.243 14.0288 35.5959C14.806 32.7536 20.2144 31.2554 20.2217 31.2432C20.3073 31.187 20.669 29.376 20.7423 29.3247C23.7557 29.7377 26.642 31.0575 29.1128 32.8415C30.5694 35.5177 31.0069 38.2451 30.3592 41.0239V41.0214Z" fill="#00E6FF"/>
<path d="M30.3575 41.0229L29.7 56.0116H9.16114C9.16114 56.0116 8.13224 42.7997 10.2218 35.1526C10.999 32.3103 16.3977 29.4949 16.405 29.4826C17.2335 28.9376 17.5487 28.6688 17.6514 28.5637C17.5732 28.7128 17.5585 29.1283 19.3279 29.1991C19.8021 29.2187 20.2713 29.2602 20.7405 29.3238C23.7539 29.7368 26.6402 31.0565 29.111 32.8406" stroke="black" stroke-width="0.340468" stroke-linecap="round" stroke-linejoin="round"/>
<path d="M18.8052 47.2977L18.5388 52.364C18.5388 52.364 13.7022 54.6099 10.2758 55.3602C10.2392 55.3676 10.2025 55.3749 10.1658 55.3822C7.79766 55.8539 5.18264 54.8275 5.02379 50.1204C4.97246 48.5465 4.85027 46.6891 4.80627 44.7804C5.8645 44.7609 6.92273 44.7413 7.98096 44.7218C9.33734 44.6973 10.6913 44.6753 12.0477 44.6509L11.9304 47.6643C15.149 47.5005 18.8052 47.2977 18.8052 47.2977Z" fill="#F0BAA3" stroke="black" stroke-width="0.340468" stroke-linecap="round" stroke-linejoin="round"/>
<path d="M18.8083 47.2987L18.5419 52.365C18.5419 52.365 20.0767 52.0595 16.6503 52.8098C16.6209 52.8147 14.309 53.7141 12.0923 53.802C11.0952 53.8411 10.1274 53.4403 9.46752 52.6925C7.19221 50.1092 9.25246 47.7973 9.25246 47.7973C10.6088 47.7728 10.5746 47.6922 11.931 47.6677C15.1497 47.504 18.8058 47.3012 18.8058 47.3012L18.8083 47.2987Z" fill="#FFCDB8"/>
<path d="M18.8052 47.2977L18.5388 52.364C18.5388 52.364 13.7022 54.6099 10.2758 55.3602C10.2392 55.3676 10.2025 55.3749 10.1658 55.3822C7.79766 55.8539 5.18264 54.8275 5.02379 50.1204C4.97246 48.5465 4.85027 46.6891 4.80627 44.7804C5.8645 44.7609 6.92273 44.7413 7.98096 44.7218C9.33734 44.6973 10.6913 44.6753 12.0477 44.6509L11.9304 47.6643C15.149 47.5005 18.8052 47.2977 18.8052 47.2977Z" stroke="black" stroke-width="0.340468" stroke-linecap="round" stroke-linejoin="round"/>
<path d="M12.2091 40.4677L12.0478 44.6493C9.63316 44.6908 7.22099 44.7324 4.80637 44.7788C4.71839 41.1422 4.75016 37.227 6.3485 34.9273C8.90975 31.2467 13.5923 30.3816 16.4053 29.4797" fill="#00D1E8"/>
<path d="M12.2091 40.4677L12.0478 44.6493C9.63316 44.6908 7.22099 44.7324 4.80637 44.7788C4.71839 41.1422 4.75016 37.227 6.3485 34.9273C8.90975 31.2467 13.5923 30.3816 16.4053 29.4797" stroke="black" stroke-width="0.340468" stroke-linecap="round" stroke-linejoin="round"/>
<path d="M9.24963 47.7948C12.6149 47.6409 18.803 47.2987 18.803 47.2987" stroke="black" stroke-width="0.340468" stroke-linecap="round" stroke-linejoin="round"/>
<path d="M61.5588 35.7291H41.2814V56.0065H61.5588V35.7291Z" fill="#C4C4C4" stroke="black" stroke-width="0.340468" stroke-linecap="round" stroke-linejoin="round"/>
<path d="M58.9014 35.7223H41.1993V56.01H58.9014V35.7223Z" fill="#DADADA"/>
<path d="M49.7537 35.7223H41.3999V56.01H49.7537V35.7223Z" fill="#E5E5E5"/>
<path d="M61.5588 35.7291H41.2814V56.0065H61.5588V35.7291Z" stroke="black" stroke-width="0.340468" stroke-linecap="round" stroke-linejoin="round"/>
<path d="M58.2362 39.3864H55.213V43.2967H58.2362V39.3864Z" fill="#8A8784" stroke="black" stroke-width="0.340468" stroke-linecap="round" stroke-linejoin="round"/>
<path d="M58.1361 40.3092H56.6087C56.3387 40.3092 56.1199 40.528 56.1199 40.798C56.1199 41.0679 56.3387 41.2868 56.6087 41.2868H58.1361C58.4061 41.2868 58.6249 41.0679 58.6249 40.798C58.6249 40.528 58.4061 40.3092 58.1361 40.3092Z" fill="#B3AFAB" stroke="black" stroke-width="0.340468" stroke-linecap="round" stroke-linejoin="round"/>
<path d="M41.28 41.5941V40.0055L39.5008 39.9811C39.0634 39.9811 38.7065 40.3379 38.7065 40.7754C38.7065 41.2128 39.0634 41.5696 39.5008 41.5696L41.28 41.5941Z" fill="#403E3D" stroke="black" stroke-width="0.340468" stroke-linecap="round" stroke-linejoin="round"/>
<path d="M51.4208 33.9113C51.8325 33.9113 52.1662 33.5776 52.1662 33.1659C52.1662 32.7543 51.8325 32.4205 51.4208 32.4205C51.0091 32.4205 50.6754 32.7543 50.6754 33.1659C50.6754 33.5776 51.0091 33.9113 51.4208 33.9113Z" stroke="#82C6D9" stroke-width="0.340468" stroke-linecap="round" stroke-linejoin="round"/>
<path d="M54.1956 28.1339C54.398 28.1339 54.5622 27.9698 54.5622 27.7673C54.5622 27.5649 54.398 27.4008 54.1956 27.4008C53.9931 27.4008 53.829 27.5649 53.829 27.7673C53.829 27.9698 53.9931 28.1339 54.1956 28.1339Z" stroke="#82C6D9" stroke-width="0.340468" stroke-linecap="round" stroke-linejoin="round"/>
<path d="M44.979 27.8635C45.1477 27.8635 45.2844 27.7268 45.2844 27.5581C45.2844 27.3893 45.1477 27.2526 44.979 27.2526C44.8102 27.2526 44.6735 27.3893 44.6735 27.5581C44.6735 27.7268 44.8102 27.8635 44.979 27.8635Z" stroke="#82C6D9" stroke-width="0.340468" stroke-linecap="round" stroke-linejoin="round"/>
<path d="M49.2245 30.4918C49.5457 30.4918 49.8061 30.2314 49.8061 29.9101C49.8061 29.5889 49.5457 29.3285 49.2245 29.3285C48.9032 29.3285 48.6428 29.5889 48.6428 29.9101C48.6428 30.2314 48.9032 30.4918 49.2245 30.4918Z" stroke="#82C6D9" stroke-width="0.340468" stroke-linecap="round" stroke-linejoin="round"/>
<path d="M44.3384 33.0609C44.6921 33.0609 44.9787 32.7742 44.9787 32.4206C44.9787 32.067 44.6921 31.7803 44.3384 31.7803C43.9848 31.7803 43.6981 32.067 43.6981 32.4206C43.6981 32.7742 43.9848 33.0609 44.3384 33.0609Z" stroke="#82C6D9" stroke-width="0.340468" stroke-linecap="round" stroke-linejoin="round"/>
<path d="M56.6818 25.0834C57.1755 25.4695 57.5201 26.039 57.6398 26.6548C57.7596 27.2707 57.6545 27.9257 57.3539 28.4756C57.0142 29.0963 56.4545 29.5582 56 30.0983C55.5454 30.6385 55.1861 31.3521 55.367 32.0364C55.4843 32.4739 55.8044 32.8233 56.0928 33.1728C56.3812 33.5223 56.6574 33.9256 56.6549 34.3801" stroke="#82C6D9" stroke-width="0.340468" stroke-linecap="round" stroke-linejoin="round"/>
<path d="M47.5529 32.7903C47.003 32.2649 46.8564 31.4217 46.9883 30.6739C47.1203 29.926 47.4869 29.2417 47.8364 28.5648C48.1859 27.8878 48.5329 27.1913 48.616 26.4336C48.6991 25.676 48.4669 24.8426 47.8535 24.3929" stroke="#82C6D9" stroke-width="0.340468" stroke-linecap="round" stroke-linejoin="round"/>
<path d="M41.3039 34.6811C40.8346 34.1801 40.7662 33.4078 40.9275 32.7406C41.0888 32.0734 41.4505 31.4747 41.7609 30.8637C42.0712 30.2527 42.3376 29.5855 42.2912 28.8988C42.2325 28.0409 41.6924 27.298 41.1401 26.6381C40.5878 25.9783 39.9841 25.3184 39.7446 24.4923C39.4856 23.593 39.7275 22.5665 40.3629 21.8773" stroke="#82C6D9" stroke-width="0.340468" stroke-linecap="round" stroke-linejoin="round"/>
<path d="M39.5099 54.2805C39.5099 54.2805 39.5075 54.2927 39.5075 54.2976H37.7039V54.2927L39.5099 54.2805Z" fill="#B87C3F" stroke="black" stroke-width="0.340468" stroke-miterlimit="10"/>
<path d="M39.889 49.4182C39.4882 48.1816 38.8064 47.7099 38.149 47.6977C37.6528 47.6903 37.1665 47.9445 36.8243 48.3306C37.2178 48.5286 37.582 48.7877 37.9021 49.0932C38.3298 49.5013 38.6817 49.9974 38.9286 50.5595C39.4027 51.6446 39.7009 52.9179 39.5102 54.2816H39.5444C40.0723 52.3216 40.2996 50.6842 39.889 49.4182Z" fill="#F0BE8B" stroke="black" stroke-width="0.340468" stroke-miterlimit="10"/>
<path d="M46.4981 50.5675C46.2928 50.719 46.0093 50.7312 45.8016 50.5846C45.5938 50.4379 45.3055 50.3206 44.9926 50.2693C44.6725 50.2155 44.3376 50.2204 44.0028 50.2497C43.668 50.2791 43.3894 50.0469 43.3454 49.7243C43.299 49.3797 43.5483 49.062 43.8953 49.0327C44.3108 48.9984 44.7531 48.9911 45.193 49.0644C45.6867 49.1451 46.1291 49.321 46.4932 49.5752C46.8354 49.8123 46.8354 50.3206 46.5005 50.5675H46.4981Z" fill="#634725" stroke="black" stroke-width="0.340468" stroke-linecap="round" stroke-linejoin="round"/>
<path d="M43.6181 51.4172C43.5985 51.3928 43.5765 51.3732 43.5545 51.3537C43.8136 51.0506 43.9675 50.6522 44.0238 50.2514C44.0604 49.985 44.0555 49.7162 44.0066 49.4767C43.9773 49.3227 43.926 49.1761 43.86 49.0368C43.6596 48.6262 43.3126 48.2889 42.8922 48.113C42.8971 48.0934 42.9044 48.0739 42.9093 48.0568C43.0731 47.4996 43.0755 47.0352 42.6429 46.5415C42.2983 46.1529 41.7216 45.9843 41.223 46.1334C40.2528 46.368 39.4291 46.6344 38.4271 46.913C38.8817 46.8006 39.3949 46.9228 39.742 47.2381C40.1232 47.5875 40.2919 48.1545 40.133 48.7118C40.1281 48.7289 40.1232 48.7435 40.1183 48.7606C41.2597 49.2372 41.7387 50.8746 40.6022 51.8058C40.6487 51.8547 40.6927 51.906 40.7293 51.9598C40.9713 52.2824 41.0764 52.7052 41.0104 53.106C40.9346 53.5703 40.6267 53.9638 40.2063 54.1789H42.5549C43.2759 54.1789 43.9382 53.6974 44.0873 52.9911C44.0971 52.9422 44.1044 52.8933 44.1117 52.8445C44.1777 52.2799 44.0213 51.7985 43.6181 51.4172Z" fill="#42AD2A"/>
<path d="M40.6016 51.8063C41.7381 50.8752 41.2591 49.2377 40.1177 48.7612C40.1226 48.7441 40.1275 48.7294 40.1324 48.7123C40.2913 48.1551 40.1226 47.5881 39.7414 47.2386C39.3943 46.9233 38.8811 46.8011 38.4265 46.9136C38.3654 46.9282 38.3068 46.9478 38.2506 46.9698C38.1064 47.0284 37.972 47.1115 37.8546 47.2142C37.5711 47.461 37.383 47.8178 37.3561 48.1917L37.5296 49.4479L37.9084 52.1802L38.1846 54.1794H40.2057C40.6261 53.9643 40.934 53.5709 41.0098 53.1065C41.0758 52.7057 40.9707 52.2829 40.7287 51.9603C40.6921 51.9065 40.6481 51.8552 40.6016 51.8063Z" fill="#2D751C"/>
<path d="M38.4268 46.9132C39.4288 46.6346 40.2524 46.3682 41.2226 46.1312C41.7212 45.9821 42.298 46.1507 42.6426 46.5417C43.0898 47.0501 43.0727 47.5291 42.8943 48.1132C43.4588 48.3478 43.889 48.8757 44.0087 49.4769C44.1285 50.0781 43.9892 50.8504 43.5566 51.3539C44.0063 51.7498 44.1822 52.2508 44.1138 52.8447C44.1089 52.8935 44.0991 52.9424 44.0894 52.9913C43.9403 53.6976 43.278 54.1791 42.557 54.1791H40.0275" stroke="black" stroke-width="0.340468" stroke-linecap="round" stroke-linejoin="round"/>
<path d="M40.1178 48.7613C40.7899 48.4094 42.0485 48.0575 42.9088 48.0575" stroke="black" stroke-width="0.340468" stroke-linecap="round" stroke-linejoin="round"/>
<path d="M40.601 51.8069C41.5321 51.6749 42.5146 51.6162 43.5532 51.3547" stroke="black" stroke-width="0.340468" stroke-linecap="round" stroke-linejoin="round"/>
<path d="M37.3561 48.1899C37.3952 47.6596 37.7569 47.1659 38.2506 46.9679C38.7442 46.77 39.3454 46.88 39.7389 47.2368C40.1324 47.5936 40.2986 48.1826 40.1177 48.7593C41.2591 49.2335 41.7381 50.8709 40.5992 51.8021C40.9291 52.1393 41.0855 52.6379 41.0098 53.1022C40.934 53.5666 40.6261 53.9601 40.2057 54.1751H38.1821L37.3561 48.1875V48.1899Z" stroke="#1A4211" stroke-width="0.340468" stroke-linecap="round" stroke-linejoin="round"/>
<path d="M44.3997 49.0223C44.6221 48.8854 44.8128 48.6972 44.9521 48.4773C45.0327 48.5775 45.0865 48.6997 45.1085 48.8243C45.1476 49.0516 45.0987 49.2911 44.9985 49.4989C44.847 49.8264 44.5635 50.1001 44.214 50.1881C43.8645 50.276 43.4564 50.1416 43.2682 49.8361C43.1264 49.6015 43.1484 49.2814 43.3097 49.0663C43.4319 49.1494 43.5761 49.2007 43.7228 49.2129C43.9598 49.23 44.1969 49.1469 44.3997 49.0223Z" fill="#FFCDB8" stroke="black" stroke-width="0.340468" stroke-linecap="round" stroke-linejoin="round"/>
<path d="M44.7139 46.5059C44.6943 46.6623 44.6576 46.8187 44.6063 46.9653C44.4817 47.3197 44.2764 47.657 43.9684 47.872C43.6874 48.07 43.3135 48.1506 42.9884 48.048C42.9591 48.0382 42.9273 48.026 42.898 48.0138C42.5876 47.8745 42.3701 47.525 42.4141 47.1926C42.5876 47.1755 42.7465 47.1095 42.8589 47.0069C43.5383 46.3885 44.054 45.4892 43.5456 44.6265C43.9758 44.6998 44.3619 45.0102 44.5599 45.4061C44.7261 45.7433 44.7676 46.1295 44.7139 46.5059Z" fill="#FFCDB8" stroke="black" stroke-width="0.340468" stroke-linecap="round" stroke-linejoin="round"/>
<path d="M44.3994 49.0212C44.1965 49.1458 43.9594 49.2289 43.7224 49.2118C43.5757 49.1996 43.4316 49.1483 43.3094 49.0652C43.1725 48.9747 43.0625 48.8452 42.9965 48.6961C42.9085 48.4933 42.9061 48.2562 42.9843 48.0485C43.3094 48.1511 43.6833 48.0705 43.9643 47.8725C44.2723 47.6574 44.4776 47.3202 44.6022 46.9658C44.6535 46.8192 44.6902 46.6628 44.7097 46.5063C45.0299 46.7972 45.2205 47.2371 45.2059 47.6746C45.1961 47.958 45.1057 48.2367 44.9517 48.4762C44.8124 48.6961 44.6218 48.8843 44.3994 49.0212Z" fill="#FFCDB8" stroke="black" stroke-width="0.340468" stroke-linecap="round" stroke-linejoin="round"/>
<path d="M43.5443 44.6276C44.0526 45.4903 43.537 46.3897 42.8575 47.008C42.7451 47.1106 42.5863 47.1766 42.4127 47.1937C41.9728 47.2377 41.4474 46.9713 41.4254 46.2235C41.4205 46.0573 41.4449 45.8936 41.4914 45.7347L41.4523 45.7249C41.4694 45.6614 41.4816 45.5978 41.4938 45.5367C41.6062 44.85 40.8853 44.3637 40.6311 43.716C40.768 43.7258 41.0563 43.5327 41.682 43.5327C42.2294 43.6231 42.7891 43.7991 43.1899 44.1852C43.3414 44.3319 43.4587 44.4785 43.5443 44.6276Z" fill="#FFCDB8" stroke="black" stroke-width="0.340468" stroke-linecap="round" stroke-linejoin="round"/>
<path d="M41.7985 45.0455C41.5883 45.4072 41.4074 45.8056 41.4221 46.2211C41.4563 47.2622 42.4583 47.3697 42.8567 47.008C43.651 46.2822 44.2204 45.175 43.1891 44.1852C42.7883 43.7991 42.2286 43.6231 41.6787 43.5327" stroke="black" stroke-width="0.340468" stroke-linecap="round" stroke-linejoin="round"/>
<path d="M44.5551 45.408C44.7921 45.887 44.775 46.4613 44.6015 46.9647C44.4793 47.3191 44.2716 47.6564 43.9636 47.8739C43.6557 48.0914 43.2378 48.1672 42.8932 48.0156" stroke="black" stroke-width="0.340468" stroke-linecap="round" stroke-linejoin="round"/>
<path d="M45.2074 47.6753C45.1903 48.2203 44.8677 48.7409 44.4009 49.0219C44.198 49.1465 43.961 49.2272 43.7239 49.2101C43.4135 49.1881 43.1227 48.9804 42.998 48.6969" stroke="black" stroke-width="0.340468" stroke-linecap="round" stroke-linejoin="round"/>
<path d="M45.1097 48.8237C45.1512 49.051 45.0999 49.2881 44.9997 49.4983C44.8458 49.8233 44.5623 50.0995 44.2128 50.1875C43.8633 50.2754 43.4552 50.141 43.267 49.8355" stroke="black" stroke-width="0.340468" stroke-linecap="round" stroke-linejoin="round"/>
<path d="M39.2885 44.858C39.374 45.4055 39.4693 45.9798 39.9043 46.3733C40.0925 46.5419 40.3393 46.647 40.5911 46.6274C41.163 46.5883 41.4049 46.036 41.488 45.5374C41.532 45.2735 41.5467 45.0047 41.5344 44.7383C41.4684 43.3183 39.3129 43.3745 39.2885 44.7969C39.2885 44.8189 39.2885 44.8385 39.2885 44.8605V44.858Z" fill="#FFCDB8" stroke="black" stroke-width="0.340468" stroke-linecap="round" stroke-linejoin="round"/>
<path d="M25.5472 51.6275L25.5277 51.6397L24.7432 51.8034C24.6894 51.779 24.6356 51.7521 24.5867 51.7203C23.6727 51.1973 23.4748 49.9411 24.0589 48.9929C24.0809 48.988 24.1028 48.9807 24.1273 48.9733C24.5232 48.8634 24.9118 48.7509 25.3004 48.641C30.7235 47.0891 35.5234 45.5445 41.0418 44.3274C39.7245 46.9693 37.4957 49.098 34.9344 50.5668C32.3707 52.0356 29.4844 52.8739 26.5663 53.3211L25.5521 51.6226L25.5472 51.6275Z" fill="#C2CACC" stroke="black" stroke-width="0.340468" stroke-linecap="round" stroke-linejoin="round"/>
<path d="M26.8727 51.6905C30.585 50.7692 34.1654 49.3077 37.4598 47.3647" stroke="black" stroke-width="0.340468" stroke-linecap="round" stroke-linejoin="round"/>
<path d="M24.0537 48.9942C23.4696 49.9425 23.6676 51.1987 24.5816 51.7217L24.5547 51.7681C24.2199 52.6479 22.4774 52.4133 22.1328 51.0032C21.8688 49.9083 22.365 49.1287 22.971 48.8574C23.3303 48.6961 23.7751 48.7083 24.105 48.9258L24.1197 48.9747C24.0977 48.982 24.0757 48.9894 24.0513 48.9942H24.0537Z" fill="#574036" stroke="black" stroke-width="0.340468" stroke-linecap="round" stroke-linejoin="round"/>
<path d="M22.4551 53.9477C22.4404 53.9648 22.4233 53.9795 22.4111 53.9966C22.0494 54.4194 21.3993 54.7468 20.7687 54.5611C20.4095 54.7982 19.9427 54.8422 19.5272 54.7322C19.4686 54.7151 19.4124 54.7004 19.3537 54.676C19.1044 54.8715 18.75 54.9253 18.4372 54.8642C17.4816 54.676 16.2572 53.4784 15.9444 51.8679C15.6389 50.2891 16.4479 48.3828 17.9607 47.2293C19.4075 46.1246 21.4335 45.7825 23.4278 46.7063C24.288 47.1071 25.2118 47.7792 25.2949 48.6468C24.9063 48.7567 24.5178 48.8692 24.1218 48.9791L24.1072 48.9303C23.7772 48.7128 23.3324 48.703 22.9732 48.8618C22.3671 49.1331 21.871 49.9127 22.1349 51.0076C22.4795 52.4178 24.222 52.6524 24.5569 51.7726C24.723 52.1685 24.4127 52.9945 24.1609 53.2463C23.8261 53.5835 23.0416 53.955 22.4526 53.9501L22.4551 53.9477Z" fill="#FFCDB8" stroke="black" stroke-width="0.340468" stroke-linecap="round" stroke-linejoin="round"/>
<path d="M22.4103 53.9953C21.9069 54.5818 20.8462 54.985 20.0642 54.0832C19.6829 53.6971 19.3432 53.2694 19.0524 52.8099" stroke="black" stroke-width="0.340468" stroke-linecap="round" stroke-linejoin="round"/>
<path d="M19.5295 54.7271C19.0945 54.6122 18.7108 54.3458 18.3931 54.0256C18.0754 53.7055 17.8187 53.334 17.5621 52.9625" stroke="black" stroke-width="0.340468" stroke-linecap="round" stroke-linejoin="round"/>
<path d="M18.4363 54.8603C17.4807 54.6721 16.2563 53.4746 15.9459 51.8616C15.6355 50.2486 16.4494 48.374 17.9622 47.2229C19.475 46.0719 21.435 45.7761 23.4268 46.7024C24.2895 47.1032 25.2134 47.7753 25.2965 48.6429" stroke="black" stroke-width="0.340468" stroke-linecap="round" stroke-linejoin="round"/>
<path d="M25.2118 51.0545L26.5682 53.3224C29.4863 52.8776 32.3726 52.0369 34.9363 50.5681C37.4975 49.0993 39.7264 46.9706 41.0437 44.3287C35.1049 45.6338 30.0044 47.3226 24.0632 48.9918C23.4473 49.9914 23.7015 51.3355 24.7475 51.7999L25.5344 51.6386" stroke="black" stroke-width="0.340468" stroke-linecap="round" stroke-linejoin="round"/>
<path d="M24.1101 48.9226C23.7802 48.7051 23.3354 48.6929 22.9737 48.8542C22.3676 49.1255 21.8715 49.9075 22.1354 51C22.4776 52.4126 24.2225 52.6472 24.5549 51.7649C24.7211 52.1609 24.4107 52.9869 24.159 53.2386C23.8022 53.5979 22.9297 53.9987 22.3358 53.9352C21.2263 53.8203 20.608 52.7499 20.2145 52.1071" stroke="black" stroke-width="0.340468" stroke-linecap="round" stroke-linejoin="round"/>
<path d="M38.8335 49.0528C38.7944 49.0308 38.7553 49.0137 38.7162 48.9991C38.8824 48.5249 38.7846 48.085 38.5402 47.7453C38.3691 47.5058 38.1296 47.3225 37.8584 47.2125C37.851 47.2101 37.8461 47.2076 37.8388 47.2052C37.6433 47.127 37.4233 47.1319 37.2278 47.2101C36.4311 47.5302 34.1045 48.5371 34.1045 48.5371C33.535 48.7229 33.0927 49.2459 33.0022 49.8373C32.9143 50.4288 33.1831 51.0593 33.6743 51.4039C33.3517 51.9025 33.2711 52.5501 33.4788 53.0951C33.6866 53.6401 34.1802 54.0702 34.7472 54.2022C34.7839 54.1851 36.8588 54.1802 38.1883 54.1778H39.2758C39.6009 53.8992 39.8062 53.6694 39.8355 53.2417C39.8648 52.814 39.7206 52.4157 39.4371 52.0955C40.4978 50.8076 39.6693 49.4585 38.8335 49.0528Z" fill="#42AD2A"/>
<path d="M33.6696 51.4031C33.1808 51.0585 32.9095 50.4279 32.9975 49.8365C33.0855 49.2451 33.5303 48.7221 34.0997 48.5363C34.0997 48.5363 36.4239 47.527 37.2231 47.2068C37.4186 47.1286 37.6386 47.1262 37.8341 47.2019C38.1127 47.3119 38.3595 47.5001 38.533 47.742C38.7774 48.0818 38.8752 48.5217 38.709 48.9958C39.579 49.3282 40.542 50.7432 39.43 52.0923C39.7135 52.4124 39.8577 52.8132 39.8283 53.2409C39.799 53.6686 39.5937 53.8959 39.2687 54.1769C39.2687 54.1769 34.7938 54.1769 34.74 54.2014C34.1706 54.0694 33.6794 53.6417 33.4716 53.0943C33.2639 52.5468 33.3445 51.9016 33.6647 51.4031H33.6696Z" stroke="black" stroke-width="0.340468" stroke-linecap="round" stroke-linejoin="round"/>
<path d="M34.1979 49.4412C34.3396 49.9593 34.7478 50.3723 35.3343 50.4725C35.1535 50.6851 35.0728 50.9784 35.1192 51.2521C35.1657 51.5258 35.3368 51.7776 35.542 51.9877C35.1828 52.2517 34.997 52.6647 34.9384 53.1071" stroke="black" stroke-width="0.340468" stroke-linecap="round" stroke-linejoin="round"/>
<path d="M36.2988 52.1988C37.3351 52.1988 38.5082 52.1695 39.4369 52.0913" stroke="black" stroke-width="0.340468" stroke-linecap="round" stroke-linejoin="round"/>
<path d="M36.0345 50.0599C36.6724 49.7202 37.7038 49.2877 38.7131 48.9968" stroke="black" stroke-width="0.340468" stroke-linecap="round" stroke-linejoin="round"/>
<path d="M34.0392 54.301V56.0118H26.0964V54.301H32.4898H34.0392Z" fill="#B87E4B" stroke="black" stroke-width="0.340468" stroke-miterlimit="10"/>
<path d="M50.292 54.301V56.0118H34.0398V54.301H36.689H39.5069H50.292Z" fill="#755130" stroke="black" stroke-width="0.340468" stroke-miterlimit="10"/>
<path d="M25.2477 27.9887L24.8347 31.6473C24.3361 32.7544 23.1288 33.4509 21.9142 33.5145C20.9879 33.5634 20.1741 33.3459 19.4727 32.9793C17.8499 32.1288 16.8259 30.4791 16.4031 29.482C17.2609 27.8763 18.021 25.5399 18.5195 23.9098L21.3545 25.6279L25.2477 27.9887Z" fill="#F0BAA3" stroke="black" stroke-width="0.340468" stroke-linecap="round" stroke-linejoin="round"/>
<path d="M25.245 27.9888L24.832 31.6474C24.3334 32.7545 23.1261 33.451 21.9114 33.5145C20.9852 33.5634 20.1714 33.3459 19.47 32.9793C19.1058 32.2095 18.9005 31.3272 18.9005 30.3912C18.9005 28.3334 19.8928 26.5444 21.3518 25.6279L25.245 27.9888Z" fill="#FFCDB8"/>
<path d="M25.2477 27.9887L24.8347 31.6473C24.3361 32.7544 23.1288 33.4509 21.9142 33.5145C20.9879 33.5634 20.1741 33.3459 19.4727 32.9793C17.8499 32.1288 16.8259 30.4791 16.4031 29.482C17.2609 27.8763 18.021 25.5399 18.5195 23.9098L21.3545 25.6279L25.2477 27.9887Z" stroke="black" stroke-width="0.340468" stroke-linecap="round" stroke-linejoin="round"/>
<path d="M29.52 20.6709C29.283 23.3006 29.0019 26.1454 27.0101 28.0907C25.9372 29.1392 24.3658 29.6964 22.875 29.54C22.8676 29.54 22.8627 29.5376 22.8554 29.5376C18.5418 29.0756 17.6351 24.9674 17.3321 23.5279C16.7431 20.7369 14.3505 13.8572 21.1764 11.9265C21.5821 11.8116 21.9829 11.7285 22.3788 11.6772C25.5266 11.2569 28.2956 12.7819 29.3147 16.0861C29.7547 17.5134 29.652 19.185 29.52 20.6709Z" fill="#F0BAA3" stroke="black" stroke-width="0.340468" stroke-linecap="round" stroke-linejoin="round"/>
<path d="M29.5185 20.6717C29.2815 23.3014 29.0004 26.1461 27.0086 28.0915C25.9357 29.14 24.3643 29.6972 22.8735 29.5408C22.8661 29.5408 22.8612 29.5383 22.8539 29.5383C19.777 28.4166 19.777 24.6602 19.777 20.9601C19.777 17.5826 21.4706 14.1195 22.5166 13.9118C25.6644 13.4914 28.2917 12.7827 29.3108 16.0869C29.7507 17.5141 29.6481 19.1858 29.5161 20.6717H29.5185Z" fill="#FFCDB8"/>
<path d="M29.52 20.6709C29.283 23.3006 29.0019 26.1454 27.0101 28.0907C25.9372 29.1392 24.3658 29.6964 22.875 29.54C22.8676 29.54 22.8627 29.5376 22.8554 29.5376C18.5418 29.0756 17.6351 24.9674 17.3321 23.5279C16.7431 20.7369 14.3505 13.8572 21.1764 11.9265C21.5821 11.8116 21.9829 11.7285 22.3788 11.6772C25.5266 11.2569 28.2956 12.7819 29.3147 16.0861C29.7547 17.5134 29.652 19.185 29.52 20.6709Z" stroke="black" stroke-width="0.340468" stroke-linecap="round" stroke-linejoin="round"/>
<path d="M32.115 16.3841C31.1985 17.3373 30.6682 17.9507 29.6466 18.7694H29.6295C29.6442 17.848 29.5733 16.9242 29.3143 16.086C29.2238 15.7829 29.1139 15.497 28.9917 15.2281C28.6666 14.71 27.8381 14.1015 26.643 13.9426C26.0418 13.862 20.868 13.317 19.9002 15.1573C19.8904 15.1719 19.8831 15.1866 19.8757 15.2013C19.6387 15.6876 19.602 16.2473 19.5654 16.7898C19.5287 17.3275 19.4798 17.8871 19.2208 18.3662C18.9617 18.8427 18.4363 19.2166 17.901 19.1311C17.8253 19.0407 17.9059 17.848 17.1703 17.413C16.9357 17.2737 16.7084 17.198 16.4933 17.176C16.3687 17.1613 16.244 17.1686 16.1267 17.1906C16.051 16.6554 15.9825 16.1006 15.9263 15.4799C15.7601 13.6127 17.8179 11.8262 19.3503 10.6164C19.5043 10.4967 19.6533 10.3794 19.7951 10.2694C20.8704 9.43354 22.2977 8.42175 23.6296 7.66902C24.8858 6.95783 25.5946 6.92117 26.1811 7.41485C26.6284 7.79366 26.5673 8.38021 26.1567 8.85189C26.5111 8.51951 27.8503 7.49061 28.8597 8.08204C29.7444 8.59772 29.6588 9.4922 29.1627 10.6409C30.3529 9.99076 31.2987 10.0323 31.9537 10.8388C32.7211 11.7871 31.6873 13.0872 30.8808 13.6713C31.7142 13.4612 32.3521 13.5076 32.8458 14.0306C33.1708 14.3752 33.3492 15.0986 32.115 16.3841Z" fill="#B07B5C" stroke="black" stroke-width="0.340468" stroke-linecap="round" stroke-linejoin="round"/>
<path d="M32.1142 16.3841C31.1977 17.3373 30.6674 17.9507 29.6458 18.7694H29.6287C29.6434 17.848 29.5725 16.9242 29.3134 16.086C29.223 15.7829 29.113 15.497 28.9908 15.2281C28.6658 14.71 27.8373 14.1015 26.6422 13.9426C26.041 13.862 20.8672 13.317 19.8994 15.1573C19.4717 14.1797 19.2346 13.1019 19.2346 11.9679C19.2346 11.506 19.2737 11.0539 19.3495 10.6164C19.5035 10.4967 19.6525 10.3794 19.7943 10.2694C20.8696 9.43354 22.2969 8.42175 23.6288 7.66902C24.885 6.95783 25.5938 6.92117 26.1803 7.41485C26.6275 7.79366 26.5664 8.38021 26.1559 8.85189C26.5102 8.51951 27.8495 7.49061 28.8589 8.08204C29.7436 8.59772 29.658 9.4922 29.1619 10.6409C30.3521 9.99076 31.2979 10.0323 31.9529 10.8388C32.7203 11.7871 31.6865 13.0872 30.88 13.6713C31.7134 13.4612 32.3513 13.5076 32.8449 14.0306C33.17 14.3752 33.3484 15.0986 32.1142 16.3841Z" fill="#C98C69"/>
<path d="M32.115 16.3841C31.1985 17.3373 30.6682 17.9507 29.6466 18.7694H29.6295C29.6442 17.848 29.5733 16.9242 29.3143 16.086C29.2238 15.7829 29.1139 15.497 28.9917 15.2281C28.6666 14.71 27.8381 14.1015 26.643 13.9426C26.0418 13.862 20.868 13.317 19.9002 15.1573C19.8904 15.1719 19.8831 15.1866 19.8757 15.2013C19.6387 15.6876 19.602 16.2473 19.5654 16.7898C19.5287 17.3275 19.4798 17.8871 19.2208 18.3662C18.9617 18.8427 18.4363 19.2166 17.901 19.1311C17.8253 19.0407 17.9059 17.848 17.1703 17.413C16.9357 17.2737 16.7084 17.198 16.4933 17.176C16.3687 17.1613 16.244 17.1686 16.1267 17.1906C16.051 16.6554 15.9825 16.1006 15.9263 15.4799C15.7601 13.6127 17.8179 11.8262 19.3503 10.6164C19.5043 10.4967 19.6533 10.3794 19.7951 10.2694C20.8704 9.43354 22.2977 8.42175 23.6296 7.66902C24.8858 6.95783 25.5946 6.92117 26.1811 7.41485C26.6284 7.79366 26.5673 8.38021 26.1567 8.85189C26.5111 8.51951 27.8503 7.49061 28.8597 8.08204C29.7444 8.59772 29.6588 9.4922 29.1627 10.6409C30.3529 9.99076 31.2987 10.0323 31.9537 10.8388C32.7211 11.7871 31.6873 13.0872 30.8808 13.6713C31.7142 13.4612 32.3521 13.5076 32.8458 14.0306C33.1708 14.3752 33.3492 15.0986 32.115 16.3841Z" stroke="black" stroke-width="0.340468" stroke-linecap="round" stroke-linejoin="round"/>
<path d="M24.672 20.4288C24.7303 19.5966 23.9415 18.8635 22.9101 18.7912C21.8788 18.7189 20.9954 19.3348 20.937 20.1669C20.8787 20.999 21.6675 21.7322 22.6989 21.8045C23.7303 21.8768 24.6137 21.2609 24.672 20.4288Z" fill="white" stroke="black" stroke-width="0.340468" stroke-linecap="round" stroke-linejoin="round"/>
<path d="M24.4887 20.9997C24.7081 20.5875 24.656 20.1309 24.3724 19.98C24.0888 19.8291 23.6811 20.0409 23.4617 20.4532C23.2423 20.8655 23.2943 21.322 23.5779 21.473C23.8615 21.6239 24.2693 21.412 24.4887 20.9997Z" fill="black" stroke="black" stroke-width="0.340468" stroke-linecap="round" stroke-linejoin="round"/>
<path d="M29.1148 19.9295C28.9022 19.1229 27.9173 18.6855 26.9177 18.9494C25.9182 19.2134 25.796 20.0932 26.0086 20.8997C26.2212 21.7062 26.6929 22.1339 27.6925 21.8699C28.692 21.606 29.3299 20.736 29.1148 19.9295Z" fill="white" stroke="black" stroke-width="0.340468" stroke-linecap="round" stroke-linejoin="round"/>
<path d="M28.7936 20.9581C29.013 20.5458 28.9609 20.0893 28.6774 19.9384C28.3938 19.7874 27.986 19.9993 27.7666 20.4116C27.5472 20.8239 27.5993 21.2804 27.8829 21.4313C28.1665 21.5822 28.5742 21.3704 28.7936 20.9581Z" fill="black" stroke="black" stroke-width="0.340468" stroke-linecap="round" stroke-linejoin="round"/>
<path d="M25.8272 19.4301C26.2109 20.3319 27.1787 22.1477 26.9245 22.8418C26.6165 23.6776 25.8198 23.8389 25.1135 23.6654" fill="#FFCDB8"/>
<path d="M25.8272 19.4301C26.2109 20.3319 27.1787 22.1477 26.9245 22.8418C26.6165 23.6776 25.8198 23.8389 25.1135 23.6654" stroke="black" stroke-width="0.340468" stroke-linecap="round" stroke-linejoin="round"/>
<path d="M22.5204 24.5365C23.691 26.0029 24.9594 25.7927 25.5533 25.5361" stroke="black" stroke-width="0.340468" stroke-linecap="round" stroke-linejoin="round"/>
<path d="M21.4723 17.4253C21.8193 17.1223 22.2861 16.961 22.748 16.9879C23.2099 17.0148 23.6547 17.2298 23.9627 17.5695" stroke="black" stroke-width="0.340468" stroke-linecap="round" stroke-linejoin="round"/>
<path d="M26.0842 17.5184C26.3408 17.1763 26.7465 16.9514 27.1718 16.9099C27.597 16.8684 28.0369 17.015 28.3547 17.3009" stroke="black" stroke-width="0.340468" stroke-linecap="round" stroke-linejoin="round"/>
<path d="M17.3827 22.7103C16.3587 22.6981 15.5571 22.114 15.0805 21.2073C13.9245 18.9955 15.3176 16.1581 17.1896 17.2677C17.935 17.7076 17.8495 18.9124 17.9277 19.0053" fill="#F0BAA3"/>
<path d="M17.3827 22.7103C16.3587 22.6981 15.5571 22.114 15.0805 21.2073C13.9245 18.9955 15.3176 16.1581 17.1896 17.2677C17.935 17.7076 17.8495 18.9124 17.9277 19.0053" stroke="black" stroke-width="0.340468" stroke-linecap="round" stroke-linejoin="round"/>
<path d="M48.0702 54.8669L52.9215 45.7779C53.0608 45.5091 53.3394 45.3405 53.6424 45.3405H58.5083C58.677 45.3405 58.8334 45.4236 58.9287 45.5604L59.5128 46.406L55.2383 55.5757C55.1064 55.8299 54.0261 55.9887 53.7402 55.9887H48.7497C48.1729 55.9887 47.8039 55.3777 48.0702 54.8669Z" fill="#9CC1D9" stroke="black" stroke-width="0.340468" stroke-linejoin="round"/>
<path d="M48.8881 54.8675L53.2505 46.5117C53.3899 46.2429 53.6685 46.0742 53.9715 46.0742H58.857C59.4679 46.0742 59.8614 46.7219 59.5779 47.2644L55.2399 55.5763C55.1079 55.8304 54.8464 55.9893 54.5605 55.9893H49.57C48.9932 55.9893 48.6242 55.3783 48.8906 54.8675H48.8881Z" fill="#466C85" stroke="black" stroke-width="0.340468" stroke-linecap="round" stroke-linejoin="round"/>
<path d="M53.3993 55.6834L52.2653 51.5923C52.1895 51.3161 52.3679 51.0326 52.6172 51.0326H56.0583C56.2196 51.0326 56.3613 51.1523 56.4102 51.3308L57.5442 55.4219C57.62 55.6981 57.4416 55.9816 57.1923 55.9816H53.7512C53.5899 55.9816 53.4481 55.8618 53.3993 55.6834Z" fill="#1A5880" stroke="black" stroke-width="0.340468" stroke-linejoin="round"/>
</g>
</g>
</g>
<defs>
<clipPath id="clip0_5431_72039">
<rect width="56" height="56" rx="12" fill="white"/>
</clipPath>
<clipPath id="clip1_5431_72039">
<rect width="125.222" height="70.4375" fill="white" transform="translate(-30.3334 -14.4375)"/>
</clipPath>
<clipPath id="clip2_5431_72039">
<rect width="70.3002" height="70.3002" fill="white" transform="translate(-2.65234 -14.4375)"/>
</clipPath>
</defs>
</svg>
