<svg width="24" height="24" viewBox="0 0 24 24" fill="none" xmlns="http://www.w3.org/2000/svg">
<g clip-path="url(#clip0_5430_71217)">
<rect width="24" height="24" rx="12" fill="white"/>
<g clip-path="url(#clip1_5430_71217)">
<rect width="53.6667" height="30.1875" transform="translate(-13 -6.1875)" fill="#FFF5D2"/>
<g clip-path="url(#clip2_5430_71217)">
<rect width="30.1287" height="30.1287" transform="translate(-1.13672 -6.1875)" fill="#FFF5D2"/>
<path d="M15.212 19.6487L12.3861 20.9443L12.052 19.6968C13.0209 19.4004 13.9551 18.9878 14.8276 18.4703C14.9627 18.861 15.0905 19.2538 15.212 19.6487Z" fill="#F0BAA3" stroke="black" stroke-width="0.145915" stroke-linecap="round" stroke-linejoin="round"/>
<path d="M14.0731 16.4671C14.3434 17.128 14.5958 17.7963 14.8273 18.4708C13.9548 18.9882 13.0205 19.4009 12.0516 19.6973L11.1184 16.2073L12.4769 14.0748C13.4248 14.6844 13.8375 15.8942 14.0731 16.4671Z" fill="#00E6FF" stroke="black" stroke-width="0.145915" stroke-linecap="round" stroke-linejoin="round"/>
<path d="M7.56567 12.2413C7.5991 12.2069 7.5803 12.2142 7.56567 12.2413Z" fill="#00C3D9" stroke="black" stroke-width="0.145915" stroke-linecap="round" stroke-linejoin="round"/>
<path d="M13.0103 17.5812L12.7286 24.005H3.92618C3.92618 24.005 3.48523 18.3427 4.38076 15.0654C4.71383 13.8472 7.02755 12.6406 7.03069 12.6354C7.38576 12.4018 7.52087 12.2866 7.56487 12.2416C7.53135 12.3055 7.52506 12.4835 8.28338 12.5139C8.48658 12.5223 8.68768 12.5401 8.88878 12.5673C10.1802 12.7443 11.4172 13.3099 12.4761 14.0745L13.0103 17.5812Z" fill="#00D1E8" stroke="black" stroke-width="0.145915" stroke-linecap="round" stroke-linejoin="round"/>
<path d="M9.32349 12.237C9.35064 12.2098 9.33706 12.214 9.32349 12.237Z" fill="#00E6FF"/>
<path d="M13.0111 17.5806L12.7293 24.0044H5.68346C5.68346 24.0044 5.11786 18.5327 6.01234 15.2554C6.34542 14.0373 8.66332 13.3952 8.66646 13.39C8.70312 13.3659 8.85814 12.5897 8.88956 12.5677C10.181 12.7448 11.418 13.3104 12.4769 14.075C13.1012 15.2219 13.2887 16.3908 13.0111 17.5817V17.5806Z" fill="#00E6FF"/>
<path d="M13.0103 17.5812L12.7286 24.005H3.92618C3.92618 24.005 3.48523 18.3427 4.38076 15.0654C4.71383 13.8472 7.02755 12.6406 7.03069 12.6354C7.38576 12.4018 7.52087 12.2866 7.56487 12.2416C7.53135 12.3055 7.52506 12.4835 8.28338 12.5139C8.48658 12.5223 8.68768 12.5401 8.88878 12.5673C10.1802 12.7443 11.4172 13.3099 12.4761 14.0745" stroke="black" stroke-width="0.145915" stroke-linecap="round" stroke-linejoin="round"/>
<path d="M8.05935 20.2704L7.94518 22.4417C7.94518 22.4417 5.87237 23.4043 4.4039 23.7258C4.38819 23.729 4.37248 23.7321 4.35677 23.7353C3.34184 23.9374 2.22111 23.4975 2.15303 21.4802C2.13104 20.8057 2.07867 20.0096 2.05981 19.1916C2.51334 19.1832 2.96687 19.1749 3.42039 19.1665C4.0017 19.156 4.58196 19.1466 5.16327 19.1361L5.113 20.4276C6.49243 20.3574 8.05935 20.2704 8.05935 20.2704Z" fill="#F0BAA3" stroke="black" stroke-width="0.145915" stroke-linecap="round" stroke-linejoin="round"/>
<path d="M8.06071 20.2709L7.94654 22.4421C7.94654 22.4421 8.60431 22.3112 7.13585 22.6328C7.12328 22.6349 6.13244 23.0203 5.18244 23.058C4.7551 23.0748 4.34033 22.903 4.05753 22.5825C3.08239 21.4754 3.96536 20.4845 3.96536 20.4845C4.54667 20.4741 4.532 20.4395 5.11331 20.429C6.49274 20.3589 8.05966 20.2719 8.05966 20.2719L8.06071 20.2709Z" fill="#FFCDB8"/>
<path d="M8.05935 20.2704L7.94518 22.4417C7.94518 22.4417 5.87237 23.4043 4.4039 23.7258C4.38819 23.729 4.37248 23.7321 4.35677 23.7353C3.34184 23.9374 2.22111 23.4975 2.15303 21.4802C2.13104 20.8057 2.07867 20.0096 2.05981 19.1916C2.51334 19.1832 2.96687 19.1749 3.42039 19.1665C4.0017 19.156 4.58196 19.1466 5.16327 19.1361L5.113 20.4276C6.49243 20.3574 8.05935 20.2704 8.05935 20.2704Z" stroke="black" stroke-width="0.145915" stroke-linecap="round" stroke-linejoin="round"/>
<path d="M5.23244 17.3433L5.16331 19.1354C4.12848 19.1532 3.09469 19.171 2.05986 19.1909C2.02215 17.6324 2.03577 15.9544 2.72077 14.9688C3.81845 13.3914 5.82527 13.0206 7.03084 12.6342" fill="#00D1E8"/>
<path d="M5.23244 17.3433L5.16331 19.1354C4.12848 19.1532 3.09469 19.171 2.05986 19.1909C2.02215 17.6324 2.03577 15.9544 2.72077 14.9688C3.81845 13.3914 5.82527 13.0206 7.03084 12.6342" stroke="black" stroke-width="0.145915" stroke-linecap="round" stroke-linejoin="round"/>
<path d="M3.96411 20.4835C5.40639 20.4175 8.05841 20.2709 8.05841 20.2709" stroke="black" stroke-width="0.145915" stroke-linecap="round" stroke-linejoin="round"/>
<path d="M26.3823 15.3125H17.692V24.0028H26.3823V15.3125Z" fill="#C4C4C4" stroke="black" stroke-width="0.145915" stroke-linecap="round" stroke-linejoin="round"/>
<path d="M25.2434 15.3096H17.6569V24.0043H25.2434V15.3096Z" fill="#DADADA"/>
<path d="M21.323 15.3096H17.7428V24.0043H21.323V15.3096Z" fill="#E5E5E5"/>
<path d="M26.3823 15.3125H17.692V24.0028H26.3823V15.3125Z" stroke="black" stroke-width="0.145915" stroke-linecap="round" stroke-linejoin="round"/>
<path d="M24.9584 16.8799H23.6627V18.5557H24.9584V16.8799Z" fill="#8A8784" stroke="black" stroke-width="0.145915" stroke-linecap="round" stroke-linejoin="round"/>
<path d="M24.9155 17.2754H24.2609C24.1452 17.2754 24.0514 17.3692 24.0514 17.4849C24.0514 17.6006 24.1452 17.6944 24.2609 17.6944H24.9155C25.0312 17.6944 25.125 17.6006 25.125 17.4849C25.125 17.3692 25.0312 17.2754 24.9155 17.2754Z" fill="#B3AFAB" stroke="black" stroke-width="0.145915" stroke-linecap="round" stroke-linejoin="round"/>
<path d="M17.6914 17.8261V17.1452L16.9289 17.1348C16.7414 17.1348 16.5885 17.2877 16.5885 17.4752C16.5885 17.6627 16.7414 17.8156 16.9289 17.8156L17.6914 17.8261Z" fill="#403E3D" stroke="black" stroke-width="0.145915" stroke-linecap="round" stroke-linejoin="round"/>
<path d="M22.0375 14.5334C22.2139 14.5334 22.3569 14.3904 22.3569 14.214C22.3569 14.0376 22.2139 13.8945 22.0375 13.8945C21.861 13.8945 21.718 14.0376 21.718 14.214C21.718 14.3904 21.861 14.5334 22.0375 14.5334Z" stroke="#82C6D9" stroke-width="0.145915" stroke-linecap="round" stroke-linejoin="round"/>
<path d="M23.2267 12.0574C23.3135 12.0574 23.3838 11.987 23.3838 11.9003C23.3838 11.8135 23.3135 11.7432 23.2267 11.7432C23.1399 11.7432 23.0696 11.8135 23.0696 11.9003C23.0696 11.987 23.1399 12.0574 23.2267 12.0574Z" stroke="#82C6D9" stroke-width="0.145915" stroke-linecap="round" stroke-linejoin="round"/>
<path d="M19.2767 11.9415C19.349 11.9415 19.4076 11.8829 19.4076 11.8106C19.4076 11.7383 19.349 11.6797 19.2767 11.6797C19.2044 11.6797 19.1458 11.7383 19.1458 11.8106C19.1458 11.8829 19.2044 11.9415 19.2767 11.9415Z" stroke="#82C6D9" stroke-width="0.145915" stroke-linecap="round" stroke-linejoin="round"/>
<path d="M21.0962 13.0679C21.2339 13.0679 21.3455 12.9563 21.3455 12.8186C21.3455 12.6809 21.2339 12.5693 21.0962 12.5693C20.9585 12.5693 20.8469 12.6809 20.8469 12.8186C20.8469 12.9563 20.9585 13.0679 21.0962 13.0679Z" stroke="#82C6D9" stroke-width="0.145915" stroke-linecap="round" stroke-linejoin="round"/>
<path d="M19.0022 14.169C19.1538 14.169 19.2766 14.0461 19.2766 13.8945C19.2766 13.743 19.1538 13.6201 19.0022 13.6201C18.8506 13.6201 18.7278 13.743 18.7278 13.8945C18.7278 14.0461 18.8506 14.169 19.0022 14.169Z" stroke="#82C6D9" stroke-width="0.145915" stroke-linecap="round" stroke-linejoin="round"/>
<path d="M24.2922 10.75C24.5038 10.9155 24.6515 11.1595 24.7028 11.4235C24.7541 11.6874 24.7091 11.9681 24.5803 12.2038C24.4347 12.4698 24.1948 12.6678 24 12.8993C23.8052 13.1308 23.6512 13.4366 23.7287 13.7299C23.779 13.9174 23.9162 14.0671 24.0398 14.2169C24.1634 14.3667 24.2817 14.5395 24.2807 14.7343" stroke="#82C6D9" stroke-width="0.145915" stroke-linecap="round" stroke-linejoin="round"/>
<path d="M20.3798 14.053C20.1441 13.8278 20.0813 13.4664 20.1378 13.1459C20.1944 12.8254 20.3515 12.5322 20.5013 12.242C20.6511 11.9519 20.7998 11.6534 20.8354 11.3287C20.871 11.004 20.7715 10.6468 20.5086 10.4541" stroke="#82C6D9" stroke-width="0.145915" stroke-linecap="round" stroke-linejoin="round"/>
<path d="M17.7016 14.8633C17.5005 14.6486 17.4712 14.3176 17.5403 14.0317C17.6095 13.7457 17.7645 13.4891 17.8975 13.2273C18.0305 12.9654 18.1447 12.6795 18.1248 12.3852C18.0996 12.0175 17.8682 11.6991 17.6315 11.4163C17.3947 11.1335 17.136 10.8507 17.0334 10.4967C16.9224 10.1113 17.0261 9.67134 17.2984 9.37598" stroke="#82C6D9" stroke-width="0.145915" stroke-linecap="round" stroke-linejoin="round"/>
<path d="M16.9328 23.2631C16.9328 23.2631 16.9318 23.2683 16.9318 23.2704H16.1588V23.2683L16.9328 23.2631Z" fill="#B87C3F" stroke="black" stroke-width="0.145915" stroke-miterlimit="10"/>
<path d="M17.0953 21.1792C16.9235 20.6492 16.6313 20.4471 16.3496 20.4418C16.1369 20.4387 15.9285 20.5476 15.7819 20.7131C15.9505 20.798 16.1066 20.909 16.2438 21.0399C16.4271 21.2148 16.5779 21.4274 16.6837 21.6683C16.8869 22.1334 17.0147 22.6791 16.933 23.2635H16.9476C17.1739 22.4235 17.2713 21.7218 17.0953 21.1792Z" fill="#F0BE8B" stroke="black" stroke-width="0.145915" stroke-miterlimit="10"/>
<path d="M19.9278 21.6718C19.8398 21.7367 19.7183 21.7419 19.6292 21.6791C19.5402 21.6163 19.4166 21.566 19.2826 21.544C19.1453 21.5209 19.0018 21.523 18.8584 21.5356C18.7149 21.5482 18.5955 21.4487 18.5766 21.3104C18.5567 21.1627 18.6635 21.0266 18.8123 21.014C18.9903 20.9993 19.1799 20.9962 19.3684 21.0276C19.58 21.0622 19.7696 21.1376 19.9257 21.2465C20.0723 21.3481 20.0723 21.566 19.9288 21.6718H19.9278Z" fill="#634725" stroke="black" stroke-width="0.145915" stroke-linecap="round" stroke-linejoin="round"/>
<path d="M18.6934 22.036C18.6851 22.0255 18.6756 22.0171 18.6662 22.0087C18.7772 21.8788 18.8432 21.7081 18.8673 21.5363C18.883 21.4222 18.8809 21.307 18.86 21.2043C18.8474 21.1383 18.8254 21.0755 18.7971 21.0158C18.7112 20.8398 18.5625 20.6953 18.3824 20.6199C18.3845 20.6115 18.3876 20.6031 18.3897 20.5958C18.4599 20.357 18.4609 20.158 18.2755 19.9464C18.1278 19.7799 17.8807 19.7076 17.667 19.7715C17.2512 19.872 16.8982 19.9862 16.4688 20.1056C16.6636 20.0574 16.8835 20.1098 17.0323 20.2449C17.1956 20.3947 17.2679 20.6377 17.1998 20.8765C17.1977 20.8838 17.1956 20.8901 17.1936 20.8974C17.6827 21.1017 17.888 21.8034 17.4009 22.2025C17.4208 22.2234 17.4397 22.2454 17.4554 22.2685C17.5591 22.4067 17.6041 22.5879 17.5759 22.7597C17.5434 22.9587 17.4114 23.1274 17.2313 23.2195H18.2378C18.5468 23.2195 18.8306 23.0132 18.8945 22.7105C18.8987 22.6895 18.9019 22.6686 18.905 22.6476C18.9333 22.4057 18.8663 22.1994 18.6934 22.036Z" fill="#42AD2A"/>
<path d="M17.4007 22.2027C17.8878 21.8037 17.6825 21.1019 17.1933 20.8977C17.1954 20.8903 17.1975 20.884 17.1996 20.8767C17.2677 20.6379 17.1954 20.3949 17.032 20.2451C16.8833 20.11 16.6633 20.0576 16.4685 20.1058C16.4423 20.1121 16.4172 20.1205 16.3931 20.1299C16.3313 20.1551 16.2737 20.1907 16.2234 20.2347C16.1019 20.3404 16.0213 20.4934 16.0098 20.6536L16.0841 21.192L16.2465 22.363L16.3648 23.2198H17.231C17.4112 23.1276 17.5432 22.959 17.5756 22.7599C17.6039 22.5882 17.5589 22.407 17.4552 22.2687C17.4395 22.2457 17.4206 22.2237 17.4007 22.2027Z" fill="#2D751C"/>
<path d="M16.4686 20.1056C16.8981 19.9862 17.251 19.8721 17.6669 19.7705C17.8805 19.7066 18.1277 19.7789 18.2754 19.9464C18.4671 20.1643 18.4597 20.3696 18.3833 20.6199C18.6252 20.7205 18.8096 20.9467 18.8609 21.2044C18.9122 21.462 18.8525 21.793 18.6671 22.0088C18.8599 22.1785 18.9353 22.3932 18.9059 22.6477C18.9038 22.6686 18.8997 22.6896 18.8955 22.7105C18.8316 23.0132 18.5477 23.2196 18.2387 23.2196H17.1547" stroke="black" stroke-width="0.145915" stroke-linecap="round" stroke-linejoin="round"/>
<path d="M17.1934 20.8977C17.4814 20.7469 18.0208 20.5961 18.3895 20.5961" stroke="black" stroke-width="0.145915" stroke-linecap="round" stroke-linejoin="round"/>
<path d="M17.4004 22.2029C17.7995 22.1464 18.2205 22.1212 18.6657 22.0092" stroke="black" stroke-width="0.145915" stroke-linecap="round" stroke-linejoin="round"/>
<path d="M16.0098 20.6528C16.0265 20.4255 16.1815 20.2139 16.3931 20.1291C16.6047 20.0443 16.8624 20.0914 17.031 20.2443C17.1996 20.3972 17.2708 20.6497 17.1933 20.8968C17.6825 21.1 17.8878 21.8018 17.3997 22.2009C17.5411 22.3454 17.6081 22.5591 17.5756 22.7581C17.5432 22.9571 17.4112 23.1257 17.231 23.2179H16.3638L16.0098 20.6518V20.6528Z" stroke="#1A4211" stroke-width="0.145915" stroke-linecap="round" stroke-linejoin="round"/>
<path d="M19.0285 21.0096C19.1238 20.9509 19.2055 20.8703 19.2652 20.776C19.2997 20.8189 19.3228 20.8713 19.3322 20.9247C19.349 21.0221 19.328 21.1248 19.2851 21.2138C19.2201 21.3542 19.0986 21.4715 18.9489 21.5092C18.7991 21.5469 18.6242 21.4893 18.5435 21.3584C18.4828 21.2578 18.4922 21.1206 18.5613 21.0284C18.6137 21.064 18.6755 21.086 18.7383 21.0913C18.8399 21.0986 18.9415 21.063 19.0285 21.0096Z" fill="#FFCDB8" stroke="black" stroke-width="0.145915" stroke-linecap="round" stroke-linejoin="round"/>
<path d="M19.1631 19.9311C19.1547 19.9981 19.139 20.0651 19.117 20.128C19.0636 20.2799 18.9756 20.4244 18.8436 20.5166C18.7232 20.6014 18.5629 20.636 18.4236 20.592C18.411 20.5878 18.3974 20.5825 18.3849 20.5773C18.2518 20.5176 18.1586 20.3678 18.1775 20.2254C18.2518 20.2181 18.3199 20.1898 18.3681 20.1458C18.6593 19.8808 18.8803 19.4953 18.6624 19.1256C18.8468 19.157 19.0123 19.2901 19.0971 19.4597C19.1683 19.6043 19.1861 19.7698 19.1631 19.9311Z" fill="#FFCDB8" stroke="black" stroke-width="0.145915" stroke-linecap="round" stroke-linejoin="round"/>
<path d="M19.0283 21.0091C18.9414 21.0625 18.8398 21.0981 18.7382 21.0908C18.6753 21.0855 18.6135 21.0635 18.5612 21.0279C18.5025 20.9892 18.4554 20.9336 18.4271 20.8697C18.3894 20.7828 18.3883 20.6812 18.4218 20.5922C18.5612 20.6362 18.7214 20.6016 18.8419 20.5168C18.9738 20.4246 19.0618 20.2801 19.1152 20.1282C19.1372 20.0653 19.1529 19.9983 19.1613 19.9313C19.2985 20.0559 19.3802 20.2444 19.3739 20.4319C19.3697 20.5534 19.331 20.6728 19.265 20.7755C19.2053 20.8697 19.1236 20.9504 19.0283 21.0091Z" fill="#FFCDB8" stroke="black" stroke-width="0.145915" stroke-linecap="round" stroke-linejoin="round"/>
<path d="M18.6618 19.1261C18.8797 19.4958 18.6587 19.8813 18.3675 20.1463C18.3193 20.1903 18.2513 20.2185 18.1769 20.2259C17.9884 20.2447 17.7632 20.1306 17.7537 19.8101C17.7516 19.7388 17.7621 19.6687 17.782 19.6006L17.7653 19.5964C17.7726 19.5691 17.7778 19.5419 17.7831 19.5157C17.8312 19.2214 17.5223 19.013 17.4133 18.7354C17.472 18.7396 17.5956 18.6569 17.8637 18.6569C18.0983 18.6956 18.3382 18.771 18.51 18.9365C18.5749 18.9994 18.6252 19.0622 18.6618 19.1261Z" fill="#FFCDB8" stroke="black" stroke-width="0.145915" stroke-linecap="round" stroke-linejoin="round"/>
<path d="M17.9136 19.3052C17.8235 19.4602 17.746 19.6309 17.7523 19.809C17.767 20.2552 18.1964 20.3013 18.3671 20.1463C18.7075 19.8352 18.9516 19.3607 18.5096 18.9365C18.3378 18.771 18.098 18.6956 17.8623 18.6569" stroke="black" stroke-width="0.145915" stroke-linecap="round" stroke-linejoin="round"/>
<path d="M19.095 19.4606C19.1966 19.6659 19.1893 19.912 19.1149 20.1278C19.0626 20.2796 18.9735 20.4242 18.8416 20.5174C18.7096 20.6106 18.5305 20.6431 18.3828 20.5782" stroke="black" stroke-width="0.145915" stroke-linecap="round" stroke-linejoin="round"/>
<path d="M19.3746 20.4323C19.3673 20.6658 19.229 20.8889 19.0289 21.0094C18.942 21.0628 18.8404 21.0974 18.7388 21.09C18.6058 21.0806 18.4812 20.9916 18.4277 20.8701" stroke="black" stroke-width="0.145915" stroke-linecap="round" stroke-linejoin="round"/>
<path d="M19.3327 20.9244C19.3505 21.0218 19.3285 21.1234 19.2856 21.2135C19.2196 21.3528 19.0981 21.4712 18.9483 21.5089C18.7985 21.5466 18.6236 21.489 18.543 21.3581" stroke="black" stroke-width="0.145915" stroke-linecap="round" stroke-linejoin="round"/>
<path d="M16.8379 19.2249C16.8745 19.4595 16.9154 19.7056 17.1018 19.8743C17.1825 19.9465 17.2883 19.9916 17.3962 19.9832C17.6412 19.9664 17.7449 19.7297 17.7806 19.516C17.7994 19.4029 17.8057 19.2877 17.8005 19.1735C17.7722 18.565 16.8484 18.5891 16.8379 19.1987C16.8379 19.2081 16.8379 19.2165 16.8379 19.2259V19.2249Z" fill="#FFCDB8" stroke="black" stroke-width="0.145915" stroke-linecap="round" stroke-linejoin="round"/>
<path d="M10.9488 22.126L10.9404 22.1313L10.6042 22.2014C10.5812 22.191 10.5581 22.1795 10.5372 22.1658C10.1454 21.9417 10.0606 21.4033 10.3109 20.9969C10.3203 20.9948 10.3298 20.9917 10.3402 20.9886C10.5099 20.9414 10.6765 20.8932 10.843 20.8461C13.1672 20.181 15.2243 19.519 17.5893 18.9974C17.0248 20.1297 16.0695 21.042 14.9719 21.6715C13.8731 22.3009 12.6362 22.6602 11.3856 22.8519L10.9509 22.1239L10.9488 22.126Z" fill="#C2CACC" stroke="black" stroke-width="0.145915" stroke-linecap="round" stroke-linejoin="round"/>
<path d="M11.5168 22.1531C13.1079 21.7582 14.6423 21.1319 16.0542 20.2992" stroke="black" stroke-width="0.145915" stroke-linecap="round" stroke-linejoin="round"/>
<path d="M10.3087 20.9975C10.0584 21.4039 10.1432 21.9423 10.535 22.1664L10.5234 22.1863C10.3799 22.5634 9.63314 22.4628 9.48546 21.8585C9.37234 21.3893 9.58496 21.0551 9.84472 20.9389C9.99869 20.8697 10.1893 20.875 10.3307 20.9682L10.337 20.9892C10.3276 20.9923 10.3181 20.9954 10.3077 20.9975H10.3087Z" fill="#574036" stroke="black" stroke-width="0.145915" stroke-linecap="round" stroke-linejoin="round"/>
<path d="M9.62358 23.1204C9.6173 23.1277 9.60996 23.134 9.60473 23.1414C9.44971 23.3226 9.1711 23.4629 8.90087 23.3833C8.7469 23.4849 8.54685 23.5038 8.36879 23.4566C8.34365 23.4493 8.31956 23.443 8.29443 23.4325C8.18759 23.5163 8.03572 23.5394 7.90165 23.5132C7.49211 23.4325 6.96736 22.9193 6.8333 22.2291C6.70237 21.5525 7.04906 20.7355 7.6974 20.2411C8.31747 19.7677 9.18577 19.621 10.0404 20.017C10.4091 20.1887 10.8051 20.4768 10.8407 20.8486C10.6741 20.8957 10.5076 20.9439 10.3379 20.991L10.3316 20.9701C10.1902 20.8769 9.9996 20.8727 9.84563 20.9408C9.58587 21.057 9.37325 21.3912 9.48637 21.8604C9.63406 22.4647 10.3809 22.5653 10.5243 22.1882C10.5956 22.3579 10.4626 22.7119 10.3547 22.8198C10.2112 22.9644 9.87496 23.1236 9.62253 23.1215L9.62358 23.1204Z" fill="#FFCDB8" stroke="black" stroke-width="0.145915" stroke-linecap="round" stroke-linejoin="round"/>
<path d="M9.60442 23.1408C9.38865 23.3922 8.93408 23.565 8.59891 23.1785C8.43551 23.013 8.28992 22.8297 8.16528 22.6328" stroke="black" stroke-width="0.145915" stroke-linecap="round" stroke-linejoin="round"/>
<path d="M8.36977 23.4545C8.18333 23.4052 8.01889 23.2911 7.88273 23.1539C7.74657 23.0167 7.63659 22.8574 7.52661 22.6982" stroke="black" stroke-width="0.145915" stroke-linecap="round" stroke-linejoin="round"/>
<path d="M7.90126 23.5116C7.49172 23.4309 6.96697 22.9177 6.83395 22.2264C6.70093 21.5351 7.04972 20.7318 7.69806 20.2384C8.3464 19.7451 9.18642 19.6184 10.0401 20.0153C10.4098 20.1871 10.8057 20.4751 10.8413 20.847" stroke="black" stroke-width="0.145915" stroke-linecap="round" stroke-linejoin="round"/>
<path d="M10.8051 21.8805L11.3864 22.8525C12.637 22.6619 13.874 22.3016 14.9727 21.6721C16.0704 21.0426 17.0256 20.1303 17.5902 18.998C15.045 19.5574 12.859 20.2811 10.3128 20.9965C10.0488 21.4249 10.1578 22.001 10.6061 22.2L10.9433 22.1308" stroke="black" stroke-width="0.145915" stroke-linecap="round" stroke-linejoin="round"/>
<path d="M10.3329 20.9669C10.1915 20.8736 10.0009 20.8684 9.84585 20.9375C9.58609 21.0538 9.37347 21.389 9.48659 21.8572C9.63323 22.4626 10.3811 22.5631 10.5235 22.185C10.5947 22.3547 10.4617 22.7087 10.3538 22.8166C10.2009 22.9705 9.827 23.1423 9.57248 23.1151C9.09696 23.0659 8.83196 22.6071 8.66333 22.3316" stroke="black" stroke-width="0.145915" stroke-linecap="round" stroke-linejoin="round"/>
<path d="M16.6429 21.0226C16.6262 21.0132 16.6094 21.0059 16.5926 20.9996C16.6639 20.7964 16.622 20.6078 16.5172 20.4623C16.4439 20.3596 16.3413 20.2811 16.225 20.2339C16.2219 20.2329 16.2198 20.2318 16.2166 20.2308C16.1328 20.1973 16.0386 20.1994 15.9548 20.2329C15.6133 20.3701 14.6162 20.8016 14.6162 20.8016C14.3721 20.8812 14.1826 21.1054 14.1438 21.3588C14.1061 21.6123 14.2213 21.8825 14.4318 22.0302C14.2936 22.2439 14.259 22.5215 14.348 22.755C14.4371 22.9886 14.6487 23.1729 14.8917 23.2295C14.9074 23.2222 15.7966 23.2201 16.3664 23.219H16.8325C16.9718 23.0996 17.0598 23.0012 17.0723 22.8179C17.0849 22.6346 17.0231 22.4638 16.9016 22.3266C17.3562 21.7747 17.0011 21.1965 16.6429 21.0226Z" fill="#42AD2A"/>
<path d="M14.4298 22.0299C14.2204 21.8822 14.1041 21.612 14.1418 21.3585C14.1795 21.105 14.3701 20.8809 14.6142 20.8013C14.6142 20.8013 15.6103 20.3687 15.9528 20.2315C16.0366 20.198 16.1308 20.1969 16.2146 20.2294C16.334 20.2765 16.4398 20.3572 16.5142 20.4609C16.6189 20.6065 16.6608 20.795 16.5896 20.9982C16.9625 21.1406 17.3751 21.7471 16.8986 22.3253C17.0201 22.4625 17.0819 22.6342 17.0693 22.8175C17.0567 23.0008 16.9688 23.0982 16.8294 23.2187C16.8294 23.2187 14.9116 23.2187 14.8886 23.2292C14.6446 23.1726 14.434 22.9893 14.345 22.7547C14.256 22.5201 14.2905 22.2436 14.4277 22.0299H14.4298Z" stroke="black" stroke-width="0.145915" stroke-linecap="round" stroke-linejoin="round"/>
<path d="M14.6562 21.1891C14.717 21.4111 14.8919 21.5881 15.1433 21.6311C15.0658 21.7222 15.0312 21.8479 15.0511 21.9652C15.071 22.0825 15.1443 22.1904 15.2323 22.2805C15.0784 22.3936 14.9988 22.5706 14.9736 22.7602" stroke="black" stroke-width="0.145915" stroke-linecap="round" stroke-linejoin="round"/>
<path d="M15.5566 22.3709C16.0007 22.3709 16.5035 22.3583 16.9015 22.3248" stroke="black" stroke-width="0.145915" stroke-linecap="round" stroke-linejoin="round"/>
<path d="M15.4434 21.4543C15.7167 21.3087 16.1587 21.1233 16.5913 20.9987" stroke="black" stroke-width="0.145915" stroke-linecap="round" stroke-linejoin="round"/>
<path d="M14.5883 23.2719V24.005H11.1842V23.2719H13.9242H14.5883Z" fill="#B87E4B" stroke="black" stroke-width="0.145915" stroke-miterlimit="10"/>
<path d="M21.5537 23.2719V24.005H14.5885V23.2719H15.7239H16.9315H21.5537Z" fill="#755130" stroke="black" stroke-width="0.145915" stroke-miterlimit="10"/>
<path d="M10.8205 11.9952L10.6435 13.5632C10.4298 14.0376 9.91236 14.3361 9.3918 14.3634C8.99484 14.3843 8.64605 14.2911 8.34545 14.134C7.64997 13.7695 7.21111 13.0625 7.02991 12.6352C7.39755 11.947 7.72329 10.9457 7.93696 10.2471L9.15195 10.9834L10.8205 11.9952Z" fill="#F0BAA3" stroke="black" stroke-width="0.145915" stroke-linecap="round" stroke-linejoin="round"/>
<path d="M10.8193 11.9952L10.6423 13.5632C10.4286 14.0376 9.91118 14.3361 9.39062 14.3634C8.99365 14.3843 8.64487 14.2911 8.34426 14.134C8.1882 13.8041 8.10022 13.4259 8.10022 13.0248C8.10022 12.1429 8.52547 11.3762 9.15077 10.9834L10.8193 11.9952Z" fill="#FFCDB8"/>
<path d="M10.8205 11.9952L10.6435 13.5632C10.4298 14.0376 9.91236 14.3361 9.3918 14.3634C8.99484 14.3843 8.64605 14.2911 8.34545 14.134C7.64997 13.7695 7.21111 13.0625 7.02991 12.6352C7.39755 11.947 7.72329 10.9457 7.93696 10.2471L9.15195 10.9834L10.8205 11.9952Z" stroke="black" stroke-width="0.145915" stroke-linecap="round" stroke-linejoin="round"/>
<path d="M12.6514 8.85895C12.5498 9.98596 12.4294 11.2051 11.5758 12.0389C11.116 12.4882 10.4425 12.727 9.80355 12.66C9.80041 12.66 9.79832 12.6589 9.79517 12.6589C7.94651 12.461 7.55792 10.7003 7.42804 10.0834C7.17562 8.88723 6.15021 5.93879 9.07561 5.11134C9.24948 5.06211 9.42125 5.0265 9.59093 5.00451C10.94 4.82435 12.1267 5.47793 12.5635 6.89402C12.752 7.50571 12.708 8.22213 12.6514 8.85895Z" fill="#F0BAA3" stroke="black" stroke-width="0.145915" stroke-linecap="round" stroke-linejoin="round"/>
<path d="M12.6508 8.85928C12.5492 9.98629 12.4287 11.2055 11.5751 12.0392C11.1153 12.4885 10.4418 12.7273 9.80289 12.6603C9.79975 12.6603 9.79765 12.6593 9.79451 12.6593C8.47583 12.1785 8.47583 10.5686 8.47583 8.98288C8.47583 7.53537 9.20168 6.05119 9.64997 5.96216C10.999 5.78201 12.125 5.47826 12.5618 6.89435C12.7503 7.50604 12.7063 8.22246 12.6497 8.85928H12.6508Z" fill="#FFCDB8"/>
<path d="M12.6514 8.85895C12.5498 9.98596 12.4294 11.2051 11.5758 12.0389C11.116 12.4882 10.4425 12.727 9.80355 12.66C9.80041 12.66 9.79832 12.6589 9.79517 12.6589C7.94651 12.461 7.55792 10.7003 7.42804 10.0834C7.17562 8.88723 6.15021 5.93879 9.07561 5.11134C9.24948 5.06211 9.42125 5.0265 9.59093 5.00451C10.94 4.82435 12.1267 5.47793 12.5635 6.89402C12.752 7.50571 12.708 8.22213 12.6514 8.85895Z" stroke="black" stroke-width="0.145915" stroke-linecap="round" stroke-linejoin="round"/>
<path d="M13.7636 7.02175C13.3708 7.43024 13.1435 7.69313 12.7057 8.04401H12.6984C12.7047 7.64914 12.6743 7.25322 12.5633 6.89396C12.5245 6.76409 12.4774 6.64154 12.425 6.52633C12.2857 6.30428 11.9306 6.04347 11.4185 5.97539C11.1608 5.94083 8.94344 5.70726 8.52867 6.49595C8.52448 6.50224 8.52134 6.50852 8.51819 6.5148C8.4166 6.72324 8.40088 6.96309 8.38517 7.19562C8.36946 7.42605 8.34851 7.6659 8.23749 7.87119C8.12646 8.07544 7.90127 8.23569 7.67189 8.19903C7.63942 8.16028 7.67399 7.64914 7.35872 7.46271C7.25817 7.403 7.16076 7.37053 7.06859 7.36111C7.01517 7.35482 6.96175 7.35796 6.91148 7.36739C6.87901 7.13801 6.84968 6.90025 6.82559 6.63421C6.75437 5.83399 7.63628 5.06834 8.293 4.54987C8.35899 4.49855 8.42288 4.44828 8.48363 4.40114C8.94449 4.04293 9.55617 3.60931 10.127 3.2867C10.6654 2.98191 10.9691 2.9662 11.2205 3.17777C11.4122 3.34012 11.386 3.5915 11.21 3.79365C11.3619 3.6512 11.9359 3.21024 12.3685 3.46372C12.7476 3.68472 12.711 4.06807 12.4983 4.56035C13.0084 4.28174 13.4138 4.29954 13.6945 4.64519C14.0234 5.05158 13.5803 5.6088 13.2347 5.85913C13.5918 5.76905 13.8652 5.78895 14.0768 6.0131C14.2161 6.16078 14.2925 6.47081 13.7636 7.02175Z" fill="#B07B5C" stroke="black" stroke-width="0.145915" stroke-linecap="round" stroke-linejoin="round"/>
<path d="M13.7632 7.02175C13.3705 7.43024 13.1432 7.69313 12.7053 8.04401H12.698C12.7043 7.64914 12.6739 7.25322 12.5629 6.89396C12.5241 6.76409 12.477 6.64154 12.4246 6.52633C12.2853 6.30428 11.9303 6.04347 11.4181 5.97539C11.1604 5.94083 8.94307 5.70726 8.5283 6.49595C8.34501 6.07699 8.24341 5.61508 8.24341 5.12909C8.24341 4.93113 8.26017 4.73736 8.29264 4.54987C8.35862 4.49855 8.42251 4.44828 8.48326 4.40114C8.94412 4.04293 9.55581 3.60931 10.1266 3.2867C10.665 2.98191 10.9688 2.9662 11.2201 3.17777C11.4118 3.34012 11.3856 3.5915 11.2097 3.79365C11.3615 3.6512 11.9355 3.21024 12.3681 3.46372C12.7472 3.68472 12.7106 4.06807 12.498 4.56035C13.008 4.28174 13.4134 4.29954 13.6941 4.64519C14.023 5.05158 13.5799 5.6088 13.2343 5.85913C13.5915 5.76905 13.8648 5.78895 14.0764 6.0131C14.2157 6.16078 14.2922 6.47081 13.7632 7.02175Z" fill="#C98C69"/>
<path d="M13.7636 7.02175C13.3708 7.43024 13.1435 7.69313 12.7057 8.04401H12.6984C12.7047 7.64914 12.6743 7.25322 12.5633 6.89396C12.5245 6.76409 12.4774 6.64154 12.425 6.52633C12.2857 6.30428 11.9306 6.04347 11.4185 5.97539C11.1608 5.94083 8.94344 5.70726 8.52867 6.49595C8.52448 6.50224 8.52134 6.50852 8.51819 6.5148C8.4166 6.72324 8.40088 6.96309 8.38517 7.19562C8.36946 7.42605 8.34851 7.6659 8.23749 7.87119C8.12646 8.07544 7.90127 8.23569 7.67189 8.19903C7.63942 8.16028 7.67399 7.64914 7.35872 7.46271C7.25817 7.403 7.16076 7.37053 7.06859 7.36111C7.01517 7.35482 6.96175 7.35796 6.91148 7.36739C6.87901 7.13801 6.84968 6.90025 6.82559 6.63421C6.75437 5.83399 7.63628 5.06834 8.293 4.54987C8.35899 4.49855 8.42288 4.44828 8.48363 4.40114C8.94449 4.04293 9.55617 3.60931 10.127 3.2867C10.6654 2.98191 10.9691 2.9662 11.2205 3.17777C11.4122 3.34012 11.386 3.5915 11.21 3.79365C11.3619 3.6512 11.9359 3.21024 12.3685 3.46372C12.7476 3.68472 12.711 4.06807 12.4983 4.56035C13.0084 4.28174 13.4138 4.29954 13.6945 4.64519C14.0234 5.05158 13.5803 5.6088 13.2347 5.85913C13.5918 5.76905 13.8652 5.78895 14.0768 6.0131C14.2161 6.16078 14.2925 6.47081 13.7636 7.02175Z" stroke="black" stroke-width="0.145915" stroke-linecap="round" stroke-linejoin="round"/>
<path d="M10.5737 8.7552C10.5987 8.39858 10.2606 8.08437 9.81861 8.05338C9.37659 8.02239 8.998 8.28637 8.973 8.64299C8.948 8.9996 9.28606 9.31382 9.72808 9.3448C10.1701 9.37579 10.5487 9.11181 10.5737 8.7552Z" fill="white" stroke="black" stroke-width="0.145915" stroke-linecap="round" stroke-linejoin="round"/>
<path d="M10.4951 8.99986C10.5892 8.82318 10.5669 8.62751 10.4453 8.56283C10.3238 8.49816 10.149 8.58896 10.055 8.76565C9.96099 8.94234 9.98329 9.138 10.1048 9.20268C10.2264 9.26736 10.4011 9.17655 10.4951 8.99986Z" fill="black" stroke="black" stroke-width="0.145915" stroke-linecap="round" stroke-linejoin="round"/>
<path d="M12.4778 8.54121C12.3867 8.19557 11.9646 8.00808 11.5362 8.1212C11.1078 8.23432 11.0554 8.61139 11.1465 8.95703C11.2377 9.30267 11.4398 9.48597 11.8682 9.37285C12.2966 9.25973 12.57 8.88685 12.4778 8.54121Z" fill="white" stroke="black" stroke-width="0.145915" stroke-linecap="round" stroke-linejoin="round"/>
<path d="M12.3401 8.98204C12.4341 8.80535 12.4118 8.60969 12.2903 8.54501C12.1688 8.48034 11.994 8.57114 11.9 8.74783C11.806 8.92451 11.8283 9.12018 11.9498 9.18486C12.0713 9.24953 12.2461 9.15873 12.3401 8.98204Z" fill="black" stroke="black" stroke-width="0.145915" stroke-linecap="round" stroke-linejoin="round"/>
<path d="M11.0688 8.32715C11.2332 8.71364 11.648 9.49186 11.5391 9.78932C11.4071 10.1475 11.0656 10.2167 10.7629 10.1423" fill="#FFCDB8"/>
<path d="M11.0688 8.32715C11.2332 8.71364 11.648 9.49186 11.5391 9.78932C11.4071 10.1475 11.0656 10.2167 10.7629 10.1423" stroke="black" stroke-width="0.145915" stroke-linecap="round" stroke-linejoin="round"/>
<path d="M9.65161 10.5156C10.1533 11.1441 10.6969 11.054 10.9514 10.944" stroke="black" stroke-width="0.145915" stroke-linecap="round" stroke-linejoin="round"/>
<path d="M9.20239 7.46802C9.35112 7.33815 9.55118 7.26902 9.74914 7.28054C9.9471 7.29206 10.1377 7.38423 10.2697 7.52982" stroke="black" stroke-width="0.145915" stroke-linecap="round" stroke-linejoin="round"/>
<path d="M11.179 7.50792C11.2889 7.36128 11.4628 7.26492 11.6451 7.24712C11.8273 7.22931 12.0158 7.29216 12.152 7.4147" stroke="black" stroke-width="0.145915" stroke-linecap="round" stroke-linejoin="round"/>
<path d="M7.44974 9.73301C7.01088 9.72777 6.66733 9.47745 6.46308 9.08886C5.96766 8.14096 6.56468 6.92492 7.36699 7.40044C7.68645 7.58898 7.64979 8.10535 7.68331 8.14515" fill="#F0BAA3"/>
<path d="M7.44974 9.73301C7.01088 9.72777 6.66733 9.47745 6.46308 9.08886C5.96766 8.14096 6.56468 6.92492 7.36699 7.40044C7.68645 7.58898 7.64979 8.10535 7.68331 8.14515" stroke="black" stroke-width="0.145915" stroke-linecap="round" stroke-linejoin="round"/>
<path d="M20.6015 23.5144L22.6806 19.6191C22.7403 19.5039 22.8597 19.4316 22.9896 19.4316H25.075C25.1472 19.4316 25.2143 19.4673 25.2551 19.5259L25.5055 19.8883L23.6736 23.8182C23.617 23.9271 23.154 23.9952 23.0315 23.9952H20.8927C20.6455 23.9952 20.4873 23.7333 20.6015 23.5144Z" fill="#9CC1D9" stroke="black" stroke-width="0.145915" stroke-linejoin="round"/>
<path d="M20.952 23.5147L22.8216 19.9336C22.8813 19.8184 23.0008 19.7461 23.1306 19.7461H25.2244C25.4862 19.7461 25.6549 20.0237 25.5334 20.2562L23.6742 23.8184C23.6177 23.9273 23.5056 23.9954 23.3831 23.9954H21.2443C20.9971 23.9954 20.8389 23.7336 20.9531 23.5147H20.952Z" fill="#466C85" stroke="black" stroke-width="0.145915" stroke-linecap="round" stroke-linejoin="round"/>
<path d="M22.8854 23.8643L22.3994 22.1109C22.3669 21.9926 22.4434 21.8711 22.5502 21.8711H24.025C24.0941 21.8711 24.1548 21.9224 24.1758 21.9989L24.6618 23.7522C24.6943 23.8706 24.6178 23.9921 24.511 23.9921H23.0362C22.9671 23.9921 22.9063 23.9408 22.8854 23.8643Z" fill="#1A5880" stroke="black" stroke-width="0.145915" stroke-linejoin="round"/>
</g>
</g>
</g>
<defs>
<clipPath id="clip0_5430_71217">
<rect width="24" height="24" rx="12" fill="white"/>
</clipPath>
<clipPath id="clip1_5430_71217">
<rect width="53.6667" height="30.1875" fill="white" transform="translate(-13 -6.1875)"/>
</clipPath>
<clipPath id="clip2_5430_71217">
<rect width="30.1287" height="30.1287" fill="white" transform="translate(-1.13672 -6.1875)"/>
</clipPath>
</defs>
</svg>
