<svg width="285" height="161" viewBox="0 0 285 161" fill="none" xmlns="http://www.w3.org/2000/svg">
<g clip-path="url(#clip0_5418_6505)">
<rect width="285" height="160.312" fill="#F2F6FF"/>
<path d="M95.1762 56.796C123.402 52.7637 122.711 63.7305 146.587 62.5923C159.652 61.9695 162.212 48.9835 190.186 48.9836C218.159 48.9836 222.233 79.6559 216.969 96.1101C204.029 136.558 161.488 157.181 121.635 145.057C97.4812 137.709 78.1998 122.446 71.1451 106.081C64.0905 89.7164 66.9506 60.8282 95.1762 56.796Z" fill="#DAE5FF" fill-opacity="0.4"/>
<path d="M110.166 143.075C108.41 156.345 105.485 178.3 105.272 178.854C104.931 179.728 104.125 179.98 103.49 179.822C99.8965 179.707 96.452 179.596 91.3704 179.43C90.083 179.072 89.5842 178.027 89.6908 176.186C90.1299 168.636 88.868 122.173 89.2687 113.557H129.921C128.949 133.67 127.551 156.448 126.579 176.561C126.434 179.553 125.539 179.975 124.324 179.954C122.111 179.916 115.333 179.796 112.272 179.741C110.853 179.715 110.46 178.27 110.439 175.452C110.422 173.236 110.251 153.263 110.166 143.075Z" fill="#434F80"/>
<path d="M117.073 131.104C115.325 132.072 113.432 132.767 111.475 133.159C111.475 133.159 105.61 176.936 105.46 177.776C105.273 178.855 104.122 179.98 103.491 179.822C99.897 179.707 96.4525 179.989 91.3666 179.822C90.0792 179.464 89.5804 178.023 89.687 176.186C90.1261 168.636 88.86 122.173 89.2607 113.558H129.913C128.941 133.671 127.543 156.444 126.571 176.557C126.426 179.55 125.535 179.972 124.316 179.95C122.103 179.912 115.329 179.793 112.264 179.737C110.845 179.712 110.452 178.266 110.431 175.449C110.41 172.631 110.179 145.931 110.158 143.071" stroke="black" stroke-width="0.85261" stroke-linecap="round" stroke-linejoin="round"/>
<path d="M135.037 83.4856L136.691 73.5101C137.1 71.0929 140.404 71.272 141.943 71.2677C143.248 71.2677 146.973 71.4297 147.293 74.6057C147.344 74.6057 147.57 92.5702 147.57 92.5702C147.57 98.5981 142.817 101.254 138.588 100.461C134.636 99.715 129.516 96.1383 119.771 91.3254L114.306 72.261C115.614 71.434 117.307 71.4041 118.795 71.8432C120.282 72.2823 121.608 73.1392 122.883 74.0174C127.125 76.9205 131.123 80.1476 135.037 83.4856Z" fill="#BFF0FD"/>
<path d="M134.235 88.3156L136.691 73.51C137.096 71.0886 140.404 71.2676 141.943 71.2676C143.247 71.2676 146.973 71.4296 147.293 74.6013C147.348 74.5246 147.574 92.5658 147.574 92.5658C147.574 98.5938 142.821 101.25 138.592 100.457C134.64 99.715 129.524 96.134 119.775 91.3253L114.31 72.2566C115.623 71.4296 117.294 71.4765 118.803 71.8389C120.657 72.2822 122.337 73.1689 123.586 74.094C129.524 78.4978 132.21 81.0087 135.045 83.4813" stroke="black" stroke-width="0.85261" stroke-linecap="round" stroke-linejoin="round"/>
<path d="M147.51 56.8204C148.265 57.1699 148.192 58.1845 148.163 58.7132C148.001 61.3392 148.035 62.5542 148.103 64.4725C148.15 65.8197 148.239 67.1796 148.026 68.5139C147.809 69.844 147.255 71.1741 146.227 72.0437C145.144 72.956 143.384 73.6253 140.353 73.4804C138.959 73.4122 137.582 72.9901 136.52 72.0778C135.463 71.1655 134.67 69.9889 133.894 68.8294C133.31 67.9597 132.73 67.0943 132.146 66.2247C131.797 65.7046 131.439 65.1504 131.379 64.5237C131.319 63.897 131.677 63.1851 132.296 63.0743C132.871 62.9719 133.395 63.3982 133.826 63.799C134.261 64.1997 134.691 64.6047 135.122 65.0054C135.408 65.2697 135.796 65.5554 136.149 65.3976C136.542 65.2271 136.559 64.69 136.507 64.2679C136.239 62.098 135.8 59.9366 135.817 57.7497C135.821 57.2893 135.847 56.8033 136.081 56.4026C136.311 56.0019 136.802 55.7162 137.241 55.8612C137.701 56.0104 137.906 56.5347 138.055 56.9951C138.451 58.2272 138.848 59.4549 139.278 60.7552C139.287 59.3825 139.295 58.014 139.304 56.6413C139.308 55.6608 139.394 54.416 140.225 54.1517C141.436 53.7595 141.811 54.7741 141.87 55.3837C142.007 56.88 142.19 58.7942 142.42 60.3075C142.651 59.0499 142.842 57.3703 143.077 56.117C143.166 55.6224 143.273 55.0981 143.627 54.7443C144.006 54.3563 144.701 54.2796 145.08 54.6633C145.396 54.983 145.413 55.4818 145.409 55.9336C145.396 57.4513 145.221 59.3952 145.306 60.8191C145.652 59.4464 145.805 58.1035 146.24 57.1401C146.453 56.6669 147.041 56.6029 147.51 56.8204Z" fill="#FFCDB8" stroke="black" stroke-width="0.85261" stroke-linecap="round" stroke-linejoin="round"/>
<path d="M140.353 73.4761C138.955 73.4122 137.582 72.9859 136.521 72.0736C135.459 71.1613 134.67 69.9847 133.89 68.8252C133.311 67.9598 132.726 67.0901 132.147 66.2247C131.797 65.7003 131.435 65.1504 131.375 64.5237C131.315 63.8971 131.674 63.1851 132.292 63.0743C132.871 62.972 133.396 63.4025 133.822 63.799C134.253 64.1997 134.687 64.6005 135.118 65.0012C135.404 65.2655 135.787 65.5511 136.145 65.3977C136.538 65.2271 136.55 64.69 136.499 64.2637C136.231 62.0938 135.792 59.9324 135.809 57.7497C135.809 57.2851 135.843 56.8033 136.073 56.4026C136.303 56.0019 136.793 55.712 137.233 55.8569C137.693 56.0104 137.898 56.5305 138.047 56.9952C138.443 58.2272 138.84 59.455 139.27 60.7509C139.279 59.3825 139.287 58.0098 139.292 56.6413C139.296 55.6608 139.385 54.416 140.212 54.1517C141.423 53.7638 141.803 54.7741 141.858 55.388C141.994 56.8801 142.178 58.7985 142.408 60.3118C142.642 59.0542 142.83 57.3746 143.064 56.117C143.154 55.6267 143.265 55.1024 143.614 54.7443C143.994 54.3606 144.689 54.2796 145.068 54.6676C145.383 54.9873 145.396 55.4861 145.396 55.9337C145.383 57.4556 145.213 59.3995 145.298 60.8191C145.644 59.4464 145.797 58.1036 146.232 57.1401C146.445 56.6712 147.033 56.603 147.498 56.8204C148.253 57.17 148.18 58.1846 148.15 58.7132C147.988 61.3392 148.027 62.5542 148.091 64.4726C148.137 65.8197 148.227 67.1796 148.014 68.5139C147.801 69.8483 147.246 71.1741 146.215 72.048C145.132 72.9603 143.371 73.6253 140.345 73.4804L140.353 73.4761Z" stroke="black" stroke-width="0.85261" stroke-linecap="round" stroke-linejoin="round"/>
<path d="M140.336 65.5806C141.048 65.9046 141.623 66.5099 141.913 67.2346C142.203 67.9593 142.203 68.7949 141.909 69.5196" stroke="black" stroke-width="0.85261" stroke-linecap="round" stroke-linejoin="round"/>
<path d="M131.674 102.666C132.1 105.182 132.155 115.498 129.781 116.427C125.04 117.6 102.122 118.039 90.3433 116.41C86.9925 115.946 86.8305 111.516 86.9925 108.276C87.4828 98.4544 87.1332 88.918 91.8268 80.2768C93.4724 77.2457 97.2153 73.7884 100.298 72.2452C100.298 72.2452 112.11 71.6228 115.606 72.2921C121.638 75.9711 124.644 80.5368 126.993 85.8699C129.342 91.203 130.697 96.924 131.674 102.666Z" fill="#BFF0FD"/>
<path d="M126.993 85.8699C129.342 91.203 130.697 96.924 131.674 102.666C132.1 105.182 132.155 115.498 129.781 116.427C125.04 117.6 102.122 118.039 90.3433 116.41C86.9925 115.946 86.8305 111.516 86.9925 108.276C87.4828 98.4544 87.1332 88.918 91.8268 80.2768C93.4724 77.2457 97.2153 73.7884 100.298 72.2452C100.298 72.2452 112.11 71.6228 115.606 72.2921" stroke="black" stroke-width="0.85261" stroke-linecap="round" stroke-linejoin="round"/>
<path d="M127.782 103.118C127.948 103.685 127.909 104.307 127.671 104.849C127.556 105.104 127.398 105.33 127.206 105.535C127.291 106.247 127.057 107.001 126.549 107.504C125.705 108.34 123.544 108.485 121.783 108.391C120.726 108.34 116.314 107.833 115.125 104.768L115.197 99.703C116.195 98.4113 117.537 97.4436 118.863 96.4887C119.699 95.8919 120.577 95.278 121.592 95.1672C122.478 95.0691 123.386 95.3846 124.09 95.9388C124.682 96.3949 125.13 97.0173 125.454 97.6909C125.484 97.6909 125.518 97.6909 125.548 97.6951C126.328 97.7889 127.104 98.1854 127.483 98.8717C127.709 99.2895 127.777 99.7926 127.662 100.253C128.123 100.718 128.366 101.404 128.272 102.061C128.212 102.453 128.037 102.824 127.782 103.122V103.118Z" fill="#FFCDB8" stroke="black" stroke-width="0.85261" stroke-linecap="round" stroke-linejoin="round"/>
<path d="M123.224 97.9634C123.983 97.7588 124.767 97.5925 125.547 97.6905C126.328 97.7886 127.104 98.1808 127.483 98.8671C127.734 99.3233 127.786 99.886 127.624 100.381C127.462 100.875 127.086 101.297 126.613 101.519" stroke="black" stroke-width="0.85261" stroke-linecap="round" stroke-linejoin="round"/>
<path d="M128.267 102.052C128.148 102.888 127.483 103.621 126.66 103.817" stroke="black" stroke-width="0.85261" stroke-linecap="round" stroke-linejoin="round"/>
<path d="M127.666 104.844C127.364 105.522 126.745 106.051 126.029 106.243" stroke="black" stroke-width="0.85261" stroke-linecap="round" stroke-linejoin="round"/>
<path d="M126.549 107.496C125.705 108.336 123.544 108.477 121.783 108.387C120.73 108.332 116.314 107.829 115.128 104.764L115.197 99.6947C116.194 98.4073 117.537 97.4353 118.863 96.4847C119.694 95.8878 120.572 95.274 121.587 95.1589C122.474 95.0608 123.382 95.3763 124.085 95.9305" stroke="black" stroke-width="0.85261" stroke-linecap="round" stroke-linejoin="round"/>
<path d="M103.874 98.0997C108.444 98.0016 113.236 97.8226 114.6 98.2404C115.572 98.5388 115.653 98.7519 115.874 99.272C116.036 101.31 116.241 103.343 116.441 105.377C116.527 106.234 116.535 107.393 115.346 107.875C113.798 108.497 107.902 109.797 104.194 110.646C102.919 110.94 101.632 111.234 100.323 111.243C97.5305 111.268 94.8021 109.78 92.9093 105.91C90.927 101.847 89.145 97.635 88.3606 93.1844C87.5762 88.7338 87.8448 83.9932 89.8143 79.9263C91.7839 75.8593 95.6164 72.5768 100.088 71.916L100.523 89.6716C101.495 91.85 102.804 95.3031 103.874 98.0997Z" fill="#BFF0FD"/>
<path d="M100.084 71.9126C95.6124 72.5734 91.7842 75.8602 89.8104 79.9271C87.8366 83.9941 87.5723 88.7346 88.3567 93.1852C89.1411 97.6359 90.9231 101.848 92.9054 105.91C94.8877 109.973 97.5266 111.269 100.319 111.248C101.628 111.235 102.915 110.941 104.19 110.651C107.899 109.798 113.794 108.502 115.342 107.876C116.531 107.394 116.523 106.234 116.437 105.378C116.233 103.344 116.032 101.311 115.866 99.2729C115.649 98.7528 115.564 98.5396 114.596 98.2412C112.903 97.7211 105.921 98.1218 100.651 98.1474" stroke="black" stroke-width="0.85261" stroke-linecap="round" stroke-linejoin="round"/>
<path d="M103.874 98.0994C102.736 95.1537 101.67 92.242 100.523 89.6714" stroke="black" stroke-width="0.85261" stroke-linecap="round" stroke-linejoin="round"/>
<path d="M100.297 72.2402L100.523 63.5479L113.794 63.9742L115.606 72.2871C115.129 76.6013 105.886 78.4728 100.297 72.2402Z" fill="#FFCDB8" stroke="black" stroke-width="0.85261" stroke-linecap="round" stroke-linejoin="round"/>
<path d="M95.9833 50.9334C93.3914 46.4828 95.6252 41.7678 99.9053 40.0328C105.153 37.9055 106.709 39.8836 109.54 39.5596C112.089 39.2697 115.269 37.2831 117.9 41.1838C119.046 42.8848 118.646 46.1716 116.778 47.1904C115.725 47.766 98.1745 55.4096 95.9833 50.9334Z" fill="#523522" stroke="black" stroke-width="0.85261" stroke-linecap="round" stroke-linejoin="round"/>
<path d="M100.626 66.8771C102.736 68.48 106.871 69.5245 110.021 69.2985C113.172 69.0726 117.848 67.4825 119.49 62.3796C121.229 56.9655 118.867 51.5003 117.512 48.9936C116.587 47.2841 115.512 45.8816 113.722 45.1057C110.75 43.814 100.604 44.8371 98.6562 50.4473C97.8164 52.8602 97.6032 53.0094 97.3815 55.5502C97.1599 58.091 96.2007 63.5178 100.626 66.8814V66.8771Z" fill="#FFCDB8" stroke="black" stroke-width="0.85261" stroke-linecap="round" stroke-linejoin="round"/>
<path d="M98.4556 57.2857C99.3381 56.2583 99.9008 53.385 99.2102 51.1725C98.899 50.1707 97.4623 49.1902 96.4648 48.8662C95.5098 48.555 94.41 48.8577 93.6682 49.5355C92.9264 50.2133 92.5342 51.2236 92.5044 52.2297C92.4745 53.2358 92.79 54.2291 93.2888 55.103C94.1158 56.5525 96.0086 58.863 98.4556 57.2857Z" fill="#523522" stroke="black" stroke-width="0.85261" stroke-linecap="round" stroke-linejoin="round"/>
<path d="M98.4555 57.285C97.7393 56.3514 96.2686 56.1766 95.2795 56.8118C94.2905 57.447 93.8258 58.743 94.056 59.8982C94.2862 61.0535 95.1346 62.0298 96.1876 62.5541C97.2405 63.0785 98.4683 63.1893 99.6279 63.006" fill="#FFCDB8"/>
<path d="M98.4555 57.285C97.7393 56.3514 96.2686 56.1766 95.2795 56.8118C94.2905 57.447 93.8258 58.743 94.056 59.8982C94.2862 61.0535 95.1346 62.0298 96.1876 62.5541C97.2405 63.0785 98.4683 63.1893 99.6279 63.006" stroke="black" stroke-width="0.85261" stroke-linecap="round" stroke-linejoin="round"/>
<path d="M112.647 60.9639C112.946 63.6368 107.459 64.1612 107.382 61.1685C109.228 61.0534 110.891 61.1003 112.647 60.9639Z" fill="white" stroke="black" stroke-width="0.85261" stroke-linecap="round" stroke-linejoin="round"/>
<path d="M102.514 50.5753C102.966 49.9402 103.64 49.467 104.394 49.2666C105.149 49.0662 105.967 49.1344 106.675 49.4584" stroke="black" stroke-width="0.85261" stroke-linecap="round" stroke-linejoin="round"/>
<path d="M111.138 48.7757C111.573 48.2257 112.221 47.8463 112.916 47.7312C113.611 47.6161 114.344 47.7696 114.932 48.1533" stroke="black" stroke-width="0.85261" stroke-linecap="round" stroke-linejoin="round"/>
<path d="M108.252 53.1196C108.619 53.499 108.862 53.9765 108.909 54.5136C108.994 55.4558 108.452 56.334 107.583 56.837C107.186 56.2402 107.029 55.4771 107.174 54.7694C107.314 54.1129 107.711 53.5161 108.248 53.1196H108.252Z" fill="black"/>
<path d="M108.252 53.1195C107.715 53.516 107.319 54.1128 107.178 54.7693C107.029 55.477 107.187 56.24 107.587 56.8369C107.191 57.0713 106.726 57.2205 106.219 57.2632C104.603 57.4081 103.196 56.4106 103.077 55.0293C102.953 53.6524 104.16 52.4203 105.771 52.2754C106.756 52.1859 107.664 52.5269 108.257 53.1152L108.252 53.1195Z" fill="white" stroke="black" stroke-width="0.639458" stroke-linecap="round" stroke-linejoin="round"/>
<path d="M106.216 57.2658C107.83 57.1218 109.038 55.8891 108.915 54.5126C108.792 53.136 107.385 52.1368 105.771 52.2808C104.158 52.4248 102.95 53.6574 103.073 55.034C103.195 56.4106 104.603 57.4098 106.216 57.2658Z" stroke="black" stroke-width="0.85261" stroke-linecap="round" stroke-linejoin="round"/>
<path d="M116.924 51.3599C116.451 51.816 116.131 52.4257 116.029 53.0779C115.926 53.7301 116.041 54.4122 116.348 54.9877C115.926 55.2563 115.423 55.4354 114.873 55.4823C113.258 55.6272 111.855 54.6296 111.731 53.2484C111.608 51.8715 112.814 50.6394 114.43 50.4945C115.423 50.405 116.344 50.7503 116.928 51.3556L116.924 51.3599Z" fill="white" stroke="black" stroke-width="0.639458" stroke-linecap="round" stroke-linejoin="round"/>
<path d="M114.874 55.4815C116.485 55.3377 117.691 54.1052 117.568 52.7286C117.446 51.3521 116.04 50.3527 114.429 50.4965C112.818 50.6403 111.611 51.8728 111.734 53.2493C111.857 54.6259 113.263 55.6253 114.874 55.4815Z" stroke="black" stroke-width="0.85261" stroke-linecap="round" stroke-linejoin="round"/>
<path d="M116.923 51.3599C117.281 51.735 117.52 52.2082 117.567 52.7326C117.648 53.6363 117.153 54.4804 116.343 54.9877C116.037 54.4079 115.921 53.7259 116.024 53.0779C116.126 52.4299 116.45 51.816 116.919 51.3599H116.923Z" fill="black"/>
<path d="M110.614 52.1401C111.411 52.6858 112.221 53.24 112.852 53.969C113.483 54.698 113.935 55.6358 113.884 56.6036C113.833 57.5713 113.185 58.5305 112.247 58.7564" fill="#FFCDB8"/>
<path d="M110.614 52.1401C111.411 52.6858 112.221 53.24 112.852 53.969C113.483 54.698 113.935 55.6358 113.884 56.6036C113.833 57.5713 113.185 58.5305 112.247 58.7564" stroke="black" stroke-width="0.85261" stroke-linecap="round" stroke-linejoin="round"/>
<path d="M184.915 118.533H197.9C199.077 118.533 200.032 119.488 200.032 120.664V122.796H182.783V120.664C182.783 119.488 183.738 118.533 184.915 118.533Z" stroke="black" stroke-width="0.85261" stroke-linecap="round" stroke-linejoin="round"/>
<path d="M189.272 153.264H148.743V165.895H189.272V153.264Z" fill="#29415E" stroke="black" stroke-width="0.85261" stroke-linecap="round" stroke-linejoin="round"/>
<path d="M154.805 157.425H178.844C182.817 157.425 185.008 156.926 187.003 153.916C188.495 151.669 188.738 148.847 188.939 146.157C189.438 139.507 191.586 118.533 191.586 118.533H160.419L154.8 157.425H154.805Z" fill="#1E3045" stroke="black" stroke-width="0.85261" stroke-linecap="round" stroke-linejoin="round"/>
<path d="M147.698 131.343H163.045C164.222 131.343 165.177 132.298 165.177 133.475V135.606H145.567V133.475C145.567 132.298 146.522 131.343 147.698 131.343Z" fill="#B0BCE0" stroke="black" stroke-width="0.85261" stroke-linecap="round" stroke-linejoin="round"/>
<path d="M143.593 144.597C144.181 144.171 144.799 143.949 145.434 143.949C149.676 143.949 153.116 153.92 153.116 166.224C153.116 178.527 149.676 188.498 145.434 188.498C144.91 188.498 144.398 188.345 143.904 188.055C148.073 185.429 149.979 176.732 149.979 166.411C149.979 156.09 147.928 147.006 143.593 144.597Z" fill="#122F3D" stroke="black" stroke-width="0.85261" stroke-linecap="round" stroke-linejoin="round"/>
<path d="M144.786 166.224C144.786 167.26 145.076 168.104 145.434 168.104C145.793 168.104 146.082 167.26 146.082 166.224C146.082 165.188 145.793 164.344 145.434 164.344C145.076 164.344 144.786 165.183 144.786 166.224ZM149.979 166.411C149.979 176.732 148.073 185.429 143.904 188.055C140.396 185.996 137.752 177.001 137.752 166.224C137.752 155.447 140.238 146.989 143.593 144.597C147.928 147.006 149.979 155.856 149.979 166.411Z" fill="#D1DEE3"/>
<path d="M143.844 139.768C136.307 139.768 132.586 150.604 132.253 164.361C132.253 164.395 132.249 164.429 132.253 164.463C132.245 164.655 132.24 164.847 132.24 165.039C132.232 165.495 132.228 165.951 132.228 166.412C132.228 166.8 132.228 167.183 132.236 167.567C132.236 167.746 132.24 167.925 132.245 168.1C132.245 168.219 132.249 168.343 132.253 168.462C132.577 182.219 136.209 193.056 143.844 193.056C151.859 193.056 155.461 181.128 155.461 166.412C155.461 151.696 151.752 139.768 143.844 139.768ZM145.434 188.499C144.91 188.499 144.399 188.345 143.904 188.055C140.396 185.996 137.752 177.001 137.752 166.224C137.752 155.447 140.238 146.989 143.593 144.598C144.181 144.171 144.799 143.95 145.434 143.95C149.676 143.95 153.116 153.921 153.116 166.224C153.116 178.527 149.676 188.499 145.434 188.499Z" fill="#5E728A"/>
<path d="M145.434 188.494C149.677 188.494 153.116 178.521 153.116 166.219C153.116 153.917 149.677 143.945 145.434 143.945C141.192 143.945 137.752 153.917 137.752 166.219C137.752 178.521 141.192 188.494 145.434 188.494Z" stroke="black" stroke-width="0.85261" stroke-linecap="round" stroke-linejoin="round"/>
<path d="M143.844 193.051C150.26 193.051 155.461 181.122 155.461 166.407C155.461 151.692 150.26 139.763 143.844 139.763C137.429 139.763 132.228 151.692 132.228 166.407C132.228 181.122 137.429 193.051 143.844 193.051Z" stroke="black" stroke-width="0.85261" stroke-linecap="round" stroke-linejoin="round"/>
<path d="M145.434 188.494C149.677 188.494 153.116 178.521 153.116 166.219C153.116 153.917 149.677 143.945 145.434 143.945C141.192 143.945 137.752 153.917 137.752 166.219C137.752 178.521 141.192 188.494 145.434 188.494Z" stroke="black" stroke-width="0.85261" stroke-linecap="round" stroke-linejoin="round"/>
<path d="M143.844 193.051C150.26 193.051 155.461 181.122 155.461 166.407C155.461 151.692 150.26 139.763 143.844 139.763C137.429 139.763 132.228 151.692 132.228 166.407C132.228 181.122 137.429 193.051 143.844 193.051Z" stroke="black" stroke-width="0.85261" stroke-linecap="round" stroke-linejoin="round"/>
<path d="M169.103 153.251C169.436 154.398 169.5 155.651 169.355 156.84C169.086 159.061 167.5 162.327 167.087 164.527C166.938 165.328 166.793 166.108 166.648 166.876C162.568 167.924 157.857 167.677 154.302 166.914C154.229 166.901 154.153 166.884 154.08 166.867C154.08 166.91 154.08 166.952 154.084 166.995C150.631 168.184 146.812 168.312 143.29 167.349C142.506 162.011 141.747 156.252 141.146 152.287C140.784 149.904 140.438 147.389 141.338 145.16C142.34 142.674 144.305 140.901 146.739 139.771C149.169 138.646 152.605 137.328 154.946 136.446C155.466 134.344 156.092 132.677 157.563 131.224L186.168 132.187C187.473 135.052 188.052 138.245 187.835 141.387C187.643 144.205 186.769 147.057 184.906 149.188C182.86 151.533 179.795 152.799 176.717 153.264C174.291 153.626 171.878 153.374 169.103 153.251Z" fill="#5F80F8" stroke="black" stroke-width="0.85261" stroke-linecap="round" stroke-linejoin="round"/>
<path d="M167.594 150.591C169.167 152.181 169.619 154.615 169.355 156.84C169.09 159.066 167.5 162.327 167.087 164.527C166.174 169.399 165.369 173.607 164.896 178.458C164.789 178.603 145.047 178.603 145.047 178.603C145.047 178.603 143.772 170.619 143.337 167.677C142.536 162.246 141.76 156.333 141.146 152.288C140.784 149.909 140.438 147.394 141.338 145.16C142.34 142.674 144.305 140.901 146.739 139.775C149.173 138.65 152.605 137.328 154.946 136.45C155.466 134.349 156.092 132.682 157.567 131.228L186.168 132.191C187.473 135.056 188.052 138.249 187.839 141.391C187.643 144.213 186.769 147.061 184.911 149.193C182.864 151.537 179.799 152.803 176.721 153.268C173.643 153.733 172.919 153.255 169.107 153.255" stroke="black" stroke-width="0.85261" stroke-linecap="round" stroke-linejoin="round"/>
<path d="M154.46 178.458L153.697 155.365C153.599 152.436 153.535 149.362 154.882 146.762C157.022 142.631 165.185 138.547 172.322 137.652" stroke="black" stroke-width="0.85261" stroke-linecap="round" stroke-linejoin="round"/>
<path d="M159.068 136.446C159.52 138.169 160.475 139.754 161.779 140.965" stroke="black" stroke-width="0.85261" stroke-linecap="round" stroke-linejoin="round"/>
<path d="M147.472 111.623C151.616 108.178 153.714 106.43 158.237 103.502C159.571 102.636 160.957 101.809 162.483 101.37C164.009 100.931 166.452 100.53 167.867 101.251L162.073 115.054C162.073 115.054 153.901 120.477 151.045 122.302C149.259 123.444 146.944 124.199 144.211 123.163C142.48 122.506 140.43 119.718 139.671 118.682C137.484 115.711 136.308 114.283 133.95 110.007C133.673 109.5 133.707 108.873 134.048 108.408C135.246 106.776 136.478 105.198 137.676 103.574C138.089 103.011 138.908 102.947 139.398 103.446L148.709 112.872" fill="#FFBBE3"/>
<path d="M147.472 111.623C151.616 108.178 153.714 106.43 158.237 103.502C159.571 102.636 160.957 101.809 162.483 101.37C164.009 100.931 166.452 100.53 167.867 101.251L162.073 115.054C162.073 115.054 153.901 120.477 151.045 122.302C149.259 123.444 146.944 124.199 144.211 123.163C142.48 122.506 140.43 119.718 139.671 118.682C137.484 115.711 136.308 114.283 133.95 110.007C133.673 109.5 133.707 108.873 134.048 108.408C135.246 106.776 136.478 105.198 137.676 103.574C138.089 103.011 138.908 102.947 139.398 103.446L148.709 112.872" stroke="black" stroke-width="0.85261" stroke-linecap="round" stroke-linejoin="round"/>
<path d="M138.196 101.826C137.765 100.577 137.22 99.4004 135.984 98.9357C135.348 98.697 134.172 98.3815 133.596 98.7396C133.336 98.9016 133.14 99.1403 132.982 99.4089C132.854 99.622 132.748 99.8565 132.646 100.087C132.445 100.539 132.249 100.995 132.049 101.447C132.036 101.472 132.023 101.502 132.015 101.528C131.993 101.57 131.976 101.617 131.955 101.66C131.712 102.205 131.477 102.853 131.784 103.365C131.806 103.403 131.831 103.437 131.861 103.472C131.725 103.591 131.558 103.68 131.375 103.749C131.699 104.004 131.819 104.469 131.712 104.87C131.635 105.168 131.452 105.433 131.213 105.637C131.495 106.089 131.482 106.724 131.217 107.206C131.055 107.492 130.851 107.718 130.621 107.884C132.206 109.841 135.122 108.736 136.644 107.215C138.737 105.126 138.639 103.105 138.196 101.826Z" fill="#EBB48F" stroke="black" stroke-width="0.85261" stroke-linecap="round" stroke-linejoin="round"/>
<path d="M132.049 101.447C132.036 101.472 132.023 101.502 132.015 101.528C131.998 101.502 131.98 101.477 131.959 101.451C131.989 101.451 132.019 101.451 132.049 101.447Z" fill="#FFC49E"/>
<path d="M132.641 98.9527C132.253 98.5648 131.746 98.3175 131.226 98.1385C130.518 97.8955 129.282 97.5502 128.804 98.13C128.093 98.9954 128.101 99.848 128.31 100.334C128.378 100.496 128.468 100.615 128.561 100.684C128.868 100.905 129.231 101.037 129.593 101.144C130.361 101.37 131.166 101.472 131.959 101.451C131.989 101.451 132.019 101.451 132.049 101.447C132.249 100.995 132.445 100.539 132.645 100.087C132.748 99.8565 132.854 99.622 132.982 99.4089C132.893 99.2426 132.773 99.0892 132.641 98.9527Z" fill="#EBB48F" stroke="black" stroke-width="0.85261" stroke-linecap="round" stroke-linejoin="round"/>
<path d="M131.213 105.637C131.132 105.71 131.042 105.774 130.949 105.829C130.591 106.046 130.177 106.157 129.763 106.23C129.256 106.319 128.732 106.358 128.237 106.23C127.883 106.136 127.628 105.987 127.44 105.799C126.792 105.143 127.061 104.038 127.393 103.395C127.44 103.301 127.508 103.22 127.594 103.147C127.619 103.186 127.649 103.22 127.683 103.254C128.054 103.625 128.749 103.945 129.269 103.966C130.024 104 130.799 103.974 131.375 103.753C131.699 104.009 131.818 104.473 131.712 104.874C131.635 105.172 131.452 105.437 131.213 105.641V105.637Z" fill="#EBB48F" stroke="black" stroke-width="0.85261" stroke-linecap="round" stroke-linejoin="round"/>
<path d="M130.62 107.884C129.887 108.421 128.89 108.395 128.186 108.114C127.432 107.811 127.108 106.959 127.393 105.906C127.406 105.867 127.419 105.829 127.44 105.795C127.628 105.982 127.884 106.132 128.237 106.225C128.732 106.358 129.256 106.319 129.764 106.225C130.177 106.153 130.591 106.042 130.949 105.825C131.042 105.769 131.132 105.705 131.213 105.633C131.494 106.085 131.482 106.72 131.217 107.202C131.055 107.487 130.851 107.713 130.62 107.879V107.884Z" fill="#EBB48F" stroke="black" stroke-width="0.85261" stroke-linecap="round" stroke-linejoin="round"/>
<path d="M131.861 103.472C131.725 103.591 131.558 103.681 131.375 103.749C130.8 103.971 130.024 103.996 129.269 103.962C128.749 103.941 128.054 103.621 127.683 103.25C127.649 103.216 127.619 103.182 127.594 103.144C127.082 102.432 127.538 100.833 127.888 100.56C127.999 100.471 128.144 100.394 128.31 100.334C128.378 100.496 128.468 100.616 128.561 100.684C128.868 100.906 129.231 101.038 129.593 101.144C130.36 101.37 131.166 101.473 131.959 101.451C131.98 101.477 131.998 101.503 132.015 101.528C131.993 101.571 131.976 101.618 131.955 101.66C131.712 102.206 131.477 102.854 131.784 103.366C131.806 103.404 131.831 103.438 131.861 103.472Z" fill="#EBB48F" stroke="black" stroke-width="0.85261" stroke-linecap="round" stroke-linejoin="round"/>
<path d="M134.896 101.834C134.832 102.717 134.188 103.531 133.34 103.795C132.786 103.966 132.087 103.859 131.784 103.365C131.477 102.858 131.712 102.205 131.95 101.66C132.181 101.135 132.411 100.611 132.645 100.087C132.871 99.5751 133.123 99.0337 133.596 98.7395C134.171 98.3814 135.352 98.7012 135.983 98.9399C137.22 99.4046 137.761 100.581 138.196 101.826" stroke="black" stroke-width="0.85261" stroke-linecap="round" stroke-linejoin="round"/>
<path d="M134.96 104.777C134.563 104.38 134.291 103.864 134.167 103.314" stroke="black" stroke-width="0.85261" stroke-linecap="round" stroke-linejoin="round"/>
<path d="M167.189 101.459C167.189 101.459 179.718 101.459 179.978 101.425C183.188 101.736 186.036 103.936 187.592 106.763C189.148 109.589 189.519 112.953 189.127 116.154C188.764 119.113 187.792 121.96 187.2 124.885C186.607 127.809 187.004 129.907 187.004 133.471L156.395 132.563C156.395 128.743 159.268 127.234 157.908 123.776C157.282 122.182 155.964 120.899 155.53 119.245C154.941 116.994 156.105 114.696 157.23 112.663" fill="#FFBBE3"/>
<path d="M167.189 101.459C167.189 101.459 179.718 101.459 179.978 101.425C183.188 101.736 186.036 103.936 187.592 106.763C189.148 109.589 189.519 112.953 189.127 116.154C188.764 119.113 187.792 121.96 187.2 124.885C186.607 127.809 187.004 129.907 187.004 133.471L156.395 132.563C156.395 128.743 159.268 127.234 157.908 123.776C157.282 122.182 155.964 120.899 155.53 119.245C154.941 116.994 156.105 114.696 157.23 112.663" stroke="black" stroke-width="0.85261" stroke-linecap="round" stroke-linejoin="round"/>
<path d="M168.673 101.246C168.673 101.246 179.722 101.459 179.978 101.425C183.188 101.736 186.036 103.936 187.592 106.762C189.148 109.589 189.519 112.952 189.127 116.154C188.764 119.113 187.792 121.96 187.2 124.885C186.607 127.809 187.004 129.907 187.004 133.471L156.395 132.562C156.395 128.743 159.268 127.234 157.908 123.776C157.282 122.182 155.964 120.899 155.53 119.245C154.941 116.994 156.105 114.696 157.23 112.663" stroke="black" stroke-width="0.85261" stroke-linecap="round" stroke-linejoin="round"/>
<path d="M180.204 131.343H193.189C194.366 131.343 195.321 132.298 195.321 133.475V135.606H178.072V133.475C178.072 132.298 179.027 131.343 180.204 131.343Z" fill="#B0BCE0" stroke="black" stroke-width="0.85261" stroke-linecap="round" stroke-linejoin="round"/>
<path d="M180.042 101.288C183.665 101.987 186.948 103.918 189.834 106.224C192.716 108.526 195.478 111.221 198.185 113.727C199.98 115.394 201.702 117.069 202.572 119.359C203.471 121.737 202.96 124.858 202.077 127.241C201.195 129.628 199.468 134.416 197.686 137.357L190.443 136.492C189.915 136.117 189.748 135.55 189.706 134.906C189.659 134.194 190.98 125.007 192.106 124.125C189.493 121.448 186.892 119.389 184.27 116.554" fill="#FFBBE3"/>
<path d="M180.042 101.288C183.665 101.987 186.948 103.918 189.834 106.224C192.716 108.526 195.478 111.221 198.185 113.727C199.98 115.394 201.702 117.069 202.572 119.359C203.471 121.737 202.96 124.858 202.077 127.241C201.195 129.628 199.468 134.416 197.686 137.357L190.443 136.492C189.915 136.117 189.748 135.55 189.706 134.906C189.659 134.194 190.98 125.007 192.106 124.125C189.493 121.448 186.892 119.389 184.27 116.554" stroke="black" stroke-width="0.85261" stroke-linecap="round" stroke-linejoin="round"/>
<path d="M180.038 101.285C183.661 101.984 186.948 103.915 189.83 106.221C192.712 108.528 195.474 111.218 198.181 113.729C199.976 115.391 201.698 117.071 202.568 119.36C203.472 121.739 202.956 124.855 202.073 127.242C201.191 129.63 199.464 134.417 197.678 137.359L190.435 136.489C189.911 136.114 189.74 135.551 189.698 134.903C189.651 134.191 190.972 125.004 192.098 124.122C193.223 123.239 193.752 122.941 194.826 122.553" stroke="black" stroke-width="0.85261" stroke-linecap="round" stroke-linejoin="round"/>
<path d="M167.189 101.459L169.384 93.2188H179.509L180.144 101.459C176.73 106.085 168.515 106.042 167.189 101.459Z" fill="#EBB48F" stroke="black" stroke-width="0.85261" stroke-linecap="round" stroke-linejoin="round"/>
<path d="M186.053 78.042C185.686 77.961 185.333 77.8417 184.996 77.6967C183.261 76.9507 182.11 75.3094 181.458 73.617C181.227 73.0202 181.146 72.3722 181.202 71.737C179.599 70.7863 177.582 70.1128 175.11 69.9678C173.294 69.8655 171.422 70.2023 169.862 71.1444C168.502 71.9715 167.453 73.2035 166.669 74.5975C166.328 75.1943 166.038 75.8253 165.795 76.4647C164.977 78.5834 164.606 80.8471 164.107 83.0639C163.621 85.2509 163.011 87.4847 163.386 89.693C163.988 93.2313 167.219 96.0151 170.766 96.5565C174.313 97.0979 177.659 96.2922 180.234 93.7898C181.956 92.1144 183.389 90.0681 184.442 87.8002C184.966 86.679 185.392 85.5024 185.721 84.2874C186.177 82.5992 186.727 80.6468 186.066 78.042H186.053Z" fill="#EBB48F" stroke="black" stroke-width="0.85261" stroke-linecap="round" stroke-linejoin="round"/>
<path d="M190.205 70.991C188.555 68.5269 183.951 67.572 181.466 70.4155C180.814 71.1615 180.417 72.125 180.332 73.1097C180.276 73.7449 180.362 74.3929 180.588 74.9897C181.24 76.6864 182.391 78.3234 184.126 79.0695C184.463 79.2144 184.817 79.3295 185.183 79.4148C186.688 79.7643 188.346 79.5682 189.523 78.6005C192.187 76.4093 191.855 73.455 190.205 70.991Z" fill="#301212" stroke="black" stroke-width="0.85261" stroke-linecap="round" stroke-linejoin="round"/>
<path d="M186.053 78.042C185.985 77.7777 185.908 77.5006 185.814 77.2235C185.188 75.3734 183.708 73.2163 181.202 71.737C179.599 70.7863 177.582 70.1128 175.11 69.9678C173.294 69.8655 171.422 70.2023 169.862 71.1444C168.502 71.9715 167.453 73.2035 166.669 74.5975C168.28 74.9513 169.977 74.913 171.563 74.4867C173.379 73.9921 175.302 72.9946 176.87 71.9501C176.939 75.9233 179.816 78.8435 183.18 80.7576C182.822 82.6419 182.621 86.3593 184.437 87.8002C184.962 86.679 185.388 85.5024 185.716 84.2874C186.172 82.5992 186.722 80.6468 186.062 78.042H186.053Z" fill="#301212" stroke="black" stroke-width="0.85261" stroke-linecap="round" stroke-linejoin="round"/>
<path d="M185.712 84.2871C184.723 87.9576 182.8 91.287 180.225 93.7894C177.65 96.2919 174.308 97.0976 170.757 96.5562C167.21 96.0148 163.979 93.231 163.378 89.6927C163.003 87.4844 163.612 85.2506 164.098 83.0636C164.593 80.8426 164.968 78.5831 165.782 76.4601C166.596 74.3371 167.909 72.3207 169.853 71.1441C171.409 70.202 173.281 69.8609 175.101 69.9675C181.449 70.3299 184.787 74.1922 185.81 77.2232C186.833 80.2543 186.206 82.4284 185.708 84.2828L185.712 84.2871Z" stroke="black" stroke-width="0.85261" stroke-linecap="round" stroke-linejoin="round"/>
<path d="M182.617 86.36C183.256 85.6267 184.22 85.2175 185.541 85.8186C186.428 86.2235 187.362 87.6815 186.172 89.4933C185.23 90.9299 183.695 92.0213 181.197 91.6632" fill="#EBB48F"/>
<path d="M182.617 86.36C183.256 85.6267 184.22 85.2175 185.541 85.8186C186.428 86.2235 187.362 87.6815 186.172 89.4933C185.23 90.9299 183.695 92.0213 181.197 91.6632" stroke="black" stroke-width="0.85261" stroke-linecap="round" stroke-linejoin="round"/>
<path d="M177.706 80.958C178.913 81.0944 180.243 82.335 180.315 83.8185C179.59 85.2807 178.115 85.6815 176.461 85.2125C175.728 85.0036 175.161 84.5773 174.794 84.0018C175.302 83.729 175.728 83.3112 176.022 82.8167C176.359 82.2454 176.508 81.5634 176.453 80.9026C176.815 80.8514 177.229 80.8685 177.706 80.958Z" fill="white" stroke="black" stroke-width="0.639458" stroke-linecap="round" stroke-linejoin="round"/>
<path d="M176.453 80.9023C176.508 81.5631 176.359 82.2409 176.022 82.8165C175.728 83.3152 175.302 83.7287 174.794 84.0016C174.5 83.5412 174.33 82.987 174.3 82.3731C174.824 81.61 175.455 81.0302 176.453 80.9066V80.9023Z" fill="black"/>
<path d="M172.053 81.0947C172.075 81.2184 172.087 81.3462 172.096 81.4784C171.798 82.0838 171.376 82.5058 170.885 82.7573C171.265 82.1946 171.648 81.6404 172.053 81.0947Z" fill="black"/>
<path d="M169.9 78.6814C170.962 78.9499 171.848 79.8154 172.053 81.0943C171.648 81.6399 171.26 82.1941 170.885 82.7569C170.194 83.1107 169.371 83.1192 168.579 82.8165C167.952 82.5778 167.483 82.16 167.15 81.6357C167.585 81.3628 167.956 80.9834 168.216 80.5401C168.561 79.9518 168.711 79.2484 168.642 78.5748C169.03 78.5322 169.448 78.5663 169.9 78.6814Z" fill="white" stroke="black" stroke-width="0.639458" stroke-linecap="round" stroke-linejoin="round"/>
<path d="M168.643 78.5708C168.711 79.2486 168.562 79.9478 168.216 80.5361C167.956 80.9794 167.585 81.3588 167.151 81.6317C166.797 81.0775 166.609 80.3954 166.571 79.6835C167.121 79.0653 167.816 78.6561 168.647 78.5708H168.643Z" fill="black"/>
<path d="M180.315 83.8185C180.238 82.335 178.912 81.0902 177.706 80.9538C175.933 80.6255 175.016 81.3246 174.3 82.3691C174.368 83.7503 175.131 84.8374 176.461 85.2125C178.115 85.6815 179.586 85.2808 180.311 83.8185H180.315Z" stroke="black" stroke-width="0.85261" stroke-linecap="round" stroke-linejoin="round"/>
<path d="M172.091 81.4823C172.019 79.9903 171.064 78.9757 169.9 78.6773C168.485 78.3149 167.381 78.7753 166.571 79.6833C166.639 81.0646 167.287 82.3136 168.574 82.8124C169.862 83.3112 171.367 82.9403 172.091 81.4781V81.4823Z" stroke="black" stroke-width="0.85261" stroke-linecap="round" stroke-linejoin="round"/>
<path d="M172.969 79.8623C171.993 81.1284 171.072 82.4372 170.216 83.7843C169.985 84.1424 169.759 84.5218 169.708 84.9439C169.657 85.3872 169.806 85.8348 170.071 86.1929C170.335 86.551 170.697 86.8281 171.085 87.0413" fill="#EBB48F"/>
<path d="M172.969 79.8623C171.993 81.1284 171.072 82.4372 170.216 83.7843C169.985 84.1424 169.759 84.5218 169.708 84.9439C169.657 85.3872 169.806 85.8348 170.071 86.1929C170.335 86.551 170.697 86.8281 171.085 87.0413" stroke="black" stroke-width="0.85261" stroke-linecap="round" stroke-linejoin="round"/>
<path d="M170.569 90.017C172.053 90.648 173.86 90.4433 175.161 89.4927" stroke="black" stroke-width="0.85261" stroke-linecap="round" stroke-linejoin="round"/>
<path d="M176.303 78.6088C177.497 78.2337 178.895 78.6515 179.692 79.6106" stroke="black" stroke-width="0.85261" stroke-linecap="round" stroke-linejoin="round"/>
<path d="M168.694 76.1191C169.295 75.8463 169.998 75.8165 170.616 76.0339C171.235 76.2513 171.768 76.7202 172.062 77.3085" stroke="black" stroke-width="0.85261" stroke-linecap="round" stroke-linejoin="round"/>
<path d="M190.486 144.597C191.075 144.171 191.693 143.949 192.328 143.949C196.57 143.949 200.01 153.92 200.01 166.224C200.01 178.527 196.57 188.498 192.328 188.498C191.804 188.498 191.292 188.345 190.798 188.055C194.967 185.429 196.872 176.732 196.872 166.411C196.872 156.09 194.822 147.006 190.486 144.597Z" fill="#1E292E" stroke="black" stroke-width="0.85261" stroke-linecap="round" stroke-linejoin="round"/>
<path d="M191.68 166.224C191.68 167.26 191.97 168.104 192.328 168.104C192.686 168.104 192.976 167.26 192.976 166.224C192.976 165.188 192.686 164.344 192.328 164.344C191.97 164.344 191.68 165.183 191.68 166.224ZM196.872 166.411C196.872 176.732 194.967 185.429 190.798 188.055C187.289 185.996 184.646 177.001 184.646 166.224C184.646 155.447 187.131 146.989 190.486 144.597C194.822 147.006 196.872 155.856 196.872 166.411Z" fill="#EBF9FF"/>
<path d="M190.738 139.768C183.201 139.768 179.479 150.604 179.147 164.361C179.147 164.395 179.142 164.429 179.147 164.463C179.138 164.655 179.134 164.847 179.134 165.039C179.125 165.495 179.121 165.951 179.121 166.412C179.121 166.8 179.121 167.183 179.13 167.567C179.13 167.746 179.134 167.925 179.138 168.1C179.138 168.219 179.142 168.343 179.147 168.462C179.471 182.219 183.103 193.056 190.738 193.056C198.752 193.056 202.355 181.128 202.355 166.412C202.355 151.696 198.646 139.768 190.738 139.768ZM192.328 188.499C191.804 188.499 191.292 188.345 190.798 188.055C187.289 185.996 184.646 177.001 184.646 166.224C184.646 155.447 187.131 146.989 190.486 144.598C191.075 144.171 191.693 143.95 192.328 143.95C196.57 143.95 200.01 153.921 200.01 166.224C200.01 178.527 196.57 188.499 192.328 188.499Z" fill="#5E728A"/>
<path d="M192.328 188.494C196.571 188.494 200.01 178.521 200.01 166.219C200.01 153.917 196.571 143.945 192.328 143.945C188.085 143.945 184.646 153.917 184.646 166.219C184.646 178.521 188.085 188.494 192.328 188.494Z" stroke="black" stroke-width="0.85261" stroke-linecap="round" stroke-linejoin="round"/>
<path d="M190.738 193.051C197.154 193.051 202.355 181.122 202.355 166.407C202.355 151.692 197.154 139.763 190.738 139.763C184.322 139.763 179.121 151.692 179.121 166.407C179.121 181.122 184.322 193.051 190.738 193.051Z" stroke="black" stroke-width="0.85261" stroke-linecap="round" stroke-linejoin="round"/>
<path d="M192.328 188.494C196.571 188.494 200.01 178.521 200.01 166.219C200.01 153.917 196.571 143.945 192.328 143.945C188.085 143.945 184.646 153.917 184.646 166.219C184.646 178.521 188.085 188.494 192.328 188.494Z" stroke="black" stroke-width="0.85261" stroke-linecap="round" stroke-linejoin="round"/>
<path d="M190.738 193.051C197.154 193.051 202.355 181.122 202.355 166.407C202.355 151.692 197.154 139.763 190.738 139.763C184.322 139.763 179.121 151.692 179.121 166.407C179.121 181.122 184.322 193.051 190.738 193.051Z" stroke="black" stroke-width="0.85261" stroke-linecap="round" stroke-linejoin="round"/>
<path d="M195.133 145.028C195.078 145.079 195.018 145.126 194.958 145.169C194.66 145.378 194.276 145.493 193.922 145.403C193.731 145.356 193.552 145.241 193.432 145.083C193.215 145.254 192.933 145.36 192.541 145.258C192.332 145.203 192.145 145.054 192.038 144.866L192.025 144.879C191.753 145.117 191.335 145.228 191.019 145.041C190.764 144.887 190.64 144.572 190.631 144.273C190.623 143.975 190.712 143.681 190.789 143.391C190.955 142.773 191.181 140.42 191.254 139.784C190.401 139.337 189.067 139.908 187.771 140.394C187.097 139.695 187.801 138.237 188.223 137.359C189.114 135.509 189.919 135.15 191.68 134.618C193.437 134.085 195.449 134.477 196.864 135.649C198.279 136.822 199.042 138.74 198.799 140.56C198.642 141.767 198.399 142.862 197.845 143.949C197.393 144.84 196.041 146.431 195.133 145.028Z" fill="#EBB48F" stroke="black" stroke-width="0.85261" stroke-linecap="round" stroke-linejoin="round"/>
<path d="M191.215 138.897C191.331 140.402 191.186 141.928 190.789 143.391C190.712 143.681 190.623 143.975 190.631 144.273C190.64 144.572 190.764 144.887 191.019 145.041C191.331 145.228 191.753 145.117 192.025 144.879C192.298 144.64 192.452 144.294 192.588 143.958C193.13 142.615 193.475 141.187 193.581 139.742" stroke="black" stroke-width="0.85261" stroke-linecap="round" stroke-linejoin="round"/>
<path d="M192.541 145.254C193.189 145.425 193.534 145.02 193.786 144.742C194.553 143.894 195.09 142.176 195.325 140.586" stroke="black" stroke-width="0.85261" stroke-linecap="round" stroke-linejoin="round"/>
<path d="M193.922 145.403C194.276 145.492 194.66 145.377 194.958 145.168C195.257 144.959 195.487 144.665 195.687 144.358C196.301 143.425 196.71 142.359 196.868 141.255" stroke="black" stroke-width="0.85261" stroke-linecap="round" stroke-linejoin="round"/>
</g>
<defs>
<clipPath id="clip0_5418_6505">
<rect width="285" height="160.312" fill="white"/>
</clipPath>
</defs>
</svg>
