<svg width="16" height="16" viewBox="0 0 16 16" fill="none" xmlns="http://www.w3.org/2000/svg">
<g clip-path="url(#clip0_5412_4071)">
<rect x="6.11963" y="6.42773" width="5.88034" height="1.09402" rx="0.547009" fill="#E5E8ED" stroke="#002066" stroke-width="0.273504"/>
<rect x="5.43994" width="4.47059" height="16" rx="0.941176" fill="#667996"/>
<path fill-rule="evenodd" clip-rule="evenodd" d="M8.11778 16H8.82872C9.34852 16 9.7699 15.5786 9.7699 15.0588V0.941176C9.7699 0.421379 9.34852 0 8.82872 0H8.11778C8.63758 0 9.05896 0.421379 9.05896 0.941176V15.0588C9.05896 15.5786 8.63758 16 8.11778 16Z" fill="#334D73"/>
<rect x="5.43994" width="4.47059" height="16" rx="0.941176" stroke="#002066" stroke-width="0.273504"/>
<rect x="4.07275" y="4.23828" width="7.11111" height="7.65812" rx="1.09402" fill="#99D9FF" stroke="#002066" stroke-width="0.273504"/>
<rect x="4.61963" y="4.92188" width="6.01709" height="6.2906" rx="0.547009" fill="#E5F5FF" stroke="#002066" stroke-width="0.273504"/>
<path d="M9.47574 5.76978C9.25975 5.69323 8.93715 5.78166 8.8421 5.96476C8.65481 5.72295 8.28517 5.68245 8.04399 5.8535C7.80281 6.02455 7.70452 6.33494 7.80328 6.61364C7.94141 7.00348 8.4913 7.36115 8.72973 7.50131C8.79879 7.5419 8.88314 7.54191 8.9522 7.50132C9.19069 7.36117 9.74072 7.0035 9.87865 6.61364C9.93714 6.44831 9.92755 6.26651 9.85198 6.10825C9.77642 5.94999 9.64108 5.82824 9.47574 5.76978Z" fill="#FF00DF"/>
<path d="M9.52881 5.79688C9.67662 5.85976 9.79806 5.97236 9.86768 6.11816C9.94314 6.27631 9.95242 6.45783 9.89404 6.62305C9.75621 7.01265 9.207 7.3704 8.96826 7.51074C8.89921 7.55132 8.81466 7.55131 8.74561 7.51074C8.65248 7.456 8.51274 7.3669 8.36768 7.25684C8.42884 7.29671 8.48255 7.33236 8.52686 7.3584C8.59591 7.39897 8.68046 7.39898 8.74951 7.3584C8.98825 7.21805 9.53746 6.8603 9.67529 6.4707C9.73367 6.30549 9.72439 6.12397 9.64893 5.96582C9.61864 5.90239 9.57639 5.84685 9.52881 5.79688ZM8.64502 5.8125C8.64312 5.8158 8.64091 5.8189 8.63916 5.82227C8.6334 5.81482 8.62573 5.80882 8.61963 5.80176C8.62823 5.80508 8.63658 5.80877 8.64502 5.8125Z" fill="#CC00B2"/>
<path d="M9.47574 5.76978C9.25975 5.69323 8.93715 5.78166 8.8421 5.96476C8.65481 5.72295 8.28517 5.68245 8.04399 5.8535C7.80281 6.02455 7.70452 6.33494 7.80328 6.61364C7.94141 7.00348 8.4913 7.36115 8.72973 7.50131C8.79879 7.5419 8.88314 7.54191 8.9522 7.50132C9.19069 7.36117 9.74072 7.0035 9.87865 6.61364C9.93714 6.44831 9.92755 6.26651 9.85198 6.10825C9.77642 5.94999 9.64108 5.82824 9.47574 5.76978Z" stroke="#002066" stroke-width="0.273504" stroke-linejoin="round"/>
<path d="M4.61963 9.09498H6.43111L7.04356 7.24609L7.62199 10.8016L8.20042 9.09498H10.1434" stroke="#002066" stroke-width="0.273504" stroke-linecap="round" stroke-linejoin="round"/>
</g>
<defs>
<clipPath id="clip0_5412_4071">
<rect width="16" height="16" fill="white"/>
</clipPath>
</defs>
</svg>
