<svg width="16" height="16" viewBox="0 0 16 16" fill="none" xmlns="http://www.w3.org/2000/svg">
<path d="M12.5984 4.86852C12.7536 4.66131 12.7865 4.38704 12.6846 4.14903C12.5827 3.91102 12.3617 3.74543 12.1046 3.71463C11.8476 3.68383 11.5936 3.79251 11.4384 3.99972L10.6816 5.01572C10.8606 4.81037 10.909 4.52187 10.8068 4.26935C10.7047 4.01683 10.4693 3.84314 10.1979 3.81999C9.92645 3.79684 9.66505 3.92816 9.5216 4.15972L8.7216 5.23652L7.1648 7.32292C6.67553 7.98021 6.46803 8.80522 6.58811 9.61577C6.70819 10.4263 7.14598 11.1557 7.8048 11.6429C8.32274 12.0071 8.93259 12.2183 9.5648 12.2525C10.1504 12.3053 10.7808 12.1021 11.1648 11.9629C11.5488 11.8237 12.7328 11.3901 12.7328 11.3901L13.968 10.9117C14.2822 10.795 14.475 10.4777 14.4339 10.145C14.3927 9.81234 14.1284 9.55156 13.7952 9.51493C13.6848 9.50213 12.6928 9.58853 12.6928 9.58853L13.7824 8.12612L14.5824 7.04932C14.821 6.729 14.7547 6.27591 14.4344 6.03732C14.1141 5.79874 13.661 5.865 13.4224 6.18532L14.024 5.37732C14.2626 5.057 14.1963 4.60391 13.876 4.36532C13.5557 4.12674 13.1026 4.193 12.864 4.51332L12.5984 4.86852Z" fill="#FFCF20"/>
<path d="M9.2304 9.0912L8.7504 6.5312L8.5504 5.4624L8.1824 5.9584L8.2896 6.5312L8.7696 9.0912C8.95097 10.0559 8.66087 11.0493 7.9888 11.7648C8.0864 11.824 8.248 11.9104 8.3488 11.9584C9.11615 11.2179 9.44912 10.1349 9.2304 9.0912Z" fill="#CCA61A"/>
<path d="M9.6304 9.41432C9.90093 9.18719 10.2559 9.08693 10.6052 9.13894C10.9546 9.19095 11.265 9.39024 11.4576 9.68632L13.6816 9.51672" fill="#FFCF20"/>
<path d="M7.94879 2.43188L7.85599 0.700684" stroke="#002066" stroke-width="0.333333" stroke-linecap="round" stroke-linejoin="round"/>
<path d="M9.44962 2.67026L10.1376 1.18066" stroke="#002066" stroke-width="0.333333" stroke-linecap="round" stroke-linejoin="round"/>
<path d="M6.41278 2.71036L5.63998 1.42236" stroke="#002066" stroke-width="0.333333" stroke-linecap="round" stroke-linejoin="round"/>
<path d="M8.58719 13.5356L8.69439 15.2652" stroke="#002066" stroke-width="0.333333" stroke-linecap="round" stroke-linejoin="round"/>
<path d="M10.0496 13.1245L10.904 14.5245" stroke="#002066" stroke-width="0.333333" stroke-linecap="round" stroke-linejoin="round"/>
<path d="M7.02721 13.4351L6.40961 14.8047" stroke="#002066" stroke-width="0.333333" stroke-linecap="round" stroke-linejoin="round"/>
<path fill-rule="evenodd" clip-rule="evenodd" d="M12.5984 4.86852C12.7536 4.66131 12.7865 4.38704 12.6846 4.14903C12.5827 3.91102 12.3617 3.74543 12.1046 3.71463C11.8476 3.68383 11.5936 3.79251 11.4384 3.99972L10.6816 5.01572C10.8606 4.81037 10.909 4.52187 10.8068 4.26935C10.7047 4.01683 10.4693 3.84314 10.1979 3.81999C9.92645 3.79684 9.66505 3.92816 9.5216 4.15972L8.7216 5.23652L7.1648 7.32292C6.67553 7.98021 6.46803 8.80522 6.58811 9.61577C6.70819 10.4263 7.14598 11.1557 7.8048 11.6429C8.32274 12.0071 8.93259 12.2183 9.5648 12.2525C10.1504 12.3053 10.7808 12.1021 11.1648 11.9629C11.5488 11.8237 12.7328 11.3901 12.7328 11.3901L13.968 10.9117C14.2822 10.795 14.475 10.4777 14.4339 10.145C14.3927 9.81234 14.1284 9.55156 13.7952 9.51493C13.6848 9.50213 12.6928 9.58853 12.6928 9.58853L13.7824 8.12612L14.5824 7.04932C14.821 6.729 14.7547 6.27591 14.4344 6.03732C14.1141 5.79874 13.661 5.865 13.4224 6.18532L14.024 5.37732C14.2626 5.057 14.1963 4.60391 13.876 4.36532C13.5557 4.12674 13.1026 4.193 12.864 4.51332L12.5984 4.86852Z" stroke="#002066" stroke-width="0.333333" stroke-linecap="round" stroke-linejoin="round"/>
<path d="M13.4224 6.18555L12.1584 7.88315" stroke="#002066" stroke-width="0.333333" stroke-linecap="round" stroke-linejoin="round"/>
<path d="M12.5984 4.86865L11.0784 6.91185" stroke="#002066" stroke-width="0.333333" stroke-linecap="round" stroke-linejoin="round"/>
<path d="M10.6816 5.02246L9.6304 6.43366" stroke="#002066" stroke-width="0.333333" stroke-linecap="round" stroke-linejoin="round"/>
<path d="M9.6304 9.41432C9.90093 9.18719 10.2559 9.08693 10.6052 9.13894C10.9546 9.19095 11.265 9.39024 11.4576 9.68632L13.6816 9.51672" stroke="#002066" stroke-width="0.333333" stroke-linecap="round" stroke-linejoin="round"/>
<path d="M4.96001 4.50074C4.88622 4.10795 5.14482 3.72972 5.53761 3.65594C5.93039 3.58215 6.30862 3.84075 6.38241 4.23354L6.61601 5.47834C6.54222 5.08555 6.80082 4.70732 7.19361 4.63354C7.58639 4.55975 7.96462 4.81835 8.03841 5.21114L8.28641 6.53114L8.76641 9.09114C9.08022 10.7637 7.97954 12.3743 6.30721 12.6895C5.68409 12.789 5.04557 12.712 4.46401 12.4671C3.91521 12.2575 3.43841 11.7983 3.16001 11.5071C2.88161 11.2159 2.00321 10.3039 2.00321 10.3039L1.08161 9.32794C0.807232 9.03766 0.820126 8.57991 1.11041 8.30554C1.40069 8.03116 1.85843 8.04406 2.13281 8.33434L2.85601 8.95994L2.47201 6.91514L2.22401 5.58714C2.17628 5.33305 2.26773 5.0728 2.46391 4.90442C2.66009 4.73604 2.93119 4.68511 3.17511 4.77082C3.41902 4.85653 3.59868 5.06585 3.64641 5.31994L3.46081 4.32954C3.38702 3.93675 3.64562 3.55852 4.03841 3.48474C4.43119 3.41095 4.80942 3.66955 4.88321 4.06234L4.96001 4.50074Z" fill="#FFCF20"/>
<path fill-rule="evenodd" clip-rule="evenodd" d="M4.96001 4.50074C4.88622 4.10795 5.14482 3.72972 5.53761 3.65594C5.93039 3.58215 6.30862 3.84075 6.38241 4.23354L6.61601 5.47834C6.54222 5.08555 6.80082 4.70732 7.19361 4.63354C7.58639 4.55975 7.96462 4.81835 8.03841 5.21114L8.28641 6.53114L8.76641 9.09114C9.08022 10.7637 7.97954 12.3743 6.30721 12.6895C5.68409 12.789 5.04557 12.712 4.46401 12.4671C3.91521 12.2575 3.43841 11.7983 3.16001 11.5071C2.88161 11.2159 2.00321 10.3039 2.00321 10.3039L1.08161 9.32794C0.807232 9.03766 0.820126 8.57991 1.11041 8.30554C1.40069 8.03116 1.85843 8.04406 2.13281 8.33434L2.85601 8.95994L2.47201 6.91514L2.22401 5.58714C2.17628 5.33305 2.26773 5.0728 2.46391 4.90442C2.66009 4.73604 2.93119 4.68511 3.17511 4.77082C3.41902 4.85653 3.59868 5.06585 3.64641 5.31994L3.46081 4.32954C3.38702 3.93675 3.64562 3.55852 4.03841 3.48474C4.43119 3.41095 4.80942 3.66955 4.88321 4.06234L4.96001 4.50074Z" stroke="#002066" stroke-width="0.333333" stroke-linejoin="round"/>
<path d="M3.64639 5.32129L4.03679 7.40129" stroke="#002066" stroke-width="0.333333" stroke-linecap="round" stroke-linejoin="round"/>
<path d="M4.9632 4.50049L5.4336 7.00289" stroke="#002066" stroke-width="0.333333" stroke-linecap="round" stroke-linejoin="round"/>
<path d="M6.6192 5.47852L6.944 7.20812" stroke="#002066" stroke-width="0.333333" stroke-linecap="round" stroke-linejoin="round"/>
<path d="M7.14081 11.1296C7.14081 11.1296 8.24481 10.2048 7.62081 8.31836" stroke="white" stroke-width="0.333333" stroke-linecap="round"/>
</svg>
