<svg width="16" height="16" viewBox="0 0 16 16" fill="none" xmlns="http://www.w3.org/2000/svg">
<path d="M7.99999 13.9722C11.2982 13.9722 13.9719 11.2984 13.9719 8.00024C13.9719 4.70204 11.2982 2.02832 7.99999 2.02832C4.70179 2.02832 2.02808 4.70204 2.02808 8.00024C2.02808 11.2984 4.70179 13.9722 7.99999 13.9722Z" fill="#FFD94D"/>
<path d="M8 13.9721C11.2982 13.9721 13.9719 11.2984 13.9719 8.00023C13.9719 4.70204 11.2982 2.02832 8 2.02832C9.87915 2.02832 12.5937 4.70204 12.5937 8.00023C12.5937 11.2984 10.3852 13.9721 8 13.9721Z" fill="#FFCF20"/>
<path fill-rule="evenodd" clip-rule="evenodd" d="M8.05236 9.67957C9.60858 9.67957 10.4439 10.483 9.99591 10.9309C9.45734 11.4694 8.82995 10.9971 8.06866 10.9971C7.12788 10.9971 6.76688 11.4733 6.00405 10.9309C5.3946 10.3215 6.59226 9.67957 8.05236 9.67957Z" fill="#CCA61A"/>
<path fill-rule="evenodd" clip-rule="evenodd" d="M7.29946 11.2684C7.52389 11.2168 7.75492 11.1636 8.06865 11.1636C8.24228 11.1636 8.4114 11.1905 8.58162 11.2256C8.6361 11.2368 8.69248 11.2493 8.74953 11.2619C8.86362 11.2872 8.98033 11.313 9.08962 11.3304C9.25835 11.3572 9.4343 11.3689 9.6096 11.3312C9.78848 11.2928 9.95717 11.2052 10.1137 11.0486C10.268 10.8944 10.3168 10.6977 10.2603 10.5004C10.2069 10.3141 10.0653 10.144 9.87478 10.0031C9.49136 9.71959 8.8557 9.51275 8.05234 9.51275C7.30308 9.51275 6.60699 9.67661 6.16814 9.93257C5.95145 10.059 5.77216 10.2227 5.70378 10.4247C5.62916 10.6451 5.70093 10.8633 5.88619 11.0486C5.89276 11.0552 5.89988 11.0612 5.90745 11.0666C6.11303 11.2128 6.29987 11.2961 6.483 11.3333C6.66598 11.3704 6.83422 11.3592 6.9974 11.3316C7.10123 11.314 7.19969 11.2914 7.29946 11.2684ZM6.11242 10.8032C6.00207 10.6885 5.99602 10.601 6.01951 10.5316C6.04992 10.4417 6.14703 10.3308 6.33608 10.2205C6.70872 10.0032 7.34151 9.84608 8.05234 9.84608C8.80521 9.84608 9.36531 10.0409 9.6766 10.2711C9.83343 10.3871 9.91393 10.5018 9.93982 10.5922C9.96255 10.6715 9.94778 10.7432 9.87805 10.8129C9.76534 10.9256 9.65364 10.9808 9.53962 11.0053C9.42202 11.0306 9.29257 11.0251 9.14196 11.0012C9.04195 10.9853 8.94309 10.9633 8.83596 10.9396C8.77664 10.9264 8.71479 10.9126 8.64881 10.8991C8.47045 10.8624 8.27566 10.8303 8.06865 10.8303C7.71529 10.8303 7.42356 10.8971 7.18734 10.9511C7.0976 10.9717 7.01588 10.9904 6.94183 11.0029C6.80181 11.0266 6.67797 11.0327 6.54931 11.0066C6.42369 10.9811 6.28293 10.9227 6.11242 10.8032Z" fill="#002066"/>
<path fill-rule="evenodd" clip-rule="evenodd" d="M6.23089 3.24759C6.19358 3.16344 6.09512 3.12547 6.01097 3.16279C5.15379 3.54288 4.18301 4.38494 3.70538 5.2819C3.66211 5.36315 3.69291 5.46408 3.77415 5.50735C3.8554 5.55061 3.95633 5.51982 3.9996 5.43857C4.43909 4.61324 5.35063 3.82023 6.14609 3.46751C6.23024 3.43019 6.2682 3.33173 6.23089 3.24759Z" fill="white"/>
<path fill-rule="evenodd" clip-rule="evenodd" d="M4.72091 6.69015C4.65873 6.75802 4.66334 6.86345 4.73122 6.92563C5.01079 7.18175 5.44089 7.30218 5.84789 7.3036C6.25397 7.30501 6.6832 7.18785 6.95224 6.91314C7.01664 6.84738 7.01554 6.74186 6.94978 6.67745C6.88401 6.61305 6.77849 6.61415 6.71409 6.67991C6.5314 6.86645 6.20513 6.97151 5.84905 6.97027C5.49389 6.96903 5.15517 6.86195 4.95638 6.67984C4.88851 6.61766 4.78308 6.62228 4.72091 6.69015Z" fill="#002066"/>
<path fill-rule="evenodd" clip-rule="evenodd" d="M9.19735 6.68722C9.13517 6.75509 9.13979 6.86052 9.20766 6.9227C9.48723 7.17882 9.91733 7.29925 10.3243 7.30067C10.7304 7.30208 11.1596 7.18492 11.4287 6.91021C11.4931 6.84445 11.492 6.73893 11.4262 6.67452C11.3605 6.61012 11.2549 6.61122 11.1905 6.67698C11.0078 6.86352 10.6816 6.96858 10.3255 6.96734C9.97033 6.9661 9.63161 6.85902 9.43282 6.67691C9.36495 6.61473 9.25952 6.61935 9.19735 6.68722Z" fill="#002066"/>
<path fill-rule="evenodd" clip-rule="evenodd" d="M7.99997 2.19466C4.79382 2.19466 2.19472 4.79376 2.19472 7.99991C2.19472 11.2061 4.79382 13.8052 7.99997 13.8052C11.2061 13.8052 13.8052 11.2061 13.8052 7.99991C13.8052 4.79376 11.2061 2.19466 7.99997 2.19466ZM1.86139 7.99991C1.86139 4.60966 4.60973 1.86133 7.99997 1.86133C11.3902 1.86133 14.1386 4.60966 14.1386 7.99991C14.1386 11.3902 11.3902 14.1385 7.99997 14.1385C4.60973 14.1385 1.86139 11.3902 1.86139 7.99991Z" fill="#002066"/>
<path d="M11.8022 5.03972H9.32025V5.01996L10.6251 2.70533H9.37908V2.02832H11.815V2.04808L10.5281 4.35811H11.8022V5.03972Z" fill="#009FFF"/>
<path fill-rule="evenodd" clip-rule="evenodd" d="M9.2124 2.02799C9.2124 1.93595 9.28701 1.86133 9.37906 1.86133H11.815C11.9071 1.86133 11.9817 1.93595 11.9817 2.02799V2.04776C11.9817 2.07615 11.9744 2.10407 11.9606 2.12887L10.8117 4.19112H11.8022C11.8942 4.19112 11.9688 4.26574 11.9688 4.35778V5.03939C11.9688 5.13144 11.8942 5.20606 11.8022 5.20606H9.32023C9.22818 5.20606 9.15356 5.13144 9.15356 5.03939V5.01963C9.15356 4.99095 9.16096 4.96276 9.17505 4.93778L10.3398 2.87167H9.37906C9.28701 2.87167 9.2124 2.79706 9.2124 2.70501V2.02799ZM9.54573 2.19466V2.53834H10.6251C10.6843 2.53834 10.7391 2.56979 10.769 2.62093C10.7989 2.67208 10.7994 2.73525 10.7703 2.78686L9.59437 4.87273H11.6355V4.52445H10.5281C10.469 4.52445 10.4143 4.49317 10.3844 4.44222C10.3545 4.39128 10.3537 4.32829 10.3825 4.27667L11.5424 2.19466H9.54573Z" fill="#002066"/>
<path d="M15.7065 4.10666H12.5123V4.08122L14.1916 1.10228H12.588V0.230957H15.7231V0.256393L14.0668 3.22942H15.7065V4.10666Z" fill="#009FFF"/>
<path fill-rule="evenodd" clip-rule="evenodd" d="M12.4213 0.230632C12.4213 0.138584 12.4959 0.0639648 12.588 0.0639648H15.7231C15.8151 0.0639648 15.8897 0.138584 15.8897 0.230632V0.256067C15.8897 0.284458 15.8825 0.312378 15.8687 0.33718L14.3504 3.06243H15.7065C15.7986 3.06243 15.8732 3.13705 15.8732 3.2291V4.10633C15.8732 4.19838 15.7986 4.273 15.7065 4.273H12.5122C12.4202 4.273 12.3456 4.19838 12.3456 4.10633V4.0809C12.3456 4.05222 12.353 4.02403 12.3671 3.99905L13.9063 1.26862H12.588C12.4959 1.26862 12.4213 1.194 12.4213 1.10195V0.230632ZM12.7546 0.397298V0.935288H14.1916C14.2508 0.935288 14.3056 0.966732 14.3355 1.01788C14.3654 1.06903 14.3659 1.1322 14.3368 1.1838L12.7832 3.93967H15.5398V3.39576H14.0668C14.0077 3.39576 13.953 3.36448 13.9231 3.31353C13.8932 3.26259 13.8924 3.1996 13.9212 3.14798L15.4536 0.397298H12.7546Z" fill="#002066"/>
</svg>
