<svg width="16" height="16" viewBox="0 0 16 16" fill="none" xmlns="http://www.w3.org/2000/svg">
<g opacity="0.93">
<path d="M7.48276 12.6939C6.98829 12.1334 6.40724 11.1671 6.46131 10.2199C6.48672 9.77369 7.64829 7.95004 8.62808 6.11592C8.6312 5.31134 8.75193 4.81836 8.75193 4.81836C8.75193 4.81836 7.67162 5.28148 6.57766 5.52838C6.27516 5.59663 5.93745 5.64457 5.59964 5.67819C5.5986 5.68113 5.59756 5.68377 5.59662 5.68672C5.13568 7.05436 5.45964 7.62372 4.71485 9.38298C4.41756 10.0853 3.32027 10.6704 3.45443 11.2062C3.64099 11.9514 5.22579 12.1529 5.63006 12.3467C6.03433 12.5404 6.89714 13.3508 7.35454 13.5058C7.81193 13.6608 8.09568 13.7281 8.19308 13.4354C8.32766 13.0309 7.73193 12.9764 7.48276 12.6939Z" fill="#FFCF20"/>
<path d="M8.64226 5.63074L8.75193 4.81836C8.75193 4.81836 7.67162 5.28148 6.57766 5.52838C6.27516 5.59663 5.93745 5.64457 5.59964 5.67819C5.5986 5.68113 5.59756 5.68377 5.59662 5.68672C5.47645 6.11305 5.53506 5.9855 5.48001 6.2057C6.5275 6.4766 8.64226 5.63074 8.64226 5.63074Z" fill="#CCA61A"/>
<path fill-rule="evenodd" clip-rule="evenodd" d="M8.68628 4.6653L8.99327 4.53369L8.91385 4.85799L8.9137 4.85862L8.91291 4.86196C8.91218 4.86512 8.91103 4.87015 8.90952 4.87701C8.90651 4.89073 8.90206 4.91175 8.89665 4.93973C8.88583 4.99568 8.87116 5.07942 8.85631 5.18811C8.82661 5.40553 8.79627 5.72256 8.79474 6.1167L8.79458 6.15808L8.77508 6.19458C8.43266 6.83558 8.06726 7.47678 7.73707 8.05622C7.59389 8.30748 7.45733 8.54712 7.33213 8.7701C7.12427 9.14028 6.94813 9.46376 6.82264 9.72142C6.75988 9.8503 6.71108 9.96009 6.67755 10.0494C6.64268 10.1422 6.62938 10.2 6.6277 10.2295C6.57737 11.1114 7.12391 12.0353 7.60775 12.5838C7.65161 12.6335 7.71631 12.679 7.801 12.7278C7.8371 12.7486 7.87402 12.7684 7.91297 12.7894C7.91912 12.7927 7.92532 12.796 7.93157 12.7994C7.97627 12.8235 8.02358 12.8493 8.06857 12.8767C8.15524 12.9295 8.25353 13 8.3159 13.1015C8.38497 13.2139 8.39886 13.345 8.35122 13.4882C8.31842 13.5867 8.26397 13.6716 8.17933 13.7294C8.09588 13.7865 8.00088 13.805 7.90926 13.8053C7.73615 13.8058 7.52363 13.7392 7.30105 13.6638C7.16512 13.6177 7.01048 13.5278 6.85666 13.4254C6.70036 13.3215 6.53335 13.1968 6.37142 13.0735C6.32856 13.0409 6.28615 13.0084 6.24431 12.9764C6.12641 12.8862 6.01312 12.7995 5.90754 12.7225C5.76281 12.617 5.64395 12.5383 5.55805 12.4971C5.47369 12.4567 5.31687 12.4121 5.10125 12.3523L5.08559 12.3479C4.88156 12.2913 4.6402 12.2244 4.40459 12.1403C4.16382 12.0544 3.91958 11.9474 3.72069 11.8082C3.52237 11.6695 3.35297 11.4873 3.29276 11.2468C3.24323 11.049 3.31261 10.8635 3.41182 10.7056C3.51105 10.5475 3.65666 10.3908 3.80375 10.2406C3.84298 10.2005 3.8824 10.1608 3.92168 10.1212C4.03425 10.0079 4.1457 9.89561 4.24851 9.77881C4.38658 9.62195 4.49731 9.46946 4.56137 9.31814C4.92648 8.45571 5.02861 7.88887 5.09692 7.36651C5.10693 7.28996 5.11624 7.2139 5.12558 7.13764C5.18045 6.68966 5.23616 6.23482 5.43836 5.63456C5.43963 5.63068 5.44078 5.6275 5.44146 5.62562L5.44233 5.62324L5.44252 5.62273L5.4778 5.52295L5.58314 5.51247C5.91691 5.47925 6.24736 5.43218 6.54097 5.36593M8.68628 4.6653L8.68568 4.66555L8.68355 4.66646L8.67472 4.6702C8.66684 4.67353 8.65501 4.67849 8.63949 4.68493C8.60845 4.69781 8.56267 4.71659 8.50422 4.73993C8.3873 4.78662 8.21987 4.85154 8.01851 4.92412C7.61511 5.06953 7.07865 5.24458 6.54097 5.36593M7.99124 13.4542L8.52604 5.143L8.52734 5.09914L8.13155 5.2377C7.72131 5.38558 7.17062 5.56554 6.61435 5.69109C6.33571 5.75395 6.03019 5.79964 5.72408 5.83293C5.55785 6.35345 5.50877 6.7529 5.45695 7.17466C5.44745 7.25197 5.43786 7.33003 5.42744 7.40973C5.35629 7.95377 5.248 8.55126 4.86833 9.44809C4.78374 9.64792 4.64582 9.83193 4.49873 9.99905C4.38868 10.1241 4.26688 10.2467 4.15245 10.362C4.11458 10.4001 4.07751 10.4374 4.04194 10.4738C3.89431 10.6246 3.77217 10.7585 3.69411 10.8828C3.61602 11.0072 3.59855 11.0958 3.61611 11.1659C3.64918 11.298 3.74784 11.4204 3.91176 11.5351C4.07513 11.6494 4.28734 11.7446 4.51662 11.8264C4.74072 11.9064 4.9721 11.9705 5.17854 12.0278L5.19679 12.0328C5.39552 12.088 5.58557 12.1407 5.7021 12.1965C5.81832 12.2522 5.9589 12.3474 6.10393 12.4532C6.21289 12.5326 6.33075 12.6228 6.44963 12.7138C6.49085 12.7453 6.53219 12.777 6.57333 12.8083C6.7348 12.9312 6.89453 13.0503 7.04129 13.1479C7.19052 13.2472 7.31525 13.3167 7.40802 13.3481C7.64283 13.4277 7.80089 13.4723 7.90835 13.472C7.95702 13.4718 7.97981 13.462 7.99124 13.4542ZM7.99124 13.4542C8.06901 13.383 8.04448 13.2965 8.03191 13.276C8.01265 13.2447 7.97166 13.208 7.89508 13.1613C7.85844 13.139 7.81813 13.1169 7.77341 13.0928C7.76753 13.0897 7.76156 13.0865 7.75551 13.0832C7.71685 13.0624 7.67523 13.04 7.63459 13.0166C7.5417 12.9631 7.4385 12.8958 7.35778 12.8043C6.85266 12.2317 6.23712 11.2231 6.29491 10.2105C6.29958 10.1284 6.32814 10.0316 6.36549 9.93218C6.40418 9.82916 6.45795 9.70895 6.52296 9.57547C6.65303 9.3084 6.83329 8.97767 7.04148 8.6069C7.16863 8.38044 7.30637 8.13875 7.45023 7.88629C7.77323 7.31949 8.12715 6.69844 8.46168 6.07378C8.46515 5.6825 8.49567 5.36537 8.52604 5.143L7.99124 13.4542Z" fill="#002066"/>
<path d="M9.5973 11.0675C9.64814 11.8257 8.92814 12.8226 9.29095 13.2458C9.79543 13.8344 11.309 13.3337 11.7594 13.3337C12.2098 13.3337 13.3508 13.6899 13.8315 13.6324C14.3121 13.5748 14.5972 13.5131 14.5522 13.2087C14.4899 12.7877 13.9305 12.9949 13.5793 12.8486C12.882 12.5583 11.9232 11.9409 11.5432 11.0676C11.229 10.3455 12.1365 4.30864 11.2133 2.65865C10.6863 1.71635 3.50293 1.9986 3.50293 1.9986V5.74849C3.50293 5.74849 5.33668 5.80851 6.57762 5.5285C7.67168 5.28171 8.75189 4.81848 8.75189 4.81848C8.75189 4.81848 8.49814 5.85269 8.71647 7.37105C8.92147 8.79668 9.46991 9.1684 9.5973 11.0675Z" fill="#FFE279"/>
<path d="M13.8315 13.6324C14.3121 13.5748 14.5972 13.5131 14.5522 13.2087C14.4899 12.7877 13.9306 12.9949 13.5793 12.8486C12.882 12.5583 11.9233 11.9409 11.5433 11.0676C11.229 10.3455 12.1365 4.30864 11.2134 2.65865C10.6863 1.71635 3.50297 1.9986 3.50297 1.9986V2.58128C3.50297 2.58128 9.30357 2.29003 10.4686 2.89494C11.5888 3.58947 10.7374 10.8932 10.7374 10.8932C10.7374 10.8932 10.5134 12.3495 12.4626 13.2232C12.7762 13.7161 13.8315 13.6324 13.8315 13.6324Z" fill="#FFCF20"/>
<path fill-rule="evenodd" clip-rule="evenodd" d="M12.6912 9.54652C12.6745 9.85529 12.5636 10.1383 12.4673 10.2835C12.4165 10.3602 12.4374 10.4636 12.5142 10.5145C12.5909 10.5653 12.6943 10.5444 12.7452 10.4676C12.8749 10.272 13.0042 9.93138 13.024 9.56452C13.044 9.19406 12.9527 8.77556 12.6116 8.45747C12.5443 8.3947 12.4388 8.39838 12.376 8.4657C12.3132 8.53301 12.3169 8.63848 12.3842 8.70125C12.6319 8.93217 12.7077 9.24134 12.6912 9.54652Z" fill="#002066"/>
<path fill-rule="evenodd" clip-rule="evenodd" d="M4.01617 7.74561C3.98192 8.05293 4.04483 8.35031 4.11591 8.50933C4.15348 8.59337 4.1158 8.69194 4.03177 8.7295C3.94773 8.76706 3.84916 8.72939 3.8116 8.64536C3.7158 8.43104 3.6442 8.07384 3.68489 7.7087C3.72597 7.33998 3.88482 6.94217 4.27353 6.68442C4.35025 6.63356 4.45367 6.65451 4.50454 6.73123C4.55541 6.80794 4.53445 6.91137 4.45774 6.96223C4.17556 7.14934 4.05002 7.44187 4.01617 7.74561Z" fill="#002066"/>
<path fill-rule="evenodd" clip-rule="evenodd" d="M13.7151 9.41788C13.7154 9.86119 13.5793 10.2758 13.4501 10.4959C13.4035 10.5753 13.4301 10.6774 13.5095 10.724C13.5889 10.7706 13.691 10.7441 13.7376 10.6647C13.8975 10.3923 14.0488 9.91918 14.0485 9.41768C14.0482 8.9126 13.8932 8.35752 13.4128 7.95625C13.3422 7.89724 13.2371 7.90667 13.178 7.97731C13.119 8.04796 13.1285 8.15306 13.1991 8.21207C13.5814 8.5314 13.7149 8.97816 13.7151 9.41788Z" fill="#002066"/>
</g>
<path fill-rule="evenodd" clip-rule="evenodd" d="M3.58069 5.98372L11.3588 2.64386C11.6099 3.09261 11.7268 3.81383 11.7765 4.62346C11.8267 5.4414 11.8093 6.38007 11.7732 7.28432C11.7551 7.73686 11.7322 8.18196 11.7106 8.59986L11.7087 8.63669C11.6878 9.04114 11.6683 9.41891 11.6555 9.75403C11.6423 10.0998 11.6364 10.3967 11.6433 10.6283C11.6467 10.7441 11.6533 10.8408 11.6632 10.9176C11.6734 10.9972 11.6859 11.0444 11.6961 11.0677C12.0504 11.8819 12.9604 12.4769 13.6434 12.7613C13.7059 12.7874 13.7851 12.8004 13.8832 12.8077C13.9251 12.8109 13.9672 12.8128 14.0117 12.8149C14.0187 12.8152 14.0258 12.8156 14.0329 12.8159C14.0839 12.8183 14.138 12.8211 14.1907 12.8263C14.2924 12.8365 14.4115 12.8574 14.5122 12.921C14.6233 12.991 14.695 13.1015 14.7171 13.2508C14.7322 13.3534 14.7219 13.454 14.6713 13.5437C14.6215 13.632 14.5437 13.6901 14.4614 13.7298C14.306 13.8048 14.0851 13.8364 13.8513 13.8644C13.7087 13.8815 13.5295 13.8673 13.3453 13.8416C13.1581 13.8155 12.9519 13.7755 12.7508 13.7345C12.6976 13.7236 12.6449 13.7127 12.5929 13.702C12.4462 13.6717 12.3052 13.6426 12.1756 13.619C11.998 13.5865 11.8554 13.5669 11.7594 13.5669C11.6652 13.5669 11.5042 13.5944 11.2837 13.6334L11.2678 13.6362C11.0591 13.6732 10.8122 13.7169 10.5626 13.7428C10.3077 13.7692 10.0403 13.7782 9.79934 13.7389C9.55904 13.6998 9.3261 13.6095 9.16443 13.4209C9.03143 13.2657 9.00935 13.0698 9.027 12.8843C9.0446 12.6994 9.10452 12.4957 9.16856 12.2976C9.18567 12.2447 9.20311 12.192 9.22048 12.1396C9.27019 11.9895 9.31936 11.841 9.35875 11.6922C9.41163 11.4923 9.44195 11.3082 9.43102 11.1452C9.36858 10.2144 9.20382 9.66183 9.02875 9.16354C9.00311 9.09055 8.97706 9.01829 8.95095 8.94585C8.79743 8.51998 8.64156 8.08759 8.55151 7.46134C8.4403 6.68798 8.44921 6.03721 8.48619 5.57856C8.4998 5.40968 8.51723 5.26674 8.5339 5.15319C8.42474 5.1959 8.28816 5.24785 8.13156 5.3043C7.72133 5.45219 7.17064 5.63215 6.61431 5.75765M14.381 13.3799L8.99341 4.60013L8.91337 4.9264L8.91163 4.93396C8.91004 4.94095 8.90763 4.95183 8.90458 4.96646C8.89848 4.99571 8.88982 5.03996 8.88 5.09812C8.86036 5.21445 8.8361 5.38638 8.81844 5.60534C8.78313 6.04338 8.77432 6.6689 8.88145 7.4139C8.96638 8.0045 9.1106 8.40507 9.26339 8.82942C9.28984 8.90288 9.31654 8.97706 9.34324 9.05305C9.5255 9.57181 9.69865 10.1546 9.76361 11.1229C9.7781 11.339 9.73748 11.5639 9.68099 11.7774C9.63876 11.9371 9.58488 12.0997 9.53431 12.2523C9.51758 12.3028 9.5012 12.3523 9.48573 12.4001C9.42148 12.5989 9.3726 12.7712 9.35883 12.9159C9.34511 13.0601 9.36909 13.1475 9.41749 13.2039C9.50806 13.3096 9.6535 13.3774 9.85294 13.4099C10.0517 13.4423 10.2855 13.4364 10.5283 13.4113C10.7657 13.3866 11.0024 13.3447 11.2136 13.3073L11.2321 13.304C11.4355 13.268 11.6298 13.2336 11.7594 13.2336C11.8886 13.2336 12.0576 13.2585 12.2356 13.2911C12.3693 13.3155 12.5158 13.3457 12.6637 13.3763C12.7149 13.3868 12.7663 13.3974 12.8174 13.4078C13.0179 13.4487 13.2153 13.4869 13.3913 13.5115C13.5703 13.5364 13.7139 13.5451 13.8117 13.5335C14.0585 13.5039 14.2205 13.4759 14.3165 13.4296C14.3599 13.4086 14.375 13.3905 14.381 13.3799ZM14.381 13.3799C14.4281 13.3319 14.4017 13.2518 14.3344 13.2029C14.3018 13.1823 14.2474 13.167 14.1576 13.158C14.1145 13.1537 14.0683 13.1513 14.0172 13.1489C14.0105 13.1485 14.0036 13.1482 13.9967 13.1479C13.9526 13.1459 13.9052 13.1437 13.8583 13.1401C13.7507 13.1321 13.6283 13.1161 13.5152 13.0691C12.8036 12.7727 11.7961 12.133 11.3904 11.2007C11.3613 11.1337 11.344 11.0491 11.3326 10.9601C11.3208 10.8684 11.3137 10.7598 11.3101 10.6382C11.3029 10.3949 11.3091 10.0888 11.3224 9.74132C11.3353 9.40395 11.3549 9.02425 11.3757 8.62087L11.3777 8.58266C11.3993 8.16459 11.4221 7.72133 11.4401 7.271C11.4761 6.36951 11.4929 5.44447 11.4438 4.64387C11.3942 3.83496 11.2784 3.18283 11.0679 2.8066C11.0543 2.78234 11.0218 2.74663 10.9532 2.70485C10.886 2.66389 10.7944 2.6233 10.6779 2.5844C10.4449 2.50657 10.1325 2.442 9.76283 2.38957C9.02487 2.28488 8.08512 2.23201 7.15627 2.20844C6.22858 2.18491 5.31672 2.19072 4.63644 2.20243C4.2964 2.20829 4.01445 2.21561 3.81759 2.22147C3.76102 2.22315 3.71147 2.22472 3.66961 2.22609V5.65191C3.70985 5.65251 3.75691 5.65305 3.80994 5.6534C3.99958 5.65464 4.26535 5.6534 4.5695 5.64349C5.18033 5.62358 5.93626 5.56893 6.54094 5.43249C7.07867 5.31119 7.61512 5.13615 8.01851 4.99072C8.21986 4.91814 8.38728 4.85321 8.50419 4.80651C8.56263 4.78316 8.60841 4.76439 8.63945 4.7515C8.65496 4.74506 8.66679 4.7401 8.67467 4.73677L8.6835 4.73303L8.68612 4.73191L8.99341 4.60013L14.381 13.3799ZM3.58069 5.98372L3.49749 5.98163L3.33627 5.97636V1.90492L3.4964 1.89863L3.50294 2.06517C3.4964 1.89863 3.4964 1.89863 3.4964 1.89863L3.51738 1.89783L3.57794 1.89566C3.63094 1.89381 3.70865 1.89123 3.80767 1.88829C4.00571 1.88239 4.28907 1.87503 4.6307 1.86915C5.31377 1.85739 6.23069 1.85152 7.16472 1.87522C8.09759 1.89888 9.0525 1.95213 9.80965 2.05954C10.1876 2.11316 10.5228 2.18114 10.7835 2.26824C11.1824 2.39958 11.2473 2.48723 11.3588 2.64386L3.58069 5.98372ZM3.58069 5.98372L3.49749 5.98163L3.49905 5.98168L3.50325 5.98181L3.51933 5.98227C3.5334 5.98265 3.55405 5.98316 3.58069 5.98372C3.63397 5.98483 3.71124 5.98609 3.80776 5.98672C4.00074 5.98799 4.27096 5.98673 4.58036 5.97665C5.19664 5.95656 5.97806 5.90122 6.61431 5.75765" fill="#002066"/>
</svg>
