<svg width="16" height="16" viewBox="0 0 16 16" fill="none" xmlns="http://www.w3.org/2000/svg">
<path d="M10.3204 10.3388L5.83603 11.1847L5.82929 11.149L7.39801 6.52216L5.14668 6.94684L4.91593 5.7236L9.31728 4.89334L9.32401 4.92905L7.78611 9.54148L10.0881 9.10724L10.3204 10.3388Z" fill="#00FFAF"/>
<path d="M10.3215 9.63716L7.90302 10.0934L7.21032 10.2241C7.08485 10.2477 6.98046 10.1273 7.02168 10.0065L8.35767 6.08955L8.7442 4.95438L9.24161 4.86055L9.24919 4.90074L7.6509 9.70359L10.2418 9.21484L10.3215 9.63716Z" fill="#00CC8C"/>
<path fill-rule="evenodd" clip-rule="evenodd" d="M5.44288 6.18282C5.42582 6.09237 5.48531 6.00521 5.57577 5.98815L7.25733 5.67094C7.34778 5.65388 7.43494 5.71337 7.452 5.80382C7.46906 5.89428 7.40957 5.98143 7.31912 5.9985L5.63756 6.3157C5.5471 6.33277 5.45994 6.27327 5.44288 6.18282Z" fill="white"/>
<path fill-rule="evenodd" clip-rule="evenodd" d="M4.75212 5.75457C4.73506 5.66411 4.79455 5.57696 4.885 5.55989L9.28635 4.72963C9.3768 4.71257 9.46396 4.77206 9.48103 4.86251L9.48776 4.89822C9.49302 4.92612 9.49107 4.9549 9.48209 4.98183L8.03391 9.3252L10.0572 8.94353C10.1476 8.92647 10.2348 8.98596 10.2518 9.07642L10.4842 10.308C10.5012 10.3984 10.4417 10.4856 10.3513 10.5026L5.86689 11.3486C5.77644 11.3656 5.68928 11.3061 5.67222 11.2157L5.66548 11.18C5.66017 11.1518 5.66221 11.1227 5.67142 11.0956L7.14854 6.73889L5.17754 7.11069C5.08709 7.12776 4.99993 7.06826 4.98287 6.97781L4.75212 5.75457ZM5.11057 5.85655L5.27953 6.75224L7.36709 6.35845C7.4253 6.34747 7.48496 6.36821 7.52381 6.41293C7.56266 6.45766 7.57484 6.51964 7.55582 6.57574L6.06531 10.9719L10.1257 10.206L9.95519 9.30198L7.81698 9.70533C7.75891 9.71629 7.69939 9.69568 7.66053 9.65116C7.62167 9.60665 7.60928 9.54489 7.62797 9.48884L9.08932 5.10601L5.11057 5.85655Z" fill="#002066"/>
<path d="M6.18119 13.1351L2.62996 14.7029L2.61748 14.6746L3.0224 10.5385L1.23956 11.3256L0.811899 10.3569L4.29736 8.81813L4.30985 8.84641L3.92767 12.9646L5.75063 12.1598L6.18119 13.1351Z" fill="#00FFAF"/>
<path d="M5.97974 12.6527L4.13557 13.4669L3.4787 13.7236C3.36273 13.769 3.23982 13.6758 3.25218 13.5519L3.58483 10.2167L3.71529 8.90464L4.23023 8.66645L4.24376 8.6971L3.94375 12.9567L5.69415 12.146L5.97974 12.6527Z" fill="#00CC8C"/>
<path fill-rule="evenodd" clip-rule="evenodd" d="M1.40569 10.6989C1.36852 10.6146 1.40664 10.5163 1.49085 10.4791L2.82249 9.89119C2.9067 9.85401 3.0051 9.89214 3.04227 9.97634C3.07945 10.0606 3.04132 10.159 2.95711 10.1961L1.62547 10.784C1.54126 10.8212 1.44287 10.7831 1.40569 10.6989Z" fill="white"/>
<path fill-rule="evenodd" clip-rule="evenodd" d="M0.659423 10.4244C0.622248 10.3402 0.660375 10.2418 0.744581 10.2046L4.23005 8.66586C4.31425 8.62868 4.41265 8.66681 4.44983 8.75102L4.46231 8.77929C4.47378 8.80527 4.47842 8.83374 4.4758 8.86201L4.11983 12.6978L5.68332 12.0075C5.76752 11.9704 5.86592 12.0085 5.9031 12.0927L6.33366 13.068C6.37083 13.1522 6.33271 13.2506 6.2485 13.2878L2.69727 14.8555C2.61306 14.8927 2.51466 14.8546 2.47749 14.7704L2.465 14.7421C2.45342 14.7159 2.44881 14.6871 2.4516 14.6585L2.82873 10.8064L1.30686 11.4782C1.22265 11.5154 1.12425 11.4773 1.08708 11.3931L0.659423 10.4244ZM1.03167 10.4422L1.32471 11.106L2.95509 10.3862C3.00928 10.3623 3.0721 10.3689 3.12009 10.4037C3.16809 10.4384 3.19404 10.496 3.18827 10.5549L2.80769 14.4424L5.96141 13.0501L5.66547 12.3798L3.99497 13.1173C3.94092 13.1411 3.87827 13.1346 3.83031 13.1001C3.78235 13.0656 3.75625 13.0082 3.76171 12.9494L4.12095 9.07839L1.03167 10.4422Z" fill="#002066"/>
<path d="M15.3101 8.15774H9.65515V8.11271L12.6282 2.83893H9.78919V1.29639H15.3394V1.34142L12.4072 6.60472H15.3101V8.15774Z" fill="#00FFAF"/>
<path d="M15.3101 7.34327H12.6004H11.6219C11.3643 7.34327 11.204 7.06359 11.3343 6.84137L13.6804 2.83893L14.553 1.29639L15.3394 1.29639V1.34142L12.4072 6.60472H15.3101L15.3101 7.34327Z" fill="#00CC8C"/>
<path fill-rule="evenodd" clip-rule="evenodd" d="M10.2827 1.90055C10.2827 1.80851 10.3573 1.73389 10.4493 1.73389H12.5698C12.6619 1.73389 12.7365 1.80851 12.7365 1.90055C12.7365 1.9926 12.6619 2.06722 12.5698 2.06722H10.4493C10.3573 2.06722 10.2827 1.9926 10.2827 1.90055Z" fill="white"/>
<path fill-rule="evenodd" clip-rule="evenodd" d="M9.62251 1.29655C9.62251 1.2045 9.69713 1.12988 9.78917 1.12988H15.3394C15.4315 1.12988 15.5061 1.2045 15.5061 1.29655V1.34158C15.5061 1.36997 15.4988 1.39789 15.485 1.42269L12.6908 6.43822H15.3101C15.4021 6.43822 15.4768 6.51283 15.4768 6.60488V8.1579C15.4768 8.24995 15.4021 8.32457 15.3101 8.32457H9.65513C9.56308 8.32457 9.48846 8.24995 9.48846 8.1579V8.11287C9.48846 8.0842 9.49586 8.056 9.50995 8.03102L12.3429 3.00576H9.78917C9.69713 3.00576 9.62251 2.93114 9.62251 2.8391V1.29655ZM9.95584 1.46322V2.67243H12.6282C12.6874 2.67243 12.7422 2.70387 12.7721 2.75502C12.802 2.80617 12.8025 2.86934 12.7734 2.92094L9.91503 7.99124H15.1434V6.77155H12.4072C12.3481 6.77155 12.2935 6.74026 12.2635 6.68932C12.2336 6.63837 12.2329 6.57539 12.2616 6.52377L15.0809 1.46322H9.95584Z" fill="#002066"/>
</svg>
