<svg width="16" height="16" viewBox="0 0 16 16" fill="none" xmlns="http://www.w3.org/2000/svg">
<g clip-path="url(#clip0_5412_3830)">
<path d="M8.62891 1C10.6073 1 12.2117 2.60369 12.2119 4.58203C12.2119 4.84958 12.1816 5.11052 12.126 5.36133H12.5293C13.8195 5.36139 14.865 6.40715 14.8652 7.69727C14.8652 8.98759 13.8196 10.0341 12.5293 10.0342H4.27344C4.24956 10.0342 4.22585 10.031 4.20215 10.0303C4.18943 10.0297 4.17674 10.029 4.16406 10.0283C4.09145 10.025 4.01995 10.0186 3.94922 10.0088C2.37473 9.8119 1.15639 8.46961 1.15625 6.8418C1.15625 5.07831 2.58612 3.64844 4.34961 3.64844C4.62403 3.64846 4.89041 3.68292 5.14453 3.74805C5.5205 2.17208 6.93785 1.00021 8.62891 1Z" fill="#CCD2DC"/>
<path fill-rule="evenodd" clip-rule="evenodd" d="M1.25314 7.84052C1.63234 8.99239 2.64959 9.85424 3.88672 10.0089C3.95746 10.0188 4.02895 10.0251 4.10156 10.0285L4.13965 10.0304C4.14999 10.0307 4.16033 10.0315 4.17068 10.0323C4.18406 10.0333 4.19748 10.0343 4.21094 10.0343H12.4668C13.7571 10.0343 14.8027 8.98774 14.8027 7.69742C14.8026 6.94881 14.4505 6.28247 13.9029 5.85498C13.9598 6.06491 13.9902 6.2858 13.9902 6.51383C13.99 7.90166 12.8645 9.02652 11.4766 9.02652H3.76367C3.75319 9.02652 3.74262 9.02577 3.73207 9.02502C3.72336 9.0244 3.71466 9.02378 3.70606 9.02359C3.69762 9.02381 3.68917 9.0241 3.6807 9.02439C3.66411 9.02497 3.64748 9.02554 3.63086 9.02554C2.68134 9.0255 1.83006 8.56643 1.25314 7.84052Z" fill="#99A6B9"/>
<path d="M8.62891 1V0.833333H8.62889L8.62891 1ZM12.2119 4.58203H12.3786V4.58201L12.2119 4.58203ZM12.126 5.36133L11.9633 5.32525C11.9523 5.37459 11.9644 5.42623 11.996 5.46564C12.0276 5.50506 12.0754 5.52799 12.126 5.52799V5.36133ZM12.5293 5.36133L12.5293 5.19466H12.5293V5.36133ZM14.8652 7.69727H15.0319V7.69723L14.8652 7.69727ZM12.5293 10.0342V10.2008H12.5293L12.5293 10.0342ZM4.27344 10.0342L4.27341 10.2008H4.27344V10.0342ZM4.20215 10.0303L4.19459 10.1968L4.19712 10.1969L4.20215 10.0303ZM4.16406 10.0283L4.17359 9.86192L4.17178 9.86183L4.16406 10.0283ZM3.94922 10.0088L3.9722 9.8437L3.9699 9.84341L3.94922 10.0088ZM1.15625 6.8418H0.989583V6.84181L1.15625 6.8418ZM4.34961 3.64844L4.34962 3.48177H4.34961V3.64844ZM5.14453 3.74805L5.10315 3.9095C5.14644 3.92059 5.19237 3.91384 5.23063 3.89075C5.26889 3.86767 5.29628 3.83019 5.30665 3.78672L5.14453 3.74805ZM8.62891 1V1.16667C10.5153 1.16667 12.045 2.69578 12.0452 4.58205L12.2119 4.58203L12.3786 4.58201C12.3783 2.5116 10.6993 0.833333 8.62891 0.833333V1ZM12.2119 4.58203H12.0452C12.0452 4.83696 12.0164 5.0858 11.9633 5.32525L12.126 5.36133L12.2887 5.39741C12.3468 5.13524 12.3786 4.8622 12.3786 4.58203H12.2119ZM12.126 5.36133V5.52799H12.5293V5.36133V5.19466H12.126V5.36133ZM12.5293 5.36133L12.5293 5.52799C13.7274 5.52805 14.6983 6.49918 14.6986 7.6973L14.8652 7.69727L15.0319 7.69723C15.0316 6.31513 13.9115 5.19472 12.5293 5.19466L12.5293 5.36133ZM14.8652 7.69727H14.6986C14.6986 8.89563 13.7275 9.86746 12.5293 9.86751L12.5293 10.0342L12.5293 10.2008C13.9117 10.2008 15.0319 9.07955 15.0319 7.69727H14.8652ZM12.5293 10.0342V9.86751H4.27344V10.0342V10.2008H12.5293V10.0342ZM4.27344 10.0342L4.27347 9.86751C4.26829 9.86751 4.26182 9.86716 4.25014 9.86629C4.24022 9.86555 4.22369 9.86418 4.20718 9.86368L4.20215 10.0303L4.19712 10.1969C4.20431 10.1971 4.21149 10.1977 4.22532 10.1987C4.23739 10.1996 4.2547 10.2008 4.27341 10.2008L4.27344 10.0342ZM4.20215 10.0303L4.2097 9.86378C4.19763 9.86323 4.1856 9.86261 4.17358 9.86193L4.16406 10.0283L4.15454 10.1947C4.16788 10.1955 4.18122 10.1962 4.19459 10.1968L4.20215 10.0303ZM4.16406 10.0283L4.17178 9.86183C4.10375 9.85868 4.03738 9.85279 3.9722 9.84371L3.94922 10.0088L3.92624 10.1739C4.00253 10.1845 4.07914 10.1912 4.15635 10.1948L4.16406 10.0283ZM3.94922 10.0088L3.9699 9.84341C2.47769 9.65681 1.32305 8.38443 1.32292 6.84178L1.15625 6.8418L0.989583 6.84181C0.989728 8.55479 2.27177 9.96699 3.92854 10.1742L3.94922 10.0088ZM1.15625 6.8418H1.32292C1.32292 5.17035 2.67817 3.8151 4.34961 3.8151V3.64844V3.48177C2.49407 3.48177 0.989583 4.98626 0.989583 6.8418H1.15625ZM4.34961 3.64844L4.3496 3.8151C4.61003 3.81513 4.86251 3.84782 5.10315 3.9095L5.14453 3.74805L5.18591 3.5866C4.91831 3.51801 4.63803 3.4818 4.34962 3.48177L4.34961 3.64844ZM5.14453 3.74805L5.30665 3.78672C5.66513 2.28408 7.01676 1.16687 8.62893 1.16667L8.62891 1L8.62889 0.833333C6.85894 0.833552 5.37588 2.06009 4.98241 3.70937L5.14453 3.74805Z" fill="#002066"/>
<path d="M4.65218 4.82031C3.46788 4.82031 2.50781 5.78038 2.50781 6.96468" stroke="white" stroke-width="0.5" stroke-linecap="round" stroke-linejoin="round"/>
<path d="M5.64547 9.98064L6.62751 7.00318C6.72656 6.70288 7.0071 6.5 7.32331 6.5H9.23508C9.827 6.5 10.1746 7.16559 9.83634 7.65135L8.734 9.23444C8.64944 9.35588 8.73633 9.52228 8.88432 9.52228H9.9859C10.1392 9.52228 10.2247 9.69932 10.1293 9.81935L6.15571 14.8232C6.02553 14.9871 5.76657 14.8397 5.84111 14.6441L7.15675 11.1912C7.20243 11.0713 7.11389 10.9428 6.98559 10.9428H6.34128C5.84216 10.9428 5.48913 10.4546 5.64547 9.98064Z" fill="#FFE279"/>
<path fill-rule="evenodd" clip-rule="evenodd" d="M5.8354 14.4599L5.83003 14.4736C5.75376 14.668 6.01016 14.8181 6.14236 14.6564L10.1051 9.80909C10.2029 9.68948 10.1178 9.50999 9.9633 9.50999H8.87461C8.72549 9.50999 8.63886 9.3413 8.72574 9.2201L9.79122 7.73376C10.1388 7.24895 9.79225 6.57422 9.19574 6.57422H7.51492C8.31805 6.57422 8.79623 7.47023 8.34916 8.13742L7.80476 8.94988C7.59006 9.27031 7.81971 9.70062 8.20542 9.70062C8.59429 9.70062 8.82326 10.1372 8.60215 10.4571L5.8354 14.4599Z" fill="#FFCF20"/>
<path d="M5.64547 9.98064L6.62751 7.00318C6.72656 6.70288 7.0071 6.5 7.32331 6.5H9.23508C9.827 6.5 10.1746 7.16559 9.83634 7.65135L8.734 9.23444C8.64944 9.35588 8.73633 9.52228 8.88432 9.52228H9.9859C10.1392 9.52228 10.2247 9.69932 10.1293 9.81935L6.15571 14.8232C6.02553 14.9871 5.76657 14.8397 5.84111 14.6441L7.15675 11.1912C7.20243 11.0713 7.11389 10.9428 6.98559 10.9428H6.34128C5.84216 10.9428 5.48913 10.4546 5.64547 9.98064Z" stroke="#002066" stroke-width="0.333333" stroke-linecap="round" stroke-linejoin="round"/>
<path d="M7.51562 7.59961L7.03451 9.08034" stroke="white" stroke-width="0.5" stroke-linecap="round" stroke-linejoin="round"/>
</g>
<defs>
<clipPath id="clip0_5412_3830">
<rect width="16" height="16" fill="white"/>
</clipPath>
</defs>
</svg>
