<svg width="44" height="44" viewBox="0 0 44 44" fill="none" xmlns="http://www.w3.org/2000/svg">
<g clip-path="url(#clip0_5827_22394)">
<path d="M0 22C0 12.6177 0 7.92655 2.47976 4.69486C3.11817 3.86288 3.86288 3.11817 4.69486 2.47976C7.92655 0 12.6177 0 22 0C31.3823 0 36.0735 0 39.3051 2.47976C40.1371 3.11817 40.8818 3.86288 41.5202 4.69486C44 7.92655 44 12.6177 44 22C44 31.3823 44 36.0735 41.5202 39.3051C40.8818 40.1371 40.1371 40.8818 39.3051 41.5202C36.0735 44 31.3823 44 22 44C12.6177 44 7.92655 44 4.69486 41.5202C3.86288 40.8818 3.11817 40.1371 2.47976 39.3051C0 36.0735 0 31.3823 0 22Z" fill="#E5EDFF"/>
<path d="M45 38.3028V44H-1V38.3237C1.67557 34.7891 5.14849 31.9204 9.1426 29.9457C13.1367 27.9709 17.5418 26.9446 22.0077 26.9483C31.407 26.9483 39.756 31.4082 45 38.3028ZM29.6705 15.5785C29.6705 17.5885 28.8628 19.5161 27.425 20.9374C25.9872 22.3586 24.0372 23.1571 22.0038 23.1571C19.9705 23.1571 18.0205 22.3586 16.5827 20.9374C15.1449 19.5161 14.3372 17.5885 14.3372 15.5785C14.3372 13.5686 15.1449 11.641 16.5827 10.2197C18.0205 8.79845 19.9705 8 22.0038 8C24.0372 8 25.9872 8.79845 27.425 10.2197C28.8628 11.641 29.6705 13.5686 29.6705 15.5785Z" fill="#002050"/>
</g>
<path d="M22 0.5C26.7028 0.5 30.1883 0.500562 32.9033 0.806641C35.6081 1.11159 37.4867 1.7141 39.001 2.87598C39.7983 3.48778 40.5122 4.2017 41.124 4.99902C42.2859 6.51326 42.8884 8.39192 43.1934 11.0967C43.4994 13.8117 43.5 17.2972 43.5 22C43.5 26.7028 43.4994 30.1883 43.1934 32.9033C42.8884 35.6081 42.2859 37.4867 41.124 39.001C40.5122 39.7983 39.7983 40.5122 39.001 41.124C37.4867 42.2859 35.6081 42.8884 32.9033 43.1934C30.1883 43.4994 26.7028 43.5 22 43.5C17.2972 43.5 13.8117 43.4994 11.0967 43.1934C8.39192 42.8884 6.51326 42.2859 4.99902 41.124C4.2017 40.5122 3.48778 39.7983 2.87598 39.001C1.7141 37.4867 1.11159 35.6081 0.806641 32.9033C0.500562 30.1883 0.5 26.7028 0.5 22C0.5 17.2972 0.500562 13.8117 0.806641 11.0967C1.11159 8.39192 1.7141 6.51326 2.87598 4.99902C3.48778 4.2017 4.2017 3.48778 4.99902 2.87598C6.51326 1.7141 8.39192 1.11159 11.0967 0.806641C13.8117 0.500562 17.2972 0.5 22 0.5Z" stroke="#CCDCFF"/>
<defs>
<clipPath id="clip0_5827_22394">
<path d="M0 22C0 12.6177 0 7.92655 2.47976 4.69486C3.11817 3.86288 3.86288 3.11817 4.69486 2.47976C7.92655 0 12.6177 0 22 0C31.3823 0 36.0735 0 39.3051 2.47976C40.1371 3.11817 40.8818 3.86288 41.5202 4.69486C44 7.92655 44 12.6177 44 22C44 31.3823 44 36.0735 41.5202 39.3051C40.8818 40.1371 40.1371 40.8818 39.3051 41.5202C36.0735 44 31.3823 44 22 44C12.6177 44 7.92655 44 4.69486 41.5202C3.86288 40.8818 3.11817 40.1371 2.47976 39.3051C0 36.0735 0 31.3823 0 22Z" fill="white"/>
</clipPath>
</defs>
</svg>
