<svg width="16" height="16" viewBox="0 0 16 16" fill="none" xmlns="http://www.w3.org/2000/svg">
<path d="M3.51572 1.50732H12.4208C12.7189 1.50732 12.9605 1.74896 12.9605 2.04703V14.4602C12.9605 14.7582 12.7189 14.9999 12.4208 14.9999H3.51572V1.50732Z" fill="#79ECFF"/>
<path fill-rule="evenodd" clip-rule="evenodd" d="M12.3871 14.9999H13.399C13.6971 14.9999 13.9387 14.7582 13.9387 14.4602V2.04703C13.9387 1.74896 13.6971 1.50732 13.399 1.50732H12.3871C12.6851 1.50732 12.9268 1.74896 12.9268 2.04703V14.4602C12.9268 14.7582 12.6851 14.9999 12.3871 14.9999Z" fill="#20DFFF"/>
<path d="M3.51572 1.50732H13.5002C13.7983 1.50732 14.0399 1.74896 14.0399 2.04703V14.4602C14.0399 14.7582 13.7983 14.9999 13.5002 14.9999H3.51572V1.50732Z" stroke="#002066" stroke-width="0.364664"/>
<path d="M1.62674 1.89841C1.62674 1.68242 1.80184 1.50732 2.01783 1.50732H3.78555V14.9999H2.01783C1.80184 14.9999 1.62674 14.8248 1.62674 14.6088V1.89841Z" fill="#00FFAF" stroke="#002066" stroke-width="0.364664"/>
<path d="M6.12424 4.83154H10.9816" stroke="#002066" stroke-width="0.364664" stroke-linecap="round"/>
<path d="M6.12424 6.18115H10.9816" stroke="#002066" stroke-width="0.364664" stroke-linecap="round"/>
</svg>
