<svg width="285" height="161" viewBox="0 0 285 161" fill="none" xmlns="http://www.w3.org/2000/svg">
<g clip-path="url(#clip0_5418_6450)">
<rect width="285" height="160.312" fill="#D2F9FF"/>
<path d="M199.286 53.7703C199.918 58.724 202.12 63.3014 205.389 67.084C207.761 69.8279 209.197 73.3882 209.108 77.0168C209.022 80.4104 207.607 83.6758 205.381 86.2316C202.085 90.0056 200.085 94.7498 199.547 99.7333C199.329 101.746 198.687 103.768 197.76 105.52C193.576 113.41 184.455 118.095 175.612 117.774C170.402 117.586 165.265 119.026 160.901 121.877C156.024 125.061 150.233 126.865 144.403 126.873C139.364 126.882 134.355 125.553 129.931 123.146C124.375 120.125 117.917 119.078 111.796 120.655C108.984 121.377 106.061 121.604 103.18 121.215C96.8159 120.356 90.8237 116.317 88.1994 110.461C87.289 108.431 86.836 106.196 86.8275 103.969C86.8018 97.5236 84.1305 91.4246 79.7368 86.706C76.339 83.056 74.2703 78.1794 74.4969 73.2001C74.779 67.0882 78.4888 61.4508 83.6305 58.2025C88.3234 55.2363 91.8323 50.7358 93.7343 45.5172C95.9611 39.4139 101.393 34.2466 107.787 32.5327C113.532 30.9897 119.614 31.8446 125.063 34.3021C131.696 37.2939 139.304 37.5504 145.903 34.4816C150.481 32.3574 155.362 31.071 160.384 31.165C166.059 31.2718 171.838 33.567 175.924 37.4051C179.771 41.0209 184.69 43.3673 189.917 44.0982C192.601 44.4743 195.153 45.7437 196.875 47.8508C198.264 49.5476 199.017 51.6632 199.286 53.7703Z" fill="#A6F2FF"/>
<path d="M104.778 55.0823C128.927 50.5604 153.793 49.9065 178.155 53.2402C180.984 53.6249 183.203 55.8474 183.634 58.6683C185.412 70.2381 186.421 82.0344 184.528 93.4503C184.027 96.4593 181.467 98.7074 178.42 98.8185C173.124 99.0151 167.799 98.6775 162.512 97.6774C161.64 97.5107 160.747 97.5107 159.883 97.6987C150.562 99.7203 141.274 102.011 131.807 103.157C123.131 104.204 114.215 104.264 105.731 101.96C103.475 101.349 101.731 99.5537 101.158 97.2841C98.1151 85.2356 97.5253 72.576 99.6281 60.3052C100.081 57.6596 102.146 55.5781 104.783 55.0823H104.778Z" fill="#DBF7FF" stroke="black" stroke-width="0.912" stroke-linecap="round" stroke-linejoin="round"/>
<path d="M119.002 98.3184C119.746 99.5151 126.973 101.678 127.828 101.622C127.892 101.823 123.81 116.833 123.81 116.833C127.554 112.487 145.433 98.8141 145.433 98.8141C145.351 99.1561 153.703 130.053 153.703 130.053L116.587 137.494C114.36 137.327 112.211 136.165 110.898 134.357C109.364 132.246 108.595 128.933 109.591 126.518C109.591 126.518 112.924 111.187 119.002 98.3184Z" fill="#9CCDD5" stroke="black" stroke-width="0.912" stroke-miterlimit="10"/>
<path d="M124.875 101.387C124.02 101.442 123.148 101.323 122.341 101.032C121.011 100.558 119.746 99.5149 119.003 98.3181C118.998 98.3096 118.981 98.331 118.951 98.3823C118.584 96.9419 118.537 95.4203 118.951 94.0142C119.601 91.8259 119.99 90.4026 120.858 88.4366C121.285 87.4706 121.806 86.2696 122.499 85.3037C122.165 91.2788 123.55 97.1855 124.875 101.387Z" fill="#FFBA8C" stroke="black" stroke-width="0.912" stroke-linecap="round" stroke-linejoin="round"/>
<path d="M122.832 98.8144C123.512 97.0407 123.379 94.9763 122.478 93.3052" stroke="black" stroke-width="0.912" stroke-linecap="round" stroke-linejoin="round"/>
<path d="M139.112 87.4538C138.505 87.0777 137.808 87.2059 137.252 88.1248C136.004 90.1935 137.103 92.7323 134.368 93.6554C133.654 91.7706 132.812 89.796 132.239 88.0778C131.406 85.569 130.871 83.7482 129.546 80.4572C128.961 79.9785 127.807 80.453 127.555 81C127.538 81.0385 127.525 81.1026 127.521 81.1838C126.153 80.5128 125.584 81.6924 125.49 82.0472C125.486 82.0643 125.486 82.0856 125.486 82.1113C125.191 81.9702 124.811 82.0002 124.524 82.1711C124.157 82.3976 123.875 82.7994 123.836 83.2311C123.828 83.3251 123.823 83.432 123.815 83.5516C123.588 83.5431 123.366 83.5901 123.17 83.6969C122.84 83.8807 122.605 84.2184 122.546 84.5902C122.528 84.8296 122.511 85.0689 122.499 85.304C122.165 91.2791 123.55 97.1858 124.875 101.387C124.982 101.729 125.089 102.058 125.195 102.374L124.447 104.499L124.43 104.541L123.811 106.298L133.5 107.14L133.662 105.995L133.987 103.657C136.116 102.473 138.103 100.126 138.436 99.0835C139.851 94.6727 139.539 87.7145 139.112 87.4538Z" fill="#FFBA8C" stroke="black" stroke-width="0.912" stroke-linecap="round" stroke-linejoin="round"/>
<path d="M124.384 91.3602C123.858 86.9494 123.755 84.2653 123.841 83.231" stroke="black" stroke-width="0.912" stroke-linecap="round" stroke-linejoin="round"/>
<path d="M128.828 89.5481C128.32 86.4622 127.302 81.5556 127.555 81" stroke="black" stroke-width="0.912" stroke-linecap="round" stroke-linejoin="round"/>
<path d="M126.281 90.5052C125.802 87.2227 125.392 82.4102 125.49 82.0469" stroke="black" stroke-width="0.912" stroke-linecap="round" stroke-linejoin="round"/>
<path d="M124.384 91.3602C123.858 86.9494 123.755 84.2653 123.841 83.231" stroke="black" stroke-width="0.912" stroke-linecap="round" stroke-linejoin="round"/>
<path d="M126.281 90.5052C125.802 87.2227 125.392 82.4102 125.49 82.0469" stroke="black" stroke-width="0.912" stroke-linecap="round" stroke-linejoin="round"/>
<path d="M159.089 85.5476C159.478 84.15 160.153 81.5557 160.392 78.5468C160.956 71.4348 159.093 62.0148 145.283 60.6386C137.983 59.912 131.893 62.8055 129.329 67.554C128.786 68.5584 128.401 69.6482 128.196 70.8065C128.123 71.2339 128.072 71.6698 128.046 72.1143C127.914 74.5762 128.572 77.0081 129.23 79.3845L129.277 79.6751C125.033 86.1204 125.674 87.8684 125.849 88.1121C126.025 88.3557 126.294 88.5181 126.559 88.6549C127.593 89.1806 128.747 89.4285 129.884 89.6721C130.833 93.2409 132.705 96.9807 134.086 98.3569C134.987 99.2587 139.556 98.4467 143.685 96.0959H143.728C143.741 96.2242 145.01 100.19 145.429 101.622H145.433C148.818 98.233 153.84 93.9504 160.409 92.2664C159.901 91.4287 159.499 90.5953 159.234 89.7362C158.828 88.4369 158.742 87.0777 159.089 85.5476Z" fill="#FFBA8C" stroke="black" stroke-width="0.912" stroke-linecap="round" stroke-linejoin="round"/>
<path d="M161.067 86.9536C162.016 87.428 163.157 87.5007 164.179 87.0476C162.939 86.3766 160.961 84.1926 161.055 82.6368C161.149 81.1623 161.243 79.8245 161.324 78.6064C161.815 71.4175 161.926 68.2932 159.106 65.468C156.186 62.5531 151.066 60.9931 149.28 54.8257C148.408 55.8215 147.98 57.1935 148.014 58.7963C146.762 57.2918 144.959 56.2575 143.031 55.9369C141.356 55.6591 139.642 55.9027 137.975 56.2147C136.304 56.5225 134.632 56.8986 132.936 56.8815C131.239 56.8687 129.478 56.4156 128.115 55.1975C128.478 57.0866 129.888 58.7322 131.756 59.416C128.901 59.4117 126.059 58.4543 123.755 56.7575C123.447 59.5827 124.849 62.5232 127.405 64.2756C125.691 64.5491 123.879 64.1901 122.289 63.2754C122.362 65.062 123.041 66.8143 124.182 68.1863C125.221 69.4343 126.64 70.3532 128.196 70.8063C128.401 69.648 128.786 68.5582 129.328 67.5538H129.337C132.389 66.1476 136.06 66.1561 139.107 67.5751C139.043 69.9985 139.607 72.4518 140.685 74.6529C141.155 75.6231 141.74 76.5591 142.548 77.2729C143.356 77.9867 144.416 78.4611 145.493 78.4055C146.1 80.9486 147.865 83.03 149.81 84.7354C150.16 85.0431 150.519 85.3423 150.887 85.6244C151.417 87.4494 151.087 89.5137 149.891 91.1122C151.686 90.7105 153.25 89.3941 153.972 87.7058C154.678 88.1033 155.409 88.4581 156.157 88.7701C157.152 89.1804 158.182 89.5052 159.234 89.736C160.64 90.0394 162.085 90.1677 163.525 90.0865V89.9882C162.345 89.3 161.405 88.2144 161.067 86.9536Z" fill="#B3795A" stroke="black" stroke-width="0.912" stroke-linecap="round" stroke-linejoin="round"/>
<path d="M143.719 78.8285C143.826 77.713 144.215 76.5975 144.963 75.7641C145.711 74.9306 146.848 74.4092 147.959 74.5545C149.284 74.7297 150.374 75.8367 150.741 77.1232C151.109 78.4097 150.84 79.8116 150.224 80.9998C149.609 82.1879 148.681 83.1795 147.694 84.0771" fill="#FFBA8C"/>
<path d="M143.719 78.8285C143.826 77.713 144.215 76.5975 144.963 75.7641C145.711 74.9306 146.848 74.4092 147.959 74.5545C149.284 74.7297 150.374 75.8367 150.741 77.1232C151.109 78.4097 150.84 79.8116 150.224 80.9998C149.609 82.1879 148.681 83.1795 147.694 84.0771" stroke="black" stroke-width="0.912" stroke-linecap="round" stroke-linejoin="round"/>
<path d="M130.734 79.1022C131.063 79.8844 131.79 80.4827 132.623 80.6494C133.457 80.8161 134.359 80.5511 134.966 79.9613C135.573 79.3715 135.863 78.4697 135.714 77.6362" stroke="black" stroke-width="0.912" stroke-linecap="round" stroke-linejoin="round"/>
<path d="M132.56 91.0573C133.987 90.6085 135.175 89.4588 135.667 88.0483" stroke="black" stroke-width="0.912" stroke-linecap="round" stroke-linejoin="round"/>
<path d="M130.081 72.5376C131.055 72.8368 132.102 72.8923 133.107 72.7043" stroke="black" stroke-width="0.912" stroke-linecap="round" stroke-linejoin="round"/>
<path d="M144.54 102.524C150.198 98.6434 156.503 96.4509 163.367 96.3013" stroke="black" stroke-width="0.912" stroke-linecap="round" stroke-linejoin="round"/>
<path d="M133.615 116.06C137.338 110.589 140.83 106.221 145.433 101.618C148.818 98.2332 153.84 93.9506 160.409 92.2666C161.093 93.3437 162.149 94.7712 163.089 95.9465C167.688 101.704 171.248 105.935 173.885 113.363C176.993 122.125 176.074 132.207 174.911 144.478H139.877C139.877 144.478 140.292 141.871 140.313 141.82C138.539 141.234 137.569 140.871 136.496 139.362C132.295 143.136 128.782 144.346 125.961 144.79C122.862 145.277 119.003 143.687 117.566 140.897C117.049 139.888 116.733 138.713 116.588 137.494C116.4 135.896 116.507 134.229 116.844 132.78C118.78 124.548 123.811 106.298 123.811 106.298L133.5 107.14L133.615 116.06Z" fill="#CEF4FA" stroke="black" stroke-width="0.912" stroke-linecap="round" stroke-linejoin="round"/>
<path d="M127.008 129.31C129.004 124.014 130.739 120.941 133.615 116.06Z" fill="#FFE787"/>
<path d="M127.008 129.31C129.004 124.014 130.739 120.941 133.615 116.06" stroke="black" stroke-width="0.912" stroke-miterlimit="10" stroke-linecap="round"/>
<path d="M163.52 89.9882C162.345 89.3 161.405 88.2144 161.063 86.9536C162.012 87.428 163.153 87.4964 164.174 87.0433C162.935 86.3723 160.956 84.1883 161.05 82.6368C161.683 72.4903 162.401 68.7676 159.097 65.468C156.182 62.5531 151.062 60.9931 149.271 54.8257C148.399 55.8215 147.971 57.1935 148.006 58.7963C146.753 57.2918 144.954 56.2575 143.022 55.9369C141.347 55.6591 139.633 55.9027 137.966 56.2147C136.299 56.5267 134.624 56.8986 132.927 56.8858C131.23 56.8729 129.469 56.4156 128.106 55.2018C128.469 57.0866 129.88 58.7364 131.743 59.4203C128.888 59.4203 126.046 58.4543 123.746 56.7618C123.439 59.587 124.84 62.5318 127.396 64.2798C125.678 64.5534 123.87 64.1944 122.28 63.2797C122.353 65.0663 123.028 66.8186 124.174 68.1949" stroke="black" stroke-width="0.912" stroke-linecap="round" stroke-linejoin="round"/>
<path d="M150.758 85.2271C151.463 87.1461 151.173 89.3985 149.891 91.1124C151.835 90.6764 153.506 89.1677 154.139 87.2786" stroke="black" stroke-width="0.912" stroke-linecap="round" stroke-linejoin="round"/>
<path d="M164.286 81.1625C161.79 75.9995 161.272 69.9047 162.862 64.3955" stroke="black" stroke-width="0.912" stroke-linecap="round" stroke-linejoin="round"/>
<path d="M117.511 88.9239C118.699 85.0174 118.588 80.7305 117.199 76.8882" stroke="black" stroke-width="0.912" stroke-linecap="round" stroke-linejoin="round"/>
<path d="M125.922 81.4489C125.118 79.8804 124.229 78.3545 123.255 76.8843" stroke="black" stroke-width="0.912" stroke-linecap="round" stroke-linejoin="round"/>
<path d="M104.569 100.032L105.261 99.9897" stroke="black" stroke-width="0.912" stroke-linecap="round" stroke-linejoin="round"/>
<path d="M103.184 98.2416L103.205 97.2842" stroke="black" stroke-width="0.912" stroke-linecap="round" stroke-linejoin="round"/>
<path d="M177.526 93.8134C179.463 92.8304 180.997 91.0823 181.711 89.0308" stroke="black" stroke-width="0.912" stroke-linecap="round" stroke-linejoin="round"/>
<path d="M81.6558 128.864C101.853 128.229 121.865 124.975 141.981 123.068C162.097 121.161 182.631 120.635 202.273 125.378V183.92H81.6558V128.86V128.864Z" fill="#F2F2F2" stroke="black" stroke-width="0.912" stroke-linecap="round" stroke-linejoin="round"/>
<path d="M191.482 148.824C191.022 153.345 189.779 157.784 187.82 161.883" stroke="black" stroke-width="0.912" stroke-linecap="round" stroke-linejoin="round"/>
<path d="M96.0373 135.235C95.1408 140.002 95.5772 145.016 97.2801 149.555" stroke="black" stroke-width="0.912" stroke-linecap="round" stroke-linejoin="round"/>
<path d="M90.2412 145.191C90.3171 147.781 90.7013 150.366 91.3843 152.866" stroke="black" stroke-width="0.912" stroke-linecap="round" stroke-linejoin="round"/>
<path d="M138.376 162.94C149.006 154.056 158.094 143.336 165.123 131.397" stroke="black" stroke-width="0.912" stroke-linecap="round" stroke-linejoin="round"/>
</g>
<defs>
<clipPath id="clip0_5418_6450">
<rect width="285" height="160.312" fill="white"/>
</clipPath>
</defs>
</svg>
