<svg width="25" height="12" viewBox="0 0 25 12" fill="none" xmlns="http://www.w3.org/2000/svg">
<path opacity="0.35" d="M2.66699 0.5H19.333C20.5296 0.5 21.5 1.47038 21.5 2.66699V8.66699C21.4998 9.86346 20.5295 10.833 19.333 10.833H2.66699C1.47048 10.833 0.500176 9.86346 0.5 8.66699V2.66699L0.510742 2.44531C0.621596 1.35265 1.54509 0.5 2.66699 0.5Z" stroke="#001033"/>
<path opacity="0.4" d="M23 3.6665V7.6665C23.8047 7.32773 24.328 6.53964 24.328 5.6665C24.328 4.79337 23.8047 4.00528 23 3.6665Z" fill="#001033"/>
<path d="M2 3.33333C2 2.59695 2.59695 2 3.33333 2H18.6667C19.403 2 20 2.59695 20 3.33333V8C20 8.73638 19.403 9.33333 18.6667 9.33333H3.33333C2.59695 9.33333 2 8.73638 2 8V3.33333Z" fill="#001033"/>
</svg>
