<svg width="41" height="41" viewBox="0 0 41 41" fill="none" xmlns="http://www.w3.org/2000/svg">
<circle cx="19.9506" cy="5.66933" r="3.98964" fill="#FFCF20" stroke="#002066" stroke-width="1.33333"/>
<circle cx="19.9504" cy="5.66917" r="2.30979" fill="#F2FAFF" stroke="#002066" stroke-width="1.33333"/>
<rect width="2.91561" height="8.22873" rx="1.45781" transform="matrix(1 0 0 -1 18.4766 13.8516)" fill="#009FFF" stroke="#002066" stroke-width="1.33333"/>
<circle cx="20.1151" cy="22.3026" r="12.9745" fill="#66C5FF"/>
<circle cx="20.1151" cy="22.3026" r="12.9745" stroke="#002066" stroke-width="1.33333"/>
<circle cx="20.1162" cy="22.3017" r="9.51462" fill="#F2FAFF"/>
<circle cx="20.1162" cy="22.3017" r="9.51462" stroke="#002066" stroke-width="1.33333"/>
<circle cx="20.1162" cy="22.3017" r="9.51462" stroke="#002066" stroke-width="1.33333"/>
<path d="M24.6833 17.5965L18.669 21.204L21.1936 23.7286L24.7885 17.7017C24.7942 17.6726 24.7849 17.6424 24.7638 17.6212C24.7426 17.6001 24.7124 17.5908 24.6833 17.5965Z" fill="#FF33E5" stroke="#002066" stroke-width="1.33333" stroke-linejoin="round"/>
<path d="M15.1995 27.3176L21.2138 23.7101L18.6892 21.1855L15.0943 27.2124C15.0886 27.2415 15.0979 27.2717 15.119 27.2929C15.1402 27.314 15.1704 27.3233 15.1995 27.3176Z" fill="#FFCF20" stroke="#002066" stroke-width="1.33333" stroke-linejoin="round"/>
<circle cx="20.1178" cy="22.3033" r="1.29745" fill="#F2FAFF" stroke="#002066" stroke-width="1.33333"/>
</svg>
